<?xml version="1.0" encoding="utf-8" standalone="no"?>
<!DOCTYPE svg PUBLIC "-//W3C//DTD SVG 1.1//EN"
  "http://www.w3.org/Graphics/SVG/1.1/DTD/svg11.dtd">
<svg xmlns:xlink="http://www.w3.org/1999/xlink" width="576pt" height="432pt" viewBox="0 0 576 432" xmlns="http://www.w3.org/2000/svg" version="1.1">
 <metadata>
  <rdf:RDF xmlns:dc="http://purl.org/dc/elements/1.1/" xmlns:cc="http://creativecommons.org/ns#" xmlns:rdf="http://www.w3.org/1999/02/22-rdf-syntax-ns#">
   <cc:Work>
    <dc:type rdf:resource="http://purl.org/dc/dcmitype/StillImage"/>
    <dc:date>2026-02-01T01:34:01.065438</dc:date>
    <dc:format>image/svg+xml</dc:format>
    <dc:creator>
     <cc:Agent>
      <dc:title>Matplotlib v3.8.4, https://matplotlib.org/</dc:title>
     </cc:Agent>
    </dc:creator>
   </cc:Work>
  </rdf:RDF>
 </metadata>
 <defs>
  <style type="text/css">*{stroke-linejoin: round; stroke-linecap: butt}</style>
 </defs>
 <g id="figure_1">
  <g id="patch_1">
   <path d="M 0 432 
L 576 432 
L 576 0 
L 0 0 
z
" style="fill: #ffffff"/>
  </g>
  <g id="axes_1">
   <g id="patch_2">
    <path d="M 72 384.48 
L 518.4 384.48 
L 518.4 51.84 
L 72 51.84 
z
" style="fill: #ffffff"/>
   </g>
   <g id="PathCollection_1">
    <defs>
     <path id="me7d457586b" d="M 0 3 
C 0.795609 3 1.55874 2.683901 2.12132 2.12132 
C 2.683901 1.55874 3 0.795609 3 0 
C 3 -0.795609 2.683901 -1.55874 2.12132 -2.12132 
C 1.55874 -2.683901 0.795609 -3 0 -3 
C -0.795609 -3 -1.55874 -2.683901 -2.12132 -2.12132 
C -2.683901 -1.55874 -3 -0.795609 -3 0 
C -3 0.795609 -2.683901 1.55874 -2.12132 2.12132 
C -1.55874 2.683901 -0.795609 3 0 3 
z
" style="stroke: #ff0000"/>
    </defs>
    <g clip-path="url(#p09ad01066e)">
     <use xlink:href="#me7d457586b" x="228.615081" y="322.128959" style="fill: #ff0000; stroke: #ff0000"/>
     <use xlink:href="#me7d457586b" x="234.121117" y="279.699685" style="fill: #ff0000; stroke: #ff0000"/>
     <use xlink:href="#me7d457586b" x="201.960345" y="324.577536" style="fill: #ff0000; stroke: #ff0000"/>
     <use xlink:href="#me7d457586b" x="268.093804" y="298.997503" style="fill: #ff0000; stroke: #ff0000"/>
     <use xlink:href="#me7d457586b" x="193.378189" y="304.740778" style="fill: #ff0000; stroke: #ff0000"/>
     <use xlink:href="#me7d457586b" x="193.599076" y="330.492391" style="fill: #ff0000; stroke: #ff0000"/>
     <use xlink:href="#me7d457586b" x="219.324281" y="367.462675" style="fill: #ff0000; stroke: #ff0000"/>
     <use xlink:href="#me7d457586b" x="147.59217" y="332.958467" style="fill: #ff0000; stroke: #ff0000"/>
     <use xlink:href="#me7d457586b" x="173.56197" y="310.57186" style="fill: #ff0000; stroke: #ff0000"/>
     <use xlink:href="#me7d457586b" x="177.384283" y="354.667788" style="fill: #ff0000; stroke: #ff0000"/>
     <use xlink:href="#me7d457586b" x="263.952124" y="324.364006" style="fill: #ff0000; stroke: #ff0000"/>
     <use xlink:href="#me7d457586b" x="212.962671" y="354.985619" style="fill: #ff0000; stroke: #ff0000"/>
     <use xlink:href="#me7d457586b" x="190.646282" y="315.764752" style="fill: #ff0000; stroke: #ff0000"/>
     <use xlink:href="#me7d457586b" x="168.523186" y="309.002416" style="fill: #ff0000; stroke: #ff0000"/>
     <use xlink:href="#me7d457586b" x="188.594627" y="326.047531" style="fill: #ff0000; stroke: #ff0000"/>
     <use xlink:href="#me7d457586b" x="188.55568" y="271.290718" style="fill: #ff0000; stroke: #ff0000"/>
     <use xlink:href="#me7d457586b" x="210.007674" y="345.611527" style="fill: #ff0000; stroke: #ff0000"/>
     <use xlink:href="#me7d457586b" x="240.498128" y="349.777919" style="fill: #ff0000; stroke: #ff0000"/>
     <use xlink:href="#me7d457586b" x="218.117173" y="368.647468" style="fill: #ff0000; stroke: #ff0000"/>
     <use xlink:href="#me7d457586b" x="162.060977" y="313.569889" style="fill: #ff0000; stroke: #ff0000"/>
     <use xlink:href="#me7d457586b" x="237.431792" y="314.220976" style="fill: #ff0000; stroke: #ff0000"/>
     <use xlink:href="#me7d457586b" x="206.282225" y="326.28786" style="fill: #ff0000; stroke: #ff0000"/>
     <use xlink:href="#me7d457586b" x="156.578226" y="336.982447" style="fill: #ff0000; stroke: #ff0000"/>
     <use xlink:href="#me7d457586b" x="193.700424" y="291.598915" style="fill: #ff0000; stroke: #ff0000"/>
     <use xlink:href="#me7d457586b" x="223.031676" y="363.62556" style="fill: #ff0000; stroke: #ff0000"/>
     <use xlink:href="#me7d457586b" x="222.319259" y="328.432664" style="fill: #ff0000; stroke: #ff0000"/>
     <use xlink:href="#me7d457586b" x="185.812575" y="302.975557" style="fill: #ff0000; stroke: #ff0000"/>
     <use xlink:href="#me7d457586b" x="248.100467" y="294.812909" style="fill: #ff0000; stroke: #ff0000"/>
     <use xlink:href="#me7d457586b" x="179.893658" y="326.494954" style="fill: #ff0000; stroke: #ff0000"/>
     <use xlink:href="#me7d457586b" x="222.581094" y="293.682386" style="fill: #ff0000; stroke: #ff0000"/>
     <use xlink:href="#me7d457586b" x="193.024435" y="323.339414" style="fill: #ff0000; stroke: #ff0000"/>
     <use xlink:href="#me7d457586b" x="170.151885" y="349.148692" style="fill: #ff0000; stroke: #ff0000"/>
     <use xlink:href="#me7d457586b" x="240.132732" y="283.959479" style="fill: #ff0000; stroke: #ff0000"/>
     <use xlink:href="#me7d457586b" x="207.873709" y="292.967581" style="fill: #ff0000; stroke: #ff0000"/>
     <use xlink:href="#me7d457586b" x="223.688783" y="335.073993" style="fill: #ff0000; stroke: #ff0000"/>
     <use xlink:href="#me7d457586b" x="223.680014" y="279.316415" style="fill: #ff0000; stroke: #ff0000"/>
     <use xlink:href="#me7d457586b" x="209.193342" y="278.636873" style="fill: #ff0000; stroke: #ff0000"/>
     <use xlink:href="#me7d457586b" x="114.957823" y="297.606402" style="fill: #ff0000; stroke: #ff0000"/>
     <use xlink:href="#me7d457586b" x="213.674524" y="326.234319" style="fill: #ff0000; stroke: #ff0000"/>
     <use xlink:href="#me7d457586b" x="213.846433" y="369.36" style="fill: #ff0000; stroke: #ff0000"/>
     <use xlink:href="#me7d457586b" x="202.488485" y="309.477087" style="fill: #ff0000; stroke: #ff0000"/>
     <use xlink:href="#me7d457586b" x="264.398709" y="331.834269" style="fill: #ff0000; stroke: #ff0000"/>
     <use xlink:href="#me7d457586b" x="181.014159" y="331.412524" style="fill: #ff0000; stroke: #ff0000"/>
     <use xlink:href="#me7d457586b" x="243.88463" y="310.201435" style="fill: #ff0000; stroke: #ff0000"/>
     <use xlink:href="#me7d457586b" x="191.179565" y="305.488908" style="fill: #ff0000; stroke: #ff0000"/>
     <use xlink:href="#me7d457586b" x="214.040336" y="293.858615" style="fill: #ff0000; stroke: #ff0000"/>
     <use xlink:href="#me7d457586b" x="184.896044" y="326.96616" style="fill: #ff0000; stroke: #ff0000"/>
     <use xlink:href="#me7d457586b" x="196.199735" y="355.975718" style="fill: #ff0000; stroke: #ff0000"/>
     <use xlink:href="#me7d457586b" x="221.299423" y="311.93038" style="fill: #ff0000; stroke: #ff0000"/>
     <use xlink:href="#me7d457586b" x="210.686406" y="324.589034" style="fill: #ff0000; stroke: #ff0000"/>
    </g>
   </g>
   <g id="PathCollection_2">
    <defs>
     <path id="mb7d3aa93b5" d="M 0 3 
C 0.795609 3 1.55874 2.683901 2.12132 2.12132 
C 2.683901 1.55874 3 0.795609 3 0 
C 3 -0.795609 2.683901 -1.55874 2.12132 -2.12132 
C 1.55874 -2.683901 0.795609 -3 0 -3 
C -0.795609 -3 -1.55874 -2.683901 -2.12132 -2.12132 
C -2.683901 -1.55874 -3 -0.795609 -3 0 
C -3 0.795609 -2.683901 1.55874 -2.12132 2.12132 
C -1.55874 2.683901 -0.795609 3 0 3 
z
" style="stroke: #008000"/>
    </defs>
    <g clip-path="url(#p09ad01066e)">
     <use xlink:href="#mb7d3aa93b5" x="377.701331" y="176.101585" style="fill: #008000; stroke: #008000"/>
     <use xlink:href="#mb7d3aa93b5" x="416.8211" y="185.848424" style="fill: #008000; stroke: #008000"/>
     <use xlink:href="#mb7d3aa93b5" x="423.437808" y="155.038933" style="fill: #008000; stroke: #008000"/>
     <use xlink:href="#mb7d3aa93b5" x="498.109091" y="160.89965" style="fill: #008000; stroke: #008000"/>
     <use xlink:href="#mb7d3aa93b5" x="438.712759" y="167.259689" style="fill: #008000; stroke: #008000"/>
     <use xlink:href="#mb7d3aa93b5" x="359.342318" y="166.03551" style="fill: #008000; stroke: #008000"/>
     <use xlink:href="#mb7d3aa93b5" x="431.516493" y="102.447409" style="fill: #008000; stroke: #008000"/>
     <use xlink:href="#mb7d3aa93b5" x="422.304494" y="157.656862" style="fill: #008000; stroke: #008000"/>
     <use xlink:href="#mb7d3aa93b5" x="428.053959" y="195.20626" style="fill: #008000; stroke: #008000"/>
     <use xlink:href="#mb7d3aa93b5" x="470.998642" y="146.154059" style="fill: #008000; stroke: #008000"/>
     <use xlink:href="#mb7d3aa93b5" x="458.16883" y="188.584006" style="fill: #008000; stroke: #008000"/>
     <use xlink:href="#mb7d3aa93b5" x="480.479801" y="201.161474" style="fill: #008000; stroke: #008000"/>
     <use xlink:href="#mb7d3aa93b5" x="450.722574" y="109.414347" style="fill: #008000; stroke: #008000"/>
     <use xlink:href="#mb7d3aa93b5" x="393.195041" y="179.821531" style="fill: #008000; stroke: #008000"/>
     <use xlink:href="#mb7d3aa93b5" x="432.954182" y="178.217062" style="fill: #008000; stroke: #008000"/>
     <use xlink:href="#mb7d3aa93b5" x="372.767207" y="163.607257" style="fill: #008000; stroke: #008000"/>
     <use xlink:href="#mb7d3aa93b5" x="390.577685" y="153.262848" style="fill: #008000; stroke: #008000"/>
     <use xlink:href="#mb7d3aa93b5" x="395.788499" y="125.77319" style="fill: #008000; stroke: #008000"/>
     <use xlink:href="#mb7d3aa93b5" x="400.754653" y="173.583765" style="fill: #008000; stroke: #008000"/>
     <use xlink:href="#mb7d3aa93b5" x="458.988868" y="196.794491" style="fill: #008000; stroke: #008000"/>
     <use xlink:href="#mb7d3aa93b5" x="437.615361" y="131.974063" style="fill: #008000; stroke: #008000"/>
     <use xlink:href="#mb7d3aa93b5" x="370.694989" y="160.642819" style="fill: #008000; stroke: #008000"/>
     <use xlink:href="#mb7d3aa93b5" x="438.797822" y="145.390676" style="fill: #008000; stroke: #008000"/>
     <use xlink:href="#mb7d3aa93b5" x="384.208309" y="199.082668" style="fill: #008000; stroke: #008000"/>
     <use xlink:href="#mb7d3aa93b5" x="448.355105" y="157.773392" style="fill: #008000; stroke: #008000"/>
     <use xlink:href="#mb7d3aa93b5" x="438.455371" y="156.510098" style="fill: #008000; stroke: #008000"/>
     <use xlink:href="#mb7d3aa93b5" x="404.519398" y="159.426614" style="fill: #008000; stroke: #008000"/>
     <use xlink:href="#mb7d3aa93b5" x="440.00825" y="183.602807" style="fill: #008000; stroke: #008000"/>
     <use xlink:href="#mb7d3aa93b5" x="497.364688" y="153.256706" style="fill: #008000; stroke: #008000"/>
     <use xlink:href="#mb7d3aa93b5" x="385.873063" y="148.59004" style="fill: #008000; stroke: #008000"/>
     <use xlink:href="#mb7d3aa93b5" x="393.77326" y="145.256292" style="fill: #008000; stroke: #008000"/>
     <use xlink:href="#mb7d3aa93b5" x="471.573874" y="186.318486" style="fill: #008000; stroke: #008000"/>
     <use xlink:href="#mb7d3aa93b5" x="464.454222" y="154.815968" style="fill: #008000; stroke: #008000"/>
     <use xlink:href="#mb7d3aa93b5" x="459.300429" y="116.914459" style="fill: #008000; stroke: #008000"/>
     <use xlink:href="#mb7d3aa93b5" x="420.370594" y="184.608689" style="fill: #008000; stroke: #008000"/>
     <use xlink:href="#mb7d3aa93b5" x="396.879309" y="186.194055" style="fill: #008000; stroke: #008000"/>
     <use xlink:href="#mb7d3aa93b5" x="426.507998" y="156.645363" style="fill: #008000; stroke: #008000"/>
     <use xlink:href="#mb7d3aa93b5" x="439.41081" y="144.232177" style="fill: #008000; stroke: #008000"/>
     <use xlink:href="#mb7d3aa93b5" x="429.794076" y="128.235244" style="fill: #008000; stroke: #008000"/>
     <use xlink:href="#mb7d3aa93b5" x="419.667864" y="95.88552" style="fill: #008000; stroke: #008000"/>
     <use xlink:href="#mb7d3aa93b5" x="452.137984" y="187.25006" style="fill: #008000; stroke: #008000"/>
     <use xlink:href="#mb7d3aa93b5" x="390.264452" y="153.036055" style="fill: #008000; stroke: #008000"/>
     <use xlink:href="#mb7d3aa93b5" x="421.17021" y="147.122852" style="fill: #008000; stroke: #008000"/>
     <use xlink:href="#mb7d3aa93b5" x="446.578872" y="167.218391" style="fill: #008000; stroke: #008000"/>
     <use xlink:href="#mb7d3aa93b5" x="398.437334" y="204.047384" style="fill: #008000; stroke: #008000"/>
     <use xlink:href="#mb7d3aa93b5" x="413.035499" y="143.486015" style="fill: #008000; stroke: #008000"/>
     <use xlink:href="#mb7d3aa93b5" x="437.127896" y="197.174383" style="fill: #008000; stroke: #008000"/>
     <use xlink:href="#mb7d3aa93b5" x="435.635805" y="155.517384" style="fill: #008000; stroke: #008000"/>
     <use xlink:href="#mb7d3aa93b5" x="397.08562" y="161.432226" style="fill: #008000; stroke: #008000"/>
     <use xlink:href="#mb7d3aa93b5" x="431.442769" y="194.549687" style="fill: #008000; stroke: #008000"/>
    </g>
   </g>
   <g id="PathCollection_3">
    <defs>
     <path id="m757446781e" d="M 0 3 
C 0.795609 3 1.55874 2.683901 2.12132 2.12132 
C 2.683901 1.55874 3 0.795609 3 0 
C 3 -0.795609 2.683901 -1.55874 2.12132 -2.12132 
C 1.55874 -2.683901 0.795609 -3 0 -3 
C -0.795609 -3 -1.55874 -2.683901 -2.12132 -2.12132 
C -2.683901 -1.55874 -3 -0.795609 -3 0 
C -3 0.795609 -2.683901 1.55874 -2.12132 2.12132 
C -1.55874 2.683901 -0.795609 3 0 3 
z
" style="stroke: #0000ff"/>
    </defs>
    <g clip-path="url(#p09ad01066e)">
     <use xlink:href="#m757446781e" x="223.548422" y="151.035972" style="fill: #0000ff; stroke: #0000ff"/>
     <use xlink:href="#m757446781e" x="249.998793" y="138.444357" style="fill: #0000ff; stroke: #0000ff"/>
     <use xlink:href="#m757446781e" x="160.256321" y="189.310299" style="fill: #0000ff; stroke: #0000ff"/>
     <use xlink:href="#m757446781e" x="229.283252" y="152.23631" style="fill: #0000ff; stroke: #0000ff"/>
     <use xlink:href="#m757446781e" x="229.283705" y="66.96" style="fill: #0000ff; stroke: #0000ff"/>
     <use xlink:href="#m757446781e" x="231.320293" y="136.356124" style="fill: #0000ff; stroke: #0000ff"/>
     <use xlink:href="#m757446781e" x="245.292359" y="148.721886" style="fill: #0000ff; stroke: #0000ff"/>
     <use xlink:href="#m757446781e" x="199.00205" y="145.974356" style="fill: #0000ff; stroke: #0000ff"/>
     <use xlink:href="#m757446781e" x="182.314985" y="171.40667" style="fill: #0000ff; stroke: #0000ff"/>
     <use xlink:href="#m757446781e" x="192.798711" y="163.267292" style="fill: #0000ff; stroke: #0000ff"/>
     <use xlink:href="#m757446781e" x="294.915508" y="213.048101" style="fill: #0000ff; stroke: #0000ff"/>
     <use xlink:href="#m757446781e" x="235.527825" y="206.546938" style="fill: #0000ff; stroke: #0000ff"/>
     <use xlink:href="#m757446781e" x="193.288564" y="137.546667" style="fill: #0000ff; stroke: #0000ff"/>
     <use xlink:href="#m757446781e" x="212.84421" y="192.883834" style="fill: #0000ff; stroke: #0000ff"/>
     <use xlink:href="#m757446781e" x="184.412794" y="148.001495" style="fill: #0000ff; stroke: #0000ff"/>
     <use xlink:href="#m757446781e" x="183.863449" y="159.830019" style="fill: #0000ff; stroke: #0000ff"/>
     <use xlink:href="#m757446781e" x="212.161923" y="182.000151" style="fill: #0000ff; stroke: #0000ff"/>
     <use xlink:href="#m757446781e" x="288.689552" y="149.168125" style="fill: #0000ff; stroke: #0000ff"/>
     <use xlink:href="#m757446781e" x="136.642975" y="160.596325" style="fill: #0000ff; stroke: #0000ff"/>
     <use xlink:href="#m757446781e" x="186.364568" y="143.587292" style="fill: #0000ff; stroke: #0000ff"/>
     <use xlink:href="#m757446781e" x="181.596689" y="168.288705" style="fill: #0000ff; stroke: #0000ff"/>
     <use xlink:href="#m757446781e" x="228.916802" y="143.247054" style="fill: #0000ff; stroke: #0000ff"/>
     <use xlink:href="#m757446781e" x="166.725112" y="173.901474" style="fill: #0000ff; stroke: #0000ff"/>
     <use xlink:href="#m757446781e" x="193.178664" y="182.044307" style="fill: #0000ff; stroke: #0000ff"/>
     <use xlink:href="#m757446781e" x="274.886028" y="155.015159" style="fill: #0000ff; stroke: #0000ff"/>
     <use xlink:href="#m757446781e" x="164.515484" y="141.916253" style="fill: #0000ff; stroke: #0000ff"/>
     <use xlink:href="#m757446781e" x="287.894947" y="138.989296" style="fill: #0000ff; stroke: #0000ff"/>
     <use xlink:href="#m757446781e" x="155.0885" y="177.725634" style="fill: #0000ff; stroke: #0000ff"/>
     <use xlink:href="#m757446781e" x="256.704163" y="183.43215" style="fill: #0000ff; stroke: #0000ff"/>
     <use xlink:href="#m757446781e" x="226.686011" y="145.574278" style="fill: #0000ff; stroke: #0000ff"/>
     <use xlink:href="#m757446781e" x="176.694767" y="166.878619" style="fill: #0000ff; stroke: #0000ff"/>
     <use xlink:href="#m757446781e" x="92.290909" y="191.521099" style="fill: #0000ff; stroke: #0000ff"/>
     <use xlink:href="#m757446781e" x="201.288758" y="197.226597" style="fill: #0000ff; stroke: #0000ff"/>
     <use xlink:href="#m757446781e" x="270.033953" y="201.884005" style="fill: #0000ff; stroke: #0000ff"/>
     <use xlink:href="#m757446781e" x="194.451497" y="162.019248" style="fill: #0000ff; stroke: #0000ff"/>
     <use xlink:href="#m757446781e" x="263.06315" y="202.030113" style="fill: #0000ff; stroke: #0000ff"/>
     <use xlink:href="#m757446781e" x="252.920496" y="165.096997" style="fill: #0000ff; stroke: #0000ff"/>
     <use xlink:href="#m757446781e" x="174.704301" y="153.556275" style="fill: #0000ff; stroke: #0000ff"/>
     <use xlink:href="#m757446781e" x="217.759624" y="180.687823" style="fill: #0000ff; stroke: #0000ff"/>
     <use xlink:href="#m757446781e" x="213.0456" y="175.199216" style="fill: #0000ff; stroke: #0000ff"/>
     <use xlink:href="#m757446781e" x="214.639895" y="148.447602" style="fill: #0000ff; stroke: #0000ff"/>
     <use xlink:href="#m757446781e" x="268.341946" y="196.972023" style="fill: #0000ff; stroke: #0000ff"/>
     <use xlink:href="#m757446781e" x="288.291638" y="215.214461" style="fill: #0000ff; stroke: #0000ff"/>
     <use xlink:href="#m757446781e" x="204.964316" y="150.33279" style="fill: #0000ff; stroke: #0000ff"/>
     <use xlink:href="#m757446781e" x="220.74769" y="181.262027" style="fill: #0000ff; stroke: #0000ff"/>
     <use xlink:href="#m757446781e" x="202.9097" y="177.949539" style="fill: #0000ff; stroke: #0000ff"/>
     <use xlink:href="#m757446781e" x="189.005787" y="143.659602" style="fill: #0000ff; stroke: #0000ff"/>
     <use xlink:href="#m757446781e" x="223.520272" y="183.055185" style="fill: #0000ff; stroke: #0000ff"/>
     <use xlink:href="#m757446781e" x="243.308322" y="157.509952" style="fill: #0000ff; stroke: #0000ff"/>
     <use xlink:href="#m757446781e" x="240.144997" y="149.277695" style="fill: #0000ff; stroke: #0000ff"/>
    </g>
   </g>
   <g id="PathCollection_4">
    <defs>
     <path id="mb44c78dd9d" d="M -3.535534 7.071068 
L 0 3.535534 
L 3.535534 7.071068 
L 7.071068 3.535534 
L 3.535534 0 
L 7.071068 -3.535534 
L 3.535534 -7.071068 
L 0 -3.535534 
L -3.535534 -7.071068 
L -7.071068 -3.535534 
L -3.535534 0 
L -7.071068 3.535534 
z
" style="stroke: #000000"/>
    </defs>
    <g clip-path="url(#p09ad01066e)">
     <use xlink:href="#mb44c78dd9d" x="210.499918" y="318.597704" style="stroke: #000000"/>
     <use xlink:href="#mb44c78dd9d" x="429.319898" y="165.358348" style="stroke: #000000"/>
     <use xlink:href="#mb44c78dd9d" x="210.499918" y="165.358348" style="stroke: #000000"/>
    </g>
   </g>
   <g id="matplotlib.axis_1">
    <g id="xtick_1">
     <g id="line2d_1">
      <path d="M 137.559925 384.48 
L 137.559925 51.84 
" clip-path="url(#p09ad01066e)" style="fill: none; stroke-dasharray: 2.96,1.28; stroke-dashoffset: 0; stroke: #b0b0b0; stroke-opacity: 0.5; stroke-width: 0.8"/>
     </g>
     <g id="line2d_2">
      <defs>
       <path id="mdcdb388ed2" d="M 0 0 
L 0 3.5 
" style="stroke: #000000; stroke-width: 0.8"/>
      </defs>
      <g>
       <use xlink:href="#mdcdb388ed2" x="137.559925" y="384.48" style="stroke: #000000; stroke-width: 0.8"/>
      </g>
     </g>
     <g id="text_1">
      <!-- 0 -->
      <g transform="translate(134.378675 399.078438) scale(0.1 -0.1)">
       <defs>
        <path id="DejaVuSans-30" d="M 2034 4250 
Q 1547 4250 1301 3770 
Q 1056 3291 1056 2328 
Q 1056 1369 1301 889 
Q 1547 409 2034 409 
Q 2525 409 2770 889 
Q 3016 1369 3016 2328 
Q 3016 3291 2770 3770 
Q 2525 4250 2034 4250 
z
M 2034 4750 
Q 2819 4750 3233 4129 
Q 3647 3509 3647 2328 
Q 3647 1150 3233 529 
Q 2819 -91 2034 -91 
Q 1250 -91 836 529 
Q 422 1150 422 2328 
Q 422 3509 836 4129 
Q 1250 4750 2034 4750 
z
" transform="scale(0.015625)"/>
       </defs>
       <use xlink:href="#DejaVuSans-30"/>
      </g>
     </g>
    </g>
    <g id="xtick_2">
     <g id="line2d_3">
      <path d="M 210.499918 384.48 
L 210.499918 51.84 
" clip-path="url(#p09ad01066e)" style="fill: none; stroke-dasharray: 2.96,1.28; stroke-dashoffset: 0; stroke: #b0b0b0; stroke-opacity: 0.5; stroke-width: 0.8"/>
     </g>
     <g id="line2d_4">
      <g>
       <use xlink:href="#mdcdb388ed2" x="210.499918" y="384.48" style="stroke: #000000; stroke-width: 0.8"/>
      </g>
     </g>
     <g id="text_2">
      <!-- 2 -->
      <g transform="translate(207.318668 399.078438) scale(0.1 -0.1)">
       <defs>
        <path id="DejaVuSans-32" d="M 1228 531 
L 3431 531 
L 3431 0 
L 469 0 
L 469 531 
Q 828 903 1448 1529 
Q 2069 2156 2228 2338 
Q 2531 2678 2651 2914 
Q 2772 3150 2772 3378 
Q 2772 3750 2511 3984 
Q 2250 4219 1831 4219 
Q 1534 4219 1204 4116 
Q 875 4013 500 3803 
L 500 4441 
Q 881 4594 1212 4672 
Q 1544 4750 1819 4750 
Q 2544 4750 2975 4387 
Q 3406 4025 3406 3419 
Q 3406 3131 3298 2873 
Q 3191 2616 2906 2266 
Q 2828 2175 2409 1742 
Q 1991 1309 1228 531 
z
" transform="scale(0.015625)"/>
       </defs>
       <use xlink:href="#DejaVuSans-32"/>
      </g>
     </g>
    </g>
    <g id="xtick_3">
     <g id="line2d_5">
      <path d="M 283.439911 384.48 
L 283.439911 51.84 
" clip-path="url(#p09ad01066e)" style="fill: none; stroke-dasharray: 2.96,1.28; stroke-dashoffset: 0; stroke: #b0b0b0; stroke-opacity: 0.5; stroke-width: 0.8"/>
     </g>
     <g id="line2d_6">
      <g>
       <use xlink:href="#mdcdb388ed2" x="283.439911" y="384.48" style="stroke: #000000; stroke-width: 0.8"/>
      </g>
     </g>
     <g id="text_3">
      <!-- 4 -->
      <g transform="translate(280.258661 399.078438) scale(0.1 -0.1)">
       <defs>
        <path id="DejaVuSans-34" d="M 2419 4116 
L 825 1625 
L 2419 1625 
L 2419 4116 
z
M 2253 4666 
L 3047 4666 
L 3047 1625 
L 3713 1625 
L 3713 1100 
L 3047 1100 
L 3047 0 
L 2419 0 
L 2419 1100 
L 313 1100 
L 313 1709 
L 2253 4666 
z
" transform="scale(0.015625)"/>
       </defs>
       <use xlink:href="#DejaVuSans-34"/>
      </g>
     </g>
    </g>
    <g id="xtick_4">
     <g id="line2d_7">
      <path d="M 356.379904 384.48 
L 356.379904 51.84 
" clip-path="url(#p09ad01066e)" style="fill: none; stroke-dasharray: 2.96,1.28; stroke-dashoffset: 0; stroke: #b0b0b0; stroke-opacity: 0.5; stroke-width: 0.8"/>
     </g>
     <g id="line2d_8">
      <g>
       <use xlink:href="#mdcdb388ed2" x="356.379904" y="384.48" style="stroke: #000000; stroke-width: 0.8"/>
      </g>
     </g>
     <g id="text_4">
      <!-- 6 -->
      <g transform="translate(353.198654 399.078438) scale(0.1 -0.1)">
       <defs>
        <path id="DejaVuSans-36" d="M 2113 2584 
Q 1688 2584 1439 2293 
Q 1191 2003 1191 1497 
Q 1191 994 1439 701 
Q 1688 409 2113 409 
Q 2538 409 2786 701 
Q 3034 994 3034 1497 
Q 3034 2003 2786 2293 
Q 2538 2584 2113 2584 
z
M 3366 4563 
L 3366 3988 
Q 3128 4100 2886 4159 
Q 2644 4219 2406 4219 
Q 1781 4219 1451 3797 
Q 1122 3375 1075 2522 
Q 1259 2794 1537 2939 
Q 1816 3084 2150 3084 
Q 2853 3084 3261 2657 
Q 3669 2231 3669 1497 
Q 3669 778 3244 343 
Q 2819 -91 2113 -91 
Q 1303 -91 875 529 
Q 447 1150 447 2328 
Q 447 3434 972 4092 
Q 1497 4750 2381 4750 
Q 2619 4750 2861 4703 
Q 3103 4656 3366 4563 
z
" transform="scale(0.015625)"/>
       </defs>
       <use xlink:href="#DejaVuSans-36"/>
      </g>
     </g>
    </g>
    <g id="xtick_5">
     <g id="line2d_9">
      <path d="M 429.319898 384.48 
L 429.319898 51.84 
" clip-path="url(#p09ad01066e)" style="fill: none; stroke-dasharray: 2.96,1.28; stroke-dashoffset: 0; stroke: #b0b0b0; stroke-opacity: 0.5; stroke-width: 0.8"/>
     </g>
     <g id="line2d_10">
      <g>
       <use xlink:href="#mdcdb388ed2" x="429.319898" y="384.48" style="stroke: #000000; stroke-width: 0.8"/>
      </g>
     </g>
     <g id="text_5">
      <!-- 8 -->
      <g transform="translate(426.138648 399.078438) scale(0.1 -0.1)">
       <defs>
        <path id="DejaVuSans-38" d="M 2034 2216 
Q 1584 2216 1326 1975 
Q 1069 1734 1069 1313 
Q 1069 891 1326 650 
Q 1584 409 2034 409 
Q 2484 409 2743 651 
Q 3003 894 3003 1313 
Q 3003 1734 2745 1975 
Q 2488 2216 2034 2216 
z
M 1403 2484 
Q 997 2584 770 2862 
Q 544 3141 544 3541 
Q 544 4100 942 4425 
Q 1341 4750 2034 4750 
Q 2731 4750 3128 4425 
Q 3525 4100 3525 3541 
Q 3525 3141 3298 2862 
Q 3072 2584 2669 2484 
Q 3125 2378 3379 2068 
Q 3634 1759 3634 1313 
Q 3634 634 3220 271 
Q 2806 -91 2034 -91 
Q 1263 -91 848 271 
Q 434 634 434 1313 
Q 434 1759 690 2068 
Q 947 2378 1403 2484 
z
M 1172 3481 
Q 1172 3119 1398 2916 
Q 1625 2713 2034 2713 
Q 2441 2713 2670 2916 
Q 2900 3119 2900 3481 
Q 2900 3844 2670 4047 
Q 2441 4250 2034 4250 
Q 1625 4250 1398 4047 
Q 1172 3844 1172 3481 
z
" transform="scale(0.015625)"/>
       </defs>
       <use xlink:href="#DejaVuSans-38"/>
      </g>
     </g>
    </g>
    <g id="xtick_6">
     <g id="line2d_11">
      <path d="M 502.259891 384.48 
L 502.259891 51.84 
" clip-path="url(#p09ad01066e)" style="fill: none; stroke-dasharray: 2.96,1.28; stroke-dashoffset: 0; stroke: #b0b0b0; stroke-opacity: 0.5; stroke-width: 0.8"/>
     </g>
     <g id="line2d_12">
      <g>
       <use xlink:href="#mdcdb388ed2" x="502.259891" y="384.48" style="stroke: #000000; stroke-width: 0.8"/>
      </g>
     </g>
     <g id="text_6">
      <!-- 10 -->
      <g transform="translate(495.897391 399.078438) scale(0.1 -0.1)">
       <defs>
        <path id="DejaVuSans-31" d="M 794 531 
L 1825 531 
L 1825 4091 
L 703 3866 
L 703 4441 
L 1819 4666 
L 2450 4666 
L 2450 531 
L 3481 531 
L 3481 0 
L 794 0 
L 794 531 
z
" transform="scale(0.015625)"/>
       </defs>
       <use xlink:href="#DejaVuSans-31"/>
       <use xlink:href="#DejaVuSans-30" x="63.623047"/>
      </g>
     </g>
    </g>
    <g id="text_7">
     <!-- Característica 1 -->
     <g transform="translate(255.757031 412.756563) scale(0.1 -0.1)">
      <defs>
       <path id="DejaVuSans-43" d="M 4122 4306 
L 4122 3641 
Q 3803 3938 3442 4084 
Q 3081 4231 2675 4231 
Q 1875 4231 1450 3742 
Q 1025 3253 1025 2328 
Q 1025 1406 1450 917 
Q 1875 428 2675 428 
Q 3081 428 3442 575 
Q 3803 722 4122 1019 
L 4122 359 
Q 3791 134 3420 21 
Q 3050 -91 2638 -91 
Q 1578 -91 968 557 
Q 359 1206 359 2328 
Q 359 3453 968 4101 
Q 1578 4750 2638 4750 
Q 3056 4750 3426 4639 
Q 3797 4528 4122 4306 
z
" transform="scale(0.015625)"/>
       <path id="DejaVuSans-61" d="M 2194 1759 
Q 1497 1759 1228 1600 
Q 959 1441 959 1056 
Q 959 750 1161 570 
Q 1363 391 1709 391 
Q 2188 391 2477 730 
Q 2766 1069 2766 1631 
L 2766 1759 
L 2194 1759 
z
M 3341 1997 
L 3341 0 
L 2766 0 
L 2766 531 
Q 2569 213 2275 61 
Q 1981 -91 1556 -91 
Q 1019 -91 701 211 
Q 384 513 384 1019 
Q 384 1609 779 1909 
Q 1175 2209 1959 2209 
L 2766 2209 
L 2766 2266 
Q 2766 2663 2505 2880 
Q 2244 3097 1772 3097 
Q 1472 3097 1187 3025 
Q 903 2953 641 2809 
L 641 3341 
Q 956 3463 1253 3523 
Q 1550 3584 1831 3584 
Q 2591 3584 2966 3190 
Q 3341 2797 3341 1997 
z
" transform="scale(0.015625)"/>
       <path id="DejaVuSans-72" d="M 2631 2963 
Q 2534 3019 2420 3045 
Q 2306 3072 2169 3072 
Q 1681 3072 1420 2755 
Q 1159 2438 1159 1844 
L 1159 0 
L 581 0 
L 581 3500 
L 1159 3500 
L 1159 2956 
Q 1341 3275 1631 3429 
Q 1922 3584 2338 3584 
Q 2397 3584 2469 3576 
Q 2541 3569 2628 3553 
L 2631 2963 
z
" transform="scale(0.015625)"/>
       <path id="DejaVuSans-63" d="M 3122 3366 
L 3122 2828 
Q 2878 2963 2633 3030 
Q 2388 3097 2138 3097 
Q 1578 3097 1268 2742 
Q 959 2388 959 1747 
Q 959 1106 1268 751 
Q 1578 397 2138 397 
Q 2388 397 2633 464 
Q 2878 531 3122 666 
L 3122 134 
Q 2881 22 2623 -34 
Q 2366 -91 2075 -91 
Q 1284 -91 818 406 
Q 353 903 353 1747 
Q 353 2603 823 3093 
Q 1294 3584 2113 3584 
Q 2378 3584 2631 3529 
Q 2884 3475 3122 3366 
z
" transform="scale(0.015625)"/>
       <path id="DejaVuSans-74" d="M 1172 4494 
L 1172 3500 
L 2356 3500 
L 2356 3053 
L 1172 3053 
L 1172 1153 
Q 1172 725 1289 603 
Q 1406 481 1766 481 
L 2356 481 
L 2356 0 
L 1766 0 
Q 1100 0 847 248 
Q 594 497 594 1153 
L 594 3053 
L 172 3053 
L 172 3500 
L 594 3500 
L 594 4494 
L 1172 4494 
z
" transform="scale(0.015625)"/>
       <path id="DejaVuSans-65" d="M 3597 1894 
L 3597 1613 
L 953 1613 
Q 991 1019 1311 708 
Q 1631 397 2203 397 
Q 2534 397 2845 478 
Q 3156 559 3463 722 
L 3463 178 
Q 3153 47 2828 -22 
Q 2503 -91 2169 -91 
Q 1331 -91 842 396 
Q 353 884 353 1716 
Q 353 2575 817 3079 
Q 1281 3584 2069 3584 
Q 2775 3584 3186 3129 
Q 3597 2675 3597 1894 
z
M 3022 2063 
Q 3016 2534 2758 2815 
Q 2500 3097 2075 3097 
Q 1594 3097 1305 2825 
Q 1016 2553 972 2059 
L 3022 2063 
z
" transform="scale(0.015625)"/>
       <path id="DejaVuSans-ed" d="M 1325 5119 
L 1947 5119 
L 928 3944 
L 450 3944 
L 1325 5119 
z
M 603 3500 
L 1178 3500 
L 1178 0 
L 603 0 
L 603 3500 
z
M 891 3584 
L 891 3584 
z
" transform="scale(0.015625)"/>
       <path id="DejaVuSans-73" d="M 2834 3397 
L 2834 2853 
Q 2591 2978 2328 3040 
Q 2066 3103 1784 3103 
Q 1356 3103 1142 2972 
Q 928 2841 928 2578 
Q 928 2378 1081 2264 
Q 1234 2150 1697 2047 
L 1894 2003 
Q 2506 1872 2764 1633 
Q 3022 1394 3022 966 
Q 3022 478 2636 193 
Q 2250 -91 1575 -91 
Q 1294 -91 989 -36 
Q 684 19 347 128 
L 347 722 
Q 666 556 975 473 
Q 1284 391 1588 391 
Q 1994 391 2212 530 
Q 2431 669 2431 922 
Q 2431 1156 2273 1281 
Q 2116 1406 1581 1522 
L 1381 1569 
Q 847 1681 609 1914 
Q 372 2147 372 2553 
Q 372 3047 722 3315 
Q 1072 3584 1716 3584 
Q 2034 3584 2315 3537 
Q 2597 3491 2834 3397 
z
" transform="scale(0.015625)"/>
       <path id="DejaVuSans-69" d="M 603 3500 
L 1178 3500 
L 1178 0 
L 603 0 
L 603 3500 
z
M 603 4863 
L 1178 4863 
L 1178 4134 
L 603 4134 
L 603 4863 
z
" transform="scale(0.015625)"/>
       <path id="DejaVuSans-20" transform="scale(0.015625)"/>
      </defs>
      <use xlink:href="#DejaVuSans-43"/>
      <use xlink:href="#DejaVuSans-61" x="69.824219"/>
      <use xlink:href="#DejaVuSans-72" x="131.103516"/>
      <use xlink:href="#DejaVuSans-61" x="172.216797"/>
      <use xlink:href="#DejaVuSans-63" x="233.496094"/>
      <use xlink:href="#DejaVuSans-74" x="288.476562"/>
      <use xlink:href="#DejaVuSans-65" x="327.685547"/>
      <use xlink:href="#DejaVuSans-72" x="389.208984"/>
      <use xlink:href="#DejaVuSans-ed" x="430.322266"/>
      <use xlink:href="#DejaVuSans-73" x="458.105469"/>
      <use xlink:href="#DejaVuSans-74" x="510.205078"/>
      <use xlink:href="#DejaVuSans-69" x="549.414062"/>
      <use xlink:href="#DejaVuSans-63" x="577.197266"/>
      <use xlink:href="#DejaVuSans-61" x="632.177734"/>
      <use xlink:href="#DejaVuSans-20" x="693.457031"/>
      <use xlink:href="#DejaVuSans-31" x="725.244141"/>
     </g>
    </g>
   </g>
   <g id="matplotlib.axis_2">
    <g id="ytick_1">
     <g id="line2d_13">
      <path d="M 72 369.677489 
L 518.4 369.677489 
" clip-path="url(#p09ad01066e)" style="fill: none; stroke-dasharray: 2.96,1.28; stroke-dashoffset: 0; stroke: #b0b0b0; stroke-opacity: 0.5; stroke-width: 0.8"/>
     </g>
     <g id="line2d_14">
      <defs>
       <path id="m339e9c31ed" d="M 0 0 
L -3.5 0 
" style="stroke: #000000; stroke-width: 0.8"/>
      </defs>
      <g>
       <use xlink:href="#m339e9c31ed" x="72" y="369.677489" style="stroke: #000000; stroke-width: 0.8"/>
      </g>
     </g>
     <g id="text_8">
      <!-- 0 -->
      <g transform="translate(58.6375 373.476707) scale(0.1 -0.1)">
       <use xlink:href="#DejaVuSans-30"/>
      </g>
     </g>
    </g>
    <g id="ytick_2">
     <g id="line2d_15">
      <path d="M 72 318.597704 
L 518.4 318.597704 
" clip-path="url(#p09ad01066e)" style="fill: none; stroke-dasharray: 2.96,1.28; stroke-dashoffset: 0; stroke: #b0b0b0; stroke-opacity: 0.5; stroke-width: 0.8"/>
     </g>
     <g id="line2d_16">
      <g>
       <use xlink:href="#m339e9c31ed" x="72" y="318.597704" style="stroke: #000000; stroke-width: 0.8"/>
      </g>
     </g>
     <g id="text_9">
      <!-- 2 -->
      <g transform="translate(58.6375 322.396922) scale(0.1 -0.1)">
       <use xlink:href="#DejaVuSans-32"/>
      </g>
     </g>
    </g>
    <g id="ytick_3">
     <g id="line2d_17">
      <path d="M 72 267.517918 
L 518.4 267.517918 
" clip-path="url(#p09ad01066e)" style="fill: none; stroke-dasharray: 2.96,1.28; stroke-dashoffset: 0; stroke: #b0b0b0; stroke-opacity: 0.5; stroke-width: 0.8"/>
     </g>
     <g id="line2d_18">
      <g>
       <use xlink:href="#m339e9c31ed" x="72" y="267.517918" style="stroke: #000000; stroke-width: 0.8"/>
      </g>
     </g>
     <g id="text_10">
      <!-- 4 -->
      <g transform="translate(58.6375 271.317137) scale(0.1 -0.1)">
       <use xlink:href="#DejaVuSans-34"/>
      </g>
     </g>
    </g>
    <g id="ytick_4">
     <g id="line2d_19">
      <path d="M 72 216.438133 
L 518.4 216.438133 
" clip-path="url(#p09ad01066e)" style="fill: none; stroke-dasharray: 2.96,1.28; stroke-dashoffset: 0; stroke: #b0b0b0; stroke-opacity: 0.5; stroke-width: 0.8"/>
     </g>
     <g id="line2d_20">
      <g>
       <use xlink:href="#m339e9c31ed" x="72" y="216.438133" style="stroke: #000000; stroke-width: 0.8"/>
      </g>
     </g>
     <g id="text_11">
      <!-- 6 -->
      <g transform="translate(58.6375 220.237352) scale(0.1 -0.1)">
       <use xlink:href="#DejaVuSans-36"/>
      </g>
     </g>
    </g>
    <g id="ytick_5">
     <g id="line2d_21">
      <path d="M 72 165.358348 
L 518.4 165.358348 
" clip-path="url(#p09ad01066e)" style="fill: none; stroke-dasharray: 2.96,1.28; stroke-dashoffset: 0; stroke: #b0b0b0; stroke-opacity: 0.5; stroke-width: 0.8"/>
     </g>
     <g id="line2d_22">
      <g>
       <use xlink:href="#m339e9c31ed" x="72" y="165.358348" style="stroke: #000000; stroke-width: 0.8"/>
      </g>
     </g>
     <g id="text_12">
      <!-- 8 -->
      <g transform="translate(58.6375 169.157567) scale(0.1 -0.1)">
       <use xlink:href="#DejaVuSans-38"/>
      </g>
     </g>
    </g>
    <g id="ytick_6">
     <g id="line2d_23">
      <path d="M 72 114.278563 
L 518.4 114.278563 
" clip-path="url(#p09ad01066e)" style="fill: none; stroke-dasharray: 2.96,1.28; stroke-dashoffset: 0; stroke: #b0b0b0; stroke-opacity: 0.5; stroke-width: 0.8"/>
     </g>
     <g id="line2d_24">
      <g>
       <use xlink:href="#m339e9c31ed" x="72" y="114.278563" style="stroke: #000000; stroke-width: 0.8"/>
      </g>
     </g>
     <g id="text_13">
      <!-- 10 -->
      <g transform="translate(52.275 118.077782) scale(0.1 -0.1)">
       <use xlink:href="#DejaVuSans-31"/>
       <use xlink:href="#DejaVuSans-30" x="63.623047"/>
      </g>
     </g>
    </g>
    <g id="ytick_7">
     <g id="line2d_25">
      <path d="M 72 63.198778 
L 518.4 63.198778 
" clip-path="url(#p09ad01066e)" style="fill: none; stroke-dasharray: 2.96,1.28; stroke-dashoffset: 0; stroke: #b0b0b0; stroke-opacity: 0.5; stroke-width: 0.8"/>
     </g>
     <g id="line2d_26">
      <g>
       <use xlink:href="#m339e9c31ed" x="72" y="63.198778" style="stroke: #000000; stroke-width: 0.8"/>
      </g>
     </g>
     <g id="text_14">
      <!-- 12 -->
      <g transform="translate(52.275 66.997997) scale(0.1 -0.1)">
       <use xlink:href="#DejaVuSans-31"/>
       <use xlink:href="#DejaVuSans-32" x="63.623047"/>
      </g>
     </g>
    </g>
    <g id="text_15">
     <!-- Característica 2 -->
     <g transform="translate(46.195312 257.602969) rotate(-90) scale(0.1 -0.1)">
      <use xlink:href="#DejaVuSans-43"/>
      <use xlink:href="#DejaVuSans-61" x="69.824219"/>
      <use xlink:href="#DejaVuSans-72" x="131.103516"/>
      <use xlink:href="#DejaVuSans-61" x="172.216797"/>
      <use xlink:href="#DejaVuSans-63" x="233.496094"/>
      <use xlink:href="#DejaVuSans-74" x="288.476562"/>
      <use xlink:href="#DejaVuSans-65" x="327.685547"/>
      <use xlink:href="#DejaVuSans-72" x="389.208984"/>
      <use xlink:href="#DejaVuSans-ed" x="430.322266"/>
      <use xlink:href="#DejaVuSans-73" x="458.105469"/>
      <use xlink:href="#DejaVuSans-74" x="510.205078"/>
      <use xlink:href="#DejaVuSans-69" x="549.414062"/>
      <use xlink:href="#DejaVuSans-63" x="577.197266"/>
      <use xlink:href="#DejaVuSans-61" x="632.177734"/>
      <use xlink:href="#DejaVuSans-20" x="693.457031"/>
      <use xlink:href="#DejaVuSans-32" x="725.244141"/>
     </g>
    </g>
   </g>
   <g id="patch_3">
    <path d="M 72 384.48 
L 72 51.84 
" style="fill: none; stroke: #000000; stroke-width: 0.8; stroke-linejoin: miter; stroke-linecap: square"/>
   </g>
   <g id="patch_4">
    <path d="M 518.4 384.48 
L 518.4 51.84 
" style="fill: none; stroke: #000000; stroke-width: 0.8; stroke-linejoin: miter; stroke-linecap: square"/>
   </g>
   <g id="patch_5">
    <path d="M 72 384.48 
L 518.4 384.48 
" style="fill: none; stroke: #000000; stroke-width: 0.8; stroke-linejoin: miter; stroke-linecap: square"/>
   </g>
   <g id="patch_6">
    <path d="M 72 51.84 
L 518.4 51.84 
" style="fill: none; stroke: #000000; stroke-width: 0.8; stroke-linejoin: miter; stroke-linecap: square"/>
   </g>
   <g id="text_16">
    <!-- Ejemplo de Clustering K-Means -->
    <g transform="translate(202.32 45.84) scale(0.12 -0.12)">
     <defs>
      <path id="DejaVuSans-45" d="M 628 4666 
L 3578 4666 
L 3578 4134 
L 1259 4134 
L 1259 2753 
L 3481 2753 
L 3481 2222 
L 1259 2222 
L 1259 531 
L 3634 531 
L 3634 0 
L 628 0 
L 628 4666 
z
" transform="scale(0.015625)"/>
      <path id="DejaVuSans-6a" d="M 603 3500 
L 1178 3500 
L 1178 -63 
Q 1178 -731 923 -1031 
Q 669 -1331 103 -1331 
L -116 -1331 
L -116 -844 
L 38 -844 
Q 366 -844 484 -692 
Q 603 -541 603 -63 
L 603 3500 
z
M 603 4863 
L 1178 4863 
L 1178 4134 
L 603 4134 
L 603 4863 
z
" transform="scale(0.015625)"/>
      <path id="DejaVuSans-6d" d="M 3328 2828 
Q 3544 3216 3844 3400 
Q 4144 3584 4550 3584 
Q 5097 3584 5394 3201 
Q 5691 2819 5691 2113 
L 5691 0 
L 5113 0 
L 5113 2094 
Q 5113 2597 4934 2840 
Q 4756 3084 4391 3084 
Q 3944 3084 3684 2787 
Q 3425 2491 3425 1978 
L 3425 0 
L 2847 0 
L 2847 2094 
Q 2847 2600 2669 2842 
Q 2491 3084 2119 3084 
Q 1678 3084 1418 2786 
Q 1159 2488 1159 1978 
L 1159 0 
L 581 0 
L 581 3500 
L 1159 3500 
L 1159 2956 
Q 1356 3278 1631 3431 
Q 1906 3584 2284 3584 
Q 2666 3584 2933 3390 
Q 3200 3197 3328 2828 
z
" transform="scale(0.015625)"/>
      <path id="DejaVuSans-70" d="M 1159 525 
L 1159 -1331 
L 581 -1331 
L 581 3500 
L 1159 3500 
L 1159 2969 
Q 1341 3281 1617 3432 
Q 1894 3584 2278 3584 
Q 2916 3584 3314 3078 
Q 3713 2572 3713 1747 
Q 3713 922 3314 415 
Q 2916 -91 2278 -91 
Q 1894 -91 1617 61 
Q 1341 213 1159 525 
z
M 3116 1747 
Q 3116 2381 2855 2742 
Q 2594 3103 2138 3103 
Q 1681 3103 1420 2742 
Q 1159 2381 1159 1747 
Q 1159 1113 1420 752 
Q 1681 391 2138 391 
Q 2594 391 2855 752 
Q 3116 1113 3116 1747 
z
" transform="scale(0.015625)"/>
      <path id="DejaVuSans-6c" d="M 603 4863 
L 1178 4863 
L 1178 0 
L 603 0 
L 603 4863 
z
" transform="scale(0.015625)"/>
      <path id="DejaVuSans-6f" d="M 1959 3097 
Q 1497 3097 1228 2736 
Q 959 2375 959 1747 
Q 959 1119 1226 758 
Q 1494 397 1959 397 
Q 2419 397 2687 759 
Q 2956 1122 2956 1747 
Q 2956 2369 2687 2733 
Q 2419 3097 1959 3097 
z
M 1959 3584 
Q 2709 3584 3137 3096 
Q 3566 2609 3566 1747 
Q 3566 888 3137 398 
Q 2709 -91 1959 -91 
Q 1206 -91 779 398 
Q 353 888 353 1747 
Q 353 2609 779 3096 
Q 1206 3584 1959 3584 
z
" transform="scale(0.015625)"/>
      <path id="DejaVuSans-64" d="M 2906 2969 
L 2906 4863 
L 3481 4863 
L 3481 0 
L 2906 0 
L 2906 525 
Q 2725 213 2448 61 
Q 2172 -91 1784 -91 
Q 1150 -91 751 415 
Q 353 922 353 1747 
Q 353 2572 751 3078 
Q 1150 3584 1784 3584 
Q 2172 3584 2448 3432 
Q 2725 3281 2906 2969 
z
M 947 1747 
Q 947 1113 1208 752 
Q 1469 391 1925 391 
Q 2381 391 2643 752 
Q 2906 1113 2906 1747 
Q 2906 2381 2643 2742 
Q 2381 3103 1925 3103 
Q 1469 3103 1208 2742 
Q 947 2381 947 1747 
z
" transform="scale(0.015625)"/>
      <path id="DejaVuSans-75" d="M 544 1381 
L 544 3500 
L 1119 3500 
L 1119 1403 
Q 1119 906 1312 657 
Q 1506 409 1894 409 
Q 2359 409 2629 706 
Q 2900 1003 2900 1516 
L 2900 3500 
L 3475 3500 
L 3475 0 
L 2900 0 
L 2900 538 
Q 2691 219 2414 64 
Q 2138 -91 1772 -91 
Q 1169 -91 856 284 
Q 544 659 544 1381 
z
M 1991 3584 
L 1991 3584 
z
" transform="scale(0.015625)"/>
      <path id="DejaVuSans-6e" d="M 3513 2113 
L 3513 0 
L 2938 0 
L 2938 2094 
Q 2938 2591 2744 2837 
Q 2550 3084 2163 3084 
Q 1697 3084 1428 2787 
Q 1159 2491 1159 1978 
L 1159 0 
L 581 0 
L 581 3500 
L 1159 3500 
L 1159 2956 
Q 1366 3272 1645 3428 
Q 1925 3584 2291 3584 
Q 2894 3584 3203 3211 
Q 3513 2838 3513 2113 
z
" transform="scale(0.015625)"/>
      <path id="DejaVuSans-67" d="M 2906 1791 
Q 2906 2416 2648 2759 
Q 2391 3103 1925 3103 
Q 1463 3103 1205 2759 
Q 947 2416 947 1791 
Q 947 1169 1205 825 
Q 1463 481 1925 481 
Q 2391 481 2648 825 
Q 2906 1169 2906 1791 
z
M 3481 434 
Q 3481 -459 3084 -895 
Q 2688 -1331 1869 -1331 
Q 1566 -1331 1297 -1286 
Q 1028 -1241 775 -1147 
L 775 -588 
Q 1028 -725 1275 -790 
Q 1522 -856 1778 -856 
Q 2344 -856 2625 -561 
Q 2906 -266 2906 331 
L 2906 616 
Q 2728 306 2450 153 
Q 2172 0 1784 0 
Q 1141 0 747 490 
Q 353 981 353 1791 
Q 353 2603 747 3093 
Q 1141 3584 1784 3584 
Q 2172 3584 2450 3431 
Q 2728 3278 2906 2969 
L 2906 3500 
L 3481 3500 
L 3481 434 
z
" transform="scale(0.015625)"/>
      <path id="DejaVuSans-4b" d="M 628 4666 
L 1259 4666 
L 1259 2694 
L 3353 4666 
L 4166 4666 
L 1850 2491 
L 4331 0 
L 3500 0 
L 1259 2247 
L 1259 0 
L 628 0 
L 628 4666 
z
" transform="scale(0.015625)"/>
      <path id="DejaVuSans-2d" d="M 313 2009 
L 1997 2009 
L 1997 1497 
L 313 1497 
L 313 2009 
z
" transform="scale(0.015625)"/>
      <path id="DejaVuSans-4d" d="M 628 4666 
L 1569 4666 
L 2759 1491 
L 3956 4666 
L 4897 4666 
L 4897 0 
L 4281 0 
L 4281 4097 
L 3078 897 
L 2444 897 
L 1241 4097 
L 1241 0 
L 628 0 
L 628 4666 
z
" transform="scale(0.015625)"/>
     </defs>
     <use xlink:href="#DejaVuSans-45"/>
     <use xlink:href="#DejaVuSans-6a" x="63.183594"/>
     <use xlink:href="#DejaVuSans-65" x="90.966797"/>
     <use xlink:href="#DejaVuSans-6d" x="152.490234"/>
     <use xlink:href="#DejaVuSans-70" x="249.902344"/>
     <use xlink:href="#DejaVuSans-6c" x="313.378906"/>
     <use xlink:href="#DejaVuSans-6f" x="341.162109"/>
     <use xlink:href="#DejaVuSans-20" x="402.34375"/>
     <use xlink:href="#DejaVuSans-64" x="434.130859"/>
     <use xlink:href="#DejaVuSans-65" x="497.607422"/>
     <use xlink:href="#DejaVuSans-20" x="559.130859"/>
     <use xlink:href="#DejaVuSans-43" x="590.917969"/>
     <use xlink:href="#DejaVuSans-6c" x="660.742188"/>
     <use xlink:href="#DejaVuSans-75" x="688.525391"/>
     <use xlink:href="#DejaVuSans-73" x="751.904297"/>
     <use xlink:href="#DejaVuSans-74" x="804.003906"/>
     <use xlink:href="#DejaVuSans-65" x="843.212891"/>
     <use xlink:href="#DejaVuSans-72" x="904.736328"/>
     <use xlink:href="#DejaVuSans-69" x="945.849609"/>
     <use xlink:href="#DejaVuSans-6e" x="973.632812"/>
     <use xlink:href="#DejaVuSans-67" x="1037.011719"/>
     <use xlink:href="#DejaVuSans-20" x="1100.488281"/>
     <use xlink:href="#DejaVuSans-4b" x="1132.275391"/>
     <use xlink:href="#DejaVuSans-2d" x="1187.351562"/>
     <use xlink:href="#DejaVuSans-4d" x="1223.435547"/>
     <use xlink:href="#DejaVuSans-65" x="1309.714844"/>
     <use xlink:href="#DejaVuSans-61" x="1371.238281"/>
     <use xlink:href="#DejaVuSans-6e" x="1432.517578"/>
     <use xlink:href="#DejaVuSans-73" x="1495.896484"/>
    </g>
   </g>
   <g id="legend_1">
    <g id="patch_7">
     <path d="M 79 118.5525 
L 164.8875 118.5525 
Q 166.8875 118.5525 166.8875 116.5525 
L 166.8875 58.84 
Q 166.8875 56.84 164.8875 56.84 
L 79 56.84 
Q 77 56.84 77 58.84 
L 77 116.5525 
Q 77 118.5525 79 118.5525 
z
" style="fill: #ffffff; opacity: 0.8; stroke: #cccccc; stroke-linejoin: miter"/>
    </g>
    <g id="PathCollection_5">
     <g>
      <use xlink:href="#me7d457586b" x="91" y="65.813438" style="fill: #ff0000; stroke: #ff0000"/>
     </g>
    </g>
    <g id="text_17">
     <!-- Cluster 1 -->
     <g transform="translate(109 68.438438) scale(0.1 -0.1)">
      <use xlink:href="#DejaVuSans-43"/>
      <use xlink:href="#DejaVuSans-6c" x="69.824219"/>
      <use xlink:href="#DejaVuSans-75" x="97.607422"/>
      <use xlink:href="#DejaVuSans-73" x="160.986328"/>
      <use xlink:href="#DejaVuSans-74" x="213.085938"/>
      <use xlink:href="#DejaVuSans-65" x="252.294922"/>
      <use xlink:href="#DejaVuSans-72" x="313.818359"/>
      <use xlink:href="#DejaVuSans-20" x="354.931641"/>
      <use xlink:href="#DejaVuSans-31" x="386.71875"/>
     </g>
    </g>
    <g id="PathCollection_6">
     <g>
      <use xlink:href="#mb7d3aa93b5" x="91" y="80.491563" style="fill: #008000; stroke: #008000"/>
     </g>
    </g>
    <g id="text_18">
     <!-- Cluster 2 -->
     <g transform="translate(109 83.116563) scale(0.1 -0.1)">
      <use xlink:href="#DejaVuSans-43"/>
      <use xlink:href="#DejaVuSans-6c" x="69.824219"/>
      <use xlink:href="#DejaVuSans-75" x="97.607422"/>
      <use xlink:href="#DejaVuSans-73" x="160.986328"/>
      <use xlink:href="#DejaVuSans-74" x="213.085938"/>
      <use xlink:href="#DejaVuSans-65" x="252.294922"/>
      <use xlink:href="#DejaVuSans-72" x="313.818359"/>
      <use xlink:href="#DejaVuSans-20" x="354.931641"/>
      <use xlink:href="#DejaVuSans-32" x="386.71875"/>
     </g>
    </g>
    <g id="PathCollection_7">
     <g>
      <use xlink:href="#m757446781e" x="91" y="95.169688" style="fill: #0000ff; stroke: #0000ff"/>
     </g>
    </g>
    <g id="text_19">
     <!-- Cluster 3 -->
     <g transform="translate(109 97.794688) scale(0.1 -0.1)">
      <defs>
       <path id="DejaVuSans-33" d="M 2597 2516 
Q 3050 2419 3304 2112 
Q 3559 1806 3559 1356 
Q 3559 666 3084 287 
Q 2609 -91 1734 -91 
Q 1441 -91 1130 -33 
Q 819 25 488 141 
L 488 750 
Q 750 597 1062 519 
Q 1375 441 1716 441 
Q 2309 441 2620 675 
Q 2931 909 2931 1356 
Q 2931 1769 2642 2001 
Q 2353 2234 1838 2234 
L 1294 2234 
L 1294 2753 
L 1863 2753 
Q 2328 2753 2575 2939 
Q 2822 3125 2822 3475 
Q 2822 3834 2567 4026 
Q 2313 4219 1838 4219 
Q 1578 4219 1281 4162 
Q 984 4106 628 3988 
L 628 4550 
Q 988 4650 1302 4700 
Q 1616 4750 1894 4750 
Q 2613 4750 3031 4423 
Q 3450 4097 3450 3541 
Q 3450 3153 3228 2886 
Q 3006 2619 2597 2516 
z
" transform="scale(0.015625)"/>
      </defs>
      <use xlink:href="#DejaVuSans-43"/>
      <use xlink:href="#DejaVuSans-6c" x="69.824219"/>
      <use xlink:href="#DejaVuSans-75" x="97.607422"/>
      <use xlink:href="#DejaVuSans-73" x="160.986328"/>
      <use xlink:href="#DejaVuSans-74" x="213.085938"/>
      <use xlink:href="#DejaVuSans-65" x="252.294922"/>
      <use xlink:href="#DejaVuSans-72" x="313.818359"/>
      <use xlink:href="#DejaVuSans-20" x="354.931641"/>
      <use xlink:href="#DejaVuSans-33" x="386.71875"/>
     </g>
    </g>
    <g id="PathCollection_8">
     <g>
      <use xlink:href="#mb44c78dd9d" x="91" y="109.847813" style="stroke: #000000"/>
     </g>
    </g>
    <g id="text_20">
     <!-- Centroides -->
     <g transform="translate(109 112.472813) scale(0.1 -0.1)">
      <use xlink:href="#DejaVuSans-43"/>
      <use xlink:href="#DejaVuSans-65" x="69.824219"/>
      <use xlink:href="#DejaVuSans-6e" x="131.347656"/>
      <use xlink:href="#DejaVuSans-74" x="194.726562"/>
      <use xlink:href="#DejaVuSans-72" x="233.935547"/>
      <use xlink:href="#DejaVuSans-6f" x="272.798828"/>
      <use xlink:href="#DejaVuSans-69" x="333.980469"/>
      <use xlink:href="#DejaVuSans-64" x="361.763672"/>
      <use xlink:href="#DejaVuSans-65" x="425.240234"/>
      <use xlink:href="#DejaVuSans-73" x="486.763672"/>
     </g>
    </g>
   </g>
  </g>
 </g>
 <defs>
  <clipPath id="p09ad01066e">
   <rect x="72" y="51.84" width="446.4" height="332.64"/>
  </clipPath>
 </defs>
</svg>
