<?xml version="1.0" encoding="utf-8" standalone="no"?>
<!DOCTYPE svg PUBLIC "-//W3C//DTD SVG 1.1//EN"
  "http://www.w3.org/Graphics/SVG/1.1/DTD/svg11.dtd">
<svg xmlns:xlink="http://www.w3.org/1999/xlink" width="720pt" height="432pt" viewBox="0 0 720 432" xmlns="http://www.w3.org/2000/svg" version="1.1">
 <metadata>
  <rdf:RDF xmlns:dc="http://purl.org/dc/elements/1.1/" xmlns:cc="http://creativecommons.org/ns#" xmlns:rdf="http://www.w3.org/1999/02/22-rdf-syntax-ns#">
   <cc:Work>
    <dc:type rdf:resource="http://purl.org/dc/dcmitype/StillImage"/>
    <dc:date>2026-02-01T01:34:01.329502</dc:date>
    <dc:format>image/svg+xml</dc:format>
    <dc:creator>
     <cc:Agent>
      <dc:title>Matplotlib v3.8.4, https://matplotlib.org/</dc:title>
     </cc:Agent>
    </dc:creator>
   </cc:Work>
  </rdf:RDF>
 </metadata>
 <defs>
  <style type="text/css">*{stroke-linejoin: round; stroke-linecap: butt}</style>
 </defs>
 <g id="figure_1">
  <g id="patch_1">
   <path d="M 0 432 
L 720 432 
L 720 0 
L 0 0 
z
" style="fill: #ffffff"/>
  </g>
  <g id="axes_1">
   <g id="line2d_1">
    <path d="M 139.810515 326.16 
L 292.603505 347.76 
" clip-path="url(#pf0727c1697)" style="fill: none; stroke: #808080; stroke-opacity: 0.3; stroke-linecap: square"/>
   </g>
   <g id="line2d_2">
    <path d="M 139.810515 326.16 
L 292.603505 261.36 
" clip-path="url(#pf0727c1697)" style="fill: none; stroke: #808080; stroke-opacity: 0.3; stroke-linecap: square"/>
   </g>
   <g id="line2d_3">
    <path d="M 139.810515 326.16 
L 292.603505 174.96 
" clip-path="url(#pf0727c1697)" style="fill: none; stroke: #808080; stroke-opacity: 0.3; stroke-linecap: square"/>
   </g>
   <g id="line2d_4">
    <path d="M 139.810515 326.16 
L 292.603505 88.56 
" clip-path="url(#pf0727c1697)" style="fill: none; stroke: #808080; stroke-opacity: 0.3; stroke-linecap: square"/>
   </g>
   <g id="line2d_5">
    <path d="M 139.810515 218.16 
L 292.603505 347.76 
" clip-path="url(#pf0727c1697)" style="fill: none; stroke: #808080; stroke-opacity: 0.3; stroke-linecap: square"/>
   </g>
   <g id="line2d_6">
    <path d="M 139.810515 218.16 
L 292.603505 261.36 
" clip-path="url(#pf0727c1697)" style="fill: none; stroke: #808080; stroke-opacity: 0.3; stroke-linecap: square"/>
   </g>
   <g id="line2d_7">
    <path d="M 139.810515 218.16 
L 292.603505 174.96 
" clip-path="url(#pf0727c1697)" style="fill: none; stroke: #808080; stroke-opacity: 0.3; stroke-linecap: square"/>
   </g>
   <g id="line2d_8">
    <path d="M 139.810515 218.16 
L 292.603505 88.56 
" clip-path="url(#pf0727c1697)" style="fill: none; stroke: #808080; stroke-opacity: 0.3; stroke-linecap: square"/>
   </g>
   <g id="line2d_9">
    <path d="M 139.810515 110.16 
L 292.603505 347.76 
" clip-path="url(#pf0727c1697)" style="fill: none; stroke: #808080; stroke-opacity: 0.3; stroke-linecap: square"/>
   </g>
   <g id="line2d_10">
    <path d="M 139.810515 110.16 
L 292.603505 261.36 
" clip-path="url(#pf0727c1697)" style="fill: none; stroke: #808080; stroke-opacity: 0.3; stroke-linecap: square"/>
   </g>
   <g id="line2d_11">
    <path d="M 139.810515 110.16 
L 292.603505 174.96 
" clip-path="url(#pf0727c1697)" style="fill: none; stroke: #808080; stroke-opacity: 0.3; stroke-linecap: square"/>
   </g>
   <g id="line2d_12">
    <path d="M 139.810515 110.16 
L 292.603505 88.56 
" clip-path="url(#pf0727c1697)" style="fill: none; stroke: #808080; stroke-opacity: 0.3; stroke-linecap: square"/>
   </g>
   <g id="line2d_13">
    <path d="M 292.603505 347.76 
L 445.396495 347.76 
" clip-path="url(#pf0727c1697)" style="fill: none; stroke: #808080; stroke-opacity: 0.3; stroke-linecap: square"/>
   </g>
   <g id="line2d_14">
    <path d="M 292.603505 347.76 
L 445.396495 261.36 
" clip-path="url(#pf0727c1697)" style="fill: none; stroke: #808080; stroke-opacity: 0.3; stroke-linecap: square"/>
   </g>
   <g id="line2d_15">
    <path d="M 292.603505 347.76 
L 445.396495 174.96 
" clip-path="url(#pf0727c1697)" style="fill: none; stroke: #808080; stroke-opacity: 0.3; stroke-linecap: square"/>
   </g>
   <g id="line2d_16">
    <path d="M 292.603505 347.76 
L 445.396495 88.56 
" clip-path="url(#pf0727c1697)" style="fill: none; stroke: #808080; stroke-opacity: 0.3; stroke-linecap: square"/>
   </g>
   <g id="line2d_17">
    <path d="M 292.603505 261.36 
L 445.396495 347.76 
" clip-path="url(#pf0727c1697)" style="fill: none; stroke: #808080; stroke-opacity: 0.3; stroke-linecap: square"/>
   </g>
   <g id="line2d_18">
    <path d="M 292.603505 261.36 
L 445.396495 261.36 
" clip-path="url(#pf0727c1697)" style="fill: none; stroke: #808080; stroke-opacity: 0.3; stroke-linecap: square"/>
   </g>
   <g id="line2d_19">
    <path d="M 292.603505 261.36 
L 445.396495 174.96 
" clip-path="url(#pf0727c1697)" style="fill: none; stroke: #808080; stroke-opacity: 0.3; stroke-linecap: square"/>
   </g>
   <g id="line2d_20">
    <path d="M 292.603505 261.36 
L 445.396495 88.56 
" clip-path="url(#pf0727c1697)" style="fill: none; stroke: #808080; stroke-opacity: 0.3; stroke-linecap: square"/>
   </g>
   <g id="line2d_21">
    <path d="M 292.603505 174.96 
L 445.396495 347.76 
" clip-path="url(#pf0727c1697)" style="fill: none; stroke: #808080; stroke-opacity: 0.3; stroke-linecap: square"/>
   </g>
   <g id="line2d_22">
    <path d="M 292.603505 174.96 
L 445.396495 261.36 
" clip-path="url(#pf0727c1697)" style="fill: none; stroke: #808080; stroke-opacity: 0.3; stroke-linecap: square"/>
   </g>
   <g id="line2d_23">
    <path d="M 292.603505 174.96 
L 445.396495 174.96 
" clip-path="url(#pf0727c1697)" style="fill: none; stroke: #808080; stroke-opacity: 0.3; stroke-linecap: square"/>
   </g>
   <g id="line2d_24">
    <path d="M 292.603505 174.96 
L 445.396495 88.56 
" clip-path="url(#pf0727c1697)" style="fill: none; stroke: #808080; stroke-opacity: 0.3; stroke-linecap: square"/>
   </g>
   <g id="line2d_25">
    <path d="M 292.603505 88.56 
L 445.396495 347.76 
" clip-path="url(#pf0727c1697)" style="fill: none; stroke: #808080; stroke-opacity: 0.3; stroke-linecap: square"/>
   </g>
   <g id="line2d_26">
    <path d="M 292.603505 88.56 
L 445.396495 261.36 
" clip-path="url(#pf0727c1697)" style="fill: none; stroke: #808080; stroke-opacity: 0.3; stroke-linecap: square"/>
   </g>
   <g id="line2d_27">
    <path d="M 292.603505 88.56 
L 445.396495 174.96 
" clip-path="url(#pf0727c1697)" style="fill: none; stroke: #808080; stroke-opacity: 0.3; stroke-linecap: square"/>
   </g>
   <g id="line2d_28">
    <path d="M 292.603505 88.56 
L 445.396495 88.56 
" clip-path="url(#pf0727c1697)" style="fill: none; stroke: #808080; stroke-opacity: 0.3; stroke-linecap: square"/>
   </g>
   <g id="line2d_29">
    <path d="M 445.396495 347.76 
L 598.189485 218.16 
" clip-path="url(#pf0727c1697)" style="fill: none; stroke: #808080; stroke-opacity: 0.3; stroke-linecap: square"/>
   </g>
   <g id="line2d_30">
    <path d="M 445.396495 261.36 
L 598.189485 218.16 
" clip-path="url(#pf0727c1697)" style="fill: none; stroke: #808080; stroke-opacity: 0.3; stroke-linecap: square"/>
   </g>
   <g id="line2d_31">
    <path d="M 445.396495 174.96 
L 598.189485 218.16 
" clip-path="url(#pf0727c1697)" style="fill: none; stroke: #808080; stroke-opacity: 0.3; stroke-linecap: square"/>
   </g>
   <g id="line2d_32">
    <path d="M 445.396495 88.56 
L 598.189485 218.16 
" clip-path="url(#pf0727c1697)" style="fill: none; stroke: #808080; stroke-opacity: 0.3; stroke-linecap: square"/>
   </g>
   <g id="text_1">
    <!-- Input Layer -->
    <g transform="translate(105.637702 -24.84) scale(0.12 -0.12)">
     <defs>
      <path id="DejaVuSans-49" d="M 628 4666 
L 1259 4666 
L 1259 0 
L 628 0 
L 628 4666 
z
" transform="scale(0.015625)"/>
      <path id="DejaVuSans-6e" d="M 3513 2113 
L 3513 0 
L 2938 0 
L 2938 2094 
Q 2938 2591 2744 2837 
Q 2550 3084 2163 3084 
Q 1697 3084 1428 2787 
Q 1159 2491 1159 1978 
L 1159 0 
L 581 0 
L 581 3500 
L 1159 3500 
L 1159 2956 
Q 1366 3272 1645 3428 
Q 1925 3584 2291 3584 
Q 2894 3584 3203 3211 
Q 3513 2838 3513 2113 
z
" transform="scale(0.015625)"/>
      <path id="DejaVuSans-70" d="M 1159 525 
L 1159 -1331 
L 581 -1331 
L 581 3500 
L 1159 3500 
L 1159 2969 
Q 1341 3281 1617 3432 
Q 1894 3584 2278 3584 
Q 2916 3584 3314 3078 
Q 3713 2572 3713 1747 
Q 3713 922 3314 415 
Q 2916 -91 2278 -91 
Q 1894 -91 1617 61 
Q 1341 213 1159 525 
z
M 3116 1747 
Q 3116 2381 2855 2742 
Q 2594 3103 2138 3103 
Q 1681 3103 1420 2742 
Q 1159 2381 1159 1747 
Q 1159 1113 1420 752 
Q 1681 391 2138 391 
Q 2594 391 2855 752 
Q 3116 1113 3116 1747 
z
" transform="scale(0.015625)"/>
      <path id="DejaVuSans-75" d="M 544 1381 
L 544 3500 
L 1119 3500 
L 1119 1403 
Q 1119 906 1312 657 
Q 1506 409 1894 409 
Q 2359 409 2629 706 
Q 2900 1003 2900 1516 
L 2900 3500 
L 3475 3500 
L 3475 0 
L 2900 0 
L 2900 538 
Q 2691 219 2414 64 
Q 2138 -91 1772 -91 
Q 1169 -91 856 284 
Q 544 659 544 1381 
z
M 1991 3584 
L 1991 3584 
z
" transform="scale(0.015625)"/>
      <path id="DejaVuSans-74" d="M 1172 4494 
L 1172 3500 
L 2356 3500 
L 2356 3053 
L 1172 3053 
L 1172 1153 
Q 1172 725 1289 603 
Q 1406 481 1766 481 
L 2356 481 
L 2356 0 
L 1766 0 
Q 1100 0 847 248 
Q 594 497 594 1153 
L 594 3053 
L 172 3053 
L 172 3500 
L 594 3500 
L 594 4494 
L 1172 4494 
z
" transform="scale(0.015625)"/>
      <path id="DejaVuSans-20" transform="scale(0.015625)"/>
      <path id="DejaVuSans-4c" d="M 628 4666 
L 1259 4666 
L 1259 531 
L 3531 531 
L 3531 0 
L 628 0 
L 628 4666 
z
" transform="scale(0.015625)"/>
      <path id="DejaVuSans-61" d="M 2194 1759 
Q 1497 1759 1228 1600 
Q 959 1441 959 1056 
Q 959 750 1161 570 
Q 1363 391 1709 391 
Q 2188 391 2477 730 
Q 2766 1069 2766 1631 
L 2766 1759 
L 2194 1759 
z
M 3341 1997 
L 3341 0 
L 2766 0 
L 2766 531 
Q 2569 213 2275 61 
Q 1981 -91 1556 -91 
Q 1019 -91 701 211 
Q 384 513 384 1019 
Q 384 1609 779 1909 
Q 1175 2209 1959 2209 
L 2766 2209 
L 2766 2266 
Q 2766 2663 2505 2880 
Q 2244 3097 1772 3097 
Q 1472 3097 1187 3025 
Q 903 2953 641 2809 
L 641 3341 
Q 956 3463 1253 3523 
Q 1550 3584 1831 3584 
Q 2591 3584 2966 3190 
Q 3341 2797 3341 1997 
z
" transform="scale(0.015625)"/>
      <path id="DejaVuSans-79" d="M 2059 -325 
Q 1816 -950 1584 -1140 
Q 1353 -1331 966 -1331 
L 506 -1331 
L 506 -850 
L 844 -850 
Q 1081 -850 1212 -737 
Q 1344 -625 1503 -206 
L 1606 56 
L 191 3500 
L 800 3500 
L 1894 763 
L 2988 3500 
L 3597 3500 
L 2059 -325 
z
" transform="scale(0.015625)"/>
      <path id="DejaVuSans-65" d="M 3597 1894 
L 3597 1613 
L 953 1613 
Q 991 1019 1311 708 
Q 1631 397 2203 397 
Q 2534 397 2845 478 
Q 3156 559 3463 722 
L 3463 178 
Q 3153 47 2828 -22 
Q 2503 -91 2169 -91 
Q 1331 -91 842 396 
Q 353 884 353 1716 
Q 353 2575 817 3079 
Q 1281 3584 2069 3584 
Q 2775 3584 3186 3129 
Q 3597 2675 3597 1894 
z
M 3022 2063 
Q 3016 2534 2758 2815 
Q 2500 3097 2075 3097 
Q 1594 3097 1305 2825 
Q 1016 2553 972 2059 
L 3022 2063 
z
" transform="scale(0.015625)"/>
      <path id="DejaVuSans-72" d="M 2631 2963 
Q 2534 3019 2420 3045 
Q 2306 3072 2169 3072 
Q 1681 3072 1420 2755 
Q 1159 2438 1159 1844 
L 1159 0 
L 581 0 
L 581 3500 
L 1159 3500 
L 1159 2956 
Q 1341 3275 1631 3429 
Q 1922 3584 2338 3584 
Q 2397 3584 2469 3576 
Q 2541 3569 2628 3553 
L 2631 2963 
z
" transform="scale(0.015625)"/>
     </defs>
     <use xlink:href="#DejaVuSans-49"/>
     <use xlink:href="#DejaVuSans-6e" x="29.492188"/>
     <use xlink:href="#DejaVuSans-70" x="92.871094"/>
     <use xlink:href="#DejaVuSans-75" x="156.347656"/>
     <use xlink:href="#DejaVuSans-74" x="219.726562"/>
     <use xlink:href="#DejaVuSans-20" x="258.935547"/>
     <use xlink:href="#DejaVuSans-4c" x="290.722656"/>
     <use xlink:href="#DejaVuSans-61" x="346.435547"/>
     <use xlink:href="#DejaVuSans-79" x="407.714844"/>
     <use xlink:href="#DejaVuSans-65" x="466.894531"/>
     <use xlink:href="#DejaVuSans-72" x="528.417969"/>
    </g>
   </g>
   <g id="text_2">
    <!-- Hidden Layers -->
    <g transform="translate(325.94625 -24.84) scale(0.12 -0.12)">
     <defs>
      <path id="DejaVuSans-48" d="M 628 4666 
L 1259 4666 
L 1259 2753 
L 3553 2753 
L 3553 4666 
L 4184 4666 
L 4184 0 
L 3553 0 
L 3553 2222 
L 1259 2222 
L 1259 0 
L 628 0 
L 628 4666 
z
" transform="scale(0.015625)"/>
      <path id="DejaVuSans-69" d="M 603 3500 
L 1178 3500 
L 1178 0 
L 603 0 
L 603 3500 
z
M 603 4863 
L 1178 4863 
L 1178 4134 
L 603 4134 
L 603 4863 
z
" transform="scale(0.015625)"/>
      <path id="DejaVuSans-64" d="M 2906 2969 
L 2906 4863 
L 3481 4863 
L 3481 0 
L 2906 0 
L 2906 525 
Q 2725 213 2448 61 
Q 2172 -91 1784 -91 
Q 1150 -91 751 415 
Q 353 922 353 1747 
Q 353 2572 751 3078 
Q 1150 3584 1784 3584 
Q 2172 3584 2448 3432 
Q 2725 3281 2906 2969 
z
M 947 1747 
Q 947 1113 1208 752 
Q 1469 391 1925 391 
Q 2381 391 2643 752 
Q 2906 1113 2906 1747 
Q 2906 2381 2643 2742 
Q 2381 3103 1925 3103 
Q 1469 3103 1208 2742 
Q 947 2381 947 1747 
z
" transform="scale(0.015625)"/>
      <path id="DejaVuSans-73" d="M 2834 3397 
L 2834 2853 
Q 2591 2978 2328 3040 
Q 2066 3103 1784 3103 
Q 1356 3103 1142 2972 
Q 928 2841 928 2578 
Q 928 2378 1081 2264 
Q 1234 2150 1697 2047 
L 1894 2003 
Q 2506 1872 2764 1633 
Q 3022 1394 3022 966 
Q 3022 478 2636 193 
Q 2250 -91 1575 -91 
Q 1294 -91 989 -36 
Q 684 19 347 128 
L 347 722 
Q 666 556 975 473 
Q 1284 391 1588 391 
Q 1994 391 2212 530 
Q 2431 669 2431 922 
Q 2431 1156 2273 1281 
Q 2116 1406 1581 1522 
L 1381 1569 
Q 847 1681 609 1914 
Q 372 2147 372 2553 
Q 372 3047 722 3315 
Q 1072 3584 1716 3584 
Q 2034 3584 2315 3537 
Q 2597 3491 2834 3397 
z
" transform="scale(0.015625)"/>
     </defs>
     <use xlink:href="#DejaVuSans-48"/>
     <use xlink:href="#DejaVuSans-69" x="75.195312"/>
     <use xlink:href="#DejaVuSans-64" x="102.978516"/>
     <use xlink:href="#DejaVuSans-64" x="166.455078"/>
     <use xlink:href="#DejaVuSans-65" x="229.931641"/>
     <use xlink:href="#DejaVuSans-6e" x="291.455078"/>
     <use xlink:href="#DejaVuSans-20" x="354.833984"/>
     <use xlink:href="#DejaVuSans-4c" x="386.621094"/>
     <use xlink:href="#DejaVuSans-61" x="442.333984"/>
     <use xlink:href="#DejaVuSans-79" x="503.613281"/>
     <use xlink:href="#DejaVuSans-65" x="562.792969"/>
     <use xlink:href="#DejaVuSans-72" x="624.316406"/>
     <use xlink:href="#DejaVuSans-73" x="665.429688"/>
    </g>
   </g>
   <g id="text_3">
    <!-- Output Layer -->
    <g transform="translate(558.71136 -24.84) scale(0.12 -0.12)">
     <defs>
      <path id="DejaVuSans-4f" d="M 2522 4238 
Q 1834 4238 1429 3725 
Q 1025 3213 1025 2328 
Q 1025 1447 1429 934 
Q 1834 422 2522 422 
Q 3209 422 3611 934 
Q 4013 1447 4013 2328 
Q 4013 3213 3611 3725 
Q 3209 4238 2522 4238 
z
M 2522 4750 
Q 3503 4750 4090 4092 
Q 4678 3434 4678 2328 
Q 4678 1225 4090 567 
Q 3503 -91 2522 -91 
Q 1538 -91 948 565 
Q 359 1222 359 2328 
Q 359 3434 948 4092 
Q 1538 4750 2522 4750 
z
" transform="scale(0.015625)"/>
     </defs>
     <use xlink:href="#DejaVuSans-4f"/>
     <use xlink:href="#DejaVuSans-75" x="78.710938"/>
     <use xlink:href="#DejaVuSans-74" x="142.089844"/>
     <use xlink:href="#DejaVuSans-70" x="181.298828"/>
     <use xlink:href="#DejaVuSans-75" x="244.775391"/>
     <use xlink:href="#DejaVuSans-74" x="308.154297"/>
     <use xlink:href="#DejaVuSans-20" x="347.363281"/>
     <use xlink:href="#DejaVuSans-4c" x="379.150391"/>
     <use xlink:href="#DejaVuSans-61" x="434.863281"/>
     <use xlink:href="#DejaVuSans-79" x="496.142578"/>
     <use xlink:href="#DejaVuSans-65" x="555.322266"/>
     <use xlink:href="#DejaVuSans-72" x="616.845703"/>
    </g>
   </g>
   <g id="text_4">
    <!-- Arquitectura de una Red Neuronal Artificial -->
    <g transform="translate(240.08625 45.84) scale(0.12 -0.12)">
     <defs>
      <path id="DejaVuSans-41" d="M 2188 4044 
L 1331 1722 
L 3047 1722 
L 2188 4044 
z
M 1831 4666 
L 2547 4666 
L 4325 0 
L 3669 0 
L 3244 1197 
L 1141 1197 
L 716 0 
L 50 0 
L 1831 4666 
z
" transform="scale(0.015625)"/>
      <path id="DejaVuSans-71" d="M 947 1747 
Q 947 1113 1208 752 
Q 1469 391 1925 391 
Q 2381 391 2643 752 
Q 2906 1113 2906 1747 
Q 2906 2381 2643 2742 
Q 2381 3103 1925 3103 
Q 1469 3103 1208 2742 
Q 947 2381 947 1747 
z
M 2906 525 
Q 2725 213 2448 61 
Q 2172 -91 1784 -91 
Q 1150 -91 751 415 
Q 353 922 353 1747 
Q 353 2572 751 3078 
Q 1150 3584 1784 3584 
Q 2172 3584 2448 3432 
Q 2725 3281 2906 2969 
L 2906 3500 
L 3481 3500 
L 3481 -1331 
L 2906 -1331 
L 2906 525 
z
" transform="scale(0.015625)"/>
      <path id="DejaVuSans-63" d="M 3122 3366 
L 3122 2828 
Q 2878 2963 2633 3030 
Q 2388 3097 2138 3097 
Q 1578 3097 1268 2742 
Q 959 2388 959 1747 
Q 959 1106 1268 751 
Q 1578 397 2138 397 
Q 2388 397 2633 464 
Q 2878 531 3122 666 
L 3122 134 
Q 2881 22 2623 -34 
Q 2366 -91 2075 -91 
Q 1284 -91 818 406 
Q 353 903 353 1747 
Q 353 2603 823 3093 
Q 1294 3584 2113 3584 
Q 2378 3584 2631 3529 
Q 2884 3475 3122 3366 
z
" transform="scale(0.015625)"/>
      <path id="DejaVuSans-52" d="M 2841 2188 
Q 3044 2119 3236 1894 
Q 3428 1669 3622 1275 
L 4263 0 
L 3584 0 
L 2988 1197 
Q 2756 1666 2539 1819 
Q 2322 1972 1947 1972 
L 1259 1972 
L 1259 0 
L 628 0 
L 628 4666 
L 2053 4666 
Q 2853 4666 3247 4331 
Q 3641 3997 3641 3322 
Q 3641 2881 3436 2590 
Q 3231 2300 2841 2188 
z
M 1259 4147 
L 1259 2491 
L 2053 2491 
Q 2509 2491 2742 2702 
Q 2975 2913 2975 3322 
Q 2975 3731 2742 3939 
Q 2509 4147 2053 4147 
L 1259 4147 
z
" transform="scale(0.015625)"/>
      <path id="DejaVuSans-4e" d="M 628 4666 
L 1478 4666 
L 3547 763 
L 3547 4666 
L 4159 4666 
L 4159 0 
L 3309 0 
L 1241 3903 
L 1241 0 
L 628 0 
L 628 4666 
z
" transform="scale(0.015625)"/>
      <path id="DejaVuSans-6f" d="M 1959 3097 
Q 1497 3097 1228 2736 
Q 959 2375 959 1747 
Q 959 1119 1226 758 
Q 1494 397 1959 397 
Q 2419 397 2687 759 
Q 2956 1122 2956 1747 
Q 2956 2369 2687 2733 
Q 2419 3097 1959 3097 
z
M 1959 3584 
Q 2709 3584 3137 3096 
Q 3566 2609 3566 1747 
Q 3566 888 3137 398 
Q 2709 -91 1959 -91 
Q 1206 -91 779 398 
Q 353 888 353 1747 
Q 353 2609 779 3096 
Q 1206 3584 1959 3584 
z
" transform="scale(0.015625)"/>
      <path id="DejaVuSans-6c" d="M 603 4863 
L 1178 4863 
L 1178 0 
L 603 0 
L 603 4863 
z
" transform="scale(0.015625)"/>
      <path id="DejaVuSans-66" d="M 2375 4863 
L 2375 4384 
L 1825 4384 
Q 1516 4384 1395 4259 
Q 1275 4134 1275 3809 
L 1275 3500 
L 2222 3500 
L 2222 3053 
L 1275 3053 
L 1275 0 
L 697 0 
L 697 3053 
L 147 3053 
L 147 3500 
L 697 3500 
L 697 3744 
Q 697 4328 969 4595 
Q 1241 4863 1831 4863 
L 2375 4863 
z
" transform="scale(0.015625)"/>
     </defs>
     <use xlink:href="#DejaVuSans-41"/>
     <use xlink:href="#DejaVuSans-72" x="68.408203"/>
     <use xlink:href="#DejaVuSans-71" x="107.771484"/>
     <use xlink:href="#DejaVuSans-75" x="171.248047"/>
     <use xlink:href="#DejaVuSans-69" x="234.626953"/>
     <use xlink:href="#DejaVuSans-74" x="262.410156"/>
     <use xlink:href="#DejaVuSans-65" x="301.619141"/>
     <use xlink:href="#DejaVuSans-63" x="363.142578"/>
     <use xlink:href="#DejaVuSans-74" x="418.123047"/>
     <use xlink:href="#DejaVuSans-75" x="457.332031"/>
     <use xlink:href="#DejaVuSans-72" x="520.710938"/>
     <use xlink:href="#DejaVuSans-61" x="561.824219"/>
     <use xlink:href="#DejaVuSans-20" x="623.103516"/>
     <use xlink:href="#DejaVuSans-64" x="654.890625"/>
     <use xlink:href="#DejaVuSans-65" x="718.367188"/>
     <use xlink:href="#DejaVuSans-20" x="779.890625"/>
     <use xlink:href="#DejaVuSans-75" x="811.677734"/>
     <use xlink:href="#DejaVuSans-6e" x="875.056641"/>
     <use xlink:href="#DejaVuSans-61" x="938.435547"/>
     <use xlink:href="#DejaVuSans-20" x="999.714844"/>
     <use xlink:href="#DejaVuSans-52" x="1031.501953"/>
     <use xlink:href="#DejaVuSans-65" x="1096.484375"/>
     <use xlink:href="#DejaVuSans-64" x="1158.007812"/>
     <use xlink:href="#DejaVuSans-20" x="1221.484375"/>
     <use xlink:href="#DejaVuSans-4e" x="1253.271484"/>
     <use xlink:href="#DejaVuSans-65" x="1328.076172"/>
     <use xlink:href="#DejaVuSans-75" x="1389.599609"/>
     <use xlink:href="#DejaVuSans-72" x="1452.978516"/>
     <use xlink:href="#DejaVuSans-6f" x="1491.841797"/>
     <use xlink:href="#DejaVuSans-6e" x="1553.023438"/>
     <use xlink:href="#DejaVuSans-61" x="1616.402344"/>
     <use xlink:href="#DejaVuSans-6c" x="1677.681641"/>
     <use xlink:href="#DejaVuSans-20" x="1705.464844"/>
     <use xlink:href="#DejaVuSans-41" x="1737.251953"/>
     <use xlink:href="#DejaVuSans-72" x="1805.660156"/>
     <use xlink:href="#DejaVuSans-74" x="1846.773438"/>
     <use xlink:href="#DejaVuSans-69" x="1885.982422"/>
     <use xlink:href="#DejaVuSans-66" x="1913.765625"/>
     <use xlink:href="#DejaVuSans-69" x="1948.970703"/>
     <use xlink:href="#DejaVuSans-63" x="1976.753906"/>
     <use xlink:href="#DejaVuSans-69" x="2031.734375"/>
     <use xlink:href="#DejaVuSans-61" x="2059.517578"/>
     <use xlink:href="#DejaVuSans-6c" x="2120.796875"/>
    </g>
   </g>
   <g id="patch_2">
    <path d="M 139.810515 347.76 
C 146.293903 347.76 152.512621 345.484088 157.097068 341.433506 
C 161.681516 337.382925 164.257393 331.888387 164.257393 326.16 
C 164.257393 320.431613 161.681516 314.937075 157.097068 310.886494 
C 152.512621 306.835912 146.293903 304.56 139.810515 304.56 
C 133.327127 304.56 127.108409 306.835912 122.523961 310.886494 
C 117.939514 314.937075 115.363636 320.431613 115.363636 326.16 
C 115.363636 331.888387 117.939514 337.382925 122.523961 341.433506 
C 127.108409 345.484088 133.327127 347.76 139.810515 347.76 
z
" clip-path="url(#pf0727c1697)" style="fill: #87ceeb; stroke: #0000ff; stroke-linejoin: miter"/>
   </g>
   <g id="patch_3">
    <path d="M 139.810515 239.76 
C 146.293903 239.76 152.512621 237.484088 157.097068 233.433506 
C 161.681516 229.382925 164.257393 223.888387 164.257393 218.16 
C 164.257393 212.431613 161.681516 206.937075 157.097068 202.886494 
C 152.512621 198.835912 146.293903 196.56 139.810515 196.56 
C 133.327127 196.56 127.108409 198.835912 122.523961 202.886494 
C 117.939514 206.937075 115.363636 212.431613 115.363636 218.16 
C 115.363636 223.888387 117.939514 229.382925 122.523961 233.433506 
C 127.108409 237.484088 133.327127 239.76 139.810515 239.76 
z
" clip-path="url(#pf0727c1697)" style="fill: #87ceeb; stroke: #0000ff; stroke-linejoin: miter"/>
   </g>
   <g id="patch_4">
    <path d="M 139.810515 131.76 
C 146.293903 131.76 152.512621 129.484088 157.097068 125.433506 
C 161.681516 121.382925 164.257393 115.888387 164.257393 110.16 
C 164.257393 104.431613 161.681516 98.937075 157.097068 94.886494 
C 152.512621 90.835912 146.293903 88.56 139.810515 88.56 
C 133.327127 88.56 127.108409 90.835912 122.523961 94.886494 
C 117.939514 98.937075 115.363636 104.431613 115.363636 110.16 
C 115.363636 115.888387 117.939514 121.382925 122.523961 125.433506 
C 127.108409 129.484088 133.327127 131.76 139.810515 131.76 
z
" clip-path="url(#pf0727c1697)" style="fill: #87ceeb; stroke: #0000ff; stroke-linejoin: miter"/>
   </g>
   <g id="patch_5">
    <path d="M 292.603505 369.36 
C 299.086893 369.36 305.305611 367.084088 309.890058 363.033506 
C 314.474506 358.982925 317.050383 353.488387 317.050383 347.76 
C 317.050383 342.031613 314.474506 336.537075 309.890058 332.486494 
C 305.305611 328.435912 299.086893 326.16 292.603505 326.16 
C 286.120117 326.16 279.901399 328.435912 275.316951 332.486494 
C 270.732504 336.537075 268.156627 342.031613 268.156627 347.76 
C 268.156627 353.488387 270.732504 358.982925 275.316951 363.033506 
C 279.901399 367.084088 286.120117 369.36 292.603505 369.36 
z
" clip-path="url(#pf0727c1697)" style="fill: #87ceeb; stroke: #0000ff; stroke-linejoin: miter"/>
   </g>
   <g id="patch_6">
    <path d="M 292.603505 282.96 
C 299.086893 282.96 305.305611 280.684088 309.890058 276.633506 
C 314.474506 272.582925 317.050383 267.088387 317.050383 261.36 
C 317.050383 255.631613 314.474506 250.137075 309.890058 246.086494 
C 305.305611 242.035912 299.086893 239.76 292.603505 239.76 
C 286.120117 239.76 279.901399 242.035912 275.316951 246.086494 
C 270.732504 250.137075 268.156627 255.631613 268.156627 261.36 
C 268.156627 267.088387 270.732504 272.582925 275.316951 276.633506 
C 279.901399 280.684088 286.120117 282.96 292.603505 282.96 
z
" clip-path="url(#pf0727c1697)" style="fill: #87ceeb; stroke: #0000ff; stroke-linejoin: miter"/>
   </g>
   <g id="patch_7">
    <path d="M 292.603505 196.56 
C 299.086893 196.56 305.305611 194.284088 309.890058 190.233506 
C 314.474506 186.182925 317.050383 180.688387 317.050383 174.96 
C 317.050383 169.231613 314.474506 163.737075 309.890058 159.686494 
C 305.305611 155.635912 299.086893 153.36 292.603505 153.36 
C 286.120117 153.36 279.901399 155.635912 275.316951 159.686494 
C 270.732504 163.737075 268.156627 169.231613 268.156627 174.96 
C 268.156627 180.688387 270.732504 186.182925 275.316951 190.233506 
C 279.901399 194.284088 286.120117 196.56 292.603505 196.56 
z
" clip-path="url(#pf0727c1697)" style="fill: #87ceeb; stroke: #0000ff; stroke-linejoin: miter"/>
   </g>
   <g id="patch_8">
    <path d="M 292.603505 110.16 
C 299.086893 110.16 305.305611 107.884088 309.890058 103.833506 
C 314.474506 99.782925 317.050383 94.288387 317.050383 88.56 
C 317.050383 82.831613 314.474506 77.337075 309.890058 73.286494 
C 305.305611 69.235912 299.086893 66.96 292.603505 66.96 
C 286.120117 66.96 279.901399 69.235912 275.316951 73.286494 
C 270.732504 77.337075 268.156627 82.831613 268.156627 88.56 
C 268.156627 94.288387 270.732504 99.782925 275.316951 103.833506 
C 279.901399 107.884088 286.120117 110.16 292.603505 110.16 
z
" clip-path="url(#pf0727c1697)" style="fill: #87ceeb; stroke: #0000ff; stroke-linejoin: miter"/>
   </g>
   <g id="patch_9">
    <path d="M 445.396495 369.36 
C 451.879883 369.36 458.098601 367.084088 462.683049 363.033506 
C 467.267496 358.982925 469.843373 353.488387 469.843373 347.76 
C 469.843373 342.031613 467.267496 336.537075 462.683049 332.486494 
C 458.098601 328.435912 451.879883 326.16 445.396495 326.16 
C 438.913107 326.16 432.694389 328.435912 428.109942 332.486494 
C 423.525494 336.537075 420.949617 342.031613 420.949617 347.76 
C 420.949617 353.488387 423.525494 358.982925 428.109942 363.033506 
C 432.694389 367.084088 438.913107 369.36 445.396495 369.36 
z
" clip-path="url(#pf0727c1697)" style="fill: #87ceeb; stroke: #0000ff; stroke-linejoin: miter"/>
   </g>
   <g id="patch_10">
    <path d="M 445.396495 282.96 
C 451.879883 282.96 458.098601 280.684088 462.683049 276.633506 
C 467.267496 272.582925 469.843373 267.088387 469.843373 261.36 
C 469.843373 255.631613 467.267496 250.137075 462.683049 246.086494 
C 458.098601 242.035912 451.879883 239.76 445.396495 239.76 
C 438.913107 239.76 432.694389 242.035912 428.109942 246.086494 
C 423.525494 250.137075 420.949617 255.631613 420.949617 261.36 
C 420.949617 267.088387 423.525494 272.582925 428.109942 276.633506 
C 432.694389 280.684088 438.913107 282.96 445.396495 282.96 
z
" clip-path="url(#pf0727c1697)" style="fill: #87ceeb; stroke: #0000ff; stroke-linejoin: miter"/>
   </g>
   <g id="patch_11">
    <path d="M 445.396495 196.56 
C 451.879883 196.56 458.098601 194.284088 462.683049 190.233506 
C 467.267496 186.182925 469.843373 180.688387 469.843373 174.96 
C 469.843373 169.231613 467.267496 163.737075 462.683049 159.686494 
C 458.098601 155.635912 451.879883 153.36 445.396495 153.36 
C 438.913107 153.36 432.694389 155.635912 428.109942 159.686494 
C 423.525494 163.737075 420.949617 169.231613 420.949617 174.96 
C 420.949617 180.688387 423.525494 186.182925 428.109942 190.233506 
C 432.694389 194.284088 438.913107 196.56 445.396495 196.56 
z
" clip-path="url(#pf0727c1697)" style="fill: #87ceeb; stroke: #0000ff; stroke-linejoin: miter"/>
   </g>
   <g id="patch_12">
    <path d="M 445.396495 110.16 
C 451.879883 110.16 458.098601 107.884088 462.683049 103.833506 
C 467.267496 99.782925 469.843373 94.288387 469.843373 88.56 
C 469.843373 82.831613 467.267496 77.337075 462.683049 73.286494 
C 458.098601 69.235912 451.879883 66.96 445.396495 66.96 
C 438.913107 66.96 432.694389 69.235912 428.109942 73.286494 
C 423.525494 77.337075 420.949617 82.831613 420.949617 88.56 
C 420.949617 94.288387 423.525494 99.782925 428.109942 103.833506 
C 432.694389 107.884088 438.913107 110.16 445.396495 110.16 
z
" clip-path="url(#pf0727c1697)" style="fill: #87ceeb; stroke: #0000ff; stroke-linejoin: miter"/>
   </g>
   <g id="patch_13">
    <path d="M 598.189485 239.76 
C 604.672873 239.76 610.891591 237.484088 615.476039 233.433506 
C 620.060486 229.382925 622.636364 223.888387 622.636364 218.16 
C 622.636364 212.431613 620.060486 206.937075 615.476039 202.886494 
C 610.891591 198.835912 604.672873 196.56 598.189485 196.56 
C 591.706097 196.56 585.487379 198.835912 580.902932 202.886494 
C 576.318484 206.937075 573.742607 212.431613 573.742607 218.16 
C 573.742607 223.888387 576.318484 229.382925 580.902932 233.433506 
C 585.487379 237.484088 591.706097 239.76 598.189485 239.76 
z
" clip-path="url(#pf0727c1697)" style="fill: #87ceeb; stroke: #0000ff; stroke-linejoin: miter"/>
   </g>
  </g>
 </g>
 <defs>
  <clipPath id="pf0727c1697">
   <rect x="90" y="51.84" width="558" height="332.64"/>
  </clipPath>
 </defs>
</svg>
