<?xml version="1.0" encoding="utf-8" standalone="no"?>
<!DOCTYPE svg PUBLIC "-//W3C//DTD SVG 1.1//EN"
  "http://www.w3.org/Graphics/SVG/1.1/DTD/svg11.dtd">
<svg xmlns:xlink="http://www.w3.org/1999/xlink" width="572.4pt" height="236.16pt" viewBox="0 0 572.4 236.16" xmlns="http://www.w3.org/2000/svg" version="1.1">
 <metadata>
  <rdf:RDF xmlns:dc="http://purl.org/dc/elements/1.1/" xmlns:cc="http://creativecommons.org/ns#" xmlns:rdf="http://www.w3.org/1999/02/22-rdf-syntax-ns#">
   <cc:Work>
    <dc:type rdf:resource="http://purl.org/dc/dcmitype/StillImage"/>
    <dc:date>2026-02-01T01:59:03.031422</dc:date>
    <dc:format>image/svg+xml</dc:format>
    <dc:creator>
     <cc:Agent>
      <dc:title>Matplotlib v3.8.4, https://matplotlib.org/</dc:title>
     </cc:Agent>
    </dc:creator>
   </cc:Work>
  </rdf:RDF>
 </metadata>
 <defs>
  <style type="text/css">*{stroke-linejoin: round; stroke-linecap: butt}</style>
 </defs>
 <g id="figure_1">
  <g id="patch_1">
   <path d="M 0 236.16 
L 572.4 236.16 
L 572.4 0 
L 0 0 
z
" style="fill: #ffffff"/>
  </g>
  <g id="axes_1">
   <g id="patch_2">
    <path d="M 258.3 100.3392 
C 267.179 100.3392 275.695534 97.535276 281.973935 92.54496 
C 288.252336 87.554644 291.78 80.785373 291.78 73.728 
C 291.78 66.670627 288.252336 59.901356 281.973935 54.91104 
C 275.695534 49.920724 267.179 47.1168 258.3 47.1168 
C 249.421 47.1168 240.904466 49.920724 234.626065 54.91104 
C 228.347664 59.901356 224.82 66.670627 224.82 73.728 
C 224.82 80.785373 228.347664 87.554644 234.626065 92.54496 
C 240.904466 97.535276 249.421 100.3392 258.3 100.3392 
z
" clip-path="url(#pb593238197)" style="fill: #00ffff; stroke: #0000ff; stroke-linejoin: miter"/>
   </g>
   <g id="patch_3">
    <path d="M 230.4 184.608 
L 286.2 184.608 
L 286.2 140.256 
L 230.4 140.256 
z
" clip-path="url(#pb593238197)" style="fill: #90ee90; stroke: #008000; stroke-linejoin: miter"/>
   </g>
   <g id="text_1">
    <g id="patch_4">
     <path d="M 112.710297 136.893156 
L 56.683125 136.893156 
L 56.683125 99.266844 
L 112.710297 99.266844 
L 112.710297 89.860266 
L 140.930031 118.08 
L 112.710297 146.299734 
L 112.710297 136.893156 
z
" style="fill: #ffa500; stroke: #000000; stroke-linejoin: miter"/>
    </g>
    <!-- metodo -->
    <g transform="translate(60.883125 114.104656) scale(0.14 -0.14)">
     <defs>
      <path id="DejaVuSans-Bold-6d" d="M 3781 2919 
Q 3994 3244 4286 3414 
Q 4578 3584 4928 3584 
Q 5531 3584 5847 3212 
Q 6163 2841 6163 2131 
L 6163 0 
L 5038 0 
L 5038 1825 
Q 5041 1866 5042 1909 
Q 5044 1953 5044 2034 
Q 5044 2406 4934 2573 
Q 4825 2741 4581 2741 
Q 4263 2741 4089 2478 
Q 3916 2216 3909 1719 
L 3909 0 
L 2784 0 
L 2784 1825 
Q 2784 2406 2684 2573 
Q 2584 2741 2328 2741 
Q 2006 2741 1831 2477 
Q 1656 2213 1656 1722 
L 1656 0 
L 531 0 
L 531 3500 
L 1656 3500 
L 1656 2988 
Q 1863 3284 2130 3434 
Q 2397 3584 2719 3584 
Q 3081 3584 3359 3409 
Q 3638 3234 3781 2919 
z
" transform="scale(0.015625)"/>
      <path id="DejaVuSans-Bold-65" d="M 4031 1759 
L 4031 1441 
L 1416 1441 
Q 1456 1047 1700 850 
Q 1944 653 2381 653 
Q 2734 653 3104 758 
Q 3475 863 3866 1075 
L 3866 213 
Q 3469 63 3072 -14 
Q 2675 -91 2278 -91 
Q 1328 -91 801 392 
Q 275 875 275 1747 
Q 275 2603 792 3093 
Q 1309 3584 2216 3584 
Q 3041 3584 3536 3087 
Q 4031 2591 4031 1759 
z
M 2881 2131 
Q 2881 2450 2695 2645 
Q 2509 2841 2209 2841 
Q 1884 2841 1681 2658 
Q 1478 2475 1428 2131 
L 2881 2131 
z
" transform="scale(0.015625)"/>
      <path id="DejaVuSans-Bold-74" d="M 1759 4494 
L 1759 3500 
L 2913 3500 
L 2913 2700 
L 1759 2700 
L 1759 1216 
Q 1759 972 1856 886 
Q 1953 800 2241 800 
L 2816 800 
L 2816 0 
L 1856 0 
Q 1194 0 917 276 
Q 641 553 641 1216 
L 641 2700 
L 84 2700 
L 84 3500 
L 641 3500 
L 641 4494 
L 1759 4494 
z
" transform="scale(0.015625)"/>
      <path id="DejaVuSans-Bold-6f" d="M 2203 2784 
Q 1831 2784 1636 2517 
Q 1441 2250 1441 1747 
Q 1441 1244 1636 976 
Q 1831 709 2203 709 
Q 2569 709 2762 976 
Q 2956 1244 2956 1747 
Q 2956 2250 2762 2517 
Q 2569 2784 2203 2784 
z
M 2203 3584 
Q 3106 3584 3614 3096 
Q 4122 2609 4122 1747 
Q 4122 884 3614 396 
Q 3106 -91 2203 -91 
Q 1297 -91 786 396 
Q 275 884 275 1747 
Q 275 2609 786 3096 
Q 1297 3584 2203 3584 
z
" transform="scale(0.015625)"/>
      <path id="DejaVuSans-Bold-64" d="M 2919 2988 
L 2919 4863 
L 4044 4863 
L 4044 0 
L 2919 0 
L 2919 506 
Q 2688 197 2409 53 
Q 2131 -91 1766 -91 
Q 1119 -91 703 423 
Q 288 938 288 1747 
Q 288 2556 703 3070 
Q 1119 3584 1766 3584 
Q 2128 3584 2408 3439 
Q 2688 3294 2919 2988 
z
M 2181 722 
Q 2541 722 2730 984 
Q 2919 1247 2919 1747 
Q 2919 2247 2730 2509 
Q 2541 2772 2181 2772 
Q 1825 2772 1636 2509 
Q 1447 2247 1447 1747 
Q 1447 1247 1636 984 
Q 1825 722 2181 722 
z
" transform="scale(0.015625)"/>
     </defs>
     <use xlink:href="#DejaVuSans-Bold-6d"/>
     <use xlink:href="#DejaVuSans-Bold-65" x="104.199219"/>
     <use xlink:href="#DejaVuSans-Bold-74" x="172.021484"/>
     <use xlink:href="#DejaVuSans-Bold-6f" x="219.824219"/>
     <use xlink:href="#DejaVuSans-Bold-64" x="288.525391"/>
     <use xlink:href="#DejaVuSans-Bold-6f" x="360.107422"/>
    </g>
    <!-- .area() -->
    <g transform="translate(64.195 129.781594) scale(0.14 -0.14)">
     <defs>
      <path id="DejaVuSans-Bold-2e" d="M 653 1209 
L 1778 1209 
L 1778 0 
L 653 0 
L 653 1209 
z
" transform="scale(0.015625)"/>
      <path id="DejaVuSans-Bold-61" d="M 2106 1575 
Q 1756 1575 1579 1456 
Q 1403 1338 1403 1106 
Q 1403 894 1545 773 
Q 1688 653 1941 653 
Q 2256 653 2472 879 
Q 2688 1106 2688 1447 
L 2688 1575 
L 2106 1575 
z
M 3816 1997 
L 3816 0 
L 2688 0 
L 2688 519 
Q 2463 200 2181 54 
Q 1900 -91 1497 -91 
Q 953 -91 614 226 
Q 275 544 275 1050 
Q 275 1666 698 1953 
Q 1122 2241 2028 2241 
L 2688 2241 
L 2688 2328 
Q 2688 2594 2478 2717 
Q 2269 2841 1825 2841 
Q 1466 2841 1156 2769 
Q 847 2697 581 2553 
L 581 3406 
Q 941 3494 1303 3539 
Q 1666 3584 2028 3584 
Q 2975 3584 3395 3211 
Q 3816 2838 3816 1997 
z
" transform="scale(0.015625)"/>
      <path id="DejaVuSans-Bold-72" d="M 3138 2547 
Q 2991 2616 2845 2648 
Q 2700 2681 2553 2681 
Q 2122 2681 1889 2404 
Q 1656 2128 1656 1613 
L 1656 0 
L 538 0 
L 538 3500 
L 1656 3500 
L 1656 2925 
Q 1872 3269 2151 3426 
Q 2431 3584 2822 3584 
Q 2878 3584 2943 3579 
Q 3009 3575 3134 3559 
L 3138 2547 
z
" transform="scale(0.015625)"/>
      <path id="DejaVuSans-Bold-28" d="M 2413 -844 
L 1484 -844 
Q 1006 -72 778 623 
Q 550 1319 550 2003 
Q 550 2688 779 3389 
Q 1009 4091 1484 4856 
L 2413 4856 
Q 2013 4116 1813 3408 
Q 1613 2700 1613 2009 
Q 1613 1319 1811 609 
Q 2009 -100 2413 -844 
z
" transform="scale(0.015625)"/>
      <path id="DejaVuSans-Bold-29" d="M 513 -844 
Q 913 -100 1113 609 
Q 1313 1319 1313 2009 
Q 1313 2700 1113 3408 
Q 913 4116 513 4856 
L 1441 4856 
Q 1916 4091 2145 3389 
Q 2375 2688 2375 2003 
Q 2375 1319 2147 623 
Q 1919 -72 1441 -844 
L 513 -844 
z
" transform="scale(0.015625)"/>
     </defs>
     <use xlink:href="#DejaVuSans-Bold-2e"/>
     <use xlink:href="#DejaVuSans-Bold-61" x="37.988281"/>
     <use xlink:href="#DejaVuSans-Bold-72" x="105.46875"/>
     <use xlink:href="#DejaVuSans-Bold-65" x="154.785156"/>
     <use xlink:href="#DejaVuSans-Bold-61" x="222.607422"/>
     <use xlink:href="#DejaVuSans-Bold-28" x="290.087891"/>
     <use xlink:href="#DejaVuSans-Bold-29" x="335.791016"/>
    </g>
   </g>
   <g id="patch_5">
    <path d="M 148.263245 116.837473 
Q 174.598725 95.905014 200.058968 75.668227 
" style="fill: none; stroke: #000000; stroke-linecap: round"/>
    <path d="M 195.683168 76.591468 
L 200.058968 75.668227 
L 198.172081 79.722812 
" style="fill: none; stroke: #000000; stroke-linecap: round"/>
   </g>
   <g id="patch_6">
    <path d="M 148.263245 119.322527 
Q 174.598725 140.254986 200.058968 160.491773 
" style="fill: none; stroke: #000000; stroke-linecap: round"/>
    <path d="M 198.172081 156.437188 
L 200.058968 160.491773 
L 195.683168 159.568532 
" style="fill: none; stroke: #000000; stroke-linecap: round"/>
   </g>
   <g id="text_2">
    <!-- Clase Círculo: -->
    <g style="fill: #00008b" transform="translate(369.9 70.604516) scale(0.11 -0.11)">
     <defs>
      <path id="DejaVuSans-Bold-43" d="M 4288 256 
Q 3956 84 3597 -3 
Q 3238 -91 2847 -91 
Q 1681 -91 1000 561 
Q 319 1213 319 2328 
Q 319 3447 1000 4098 
Q 1681 4750 2847 4750 
Q 3238 4750 3597 4662 
Q 3956 4575 4288 4403 
L 4288 3438 
Q 3953 3666 3628 3772 
Q 3303 3878 2944 3878 
Q 2300 3878 1931 3465 
Q 1563 3053 1563 2328 
Q 1563 1606 1931 1193 
Q 2300 781 2944 781 
Q 3303 781 3628 887 
Q 3953 994 4288 1222 
L 4288 256 
z
" transform="scale(0.015625)"/>
      <path id="DejaVuSans-Bold-6c" d="M 538 4863 
L 1656 4863 
L 1656 0 
L 538 0 
L 538 4863 
z
" transform="scale(0.015625)"/>
      <path id="DejaVuSans-Bold-73" d="M 3272 3391 
L 3272 2541 
Q 2913 2691 2578 2766 
Q 2244 2841 1947 2841 
Q 1628 2841 1473 2761 
Q 1319 2681 1319 2516 
Q 1319 2381 1436 2309 
Q 1553 2238 1856 2203 
L 2053 2175 
Q 2913 2066 3209 1816 
Q 3506 1566 3506 1031 
Q 3506 472 3093 190 
Q 2681 -91 1863 -91 
Q 1516 -91 1145 -36 
Q 775 19 384 128 
L 384 978 
Q 719 816 1070 734 
Q 1422 653 1784 653 
Q 2113 653 2278 743 
Q 2444 834 2444 1013 
Q 2444 1163 2330 1236 
Q 2216 1309 1875 1350 
L 1678 1375 
Q 931 1469 631 1722 
Q 331 1975 331 2491 
Q 331 3047 712 3315 
Q 1094 3584 1881 3584 
Q 2191 3584 2531 3537 
Q 2872 3491 3272 3391 
z
" transform="scale(0.015625)"/>
      <path id="DejaVuSans-Bold-20" transform="scale(0.015625)"/>
      <path id="DejaVuSans-Bold-ed" d="M 538 3500 
L 1656 3500 
L 1656 0 
L 538 0 
L 538 3500 
z
M 1594 5119 
L 2478 5119 
L 1325 3944 
L 713 3944 
L 1594 5119 
z
" transform="scale(0.015625)"/>
      <path id="DejaVuSans-Bold-63" d="M 3366 3391 
L 3366 2478 
Q 3138 2634 2908 2709 
Q 2678 2784 2431 2784 
Q 1963 2784 1702 2511 
Q 1441 2238 1441 1747 
Q 1441 1256 1702 982 
Q 1963 709 2431 709 
Q 2694 709 2930 787 
Q 3166 866 3366 1019 
L 3366 103 
Q 3103 6 2833 -42 
Q 2563 -91 2291 -91 
Q 1344 -91 809 395 
Q 275 881 275 1747 
Q 275 2613 809 3098 
Q 1344 3584 2291 3584 
Q 2566 3584 2833 3536 
Q 3100 3488 3366 3391 
z
" transform="scale(0.015625)"/>
      <path id="DejaVuSans-Bold-75" d="M 500 1363 
L 500 3500 
L 1625 3500 
L 1625 3150 
Q 1625 2866 1622 2436 
Q 1619 2006 1619 1863 
Q 1619 1441 1641 1255 
Q 1663 1069 1716 984 
Q 1784 875 1895 815 
Q 2006 756 2150 756 
Q 2500 756 2700 1025 
Q 2900 1294 2900 1772 
L 2900 3500 
L 4019 3500 
L 4019 0 
L 2900 0 
L 2900 506 
Q 2647 200 2364 54 
Q 2081 -91 1741 -91 
Q 1134 -91 817 281 
Q 500 653 500 1363 
z
" transform="scale(0.015625)"/>
      <path id="DejaVuSans-Bold-3a" d="M 716 3500 
L 1844 3500 
L 1844 2291 
L 716 2291 
L 716 3500 
z
M 716 1209 
L 1844 1209 
L 1844 0 
L 716 0 
L 716 1209 
z
" transform="scale(0.015625)"/>
     </defs>
     <use xlink:href="#DejaVuSans-Bold-43"/>
     <use xlink:href="#DejaVuSans-Bold-6c" x="73.388672"/>
     <use xlink:href="#DejaVuSans-Bold-61" x="107.666016"/>
     <use xlink:href="#DejaVuSans-Bold-73" x="175.146484"/>
     <use xlink:href="#DejaVuSans-Bold-65" x="234.667969"/>
     <use xlink:href="#DejaVuSans-Bold-20" x="302.490234"/>
     <use xlink:href="#DejaVuSans-Bold-43" x="337.304688"/>
     <use xlink:href="#DejaVuSans-Bold-ed" x="410.693359"/>
     <use xlink:href="#DejaVuSans-Bold-72" x="444.970703"/>
     <use xlink:href="#DejaVuSans-Bold-63" x="494.287109"/>
     <use xlink:href="#DejaVuSans-Bold-75" x="553.564453"/>
     <use xlink:href="#DejaVuSans-Bold-6c" x="624.755859"/>
     <use xlink:href="#DejaVuSans-Bold-6f" x="659.033203"/>
     <use xlink:href="#DejaVuSans-Bold-3a" x="727.734375"/>
    </g>
    <!-- return π * r² -->
    <g style="fill: #00008b" transform="translate(369.9 82.922109) scale(0.11 -0.11)">
     <defs>
      <path id="DejaVuSans-Bold-6e" d="M 4056 2131 
L 4056 0 
L 2931 0 
L 2931 347 
L 2931 1631 
Q 2931 2084 2911 2256 
Q 2891 2428 2841 2509 
Q 2775 2619 2662 2680 
Q 2550 2741 2406 2741 
Q 2056 2741 1856 2470 
Q 1656 2200 1656 1722 
L 1656 0 
L 538 0 
L 538 3500 
L 1656 3500 
L 1656 2988 
Q 1909 3294 2193 3439 
Q 2478 3584 2822 3584 
Q 3428 3584 3742 3212 
Q 4056 2841 4056 2131 
z
" transform="scale(0.015625)"/>
      <path id="DejaVuSans-Bold-3c0" d="M 269 3500 
L 4684 3500 
L 4684 2700 
L 4072 2700 
L 4072 1131 
Q 4072 728 4148 629 
Q 4225 531 4400 531 
Q 4578 531 4678 544 
L 4678 -44 
Q 4484 -122 3822 -122 
Q 3613 -122 3409 -63 
Q 3084 34 2994 319 
Q 2953 453 2953 728 
L 2953 2700 
L 2000 2700 
L 2000 0 
L 881 0 
L 881 2700 
L 269 2700 
L 269 3500 
z
" transform="scale(0.015625)"/>
      <path id="DejaVuSans-Bold-2a" d="M 3219 3803 
L 2188 3263 
L 3219 2719 
L 2981 2278 
L 1941 2853 
L 1941 1778 
L 1409 1778 
L 1409 2853 
L 366 2278 
L 128 2719 
L 1172 3263 
L 128 3803 
L 366 4244 
L 1409 3675 
L 1409 4750 
L 1941 4750 
L 1941 3675 
L 2981 4244 
L 3219 3803 
z
" transform="scale(0.015625)"/>
      <path id="DejaVuSans-Bold-b2" d="M 1288 2613 
L 2444 2613 
L 2444 2088 
L 341 2088 
L 341 2566 
L 1319 3397 
Q 1509 3563 1590 3688 
Q 1672 3813 1672 3938 
Q 1672 4094 1558 4191 
Q 1444 4288 1259 4288 
Q 1066 4288 844 4217 
Q 622 4147 359 4000 
L 359 4581 
Q 631 4666 886 4708 
Q 1141 4750 1375 4750 
Q 1869 4750 2150 4548 
Q 2431 4347 2431 4000 
Q 2431 3775 2320 3586 
Q 2209 3397 1894 3128 
L 1288 2613 
z
" transform="scale(0.015625)"/>
     </defs>
     <use xlink:href="#DejaVuSans-Bold-72"/>
     <use xlink:href="#DejaVuSans-Bold-65" x="49.316406"/>
     <use xlink:href="#DejaVuSans-Bold-74" x="117.138672"/>
     <use xlink:href="#DejaVuSans-Bold-75" x="164.941406"/>
     <use xlink:href="#DejaVuSans-Bold-72" x="236.132812"/>
     <use xlink:href="#DejaVuSans-Bold-6e" x="285.449219"/>
     <use xlink:href="#DejaVuSans-Bold-20" x="356.640625"/>
     <use xlink:href="#DejaVuSans-Bold-3c0" x="391.455078"/>
     <use xlink:href="#DejaVuSans-Bold-20" x="470.556641"/>
     <use xlink:href="#DejaVuSans-Bold-2a" x="505.371094"/>
     <use xlink:href="#DejaVuSans-Bold-20" x="557.666016"/>
     <use xlink:href="#DejaVuSans-Bold-72" x="592.480469"/>
     <use xlink:href="#DejaVuSans-Bold-b2" x="641.796875"/>
    </g>
   </g>
   <g id="text_3">
    <!-- Clase Cuadrado: -->
    <g style="fill: #006400" transform="translate(369.9 159.308516) scale(0.11 -0.11)">
     <use xlink:href="#DejaVuSans-Bold-43"/>
     <use xlink:href="#DejaVuSans-Bold-6c" x="73.388672"/>
     <use xlink:href="#DejaVuSans-Bold-61" x="107.666016"/>
     <use xlink:href="#DejaVuSans-Bold-73" x="175.146484"/>
     <use xlink:href="#DejaVuSans-Bold-65" x="234.667969"/>
     <use xlink:href="#DejaVuSans-Bold-20" x="302.490234"/>
     <use xlink:href="#DejaVuSans-Bold-43" x="337.304688"/>
     <use xlink:href="#DejaVuSans-Bold-75" x="410.693359"/>
     <use xlink:href="#DejaVuSans-Bold-61" x="481.884766"/>
     <use xlink:href="#DejaVuSans-Bold-64" x="549.365234"/>
     <use xlink:href="#DejaVuSans-Bold-72" x="620.947266"/>
     <use xlink:href="#DejaVuSans-Bold-61" x="670.263672"/>
     <use xlink:href="#DejaVuSans-Bold-64" x="737.744141"/>
     <use xlink:href="#DejaVuSans-Bold-6f" x="809.326172"/>
     <use xlink:href="#DejaVuSans-Bold-3a" x="878.027344"/>
    </g>
    <!-- return lado * lado -->
    <g style="fill: #006400" transform="translate(369.9 171.626109) scale(0.11 -0.11)">
     <use xlink:href="#DejaVuSans-Bold-72"/>
     <use xlink:href="#DejaVuSans-Bold-65" x="49.316406"/>
     <use xlink:href="#DejaVuSans-Bold-74" x="117.138672"/>
     <use xlink:href="#DejaVuSans-Bold-75" x="164.941406"/>
     <use xlink:href="#DejaVuSans-Bold-72" x="236.132812"/>
     <use xlink:href="#DejaVuSans-Bold-6e" x="285.449219"/>
     <use xlink:href="#DejaVuSans-Bold-20" x="356.640625"/>
     <use xlink:href="#DejaVuSans-Bold-6c" x="391.455078"/>
     <use xlink:href="#DejaVuSans-Bold-61" x="425.732422"/>
     <use xlink:href="#DejaVuSans-Bold-64" x="493.212891"/>
     <use xlink:href="#DejaVuSans-Bold-6f" x="564.794922"/>
     <use xlink:href="#DejaVuSans-Bold-20" x="633.496094"/>
     <use xlink:href="#DejaVuSans-Bold-2a" x="668.310547"/>
     <use xlink:href="#DejaVuSans-Bold-20" x="720.605469"/>
     <use xlink:href="#DejaVuSans-Bold-6c" x="755.419922"/>
     <use xlink:href="#DejaVuSans-Bold-61" x="789.697266"/>
     <use xlink:href="#DejaVuSans-Bold-64" x="857.177734"/>
     <use xlink:href="#DejaVuSans-Bold-6f" x="928.759766"/>
    </g>
   </g>
   <g id="text_4">
    <!-- Polimorfismo: Misma llamada, diferente comportamiento -->
    <g transform="translate(124.989844 206.784) scale(0.1 -0.1)">
     <defs>
      <path id="DejaVuSans-Bold-50" d="M 588 4666 
L 2584 4666 
Q 3475 4666 3951 4270 
Q 4428 3875 4428 3144 
Q 4428 2409 3951 2014 
Q 3475 1619 2584 1619 
L 1791 1619 
L 1791 0 
L 588 0 
L 588 4666 
z
M 1791 3794 
L 1791 2491 
L 2456 2491 
Q 2806 2491 2997 2661 
Q 3188 2831 3188 3144 
Q 3188 3456 2997 3625 
Q 2806 3794 2456 3794 
L 1791 3794 
z
" transform="scale(0.015625)"/>
      <path id="DejaVuSans-Bold-69" d="M 538 3500 
L 1656 3500 
L 1656 0 
L 538 0 
L 538 3500 
z
M 538 4863 
L 1656 4863 
L 1656 3950 
L 538 3950 
L 538 4863 
z
" transform="scale(0.015625)"/>
      <path id="DejaVuSans-Bold-66" d="M 2841 4863 
L 2841 4128 
L 2222 4128 
Q 1984 4128 1890 4042 
Q 1797 3956 1797 3744 
L 1797 3500 
L 2753 3500 
L 2753 2700 
L 1797 2700 
L 1797 0 
L 678 0 
L 678 2700 
L 122 2700 
L 122 3500 
L 678 3500 
L 678 3744 
Q 678 4316 997 4589 
Q 1316 4863 1984 4863 
L 2841 4863 
z
" transform="scale(0.015625)"/>
      <path id="DejaVuSans-Bold-4d" d="M 588 4666 
L 2119 4666 
L 3181 2169 
L 4250 4666 
L 5778 4666 
L 5778 0 
L 4641 0 
L 4641 3413 
L 3566 897 
L 2803 897 
L 1728 3413 
L 1728 0 
L 588 0 
L 588 4666 
z
" transform="scale(0.015625)"/>
      <path id="DejaVuSans-Bold-2c" d="M 653 1209 
L 1778 1209 
L 1778 256 
L 1006 -909 
L 341 -909 
L 653 256 
L 653 1209 
z
" transform="scale(0.015625)"/>
      <path id="DejaVuSans-Bold-70" d="M 1656 506 
L 1656 -1331 
L 538 -1331 
L 538 3500 
L 1656 3500 
L 1656 2988 
Q 1888 3294 2169 3439 
Q 2450 3584 2816 3584 
Q 3463 3584 3878 3070 
Q 4294 2556 4294 1747 
Q 4294 938 3878 423 
Q 3463 -91 2816 -91 
Q 2450 -91 2169 54 
Q 1888 200 1656 506 
z
M 2400 2772 
Q 2041 2772 1848 2508 
Q 1656 2244 1656 1747 
Q 1656 1250 1848 986 
Q 2041 722 2400 722 
Q 2759 722 2948 984 
Q 3138 1247 3138 1747 
Q 3138 2247 2948 2509 
Q 2759 2772 2400 2772 
z
" transform="scale(0.015625)"/>
     </defs>
     <use xlink:href="#DejaVuSans-Bold-50"/>
     <use xlink:href="#DejaVuSans-Bold-6f" x="73.291016"/>
     <use xlink:href="#DejaVuSans-Bold-6c" x="141.992188"/>
     <use xlink:href="#DejaVuSans-Bold-69" x="176.269531"/>
     <use xlink:href="#DejaVuSans-Bold-6d" x="210.546875"/>
     <use xlink:href="#DejaVuSans-Bold-6f" x="314.746094"/>
     <use xlink:href="#DejaVuSans-Bold-72" x="383.447266"/>
     <use xlink:href="#DejaVuSans-Bold-66" x="432.763672"/>
     <use xlink:href="#DejaVuSans-Bold-69" x="476.269531"/>
     <use xlink:href="#DejaVuSans-Bold-73" x="510.546875"/>
     <use xlink:href="#DejaVuSans-Bold-6d" x="570.068359"/>
     <use xlink:href="#DejaVuSans-Bold-6f" x="674.267578"/>
     <use xlink:href="#DejaVuSans-Bold-3a" x="742.96875"/>
     <use xlink:href="#DejaVuSans-Bold-20" x="782.958984"/>
     <use xlink:href="#DejaVuSans-Bold-4d" x="817.773438"/>
     <use xlink:href="#DejaVuSans-Bold-69" x="917.285156"/>
     <use xlink:href="#DejaVuSans-Bold-73" x="951.5625"/>
     <use xlink:href="#DejaVuSans-Bold-6d" x="1011.083984"/>
     <use xlink:href="#DejaVuSans-Bold-61" x="1115.283203"/>
     <use xlink:href="#DejaVuSans-Bold-20" x="1182.763672"/>
     <use xlink:href="#DejaVuSans-Bold-6c" x="1217.578125"/>
     <use xlink:href="#DejaVuSans-Bold-6c" x="1251.855469"/>
     <use xlink:href="#DejaVuSans-Bold-61" x="1286.132812"/>
     <use xlink:href="#DejaVuSans-Bold-6d" x="1353.613281"/>
     <use xlink:href="#DejaVuSans-Bold-61" x="1457.8125"/>
     <use xlink:href="#DejaVuSans-Bold-64" x="1525.292969"/>
     <use xlink:href="#DejaVuSans-Bold-61" x="1596.875"/>
     <use xlink:href="#DejaVuSans-Bold-2c" x="1664.355469"/>
     <use xlink:href="#DejaVuSans-Bold-20" x="1702.34375"/>
     <use xlink:href="#DejaVuSans-Bold-64" x="1737.158203"/>
     <use xlink:href="#DejaVuSans-Bold-69" x="1808.740234"/>
     <use xlink:href="#DejaVuSans-Bold-66" x="1843.017578"/>
     <use xlink:href="#DejaVuSans-Bold-65" x="1886.523438"/>
     <use xlink:href="#DejaVuSans-Bold-72" x="1954.345703"/>
     <use xlink:href="#DejaVuSans-Bold-65" x="2003.662109"/>
     <use xlink:href="#DejaVuSans-Bold-6e" x="2071.484375"/>
     <use xlink:href="#DejaVuSans-Bold-74" x="2142.675781"/>
     <use xlink:href="#DejaVuSans-Bold-65" x="2190.478516"/>
     <use xlink:href="#DejaVuSans-Bold-20" x="2258.300781"/>
     <use xlink:href="#DejaVuSans-Bold-63" x="2293.115234"/>
     <use xlink:href="#DejaVuSans-Bold-6f" x="2352.392578"/>
     <use xlink:href="#DejaVuSans-Bold-6d" x="2421.09375"/>
     <use xlink:href="#DejaVuSans-Bold-70" x="2525.292969"/>
     <use xlink:href="#DejaVuSans-Bold-6f" x="2596.875"/>
     <use xlink:href="#DejaVuSans-Bold-72" x="2665.576172"/>
     <use xlink:href="#DejaVuSans-Bold-74" x="2714.892578"/>
     <use xlink:href="#DejaVuSans-Bold-61" x="2762.695312"/>
     <use xlink:href="#DejaVuSans-Bold-6d" x="2830.175781"/>
     <use xlink:href="#DejaVuSans-Bold-69" x="2934.375"/>
     <use xlink:href="#DejaVuSans-Bold-65" x="2968.652344"/>
     <use xlink:href="#DejaVuSans-Bold-6e" x="3036.474609"/>
     <use xlink:href="#DejaVuSans-Bold-74" x="3107.666016"/>
     <use xlink:href="#DejaVuSans-Bold-6f" x="3155.46875"/>
    </g>
   </g>
  </g>
 </g>
 <defs>
  <clipPath id="pb593238197">
   <rect x="7.2" y="7.2" width="558" height="221.76"/>
  </clipPath>
 </defs>
</svg>
