<?xml version="1.0" encoding="utf-8" standalone="no"?>
<!DOCTYPE svg PUBLIC "-//W3C//DTD SVG 1.1//EN"
  "http://www.w3.org/Graphics/SVG/1.1/DTD/svg11.dtd">
<svg xmlns:xlink="http://www.w3.org/1999/xlink" width="714.63367pt" height="425.278125pt" viewBox="0 0 714.63367 425.278125" xmlns="http://www.w3.org/2000/svg" version="1.1">
 <metadata>
  <rdf:RDF xmlns:dc="http://purl.org/dc/elements/1.1/" xmlns:cc="http://creativecommons.org/ns#" xmlns:rdf="http://www.w3.org/1999/02/22-rdf-syntax-ns#">
   <cc:Work>
    <dc:type rdf:resource="http://purl.org/dc/dcmitype/StillImage"/>
    <dc:date>2026-02-01T01:49:37.621025</dc:date>
    <dc:format>image/svg+xml</dc:format>
    <dc:creator>
     <cc:Agent>
      <dc:title>Matplotlib v3.8.4, https://matplotlib.org/</dc:title>
     </cc:Agent>
    </dc:creator>
   </cc:Work>
  </rdf:RDF>
 </metadata>
 <defs>
  <style type="text/css">*{stroke-linejoin: round; stroke-linecap: butt}</style>
 </defs>
 <g id="figure_1">
  <g id="patch_1">
   <path d="M 0 425.278125 
L 714.63367 425.278125 
L 714.63367 0 
L 0 0 
z
" style="fill: #ffffff"/>
  </g>
  <g id="axes_1">
   <g id="patch_2">
    <path d="M 37.432516 160.234489 
L 118.232113 160.234489 
L 118.232113 80.282973 
L 37.432516 80.282973 
z
" clip-path="url(#p2cf9252ee7)" style="fill: #d3d3d3"/>
   </g>
   <g id="patch_3">
    <path d="M 189.605091 120.258731 
L 177.485151 126.255095 
L 177.485151 120.298707 
L 123.618753 120.298707 
L 123.618753 120.218755 
L 177.485151 120.218755 
L 177.485151 114.262367 
z
" clip-path="url(#p2cf9252ee7)" style="fill: #1f77b4; stroke: #000000; stroke-linejoin: miter"/>
   </g>
   <g id="patch_4">
    <path d="M 225.96491 200.210246 
C 240.250446 200.210246 253.952806 191.78605 264.054205 176.79299 
C 274.155605 161.799929 279.831308 141.462121 279.831308 120.258731 
C 279.831308 99.055341 274.155605 78.717533 264.054205 63.724473 
C 253.952806 48.731412 240.250446 40.307216 225.96491 40.307216 
C 211.679374 40.307216 197.977014 48.731412 187.875614 63.724473 
C 177.774215 78.717533 172.098512 99.055341 172.098512 120.258731 
C 172.098512 141.462121 177.774215 161.799929 187.875614 176.79299 
C 197.977014 191.78605 211.679374 200.210246 225.96491 200.210246 
z
" clip-path="url(#p2cf9252ee7)" style="fill: #add8e6; stroke: #0000ff; stroke-linejoin: miter"/>
   </g>
   <g id="patch_5">
    <path d="M 372.750845 120.258731 
L 360.630905 126.255095 
L 360.630905 120.298707 
L 279.831308 120.298707 
L 279.831308 120.218755 
L 360.630905 120.218755 
L 360.630905 114.262367 
z
" clip-path="url(#p2cf9252ee7)" style="fill: #1f77b4; stroke: #000000; stroke-linejoin: miter"/>
   </g>
   <g id="patch_6">
    <path d="M 279.831308 400.089034 
L 360.630905 400.089034 
L 360.630905 320.137519 
L 279.831308 320.137519 
z
" clip-path="url(#p2cf9252ee7)" style="fill: #90ee90"/>
   </g>
   <g id="patch_7">
    <path d="M 451.514902 210.188798 
L 439.189525 205.199522 
L 441.415563 200.243508 
L 360.615966 120.291993 
L 360.645845 120.225469 
L 441.445443 200.176984 
L 443.67148 195.22097 
z
" clip-path="url(#p2cf9252ee7)" style="fill: #1f77b4; stroke: #000000; stroke-linejoin: miter"/>
   </g>
   <g id="patch_8">
    <path d="M 451.514902 270.183209 
L 443.67148 285.151037 
L 441.445443 280.195023 
L 360.645845 360.146538 
L 360.615966 360.080015 
L 441.415563 280.1285 
L 439.189525 275.172485 
z
" clip-path="url(#p2cf9252ee7)" style="fill: #1f77b4; stroke: #000000; stroke-linejoin: miter"/>
   </g>
   <g id="patch_9">
    <path d="M 495.296901 320.137519 
C 509.582437 320.137519 523.284797 311.713323 533.386197 296.720262 
C 543.487596 281.727202 549.163299 261.389393 549.163299 240.186004 
C 549.163299 218.982614 543.487596 198.644806 533.386197 183.651745 
C 523.284797 168.658685 509.582437 160.234489 495.296901 160.234489 
C 481.011365 160.234489 467.309005 168.658685 457.207606 183.651745 
C 447.106206 198.644806 441.430503 218.982614 441.430503 240.186004 
C 441.430503 261.389393 447.106206 281.727202 457.207606 296.720262 
C 467.309005 311.713323 481.011365 320.137519 495.296901 320.137519 
z
" clip-path="url(#p2cf9252ee7)" style="fill: #fa8072; stroke: #ff0000; stroke-linejoin: miter"/>
   </g>
   <g id="patch_10">
    <path d="M 642.082836 240.186004 
L 629.962897 246.182367 
L 629.962897 240.22598 
L 549.163299 240.22598 
L 549.163299 240.146028 
L 629.962897 240.146028 
L 629.962897 234.18964 
z
" clip-path="url(#p2cf9252ee7)" style="fill: #1f77b4; stroke: #000000; stroke-linejoin: miter"/>
   </g>
   <g id="text_1">
    <!-- Ruido (z) -->
    <g transform="translate(55.676846 120.258731) scale(0.1 -0.1)">
     <defs>
      <path id="DejaVuSans-52" d="M 2841 2188 
Q 3044 2119 3236 1894 
Q 3428 1669 3622 1275 
L 4263 0 
L 3584 0 
L 2988 1197 
Q 2756 1666 2539 1819 
Q 2322 1972 1947 1972 
L 1259 1972 
L 1259 0 
L 628 0 
L 628 4666 
L 2053 4666 
Q 2853 4666 3247 4331 
Q 3641 3997 3641 3322 
Q 3641 2881 3436 2590 
Q 3231 2300 2841 2188 
z
M 1259 4147 
L 1259 2491 
L 2053 2491 
Q 2509 2491 2742 2702 
Q 2975 2913 2975 3322 
Q 2975 3731 2742 3939 
Q 2509 4147 2053 4147 
L 1259 4147 
z
" transform="scale(0.015625)"/>
      <path id="DejaVuSans-75" d="M 544 1381 
L 544 3500 
L 1119 3500 
L 1119 1403 
Q 1119 906 1312 657 
Q 1506 409 1894 409 
Q 2359 409 2629 706 
Q 2900 1003 2900 1516 
L 2900 3500 
L 3475 3500 
L 3475 0 
L 2900 0 
L 2900 538 
Q 2691 219 2414 64 
Q 2138 -91 1772 -91 
Q 1169 -91 856 284 
Q 544 659 544 1381 
z
M 1991 3584 
L 1991 3584 
z
" transform="scale(0.015625)"/>
      <path id="DejaVuSans-69" d="M 603 3500 
L 1178 3500 
L 1178 0 
L 603 0 
L 603 3500 
z
M 603 4863 
L 1178 4863 
L 1178 4134 
L 603 4134 
L 603 4863 
z
" transform="scale(0.015625)"/>
      <path id="DejaVuSans-64" d="M 2906 2969 
L 2906 4863 
L 3481 4863 
L 3481 0 
L 2906 0 
L 2906 525 
Q 2725 213 2448 61 
Q 2172 -91 1784 -91 
Q 1150 -91 751 415 
Q 353 922 353 1747 
Q 353 2572 751 3078 
Q 1150 3584 1784 3584 
Q 2172 3584 2448 3432 
Q 2725 3281 2906 2969 
z
M 947 1747 
Q 947 1113 1208 752 
Q 1469 391 1925 391 
Q 2381 391 2643 752 
Q 2906 1113 2906 1747 
Q 2906 2381 2643 2742 
Q 2381 3103 1925 3103 
Q 1469 3103 1208 2742 
Q 947 2381 947 1747 
z
" transform="scale(0.015625)"/>
      <path id="DejaVuSans-6f" d="M 1959 3097 
Q 1497 3097 1228 2736 
Q 959 2375 959 1747 
Q 959 1119 1226 758 
Q 1494 397 1959 397 
Q 2419 397 2687 759 
Q 2956 1122 2956 1747 
Q 2956 2369 2687 2733 
Q 2419 3097 1959 3097 
z
M 1959 3584 
Q 2709 3584 3137 3096 
Q 3566 2609 3566 1747 
Q 3566 888 3137 398 
Q 2709 -91 1959 -91 
Q 1206 -91 779 398 
Q 353 888 353 1747 
Q 353 2609 779 3096 
Q 1206 3584 1959 3584 
z
" transform="scale(0.015625)"/>
      <path id="DejaVuSans-20" transform="scale(0.015625)"/>
      <path id="DejaVuSans-28" d="M 1984 4856 
Q 1566 4138 1362 3434 
Q 1159 2731 1159 2009 
Q 1159 1288 1364 580 
Q 1569 -128 1984 -844 
L 1484 -844 
Q 1016 -109 783 600 
Q 550 1309 550 2009 
Q 550 2706 781 3412 
Q 1013 4119 1484 4856 
L 1984 4856 
z
" transform="scale(0.015625)"/>
      <path id="DejaVuSans-7a" d="M 353 3500 
L 3084 3500 
L 3084 2975 
L 922 459 
L 3084 459 
L 3084 0 
L 275 0 
L 275 525 
L 2438 3041 
L 353 3041 
L 353 3500 
z
" transform="scale(0.015625)"/>
      <path id="DejaVuSans-29" d="M 513 4856 
L 1013 4856 
Q 1481 4119 1714 3412 
Q 1947 2706 1947 2009 
Q 1947 1309 1714 600 
Q 1481 -109 1013 -844 
L 513 -844 
Q 928 -128 1133 580 
Q 1338 1288 1338 2009 
Q 1338 2731 1133 3434 
Q 928 4138 513 4856 
z
" transform="scale(0.015625)"/>
     </defs>
     <use xlink:href="#DejaVuSans-52"/>
     <use xlink:href="#DejaVuSans-75" x="64.982422"/>
     <use xlink:href="#DejaVuSans-69" x="128.361328"/>
     <use xlink:href="#DejaVuSans-64" x="156.144531"/>
     <use xlink:href="#DejaVuSans-6f" x="219.621094"/>
     <use xlink:href="#DejaVuSans-20" x="280.802734"/>
     <use xlink:href="#DejaVuSans-28" x="312.589844"/>
     <use xlink:href="#DejaVuSans-7a" x="351.603516"/>
     <use xlink:href="#DejaVuSans-29" x="404.09375"/>
    </g>
   </g>
   <g id="text_2">
    <!-- Generador -->
    <g transform="translate(196.199285 109.060919) scale(0.1 -0.1)">
     <defs>
      <path id="DejaVuSans-Bold-47" d="M 4781 347 
Q 4331 128 3847 18 
Q 3363 -91 2847 -91 
Q 1681 -91 1000 561 
Q 319 1213 319 2328 
Q 319 3456 1012 4103 
Q 1706 4750 2913 4750 
Q 3378 4750 3804 4662 
Q 4231 4575 4609 4403 
L 4609 3438 
Q 4219 3659 3833 3768 
Q 3447 3878 3059 3878 
Q 2341 3878 1952 3476 
Q 1563 3075 1563 2328 
Q 1563 1588 1938 1184 
Q 2313 781 3003 781 
Q 3191 781 3352 804 
Q 3513 828 3641 878 
L 3641 1784 
L 2906 1784 
L 2906 2591 
L 4781 2591 
L 4781 347 
z
" transform="scale(0.015625)"/>
      <path id="DejaVuSans-Bold-65" d="M 4031 1759 
L 4031 1441 
L 1416 1441 
Q 1456 1047 1700 850 
Q 1944 653 2381 653 
Q 2734 653 3104 758 
Q 3475 863 3866 1075 
L 3866 213 
Q 3469 63 3072 -14 
Q 2675 -91 2278 -91 
Q 1328 -91 801 392 
Q 275 875 275 1747 
Q 275 2603 792 3093 
Q 1309 3584 2216 3584 
Q 3041 3584 3536 3087 
Q 4031 2591 4031 1759 
z
M 2881 2131 
Q 2881 2450 2695 2645 
Q 2509 2841 2209 2841 
Q 1884 2841 1681 2658 
Q 1478 2475 1428 2131 
L 2881 2131 
z
" transform="scale(0.015625)"/>
      <path id="DejaVuSans-Bold-6e" d="M 4056 2131 
L 4056 0 
L 2931 0 
L 2931 347 
L 2931 1631 
Q 2931 2084 2911 2256 
Q 2891 2428 2841 2509 
Q 2775 2619 2662 2680 
Q 2550 2741 2406 2741 
Q 2056 2741 1856 2470 
Q 1656 2200 1656 1722 
L 1656 0 
L 538 0 
L 538 3500 
L 1656 3500 
L 1656 2988 
Q 1909 3294 2193 3439 
Q 2478 3584 2822 3584 
Q 3428 3584 3742 3212 
Q 4056 2841 4056 2131 
z
" transform="scale(0.015625)"/>
      <path id="DejaVuSans-Bold-72" d="M 3138 2547 
Q 2991 2616 2845 2648 
Q 2700 2681 2553 2681 
Q 2122 2681 1889 2404 
Q 1656 2128 1656 1613 
L 1656 0 
L 538 0 
L 538 3500 
L 1656 3500 
L 1656 2925 
Q 1872 3269 2151 3426 
Q 2431 3584 2822 3584 
Q 2878 3584 2943 3579 
Q 3009 3575 3134 3559 
L 3138 2547 
z
" transform="scale(0.015625)"/>
      <path id="DejaVuSans-Bold-61" d="M 2106 1575 
Q 1756 1575 1579 1456 
Q 1403 1338 1403 1106 
Q 1403 894 1545 773 
Q 1688 653 1941 653 
Q 2256 653 2472 879 
Q 2688 1106 2688 1447 
L 2688 1575 
L 2106 1575 
z
M 3816 1997 
L 3816 0 
L 2688 0 
L 2688 519 
Q 2463 200 2181 54 
Q 1900 -91 1497 -91 
Q 953 -91 614 226 
Q 275 544 275 1050 
Q 275 1666 698 1953 
Q 1122 2241 2028 2241 
L 2688 2241 
L 2688 2328 
Q 2688 2594 2478 2717 
Q 2269 2841 1825 2841 
Q 1466 2841 1156 2769 
Q 847 2697 581 2553 
L 581 3406 
Q 941 3494 1303 3539 
Q 1666 3584 2028 3584 
Q 2975 3584 3395 3211 
Q 3816 2838 3816 1997 
z
" transform="scale(0.015625)"/>
      <path id="DejaVuSans-Bold-64" d="M 2919 2988 
L 2919 4863 
L 4044 4863 
L 4044 0 
L 2919 0 
L 2919 506 
Q 2688 197 2409 53 
Q 2131 -91 1766 -91 
Q 1119 -91 703 423 
Q 288 938 288 1747 
Q 288 2556 703 3070 
Q 1119 3584 1766 3584 
Q 2128 3584 2408 3439 
Q 2688 3294 2919 2988 
z
M 2181 722 
Q 2541 722 2730 984 
Q 2919 1247 2919 1747 
Q 2919 2247 2730 2509 
Q 2541 2772 2181 2772 
Q 1825 2772 1636 2509 
Q 1447 2247 1447 1747 
Q 1447 1247 1636 984 
Q 1825 722 2181 722 
z
" transform="scale(0.015625)"/>
      <path id="DejaVuSans-Bold-6f" d="M 2203 2784 
Q 1831 2784 1636 2517 
Q 1441 2250 1441 1747 
Q 1441 1244 1636 976 
Q 1831 709 2203 709 
Q 2569 709 2762 976 
Q 2956 1244 2956 1747 
Q 2956 2250 2762 2517 
Q 2569 2784 2203 2784 
z
M 2203 3584 
Q 3106 3584 3614 3096 
Q 4122 2609 4122 1747 
Q 4122 884 3614 396 
Q 3106 -91 2203 -91 
Q 1297 -91 786 396 
Q 275 884 275 1747 
Q 275 2609 786 3096 
Q 1297 3584 2203 3584 
z
" transform="scale(0.015625)"/>
     </defs>
     <use xlink:href="#DejaVuSans-Bold-47"/>
     <use xlink:href="#DejaVuSans-Bold-65" x="82.080078"/>
     <use xlink:href="#DejaVuSans-Bold-6e" x="149.902344"/>
     <use xlink:href="#DejaVuSans-Bold-65" x="221.09375"/>
     <use xlink:href="#DejaVuSans-Bold-72" x="288.916016"/>
     <use xlink:href="#DejaVuSans-Bold-61" x="338.232422"/>
     <use xlink:href="#DejaVuSans-Bold-64" x="405.712891"/>
     <use xlink:href="#DejaVuSans-Bold-6f" x="477.294922"/>
     <use xlink:href="#DejaVuSans-Bold-72" x="545.996094"/>
    </g>
    <!-- (G) -->
    <g transform="translate(217.290691 120.258731) scale(0.1 -0.1)">
     <defs>
      <path id="DejaVuSans-Bold-28" d="M 2413 -844 
L 1484 -844 
Q 1006 -72 778 623 
Q 550 1319 550 2003 
Q 550 2688 779 3389 
Q 1009 4091 1484 4856 
L 2413 4856 
Q 2013 4116 1813 3408 
Q 1613 2700 1613 2009 
Q 1613 1319 1811 609 
Q 2009 -100 2413 -844 
z
" transform="scale(0.015625)"/>
      <path id="DejaVuSans-Bold-29" d="M 513 -844 
Q 913 -100 1113 609 
Q 1313 1319 1313 2009 
Q 1313 2700 1113 3408 
Q 913 4116 513 4856 
L 1441 4856 
Q 1916 4091 2145 3389 
Q 2375 2688 2375 2003 
Q 2375 1319 2147 623 
Q 1919 -72 1441 -844 
L 513 -844 
z
" transform="scale(0.015625)"/>
     </defs>
     <use xlink:href="#DejaVuSans-Bold-28"/>
     <use xlink:href="#DejaVuSans-Bold-47" x="45.703125"/>
     <use xlink:href="#DejaVuSans-Bold-29" x="127.783203"/>
    </g>
   </g>
   <g id="text_3">
    <!-- Fake Data -->
    <g transform="translate(295.429544 96.273277) scale(0.1 -0.1)">
     <defs>
      <path id="DejaVuSans-46" d="M 628 4666 
L 3309 4666 
L 3309 4134 
L 1259 4134 
L 1259 2759 
L 3109 2759 
L 3109 2228 
L 1259 2228 
L 1259 0 
L 628 0 
L 628 4666 
z
" transform="scale(0.015625)"/>
      <path id="DejaVuSans-61" d="M 2194 1759 
Q 1497 1759 1228 1600 
Q 959 1441 959 1056 
Q 959 750 1161 570 
Q 1363 391 1709 391 
Q 2188 391 2477 730 
Q 2766 1069 2766 1631 
L 2766 1759 
L 2194 1759 
z
M 3341 1997 
L 3341 0 
L 2766 0 
L 2766 531 
Q 2569 213 2275 61 
Q 1981 -91 1556 -91 
Q 1019 -91 701 211 
Q 384 513 384 1019 
Q 384 1609 779 1909 
Q 1175 2209 1959 2209 
L 2766 2209 
L 2766 2266 
Q 2766 2663 2505 2880 
Q 2244 3097 1772 3097 
Q 1472 3097 1187 3025 
Q 903 2953 641 2809 
L 641 3341 
Q 956 3463 1253 3523 
Q 1550 3584 1831 3584 
Q 2591 3584 2966 3190 
Q 3341 2797 3341 1997 
z
" transform="scale(0.015625)"/>
      <path id="DejaVuSans-6b" d="M 581 4863 
L 1159 4863 
L 1159 1991 
L 2875 3500 
L 3609 3500 
L 1753 1863 
L 3688 0 
L 2938 0 
L 1159 1709 
L 1159 0 
L 581 0 
L 581 4863 
z
" transform="scale(0.015625)"/>
      <path id="DejaVuSans-65" d="M 3597 1894 
L 3597 1613 
L 953 1613 
Q 991 1019 1311 708 
Q 1631 397 2203 397 
Q 2534 397 2845 478 
Q 3156 559 3463 722 
L 3463 178 
Q 3153 47 2828 -22 
Q 2503 -91 2169 -91 
Q 1331 -91 842 396 
Q 353 884 353 1716 
Q 353 2575 817 3079 
Q 1281 3584 2069 3584 
Q 2775 3584 3186 3129 
Q 3597 2675 3597 1894 
z
M 3022 2063 
Q 3016 2534 2758 2815 
Q 2500 3097 2075 3097 
Q 1594 3097 1305 2825 
Q 1016 2553 972 2059 
L 3022 2063 
z
" transform="scale(0.015625)"/>
      <path id="DejaVuSans-44" d="M 1259 4147 
L 1259 519 
L 2022 519 
Q 2988 519 3436 956 
Q 3884 1394 3884 2338 
Q 3884 3275 3436 3711 
Q 2988 4147 2022 4147 
L 1259 4147 
z
M 628 4666 
L 1925 4666 
Q 3281 4666 3915 4102 
Q 4550 3538 4550 2338 
Q 4550 1131 3912 565 
Q 3275 0 1925 0 
L 628 0 
L 628 4666 
z
" transform="scale(0.015625)"/>
      <path id="DejaVuSans-74" d="M 1172 4494 
L 1172 3500 
L 2356 3500 
L 2356 3053 
L 1172 3053 
L 1172 1153 
Q 1172 725 1289 603 
Q 1406 481 1766 481 
L 2356 481 
L 2356 0 
L 1766 0 
Q 1100 0 847 248 
Q 594 497 594 1153 
L 594 3053 
L 172 3053 
L 172 3500 
L 594 3500 
L 594 4494 
L 1172 4494 
z
" transform="scale(0.015625)"/>
     </defs>
     <use xlink:href="#DejaVuSans-46"/>
     <use xlink:href="#DejaVuSans-61" x="48.394531"/>
     <use xlink:href="#DejaVuSans-6b" x="109.673828"/>
     <use xlink:href="#DejaVuSans-65" x="163.958984"/>
     <use xlink:href="#DejaVuSans-20" x="225.482422"/>
     <use xlink:href="#DejaVuSans-44" x="257.269531"/>
     <use xlink:href="#DejaVuSans-61" x="334.271484"/>
     <use xlink:href="#DejaVuSans-74" x="395.550781"/>
     <use xlink:href="#DejaVuSans-61" x="434.759766"/>
    </g>
   </g>
   <g id="text_4">
    <!-- Real Data -->
    <g transform="translate(295.924857 348.915464) scale(0.1 -0.1)">
     <defs>
      <path id="DejaVuSans-6c" d="M 603 4863 
L 1178 4863 
L 1178 0 
L 603 0 
L 603 4863 
z
" transform="scale(0.015625)"/>
     </defs>
     <use xlink:href="#DejaVuSans-52"/>
     <use xlink:href="#DejaVuSans-65" x="64.982422"/>
     <use xlink:href="#DejaVuSans-61" x="126.505859"/>
     <use xlink:href="#DejaVuSans-6c" x="187.785156"/>
     <use xlink:href="#DejaVuSans-20" x="215.568359"/>
     <use xlink:href="#DejaVuSans-44" x="247.355469"/>
     <use xlink:href="#DejaVuSans-61" x="324.357422"/>
     <use xlink:href="#DejaVuSans-74" x="385.636719"/>
     <use xlink:href="#DejaVuSans-61" x="424.845703"/>
    </g>
    <!-- (Dataset) -->
    <g transform="translate(296.749857 360.113277) scale(0.1 -0.1)">
     <defs>
      <path id="DejaVuSans-73" d="M 2834 3397 
L 2834 2853 
Q 2591 2978 2328 3040 
Q 2066 3103 1784 3103 
Q 1356 3103 1142 2972 
Q 928 2841 928 2578 
Q 928 2378 1081 2264 
Q 1234 2150 1697 2047 
L 1894 2003 
Q 2506 1872 2764 1633 
Q 3022 1394 3022 966 
Q 3022 478 2636 193 
Q 2250 -91 1575 -91 
Q 1294 -91 989 -36 
Q 684 19 347 128 
L 347 722 
Q 666 556 975 473 
Q 1284 391 1588 391 
Q 1994 391 2212 530 
Q 2431 669 2431 922 
Q 2431 1156 2273 1281 
Q 2116 1406 1581 1522 
L 1381 1569 
Q 847 1681 609 1914 
Q 372 2147 372 2553 
Q 372 3047 722 3315 
Q 1072 3584 1716 3584 
Q 2034 3584 2315 3537 
Q 2597 3491 2834 3397 
z
" transform="scale(0.015625)"/>
     </defs>
     <use xlink:href="#DejaVuSans-28"/>
     <use xlink:href="#DejaVuSans-44" x="39.013672"/>
     <use xlink:href="#DejaVuSans-61" x="116.015625"/>
     <use xlink:href="#DejaVuSans-74" x="177.294922"/>
     <use xlink:href="#DejaVuSans-61" x="216.503906"/>
     <use xlink:href="#DejaVuSans-73" x="277.783203"/>
     <use xlink:href="#DejaVuSans-65" x="329.882812"/>
     <use xlink:href="#DejaVuSans-74" x="391.40625"/>
     <use xlink:href="#DejaVuSans-29" x="430.615234"/>
    </g>
   </g>
   <g id="text_5">
    <!-- Discriminator -->
    <g transform="translate(457.164089 228.988191) scale(0.1 -0.1)">
     <defs>
      <path id="DejaVuSans-Bold-44" d="M 1791 3756 
L 1791 909 
L 2222 909 
Q 2959 909 3348 1275 
Q 3738 1641 3738 2338 
Q 3738 3031 3350 3393 
Q 2963 3756 2222 3756 
L 1791 3756 
z
M 588 4666 
L 1856 4666 
Q 2919 4666 3439 4514 
Q 3959 4363 4331 4000 
Q 4659 3684 4818 3271 
Q 4978 2859 4978 2338 
Q 4978 1809 4818 1395 
Q 4659 981 4331 666 
Q 3956 303 3431 151 
Q 2906 0 1856 0 
L 588 0 
L 588 4666 
z
" transform="scale(0.015625)"/>
      <path id="DejaVuSans-Bold-69" d="M 538 3500 
L 1656 3500 
L 1656 0 
L 538 0 
L 538 3500 
z
M 538 4863 
L 1656 4863 
L 1656 3950 
L 538 3950 
L 538 4863 
z
" transform="scale(0.015625)"/>
      <path id="DejaVuSans-Bold-73" d="M 3272 3391 
L 3272 2541 
Q 2913 2691 2578 2766 
Q 2244 2841 1947 2841 
Q 1628 2841 1473 2761 
Q 1319 2681 1319 2516 
Q 1319 2381 1436 2309 
Q 1553 2238 1856 2203 
L 2053 2175 
Q 2913 2066 3209 1816 
Q 3506 1566 3506 1031 
Q 3506 472 3093 190 
Q 2681 -91 1863 -91 
Q 1516 -91 1145 -36 
Q 775 19 384 128 
L 384 978 
Q 719 816 1070 734 
Q 1422 653 1784 653 
Q 2113 653 2278 743 
Q 2444 834 2444 1013 
Q 2444 1163 2330 1236 
Q 2216 1309 1875 1350 
L 1678 1375 
Q 931 1469 631 1722 
Q 331 1975 331 2491 
Q 331 3047 712 3315 
Q 1094 3584 1881 3584 
Q 2191 3584 2531 3537 
Q 2872 3491 3272 3391 
z
" transform="scale(0.015625)"/>
      <path id="DejaVuSans-Bold-63" d="M 3366 3391 
L 3366 2478 
Q 3138 2634 2908 2709 
Q 2678 2784 2431 2784 
Q 1963 2784 1702 2511 
Q 1441 2238 1441 1747 
Q 1441 1256 1702 982 
Q 1963 709 2431 709 
Q 2694 709 2930 787 
Q 3166 866 3366 1019 
L 3366 103 
Q 3103 6 2833 -42 
Q 2563 -91 2291 -91 
Q 1344 -91 809 395 
Q 275 881 275 1747 
Q 275 2613 809 3098 
Q 1344 3584 2291 3584 
Q 2566 3584 2833 3536 
Q 3100 3488 3366 3391 
z
" transform="scale(0.015625)"/>
      <path id="DejaVuSans-Bold-6d" d="M 3781 2919 
Q 3994 3244 4286 3414 
Q 4578 3584 4928 3584 
Q 5531 3584 5847 3212 
Q 6163 2841 6163 2131 
L 6163 0 
L 5038 0 
L 5038 1825 
Q 5041 1866 5042 1909 
Q 5044 1953 5044 2034 
Q 5044 2406 4934 2573 
Q 4825 2741 4581 2741 
Q 4263 2741 4089 2478 
Q 3916 2216 3909 1719 
L 3909 0 
L 2784 0 
L 2784 1825 
Q 2784 2406 2684 2573 
Q 2584 2741 2328 2741 
Q 2006 2741 1831 2477 
Q 1656 2213 1656 1722 
L 1656 0 
L 531 0 
L 531 3500 
L 1656 3500 
L 1656 2988 
Q 1863 3284 2130 3434 
Q 2397 3584 2719 3584 
Q 3081 3584 3359 3409 
Q 3638 3234 3781 2919 
z
" transform="scale(0.015625)"/>
      <path id="DejaVuSans-Bold-74" d="M 1759 4494 
L 1759 3500 
L 2913 3500 
L 2913 2700 
L 1759 2700 
L 1759 1216 
Q 1759 972 1856 886 
Q 1953 800 2241 800 
L 2816 800 
L 2816 0 
L 1856 0 
Q 1194 0 917 276 
Q 641 553 641 1216 
L 641 2700 
L 84 2700 
L 84 3500 
L 641 3500 
L 641 4494 
L 1759 4494 
z
" transform="scale(0.015625)"/>
     </defs>
     <use xlink:href="#DejaVuSans-Bold-44"/>
     <use xlink:href="#DejaVuSans-Bold-69" x="83.007812"/>
     <use xlink:href="#DejaVuSans-Bold-73" x="117.285156"/>
     <use xlink:href="#DejaVuSans-Bold-63" x="176.806641"/>
     <use xlink:href="#DejaVuSans-Bold-72" x="236.083984"/>
     <use xlink:href="#DejaVuSans-Bold-69" x="285.400391"/>
     <use xlink:href="#DejaVuSans-Bold-6d" x="319.677734"/>
     <use xlink:href="#DejaVuSans-Bold-69" x="423.876953"/>
     <use xlink:href="#DejaVuSans-Bold-6e" x="458.154297"/>
     <use xlink:href="#DejaVuSans-Bold-61" x="529.345703"/>
     <use xlink:href="#DejaVuSans-Bold-74" x="596.826172"/>
     <use xlink:href="#DejaVuSans-Bold-6f" x="644.628906"/>
     <use xlink:href="#DejaVuSans-Bold-72" x="713.330078"/>
    </g>
    <!-- (D) -->
    <g transform="translate(486.575807 240.186004) scale(0.1 -0.1)">
     <use xlink:href="#DejaVuSans-Bold-28"/>
     <use xlink:href="#DejaVuSans-Bold-44" x="45.703125"/>
     <use xlink:href="#DejaVuSans-Bold-29" x="128.710938"/>
    </g>
   </g>
   <g id="text_6">
    <g id="patch_11">
     <path d="M 667.25913 246.281629 
L 703.83367 246.281629 
L 703.83367 254.34441 
L 728.022014 230.156066 
L 703.83367 205.967723 
L 703.83367 214.030504 
L 667.25913 214.030504 
L 667.25913 205.967723 
L 643.070786 230.156066 
L 667.25913 254.34441 
L 667.25913 246.281629 
z
" style="fill: #ffff00; stroke: #000000; stroke-linejoin: miter"/>
    </g>
    <!-- ¿Real o  -->
    <g transform="translate(660.22492 226.748629) scale(0.12 -0.12)">
     <defs>
      <path id="DejaVuSans-bf" d="M 1563 2247 
L 2156 2247 
L 2156 1759 
Q 2156 1444 2070 1241 
Q 1984 1038 1703 766 
L 1422 491 
Q 1241 325 1161 178 
Q 1081 31 1081 -122 
Q 1081 -400 1286 -572 
Q 1491 -744 1831 -744 
Q 2075 -744 2356 -634 
Q 2638 -525 2938 -316 
L 2938 -903 
Q 2644 -1081 2344 -1168 
Q 2044 -1256 1722 -1256 
Q 1147 -1256 797 -953 
Q 447 -650 447 -153 
Q 447 84 561 298 
Q 675 513 953 781 
L 1228 1050 
Q 1378 1197 1437 1280 
Q 1497 1363 1522 1441 
Q 1544 1506 1553 1600 
Q 1563 1694 1563 1863 
L 1563 2247 
z
M 2175 2706 
L 1544 2706 
L 1544 3500 
L 2175 3500 
L 2175 2706 
z
" transform="scale(0.015625)"/>
     </defs>
     <use xlink:href="#DejaVuSans-bf"/>
     <use xlink:href="#DejaVuSans-52" x="53.076172"/>
     <use xlink:href="#DejaVuSans-65" x="118.058594"/>
     <use xlink:href="#DejaVuSans-61" x="179.582031"/>
     <use xlink:href="#DejaVuSans-6c" x="240.861328"/>
     <use xlink:href="#DejaVuSans-20" x="268.644531"/>
     <use xlink:href="#DejaVuSans-6f" x="300.431641"/>
     <use xlink:href="#DejaVuSans-20" x="361.613281"/>
    </g>
    <!-- Fake? -->
    <g transform="translate(667.115545 240.186004) scale(0.12 -0.12)">
     <defs>
      <path id="DejaVuSans-3f" d="M 1222 794 
L 1856 794 
L 1856 0 
L 1222 0 
L 1222 794 
z
M 1838 1253 
L 1241 1253 
L 1241 1734 
Q 1241 2050 1328 2253 
Q 1416 2456 1697 2725 
L 1978 3003 
Q 2156 3169 2236 3316 
Q 2316 3463 2316 3616 
Q 2316 3894 2111 4066 
Q 1906 4238 1569 4238 
Q 1322 4238 1042 4128 
Q 763 4019 459 3809 
L 459 4397 
Q 753 4575 1054 4662 
Q 1356 4750 1678 4750 
Q 2253 4750 2601 4447 
Q 2950 4144 2950 3647 
Q 2950 3409 2837 3195 
Q 2725 2981 2444 2713 
L 2169 2444 
Q 2022 2297 1961 2214 
Q 1900 2131 1875 2053 
Q 1856 1988 1847 1894 
Q 1838 1800 1838 1638 
L 1838 1253 
z
" transform="scale(0.015625)"/>
     </defs>
     <use xlink:href="#DejaVuSans-46"/>
     <use xlink:href="#DejaVuSans-61" x="48.394531"/>
     <use xlink:href="#DejaVuSans-6b" x="109.673828"/>
     <use xlink:href="#DejaVuSans-65" x="163.958984"/>
     <use xlink:href="#DejaVuSans-3f" x="225.482422"/>
    </g>
   </g>
   <g id="patch_12">
    <path d="M 290.867685 38.119666 
Q 358.318337 152.783537 492.179186 152.257863 
" style="fill: none; stroke-dasharray: 3.7,1.6; stroke-dashoffset: 0; stroke: #ff0000; stroke-linecap: round"/>
    <path d="M 488.171363 150.273587 
L 492.179186 152.257863 
L 488.18707 154.273556 
" style="fill: none; stroke-dasharray: 3.7,1.6; stroke-dashoffset: 0; stroke: #ff0000; stroke-linecap: round"/>
   </g>
   <g id="text_7">
    <!-- Backpropagation (Error) -->
    <g transform="translate(225.96491 32.312064) scale(0.1 -0.1)">
     <defs>
      <path id="DejaVuSans-42" d="M 1259 2228 
L 1259 519 
L 2272 519 
Q 2781 519 3026 730 
Q 3272 941 3272 1375 
Q 3272 1813 3026 2020 
Q 2781 2228 2272 2228 
L 1259 2228 
z
M 1259 4147 
L 1259 2741 
L 2194 2741 
Q 2656 2741 2882 2914 
Q 3109 3088 3109 3444 
Q 3109 3797 2882 3972 
Q 2656 4147 2194 4147 
L 1259 4147 
z
M 628 4666 
L 2241 4666 
Q 2963 4666 3353 4366 
Q 3744 4066 3744 3513 
Q 3744 3084 3544 2831 
Q 3344 2578 2956 2516 
Q 3422 2416 3680 2098 
Q 3938 1781 3938 1306 
Q 3938 681 3513 340 
Q 3088 0 2303 0 
L 628 0 
L 628 4666 
z
" transform="scale(0.015625)"/>
      <path id="DejaVuSans-63" d="M 3122 3366 
L 3122 2828 
Q 2878 2963 2633 3030 
Q 2388 3097 2138 3097 
Q 1578 3097 1268 2742 
Q 959 2388 959 1747 
Q 959 1106 1268 751 
Q 1578 397 2138 397 
Q 2388 397 2633 464 
Q 2878 531 3122 666 
L 3122 134 
Q 2881 22 2623 -34 
Q 2366 -91 2075 -91 
Q 1284 -91 818 406 
Q 353 903 353 1747 
Q 353 2603 823 3093 
Q 1294 3584 2113 3584 
Q 2378 3584 2631 3529 
Q 2884 3475 3122 3366 
z
" transform="scale(0.015625)"/>
      <path id="DejaVuSans-70" d="M 1159 525 
L 1159 -1331 
L 581 -1331 
L 581 3500 
L 1159 3500 
L 1159 2969 
Q 1341 3281 1617 3432 
Q 1894 3584 2278 3584 
Q 2916 3584 3314 3078 
Q 3713 2572 3713 1747 
Q 3713 922 3314 415 
Q 2916 -91 2278 -91 
Q 1894 -91 1617 61 
Q 1341 213 1159 525 
z
M 3116 1747 
Q 3116 2381 2855 2742 
Q 2594 3103 2138 3103 
Q 1681 3103 1420 2742 
Q 1159 2381 1159 1747 
Q 1159 1113 1420 752 
Q 1681 391 2138 391 
Q 2594 391 2855 752 
Q 3116 1113 3116 1747 
z
" transform="scale(0.015625)"/>
      <path id="DejaVuSans-72" d="M 2631 2963 
Q 2534 3019 2420 3045 
Q 2306 3072 2169 3072 
Q 1681 3072 1420 2755 
Q 1159 2438 1159 1844 
L 1159 0 
L 581 0 
L 581 3500 
L 1159 3500 
L 1159 2956 
Q 1341 3275 1631 3429 
Q 1922 3584 2338 3584 
Q 2397 3584 2469 3576 
Q 2541 3569 2628 3553 
L 2631 2963 
z
" transform="scale(0.015625)"/>
      <path id="DejaVuSans-67" d="M 2906 1791 
Q 2906 2416 2648 2759 
Q 2391 3103 1925 3103 
Q 1463 3103 1205 2759 
Q 947 2416 947 1791 
Q 947 1169 1205 825 
Q 1463 481 1925 481 
Q 2391 481 2648 825 
Q 2906 1169 2906 1791 
z
M 3481 434 
Q 3481 -459 3084 -895 
Q 2688 -1331 1869 -1331 
Q 1566 -1331 1297 -1286 
Q 1028 -1241 775 -1147 
L 775 -588 
Q 1028 -725 1275 -790 
Q 1522 -856 1778 -856 
Q 2344 -856 2625 -561 
Q 2906 -266 2906 331 
L 2906 616 
Q 2728 306 2450 153 
Q 2172 0 1784 0 
Q 1141 0 747 490 
Q 353 981 353 1791 
Q 353 2603 747 3093 
Q 1141 3584 1784 3584 
Q 2172 3584 2450 3431 
Q 2728 3278 2906 2969 
L 2906 3500 
L 3481 3500 
L 3481 434 
z
" transform="scale(0.015625)"/>
      <path id="DejaVuSans-6e" d="M 3513 2113 
L 3513 0 
L 2938 0 
L 2938 2094 
Q 2938 2591 2744 2837 
Q 2550 3084 2163 3084 
Q 1697 3084 1428 2787 
Q 1159 2491 1159 1978 
L 1159 0 
L 581 0 
L 581 3500 
L 1159 3500 
L 1159 2956 
Q 1366 3272 1645 3428 
Q 1925 3584 2291 3584 
Q 2894 3584 3203 3211 
Q 3513 2838 3513 2113 
z
" transform="scale(0.015625)"/>
      <path id="DejaVuSans-45" d="M 628 4666 
L 3578 4666 
L 3578 4134 
L 1259 4134 
L 1259 2753 
L 3481 2753 
L 3481 2222 
L 1259 2222 
L 1259 531 
L 3634 531 
L 3634 0 
L 628 0 
L 628 4666 
z
" transform="scale(0.015625)"/>
     </defs>
     <use xlink:href="#DejaVuSans-42"/>
     <use xlink:href="#DejaVuSans-61" x="68.603516"/>
     <use xlink:href="#DejaVuSans-63" x="129.882812"/>
     <use xlink:href="#DejaVuSans-6b" x="184.863281"/>
     <use xlink:href="#DejaVuSans-70" x="242.773438"/>
     <use xlink:href="#DejaVuSans-72" x="306.25"/>
     <use xlink:href="#DejaVuSans-6f" x="345.113281"/>
     <use xlink:href="#DejaVuSans-70" x="406.294922"/>
     <use xlink:href="#DejaVuSans-61" x="469.771484"/>
     <use xlink:href="#DejaVuSans-67" x="531.050781"/>
     <use xlink:href="#DejaVuSans-61" x="594.527344"/>
     <use xlink:href="#DejaVuSans-74" x="655.806641"/>
     <use xlink:href="#DejaVuSans-69" x="695.015625"/>
     <use xlink:href="#DejaVuSans-6f" x="722.798828"/>
     <use xlink:href="#DejaVuSans-6e" x="783.980469"/>
     <use xlink:href="#DejaVuSans-20" x="847.359375"/>
     <use xlink:href="#DejaVuSans-28" x="879.146484"/>
     <use xlink:href="#DejaVuSans-45" x="918.160156"/>
     <use xlink:href="#DejaVuSans-72" x="981.34375"/>
     <use xlink:href="#DejaVuSans-72" x="1020.707031"/>
     <use xlink:href="#DejaVuSans-6f" x="1059.570312"/>
     <use xlink:href="#DejaVuSans-72" x="1120.751953"/>
     <use xlink:href="#DejaVuSans-29" x="1161.865234"/>
    </g>
   </g>
   <g id="text_8">
    <!-- Ciclo de Entrenamiento GAN (Generative Adversarial Network) -->
    <g transform="translate(151.829239 16.318125) scale(0.12 -0.12)">
     <defs>
      <path id="DejaVuSans-43" d="M 4122 4306 
L 4122 3641 
Q 3803 3938 3442 4084 
Q 3081 4231 2675 4231 
Q 1875 4231 1450 3742 
Q 1025 3253 1025 2328 
Q 1025 1406 1450 917 
Q 1875 428 2675 428 
Q 3081 428 3442 575 
Q 3803 722 4122 1019 
L 4122 359 
Q 3791 134 3420 21 
Q 3050 -91 2638 -91 
Q 1578 -91 968 557 
Q 359 1206 359 2328 
Q 359 3453 968 4101 
Q 1578 4750 2638 4750 
Q 3056 4750 3426 4639 
Q 3797 4528 4122 4306 
z
" transform="scale(0.015625)"/>
      <path id="DejaVuSans-6d" d="M 3328 2828 
Q 3544 3216 3844 3400 
Q 4144 3584 4550 3584 
Q 5097 3584 5394 3201 
Q 5691 2819 5691 2113 
L 5691 0 
L 5113 0 
L 5113 2094 
Q 5113 2597 4934 2840 
Q 4756 3084 4391 3084 
Q 3944 3084 3684 2787 
Q 3425 2491 3425 1978 
L 3425 0 
L 2847 0 
L 2847 2094 
Q 2847 2600 2669 2842 
Q 2491 3084 2119 3084 
Q 1678 3084 1418 2786 
Q 1159 2488 1159 1978 
L 1159 0 
L 581 0 
L 581 3500 
L 1159 3500 
L 1159 2956 
Q 1356 3278 1631 3431 
Q 1906 3584 2284 3584 
Q 2666 3584 2933 3390 
Q 3200 3197 3328 2828 
z
" transform="scale(0.015625)"/>
      <path id="DejaVuSans-47" d="M 3809 666 
L 3809 1919 
L 2778 1919 
L 2778 2438 
L 4434 2438 
L 4434 434 
Q 4069 175 3628 42 
Q 3188 -91 2688 -91 
Q 1594 -91 976 548 
Q 359 1188 359 2328 
Q 359 3472 976 4111 
Q 1594 4750 2688 4750 
Q 3144 4750 3555 4637 
Q 3966 4525 4313 4306 
L 4313 3634 
Q 3963 3931 3569 4081 
Q 3175 4231 2741 4231 
Q 1884 4231 1454 3753 
Q 1025 3275 1025 2328 
Q 1025 1384 1454 906 
Q 1884 428 2741 428 
Q 3075 428 3337 486 
Q 3600 544 3809 666 
z
" transform="scale(0.015625)"/>
      <path id="DejaVuSans-41" d="M 2188 4044 
L 1331 1722 
L 3047 1722 
L 2188 4044 
z
M 1831 4666 
L 2547 4666 
L 4325 0 
L 3669 0 
L 3244 1197 
L 1141 1197 
L 716 0 
L 50 0 
L 1831 4666 
z
" transform="scale(0.015625)"/>
      <path id="DejaVuSans-4e" d="M 628 4666 
L 1478 4666 
L 3547 763 
L 3547 4666 
L 4159 4666 
L 4159 0 
L 3309 0 
L 1241 3903 
L 1241 0 
L 628 0 
L 628 4666 
z
" transform="scale(0.015625)"/>
      <path id="DejaVuSans-76" d="M 191 3500 
L 800 3500 
L 1894 563 
L 2988 3500 
L 3597 3500 
L 2284 0 
L 1503 0 
L 191 3500 
z
" transform="scale(0.015625)"/>
      <path id="DejaVuSans-77" d="M 269 3500 
L 844 3500 
L 1563 769 
L 2278 3500 
L 2956 3500 
L 3675 769 
L 4391 3500 
L 4966 3500 
L 4050 0 
L 3372 0 
L 2619 2869 
L 1863 0 
L 1184 0 
L 269 3500 
z
" transform="scale(0.015625)"/>
     </defs>
     <use xlink:href="#DejaVuSans-43"/>
     <use xlink:href="#DejaVuSans-69" x="69.824219"/>
     <use xlink:href="#DejaVuSans-63" x="97.607422"/>
     <use xlink:href="#DejaVuSans-6c" x="152.587891"/>
     <use xlink:href="#DejaVuSans-6f" x="180.371094"/>
     <use xlink:href="#DejaVuSans-20" x="241.552734"/>
     <use xlink:href="#DejaVuSans-64" x="273.339844"/>
     <use xlink:href="#DejaVuSans-65" x="336.816406"/>
     <use xlink:href="#DejaVuSans-20" x="398.339844"/>
     <use xlink:href="#DejaVuSans-45" x="430.126953"/>
     <use xlink:href="#DejaVuSans-6e" x="493.310547"/>
     <use xlink:href="#DejaVuSans-74" x="556.689453"/>
     <use xlink:href="#DejaVuSans-72" x="595.898438"/>
     <use xlink:href="#DejaVuSans-65" x="634.761719"/>
     <use xlink:href="#DejaVuSans-6e" x="696.285156"/>
     <use xlink:href="#DejaVuSans-61" x="759.664062"/>
     <use xlink:href="#DejaVuSans-6d" x="820.943359"/>
     <use xlink:href="#DejaVuSans-69" x="918.355469"/>
     <use xlink:href="#DejaVuSans-65" x="946.138672"/>
     <use xlink:href="#DejaVuSans-6e" x="1007.662109"/>
     <use xlink:href="#DejaVuSans-74" x="1071.041016"/>
     <use xlink:href="#DejaVuSans-6f" x="1110.25"/>
     <use xlink:href="#DejaVuSans-20" x="1171.431641"/>
     <use xlink:href="#DejaVuSans-47" x="1203.21875"/>
     <use xlink:href="#DejaVuSans-41" x="1280.708984"/>
     <use xlink:href="#DejaVuSans-4e" x="1349.117188"/>
     <use xlink:href="#DejaVuSans-20" x="1423.921875"/>
     <use xlink:href="#DejaVuSans-28" x="1455.708984"/>
     <use xlink:href="#DejaVuSans-47" x="1494.722656"/>
     <use xlink:href="#DejaVuSans-65" x="1572.212891"/>
     <use xlink:href="#DejaVuSans-6e" x="1633.736328"/>
     <use xlink:href="#DejaVuSans-65" x="1697.115234"/>
     <use xlink:href="#DejaVuSans-72" x="1758.638672"/>
     <use xlink:href="#DejaVuSans-61" x="1799.751953"/>
     <use xlink:href="#DejaVuSans-74" x="1861.03125"/>
     <use xlink:href="#DejaVuSans-69" x="1900.240234"/>
     <use xlink:href="#DejaVuSans-76" x="1928.023438"/>
     <use xlink:href="#DejaVuSans-65" x="1987.203125"/>
     <use xlink:href="#DejaVuSans-20" x="2048.726562"/>
     <use xlink:href="#DejaVuSans-41" x="2080.513672"/>
     <use xlink:href="#DejaVuSans-64" x="2147.171875"/>
     <use xlink:href="#DejaVuSans-76" x="2210.648438"/>
     <use xlink:href="#DejaVuSans-65" x="2269.828125"/>
     <use xlink:href="#DejaVuSans-72" x="2331.351562"/>
     <use xlink:href="#DejaVuSans-73" x="2372.464844"/>
     <use xlink:href="#DejaVuSans-61" x="2424.564453"/>
     <use xlink:href="#DejaVuSans-72" x="2485.84375"/>
     <use xlink:href="#DejaVuSans-69" x="2526.957031"/>
     <use xlink:href="#DejaVuSans-61" x="2554.740234"/>
     <use xlink:href="#DejaVuSans-6c" x="2616.019531"/>
     <use xlink:href="#DejaVuSans-20" x="2643.802734"/>
     <use xlink:href="#DejaVuSans-4e" x="2675.589844"/>
     <use xlink:href="#DejaVuSans-65" x="2750.394531"/>
     <use xlink:href="#DejaVuSans-74" x="2811.917969"/>
     <use xlink:href="#DejaVuSans-77" x="2851.126953"/>
     <use xlink:href="#DejaVuSans-6f" x="2932.914062"/>
     <use xlink:href="#DejaVuSans-72" x="2994.095703"/>
     <use xlink:href="#DejaVuSans-6b" x="3035.208984"/>
     <use xlink:href="#DejaVuSans-29" x="3093.119141"/>
    </g>
   </g>
  </g>
 </g>
 <defs>
  <clipPath id="p2cf9252ee7">
   <rect x="7.2" y="22.318125" width="665.115352" height="395.76"/>
  </clipPath>
 </defs>
</svg>
