<?xml version="1.0" encoding="utf-8" standalone="no"?>
<!DOCTYPE svg PUBLIC "-//W3C//DTD SVG 1.1//EN"
  "http://www.w3.org/Graphics/SVG/1.1/DTD/svg11.dtd">
<svg xmlns:xlink="http://www.w3.org/1999/xlink" width="424.782188pt" height="424.87625pt" viewBox="0 0 424.782188 424.87625" xmlns="http://www.w3.org/2000/svg" version="1.1">
 <metadata>
  <rdf:RDF xmlns:dc="http://purl.org/dc/elements/1.1/" xmlns:cc="http://creativecommons.org/ns#" xmlns:rdf="http://www.w3.org/1999/02/22-rdf-syntax-ns#">
   <cc:Work>
    <dc:type rdf:resource="http://purl.org/dc/dcmitype/StillImage"/>
    <dc:date>2026-02-01T01:39:44.206614</dc:date>
    <dc:format>image/svg+xml</dc:format>
    <dc:creator>
     <cc:Agent>
      <dc:title>Matplotlib v3.8.4, https://matplotlib.org/</dc:title>
     </cc:Agent>
    </dc:creator>
   </cc:Work>
  </rdf:RDF>
 </metadata>
 <defs>
  <style type="text/css">*{stroke-linejoin: round; stroke-linecap: butt}</style>
 </defs>
 <g id="figure_1">
  <g id="patch_1">
   <path d="M 0 424.87625 
L 424.782188 424.87625 
L 424.782188 0 
L 0 0 
z
" style="fill: #ffffff"/>
  </g>
  <g id="axes_1">
   <g id="patch_2">
    <path d="M 28.942188 400.998125 
L 417.582187 400.998125 
L 417.582187 22.318125 
L 28.942188 22.318125 
z
" style="fill: #ffffff"/>
   </g>
   <g id="PathCollection_1">
    <defs>
     <path id="m6ed9e4b287" d="M 0 3.535534 
C 0.937635 3.535534 1.836992 3.163008 2.5 2.5 
C 3.163008 1.836992 3.535534 0.937635 3.535534 0 
C 3.535534 -0.937635 3.163008 -1.836992 2.5 -2.5 
C 1.836992 -3.163008 0.937635 -3.535534 0 -3.535534 
C -0.937635 -3.535534 -1.836992 -3.163008 -2.5 -2.5 
C -3.163008 -1.836992 -3.535534 -0.937635 -3.535534 0 
C -3.535534 0.937635 -3.163008 1.836992 -2.5 2.5 
C -1.836992 3.163008 -0.937635 3.535534 0 3.535534 
z
" style="stroke: #000000"/>
    </defs>
    <g clip-path="url(#pd44954bb84)">
     <use xlink:href="#m6ed9e4b287" x="234.844767" y="214.799601" style="fill: #ffffff; stroke: #000000"/>
     <use xlink:href="#m6ed9e4b287" x="238.365248" y="177.053668" style="fill: #ffffff; stroke: #000000"/>
     <use xlink:href="#m6ed9e4b287" x="217.802105" y="216.977904" style="fill: #ffffff; stroke: #000000"/>
     <use xlink:href="#m6ed9e4b287" x="260.086904" y="194.221394" style="fill: #ffffff; stroke: #000000"/>
     <use xlink:href="#m6ed9e4b287" x="212.314796" y="199.330727" style="fill: #ffffff; stroke: #000000"/>
     <use xlink:href="#m6ed9e4b287" x="212.456028" y="222.239878" style="fill: #ffffff; stroke: #000000"/>
     <use xlink:href="#m6ed9e4b287" x="228.904361" y="255.129383" style="fill: #ffffff; stroke: #000000"/>
     <use xlink:href="#m6ed9e4b287" x="183.039864" y="224.433747" style="fill: #ffffff; stroke: #000000"/>
     <use xlink:href="#m6ed9e4b287" x="199.644586" y="204.518174" style="fill: #ffffff; stroke: #000000"/>
     <use xlink:href="#m6ed9e4b287" x="202.088519" y="243.746795" style="fill: #ffffff; stroke: #000000"/>
     <use xlink:href="#m6ed9e4b287" x="257.438772" y="216.787943" style="fill: #ffffff; stroke: #000000"/>
     <use xlink:href="#m6ed9e4b287" x="224.836837" y="244.029544" style="fill: #ffffff; stroke: #000000"/>
     <use xlink:href="#m6ed9e4b287" x="210.568053" y="209.137875" style="fill: #ffffff; stroke: #000000"/>
     <use xlink:href="#m6ed9e4b287" x="196.422859" y="203.121965" style="fill: #ffffff; stroke: #000000"/>
     <use xlink:href="#m6ed9e4b287" x="209.256254" y="218.28564" style="fill: #ffffff; stroke: #000000"/>
     <use xlink:href="#m6ed9e4b287" x="209.231352" y="169.572883" style="fill: #ffffff; stroke: #000000"/>
     <use xlink:href="#m6ed9e4b287" x="222.947454" y="235.690163" style="fill: #ffffff; stroke: #000000"/>
     <use xlink:href="#m6ed9e4b287" x="242.442619" y="239.396669" style="fill: #ffffff; stroke: #000000"/>
     <use xlink:href="#m6ed9e4b287" x="228.132552" y="256.183398" style="fill: #ffffff; stroke: #000000"/>
     <use xlink:href="#m6ed9e4b287" x="192.291014" y="207.18528" style="fill: #ffffff; stroke: #000000"/>
     <use xlink:href="#m6ed9e4b287" x="240.482047" y="207.764501" style="fill: #ffffff; stroke: #000000"/>
     <use xlink:href="#m6ed9e4b287" x="220.565455" y="218.499442" style="fill: #ffffff; stroke: #000000"/>
     <use xlink:href="#m6ed9e4b287" x="188.78542" y="228.013561" style="fill: #ffffff; stroke: #000000"/>
     <use xlink:href="#m6ed9e4b287" x="212.520828" y="187.639462" style="fill: #ffffff; stroke: #000000"/>
     <use xlink:href="#m6ed9e4b287" x="231.274816" y="251.715808" style="fill: #ffffff; stroke: #000000"/>
     <use xlink:href="#m6ed9e4b287" x="230.819307" y="220.407502" style="fill: #ffffff; stroke: #000000"/>
     <use xlink:href="#m6ed9e4b287" x="207.47745" y="197.76035" style="fill: #ffffff; stroke: #000000"/>
     <use xlink:href="#m6ed9e4b287" x="247.303447" y="190.498696" style="fill: #ffffff; stroke: #000000"/>
     <use xlink:href="#m6ed9e4b287" x="203.692978" y="218.683678" style="fill: #ffffff; stroke: #000000"/>
     <use xlink:href="#m6ed9e4b287" x="230.986721" y="189.492959" style="fill: #ffffff; stroke: #000000"/>
     <use xlink:href="#m6ed9e4b287" x="212.088611" y="215.876445" style="fill: #ffffff; stroke: #000000"/>
     <use xlink:href="#m6ed9e4b287" x="197.464226" y="238.836896" style="fill: #ffffff; stroke: #000000"/>
     <use xlink:href="#m6ed9e4b287" x="242.20899" y="180.843267" style="fill: #ffffff; stroke: #000000"/>
     <use xlink:href="#m6ed9e4b287" x="221.583027" y="188.857055" style="fill: #ffffff; stroke: #000000"/>
     <use xlink:href="#m6ed9e4b287" x="231.694961" y="226.315762" style="fill: #ffffff; stroke: #000000"/>
     <use xlink:href="#m6ed9e4b287" x="231.689355" y="176.712704" style="fill: #ffffff; stroke: #000000"/>
     <use xlink:href="#m6ed9e4b287" x="222.426782" y="176.108169" style="fill: #ffffff; stroke: #000000"/>
     <use xlink:href="#m6ed9e4b287" x="162.173923" y="192.983843" style="fill: #ffffff; stroke: #000000"/>
     <use xlink:href="#m6ed9e4b287" x="225.291986" y="218.451811" style="fill: #ffffff; stroke: #000000"/>
     <use xlink:href="#m6ed9e4b287" x="225.401902" y="256.817281" style="fill: #ffffff; stroke: #000000"/>
     <use xlink:href="#m6ed9e4b287" x="218.139791" y="203.544242" style="fill: #ffffff; stroke: #000000"/>
     <use xlink:href="#m6ed9e4b287" x="257.724312" y="223.433639" style="fill: #ffffff; stroke: #000000"/>
     <use xlink:href="#m6ed9e4b287" x="204.40941" y="223.058446" style="fill: #ffffff; stroke: #000000"/>
     <use xlink:href="#m6ed9e4b287" x="244.6079" y="204.188637" style="fill: #ffffff; stroke: #000000"/>
     <use xlink:href="#m6ed9e4b287" x="210.909027" y="199.996278" style="fill: #ffffff; stroke: #000000"/>
     <use xlink:href="#m6ed9e4b287" x="225.525881" y="189.649736" style="fill: #ffffff; stroke: #000000"/>
     <use xlink:href="#m6ed9e4b287" x="206.891433" y="219.102871" style="fill: #ffffff; stroke: #000000"/>
     <use xlink:href="#m6ed9e4b287" x="214.118853" y="244.910355" style="fill: #ffffff; stroke: #000000"/>
     <use xlink:href="#m6ed9e4b287" x="230.167239" y="205.72674" style="fill: #ffffff; stroke: #000000"/>
     <use xlink:href="#m6ed9e4b287" x="223.381425" y="216.988132" style="fill: #ffffff; stroke: #000000"/>
    </g>
   </g>
   <g id="PathCollection_2">
    <defs>
     <path id="m793a638aa7" d="M -3.535534 3.535534 
L 3.535534 -3.535534 
M -3.535534 -3.535534 
L 3.535534 3.535534 
" style="stroke: #ff0000; stroke-width: 1.5"/>
    </defs>
    <g clip-path="url(#pd44954bb84)">
     <use xlink:href="#m793a638aa7" x="197.584277" y="295.843896" style="fill: #ff0000; stroke: #ff0000; stroke-width: 1.5"/>
     <use xlink:href="#m793a638aa7" x="105.073769" y="260.851635" style="fill: #ff0000; stroke: #ff0000; stroke-width: 1.5"/>
     <use xlink:href="#m793a638aa7" x="360.968129" y="265.217736" style="fill: #ff0000; stroke: #ff0000; stroke-width: 1.5"/>
     <use xlink:href="#m793a638aa7" x="229.104417" y="150.15475" style="fill: #ff0000; stroke: #ff0000; stroke-width: 1.5"/>
     <use xlink:href="#m793a638aa7" x="180.862994" y="68.734574" style="fill: #ff0000; stroke: #ff0000; stroke-width: 1.5"/>
     <use xlink:href="#m793a638aa7" x="367.042601" y="286.854189" style="fill: #ff0000; stroke: #ff0000; stroke-width: 1.5"/>
     <use xlink:href="#m793a638aa7" x="222.406715" y="271.980846" style="fill: #ff0000; stroke: #ff0000; stroke-width: 1.5"/>
     <use xlink:href="#m793a638aa7" x="156.366515" y="351.955446" style="fill: #ff0000; stroke: #ff0000; stroke-width: 1.5"/>
     <use xlink:href="#m793a638aa7" x="257.327054" y="210.846531" style="fill: #ff0000; stroke: #ff0000; stroke-width: 1.5"/>
     <use xlink:href="#m793a638aa7" x="83.811549" y="278.715851" style="fill: #ff0000; stroke: #ff0000; stroke-width: 1.5"/>
    </g>
   </g>
   <g id="matplotlib.axis_1">
    <g id="xtick_1">
     <g id="line2d_1">
      <defs>
       <path id="md2390dcd44" d="M 0 0 
L 0 3.5 
" style="stroke: #000000; stroke-width: 0.8"/>
      </defs>
      <g>
       <use xlink:href="#md2390dcd44" x="67.806187" y="400.998125" style="stroke: #000000; stroke-width: 0.8"/>
      </g>
     </g>
     <g id="text_1">
      <!-- −2 -->
      <g transform="translate(60.435094 415.596562) scale(0.1 -0.1)">
       <defs>
        <path id="DejaVuSans-2212" d="M 678 2272 
L 4684 2272 
L 4684 1741 
L 678 1741 
L 678 2272 
z
" transform="scale(0.015625)"/>
        <path id="DejaVuSans-32" d="M 1228 531 
L 3431 531 
L 3431 0 
L 469 0 
L 469 531 
Q 828 903 1448 1529 
Q 2069 2156 2228 2338 
Q 2531 2678 2651 2914 
Q 2772 3150 2772 3378 
Q 2772 3750 2511 3984 
Q 2250 4219 1831 4219 
Q 1534 4219 1204 4116 
Q 875 4013 500 3803 
L 500 4441 
Q 881 4594 1212 4672 
Q 1544 4750 1819 4750 
Q 2544 4750 2975 4387 
Q 3406 4025 3406 3419 
Q 3406 3131 3298 2873 
Q 3191 2616 2906 2266 
Q 2828 2175 2409 1742 
Q 1991 1309 1228 531 
z
" transform="scale(0.015625)"/>
       </defs>
       <use xlink:href="#DejaVuSans-2212"/>
       <use xlink:href="#DejaVuSans-32" x="83.789062"/>
      </g>
     </g>
    </g>
    <g id="xtick_2">
     <g id="line2d_2">
      <g>
       <use xlink:href="#md2390dcd44" x="145.534187" y="400.998125" style="stroke: #000000; stroke-width: 0.8"/>
      </g>
     </g>
     <g id="text_2">
      <!-- −1 -->
      <g transform="translate(138.163094 415.596562) scale(0.1 -0.1)">
       <defs>
        <path id="DejaVuSans-31" d="M 794 531 
L 1825 531 
L 1825 4091 
L 703 3866 
L 703 4441 
L 1819 4666 
L 2450 4666 
L 2450 531 
L 3481 531 
L 3481 0 
L 794 0 
L 794 531 
z
" transform="scale(0.015625)"/>
       </defs>
       <use xlink:href="#DejaVuSans-2212"/>
       <use xlink:href="#DejaVuSans-31" x="83.789062"/>
      </g>
     </g>
    </g>
    <g id="xtick_3">
     <g id="line2d_3">
      <g>
       <use xlink:href="#md2390dcd44" x="223.262187" y="400.998125" style="stroke: #000000; stroke-width: 0.8"/>
      </g>
     </g>
     <g id="text_3">
      <!-- 0 -->
      <g transform="translate(220.080937 415.596562) scale(0.1 -0.1)">
       <defs>
        <path id="DejaVuSans-30" d="M 2034 4250 
Q 1547 4250 1301 3770 
Q 1056 3291 1056 2328 
Q 1056 1369 1301 889 
Q 1547 409 2034 409 
Q 2525 409 2770 889 
Q 3016 1369 3016 2328 
Q 3016 3291 2770 3770 
Q 2525 4250 2034 4250 
z
M 2034 4750 
Q 2819 4750 3233 4129 
Q 3647 3509 3647 2328 
Q 3647 1150 3233 529 
Q 2819 -91 2034 -91 
Q 1250 -91 836 529 
Q 422 1150 422 2328 
Q 422 3509 836 4129 
Q 1250 4750 2034 4750 
z
" transform="scale(0.015625)"/>
       </defs>
       <use xlink:href="#DejaVuSans-30"/>
      </g>
     </g>
    </g>
    <g id="xtick_4">
     <g id="line2d_4">
      <g>
       <use xlink:href="#md2390dcd44" x="300.990187" y="400.998125" style="stroke: #000000; stroke-width: 0.8"/>
      </g>
     </g>
     <g id="text_4">
      <!-- 1 -->
      <g transform="translate(297.808938 415.596562) scale(0.1 -0.1)">
       <use xlink:href="#DejaVuSans-31"/>
      </g>
     </g>
    </g>
    <g id="xtick_5">
     <g id="line2d_5">
      <g>
       <use xlink:href="#md2390dcd44" x="378.718187" y="400.998125" style="stroke: #000000; stroke-width: 0.8"/>
      </g>
     </g>
     <g id="text_5">
      <!-- 2 -->
      <g transform="translate(375.536938 415.596562) scale(0.1 -0.1)">
       <use xlink:href="#DejaVuSans-32"/>
      </g>
     </g>
    </g>
   </g>
   <g id="matplotlib.axis_2">
    <g id="ytick_1">
     <g id="line2d_6">
      <defs>
       <path id="m5949526fbf" d="M 0 0 
L -3.5 0 
" style="stroke: #000000; stroke-width: 0.8"/>
      </defs>
      <g>
       <use xlink:href="#m5949526fbf" x="28.942188" y="363.130125" style="stroke: #000000; stroke-width: 0.8"/>
      </g>
     </g>
     <g id="text_6">
      <!-- −2 -->
      <g transform="translate(7.2 366.929344) scale(0.1 -0.1)">
       <use xlink:href="#DejaVuSans-2212"/>
       <use xlink:href="#DejaVuSans-32" x="83.789062"/>
      </g>
     </g>
    </g>
    <g id="ytick_2">
     <g id="line2d_7">
      <g>
       <use xlink:href="#m5949526fbf" x="28.942188" y="287.394125" style="stroke: #000000; stroke-width: 0.8"/>
      </g>
     </g>
     <g id="text_7">
      <!-- −1 -->
      <g transform="translate(7.2 291.193344) scale(0.1 -0.1)">
       <use xlink:href="#DejaVuSans-2212"/>
       <use xlink:href="#DejaVuSans-31" x="83.789062"/>
      </g>
     </g>
    </g>
    <g id="ytick_3">
     <g id="line2d_8">
      <g>
       <use xlink:href="#m5949526fbf" x="28.942188" y="211.658125" style="stroke: #000000; stroke-width: 0.8"/>
      </g>
     </g>
     <g id="text_8">
      <!-- 0 -->
      <g transform="translate(15.579688 215.457344) scale(0.1 -0.1)">
       <use xlink:href="#DejaVuSans-30"/>
      </g>
     </g>
    </g>
    <g id="ytick_4">
     <g id="line2d_9">
      <g>
       <use xlink:href="#m5949526fbf" x="28.942188" y="135.922125" style="stroke: #000000; stroke-width: 0.8"/>
      </g>
     </g>
     <g id="text_9">
      <!-- 1 -->
      <g transform="translate(15.579688 139.721344) scale(0.1 -0.1)">
       <use xlink:href="#DejaVuSans-31"/>
      </g>
     </g>
    </g>
    <g id="ytick_5">
     <g id="line2d_10">
      <g>
       <use xlink:href="#m5949526fbf" x="28.942188" y="60.186125" style="stroke: #000000; stroke-width: 0.8"/>
      </g>
     </g>
     <g id="text_10">
      <!-- 2 -->
      <g transform="translate(15.579688 63.985344) scale(0.1 -0.1)">
       <use xlink:href="#DejaVuSans-32"/>
      </g>
     </g>
    </g>
   </g>
   <g id="line2d_11">
    <path d="M 300.990187 400.998125 
L 300.990187 22.318125 
" clip-path="url(#pd44954bb84)" style="fill: none; stroke-dasharray: 5.55,2.4; stroke-dashoffset: 0; stroke: #ffa500; stroke-opacity: 0.5; stroke-width: 1.5"/>
   </g>
   <g id="line2d_12">
    <path d="M 28.942188 287.394125 
L 417.582187 287.394125 
" clip-path="url(#pd44954bb84)" style="fill: none; stroke-dasharray: 5.55,2.4; stroke-dashoffset: 0; stroke: #ffa500; stroke-opacity: 0.5; stroke-width: 1.5"/>
   </g>
   <g id="patch_3">
    <path d="M 28.942188 400.998125 
L 28.942188 22.318125 
" style="fill: none; stroke: #000000; stroke-width: 0.8; stroke-linejoin: miter; stroke-linecap: square"/>
   </g>
   <g id="patch_4">
    <path d="M 417.582187 400.998125 
L 417.582187 22.318125 
" style="fill: none; stroke: #000000; stroke-width: 0.8; stroke-linejoin: miter; stroke-linecap: square"/>
   </g>
   <g id="patch_5">
    <path d="M 28.942187 400.998125 
L 417.582188 400.998125 
" style="fill: none; stroke: #000000; stroke-width: 0.8; stroke-linejoin: miter; stroke-linecap: square"/>
   </g>
   <g id="patch_6">
    <path d="M 28.942187 22.318125 
L 417.582188 22.318125 
" style="fill: none; stroke: #000000; stroke-width: 0.8; stroke-linejoin: miter; stroke-linecap: square"/>
   </g>
   <g id="text_11">
    <!-- Isolation Forest: Aislando Anomalías -->
    <g transform="translate(114.951875 16.318125) scale(0.12 -0.12)">
     <defs>
      <path id="DejaVuSans-49" d="M 628 4666 
L 1259 4666 
L 1259 0 
L 628 0 
L 628 4666 
z
" transform="scale(0.015625)"/>
      <path id="DejaVuSans-73" d="M 2834 3397 
L 2834 2853 
Q 2591 2978 2328 3040 
Q 2066 3103 1784 3103 
Q 1356 3103 1142 2972 
Q 928 2841 928 2578 
Q 928 2378 1081 2264 
Q 1234 2150 1697 2047 
L 1894 2003 
Q 2506 1872 2764 1633 
Q 3022 1394 3022 966 
Q 3022 478 2636 193 
Q 2250 -91 1575 -91 
Q 1294 -91 989 -36 
Q 684 19 347 128 
L 347 722 
Q 666 556 975 473 
Q 1284 391 1588 391 
Q 1994 391 2212 530 
Q 2431 669 2431 922 
Q 2431 1156 2273 1281 
Q 2116 1406 1581 1522 
L 1381 1569 
Q 847 1681 609 1914 
Q 372 2147 372 2553 
Q 372 3047 722 3315 
Q 1072 3584 1716 3584 
Q 2034 3584 2315 3537 
Q 2597 3491 2834 3397 
z
" transform="scale(0.015625)"/>
      <path id="DejaVuSans-6f" d="M 1959 3097 
Q 1497 3097 1228 2736 
Q 959 2375 959 1747 
Q 959 1119 1226 758 
Q 1494 397 1959 397 
Q 2419 397 2687 759 
Q 2956 1122 2956 1747 
Q 2956 2369 2687 2733 
Q 2419 3097 1959 3097 
z
M 1959 3584 
Q 2709 3584 3137 3096 
Q 3566 2609 3566 1747 
Q 3566 888 3137 398 
Q 2709 -91 1959 -91 
Q 1206 -91 779 398 
Q 353 888 353 1747 
Q 353 2609 779 3096 
Q 1206 3584 1959 3584 
z
" transform="scale(0.015625)"/>
      <path id="DejaVuSans-6c" d="M 603 4863 
L 1178 4863 
L 1178 0 
L 603 0 
L 603 4863 
z
" transform="scale(0.015625)"/>
      <path id="DejaVuSans-61" d="M 2194 1759 
Q 1497 1759 1228 1600 
Q 959 1441 959 1056 
Q 959 750 1161 570 
Q 1363 391 1709 391 
Q 2188 391 2477 730 
Q 2766 1069 2766 1631 
L 2766 1759 
L 2194 1759 
z
M 3341 1997 
L 3341 0 
L 2766 0 
L 2766 531 
Q 2569 213 2275 61 
Q 1981 -91 1556 -91 
Q 1019 -91 701 211 
Q 384 513 384 1019 
Q 384 1609 779 1909 
Q 1175 2209 1959 2209 
L 2766 2209 
L 2766 2266 
Q 2766 2663 2505 2880 
Q 2244 3097 1772 3097 
Q 1472 3097 1187 3025 
Q 903 2953 641 2809 
L 641 3341 
Q 956 3463 1253 3523 
Q 1550 3584 1831 3584 
Q 2591 3584 2966 3190 
Q 3341 2797 3341 1997 
z
" transform="scale(0.015625)"/>
      <path id="DejaVuSans-74" d="M 1172 4494 
L 1172 3500 
L 2356 3500 
L 2356 3053 
L 1172 3053 
L 1172 1153 
Q 1172 725 1289 603 
Q 1406 481 1766 481 
L 2356 481 
L 2356 0 
L 1766 0 
Q 1100 0 847 248 
Q 594 497 594 1153 
L 594 3053 
L 172 3053 
L 172 3500 
L 594 3500 
L 594 4494 
L 1172 4494 
z
" transform="scale(0.015625)"/>
      <path id="DejaVuSans-69" d="M 603 3500 
L 1178 3500 
L 1178 0 
L 603 0 
L 603 3500 
z
M 603 4863 
L 1178 4863 
L 1178 4134 
L 603 4134 
L 603 4863 
z
" transform="scale(0.015625)"/>
      <path id="DejaVuSans-6e" d="M 3513 2113 
L 3513 0 
L 2938 0 
L 2938 2094 
Q 2938 2591 2744 2837 
Q 2550 3084 2163 3084 
Q 1697 3084 1428 2787 
Q 1159 2491 1159 1978 
L 1159 0 
L 581 0 
L 581 3500 
L 1159 3500 
L 1159 2956 
Q 1366 3272 1645 3428 
Q 1925 3584 2291 3584 
Q 2894 3584 3203 3211 
Q 3513 2838 3513 2113 
z
" transform="scale(0.015625)"/>
      <path id="DejaVuSans-20" transform="scale(0.015625)"/>
      <path id="DejaVuSans-46" d="M 628 4666 
L 3309 4666 
L 3309 4134 
L 1259 4134 
L 1259 2759 
L 3109 2759 
L 3109 2228 
L 1259 2228 
L 1259 0 
L 628 0 
L 628 4666 
z
" transform="scale(0.015625)"/>
      <path id="DejaVuSans-72" d="M 2631 2963 
Q 2534 3019 2420 3045 
Q 2306 3072 2169 3072 
Q 1681 3072 1420 2755 
Q 1159 2438 1159 1844 
L 1159 0 
L 581 0 
L 581 3500 
L 1159 3500 
L 1159 2956 
Q 1341 3275 1631 3429 
Q 1922 3584 2338 3584 
Q 2397 3584 2469 3576 
Q 2541 3569 2628 3553 
L 2631 2963 
z
" transform="scale(0.015625)"/>
      <path id="DejaVuSans-65" d="M 3597 1894 
L 3597 1613 
L 953 1613 
Q 991 1019 1311 708 
Q 1631 397 2203 397 
Q 2534 397 2845 478 
Q 3156 559 3463 722 
L 3463 178 
Q 3153 47 2828 -22 
Q 2503 -91 2169 -91 
Q 1331 -91 842 396 
Q 353 884 353 1716 
Q 353 2575 817 3079 
Q 1281 3584 2069 3584 
Q 2775 3584 3186 3129 
Q 3597 2675 3597 1894 
z
M 3022 2063 
Q 3016 2534 2758 2815 
Q 2500 3097 2075 3097 
Q 1594 3097 1305 2825 
Q 1016 2553 972 2059 
L 3022 2063 
z
" transform="scale(0.015625)"/>
      <path id="DejaVuSans-3a" d="M 750 794 
L 1409 794 
L 1409 0 
L 750 0 
L 750 794 
z
M 750 3309 
L 1409 3309 
L 1409 2516 
L 750 2516 
L 750 3309 
z
" transform="scale(0.015625)"/>
      <path id="DejaVuSans-41" d="M 2188 4044 
L 1331 1722 
L 3047 1722 
L 2188 4044 
z
M 1831 4666 
L 2547 4666 
L 4325 0 
L 3669 0 
L 3244 1197 
L 1141 1197 
L 716 0 
L 50 0 
L 1831 4666 
z
" transform="scale(0.015625)"/>
      <path id="DejaVuSans-64" d="M 2906 2969 
L 2906 4863 
L 3481 4863 
L 3481 0 
L 2906 0 
L 2906 525 
Q 2725 213 2448 61 
Q 2172 -91 1784 -91 
Q 1150 -91 751 415 
Q 353 922 353 1747 
Q 353 2572 751 3078 
Q 1150 3584 1784 3584 
Q 2172 3584 2448 3432 
Q 2725 3281 2906 2969 
z
M 947 1747 
Q 947 1113 1208 752 
Q 1469 391 1925 391 
Q 2381 391 2643 752 
Q 2906 1113 2906 1747 
Q 2906 2381 2643 2742 
Q 2381 3103 1925 3103 
Q 1469 3103 1208 2742 
Q 947 2381 947 1747 
z
" transform="scale(0.015625)"/>
      <path id="DejaVuSans-6d" d="M 3328 2828 
Q 3544 3216 3844 3400 
Q 4144 3584 4550 3584 
Q 5097 3584 5394 3201 
Q 5691 2819 5691 2113 
L 5691 0 
L 5113 0 
L 5113 2094 
Q 5113 2597 4934 2840 
Q 4756 3084 4391 3084 
Q 3944 3084 3684 2787 
Q 3425 2491 3425 1978 
L 3425 0 
L 2847 0 
L 2847 2094 
Q 2847 2600 2669 2842 
Q 2491 3084 2119 3084 
Q 1678 3084 1418 2786 
Q 1159 2488 1159 1978 
L 1159 0 
L 581 0 
L 581 3500 
L 1159 3500 
L 1159 2956 
Q 1356 3278 1631 3431 
Q 1906 3584 2284 3584 
Q 2666 3584 2933 3390 
Q 3200 3197 3328 2828 
z
" transform="scale(0.015625)"/>
      <path id="DejaVuSans-ed" d="M 1325 5119 
L 1947 5119 
L 928 3944 
L 450 3944 
L 1325 5119 
z
M 603 3500 
L 1178 3500 
L 1178 0 
L 603 0 
L 603 3500 
z
M 891 3584 
L 891 3584 
z
" transform="scale(0.015625)"/>
     </defs>
     <use xlink:href="#DejaVuSans-49"/>
     <use xlink:href="#DejaVuSans-73" x="29.492188"/>
     <use xlink:href="#DejaVuSans-6f" x="81.591797"/>
     <use xlink:href="#DejaVuSans-6c" x="142.773438"/>
     <use xlink:href="#DejaVuSans-61" x="170.556641"/>
     <use xlink:href="#DejaVuSans-74" x="231.835938"/>
     <use xlink:href="#DejaVuSans-69" x="271.044922"/>
     <use xlink:href="#DejaVuSans-6f" x="298.828125"/>
     <use xlink:href="#DejaVuSans-6e" x="360.009766"/>
     <use xlink:href="#DejaVuSans-20" x="423.388672"/>
     <use xlink:href="#DejaVuSans-46" x="455.175781"/>
     <use xlink:href="#DejaVuSans-6f" x="509.070312"/>
     <use xlink:href="#DejaVuSans-72" x="570.251953"/>
     <use xlink:href="#DejaVuSans-65" x="609.115234"/>
     <use xlink:href="#DejaVuSans-73" x="670.638672"/>
     <use xlink:href="#DejaVuSans-74" x="722.738281"/>
     <use xlink:href="#DejaVuSans-3a" x="761.947266"/>
     <use xlink:href="#DejaVuSans-20" x="795.638672"/>
     <use xlink:href="#DejaVuSans-41" x="827.425781"/>
     <use xlink:href="#DejaVuSans-69" x="895.833984"/>
     <use xlink:href="#DejaVuSans-73" x="923.617188"/>
     <use xlink:href="#DejaVuSans-6c" x="975.716797"/>
     <use xlink:href="#DejaVuSans-61" x="1003.5"/>
     <use xlink:href="#DejaVuSans-6e" x="1064.779297"/>
     <use xlink:href="#DejaVuSans-64" x="1128.158203"/>
     <use xlink:href="#DejaVuSans-6f" x="1191.634766"/>
     <use xlink:href="#DejaVuSans-20" x="1252.816406"/>
     <use xlink:href="#DejaVuSans-41" x="1284.603516"/>
     <use xlink:href="#DejaVuSans-6e" x="1353.011719"/>
     <use xlink:href="#DejaVuSans-6f" x="1416.390625"/>
     <use xlink:href="#DejaVuSans-6d" x="1477.572266"/>
     <use xlink:href="#DejaVuSans-61" x="1574.984375"/>
     <use xlink:href="#DejaVuSans-6c" x="1636.263672"/>
     <use xlink:href="#DejaVuSans-ed" x="1664.046875"/>
     <use xlink:href="#DejaVuSans-61" x="1691.830078"/>
     <use xlink:href="#DejaVuSans-73" x="1753.109375"/>
    </g>
   </g>
   <g id="legend_1">
    <g id="patch_7">
     <path d="M 331.732187 59.674375 
L 410.582187 59.674375 
Q 412.582187 59.674375 412.582187 57.674375 
L 412.582187 29.318125 
Q 412.582187 27.318125 410.582187 27.318125 
L 331.732187 27.318125 
Q 329.732187 27.318125 329.732187 29.318125 
L 329.732187 57.674375 
Q 329.732187 59.674375 331.732187 59.674375 
z
" style="fill: #ffffff; opacity: 0.8; stroke: #cccccc; stroke-linejoin: miter"/>
    </g>
    <g id="PathCollection_3">
     <g>
      <use xlink:href="#m6ed9e4b287" x="343.732187" y="36.291562" style="fill: #ffffff; stroke: #000000"/>
     </g>
    </g>
    <g id="text_12">
     <!-- Normal -->
     <g transform="translate(361.732187 38.916562) scale(0.1 -0.1)">
      <defs>
       <path id="DejaVuSans-4e" d="M 628 4666 
L 1478 4666 
L 3547 763 
L 3547 4666 
L 4159 4666 
L 4159 0 
L 3309 0 
L 1241 3903 
L 1241 0 
L 628 0 
L 628 4666 
z
" transform="scale(0.015625)"/>
      </defs>
      <use xlink:href="#DejaVuSans-4e"/>
      <use xlink:href="#DejaVuSans-6f" x="74.804688"/>
      <use xlink:href="#DejaVuSans-72" x="135.986328"/>
      <use xlink:href="#DejaVuSans-6d" x="175.349609"/>
      <use xlink:href="#DejaVuSans-61" x="272.761719"/>
      <use xlink:href="#DejaVuSans-6c" x="334.041016"/>
     </g>
    </g>
    <g id="PathCollection_4">
     <g>
      <use xlink:href="#m793a638aa7" x="343.732187" y="50.969687" style="fill: #ff0000; stroke: #ff0000; stroke-width: 1.5"/>
     </g>
    </g>
    <g id="text_13">
     <!-- Anomalía -->
     <g transform="translate(361.732187 53.594687) scale(0.1 -0.1)">
      <use xlink:href="#DejaVuSans-41"/>
      <use xlink:href="#DejaVuSans-6e" x="68.408203"/>
      <use xlink:href="#DejaVuSans-6f" x="131.787109"/>
      <use xlink:href="#DejaVuSans-6d" x="192.96875"/>
      <use xlink:href="#DejaVuSans-61" x="290.380859"/>
      <use xlink:href="#DejaVuSans-6c" x="351.660156"/>
      <use xlink:href="#DejaVuSans-ed" x="379.443359"/>
      <use xlink:href="#DejaVuSans-61" x="407.226562"/>
     </g>
    </g>
   </g>
  </g>
 </g>
 <defs>
  <clipPath id="pd44954bb84">
   <rect x="28.942188" y="22.318125" width="388.64" height="378.68"/>
  </clipPath>
 </defs>
</svg>
