<?xml version="1.0" encoding="utf-8" standalone="no"?>
<!DOCTYPE svg PUBLIC "-//W3C//DTD SVG 1.1//EN"
  "http://www.w3.org/Graphics/SVG/1.1/DTD/svg11.dtd">
<svg xmlns:xlink="http://www.w3.org/1999/xlink" width="568.773125pt" height="280.87625pt" viewBox="0 0 568.773125 280.87625" xmlns="http://www.w3.org/2000/svg" version="1.1">
 <metadata>
  <rdf:RDF xmlns:dc="http://purl.org/dc/elements/1.1/" xmlns:cc="http://creativecommons.org/ns#" xmlns:rdf="http://www.w3.org/1999/02/22-rdf-syntax-ns#">
   <cc:Work>
    <dc:type rdf:resource="http://purl.org/dc/dcmitype/StillImage"/>
    <dc:date>2026-02-01T01:39:44.857457</dc:date>
    <dc:format>image/svg+xml</dc:format>
    <dc:creator>
     <cc:Agent>
      <dc:title>Matplotlib v3.8.4, https://matplotlib.org/</dc:title>
     </cc:Agent>
    </dc:creator>
   </cc:Work>
  </rdf:RDF>
 </metadata>
 <defs>
  <style type="text/css">*{stroke-linejoin: round; stroke-linecap: butt}</style>
 </defs>
 <g id="figure_1">
  <g id="patch_1">
   <path d="M 0 280.87625 
L 568.773125 280.87625 
L 568.773125 0 
L 0 0 
z
" style="fill: #ffffff"/>
  </g>
  <g id="axes_1">
   <g id="patch_2">
    <path d="M 30.103125 256.998125 
L 561.573125 256.998125 
L 561.573125 22.318125 
L 30.103125 22.318125 
z
" style="fill: #ffffff"/>
   </g>
   <g id="PolyCollection_1">
    <defs>
     <path id="mcaa5f43a28" d="M 54.260852 -34.545398 
L 54.260852 -34.54938 
L 56.688765 -34.55083 
L 59.116677 -34.552774 
L 61.544589 -34.555369 
L 63.972501 -34.558817 
L 66.400414 -34.563376 
L 68.828326 -34.569377 
L 71.256238 -34.577236 
L 73.684151 -34.587482 
L 76.112063 -34.600776 
L 78.539975 -34.617943 
L 80.967887 -34.640007 
L 83.3958 -34.668228 
L 85.823712 -34.704153 
L 88.251624 -34.749666 
L 90.679537 -34.807049 
L 93.107449 -34.879052 
L 95.535361 -34.968963 
L 97.963273 -35.080694 
L 100.391186 -35.218868 
L 102.819098 -35.388913 
L 105.24701 -35.597162 
L 107.674923 -35.850948 
L 110.102835 -36.158714 
L 112.530747 -36.530101 
L 114.958659 -36.976046 
L 117.386572 -37.508857 
L 119.814484 -38.142279 
L 122.242396 -38.891537 
L 124.670309 -39.77335 
L 127.098221 -40.80591 
L 129.526133 -42.008828 
L 131.954046 -43.403026 
L 134.381958 -45.010579 
L 136.80987 -46.854502 
L 139.237782 -48.958468 
L 141.665695 -51.346465 
L 144.093607 -54.04239 
L 146.521519 -57.069564 
L 148.949432 -60.450194 
L 151.377344 -64.204773 
L 153.805256 -68.351426 
L 156.233168 -72.905228 
L 158.661081 -77.877479 
L 161.088993 -83.27499 
L 163.516905 -89.099367 
L 165.944818 -95.346338 
L 168.37273 -102.005126 
L 170.800642 -109.057914 
L 173.228554 -116.479412 
L 175.656467 -124.236546 
L 178.084379 -132.288315 
L 180.512291 -140.585798 
L 182.940204 -149.07237 
L 185.368116 -157.684094 
L 187.796028 -166.350335 
L 190.22394 -174.994563 
L 192.651853 -183.535356 
L 195.079765 -191.887588 
L 197.507677 -199.963768 
L 199.93559 -207.675521 
L 202.363502 -214.935163 
L 204.791414 -221.657339 
L 207.219326 -227.760678 
L 209.647239 -233.169427 
L 212.075151 -237.815011 
L 214.503063 -241.637478 
L 216.930976 -244.586783 
L 219.358888 -246.623882 
L 221.7868 -247.721591 
L 224.214712 -247.865189 
L 226.642625 -247.052746 
L 229.070537 -245.295167 
L 231.498449 -242.615949 
L 233.926362 -239.050658 
L 236.354274 -234.646141 
L 238.782186 -229.459507 
L 241.210099 -223.556888 
L 243.638011 -217.012044 
L 246.065923 -209.904829 
L 248.493835 -202.319576 
L 250.921748 -194.343445 
L 253.34966 -186.064773 
L 255.777572 -177.571475 
L 258.205485 -168.949535 
L 260.633397 -160.281619 
L 263.061309 -151.645837 
L 265.489221 -143.114688 
L 267.917134 -134.75419 
L 270.345046 -126.623214 
L 272.772958 -118.773022 
L 275.200871 -111.247001 
L 277.628783 -104.080595 
L 280.056695 -97.301403 
L 282.484607 -90.929446 
L 284.91252 -84.977557 
L 287.340432 -79.4519 
L 289.768344 -74.352563 
L 292.196257 -69.674223 
L 294.624169 -65.40685 
L 297.052081 -61.536427 
L 299.479993 -58.045669 
L 301.907906 -54.914724 
L 304.335818 -52.121834 
L 306.76373 -49.643951 
L 309.191643 -47.457299 
L 311.619555 -45.53787 
L 314.047467 -43.861858 
L 316.475379 -42.406019 
L 318.903292 -41.14797 
L 321.331204 -40.066424 
L 323.759116 -39.141363 
L 326.187029 -38.354162 
L 328.614941 -37.687655 
L 331.042853 -37.126171 
L 333.470765 -36.655523 
L 335.898678 -36.262978 
L 338.32659 -35.937195 
L 340.754502 -35.668154 
L 343.182415 -35.447063 
L 345.610327 -35.266265 
L 348.038239 -35.119139 
L 350.466151 -34.999995 
L 352.894064 -34.90398 
L 355.321976 -34.826976 
L 357.749888 -34.765519 
L 360.177801 -34.716704 
L 362.605713 -34.678118 
L 365.033625 -34.647762 
L 367.461538 -34.623996 
L 369.88945 -34.605477 
L 372.317362 -34.591116 
L 374.745274 -34.580032 
L 377.173187 -34.571518 
L 379.601099 -34.565008 
L 382.029011 -34.560055 
L 384.456924 -34.556304 
L 386.884836 -34.553476 
L 389.312748 -34.551355 
L 391.74066 -34.549771 
L 394.168573 -34.548594 
L 396.596485 -34.547723 
L 399.024397 -34.547082 
L 401.45231 -34.546612 
L 403.880222 -34.54627 
L 406.308134 -34.546021 
L 408.736046 -34.545841 
L 411.163959 -34.545712 
L 413.591871 -34.545619 
L 416.019783 -34.545553 
L 418.447696 -34.545506 
L 420.875608 -34.545473 
L 423.30352 -34.54545 
L 425.731432 -34.545434 
L 428.159345 -34.545422 
L 430.587257 -34.545415 
L 433.015169 -34.545409 
L 435.443082 -34.545406 
L 437.870994 -34.545403 
L 440.298906 -34.545401 
L 442.726818 -34.5454 
L 445.154731 -34.545399 
L 447.582643 -34.545399 
L 450.010555 -34.545398 
L 452.438468 -34.545398 
L 454.86638 -34.545398 
L 457.294292 -34.545398 
L 459.722204 -34.545398 
L 462.150117 -34.545398 
L 464.578029 -34.545398 
L 467.005941 -34.545398 
L 469.433854 -34.545398 
L 471.861766 -34.545398 
L 474.289678 -34.545398 
L 476.717591 -34.545398 
L 479.145503 -34.545398 
L 481.573415 -34.545398 
L 484.001327 -34.545398 
L 486.42924 -34.545398 
L 488.857152 -34.545398 
L 491.285064 -34.545398 
L 493.712977 -34.545398 
L 496.140889 -34.545398 
L 498.568801 -34.545398 
L 500.996713 -34.545398 
L 503.424626 -34.545398 
L 505.852538 -34.545398 
L 508.28045 -34.545398 
L 510.708363 -34.545398 
L 513.136275 -34.545398 
L 515.564187 -34.545398 
L 517.992099 -34.545398 
L 520.420012 -34.545398 
L 522.847924 -34.545398 
L 525.275836 -34.545398 
L 527.703749 -34.545398 
L 530.131661 -34.545398 
L 532.559573 -34.545398 
L 534.987485 -34.545398 
L 537.415398 -34.545398 
L 537.415398 -34.545398 
L 537.415398 -34.545398 
L 534.987485 -34.545398 
L 532.559573 -34.545398 
L 530.131661 -34.545398 
L 527.703749 -34.545398 
L 525.275836 -34.545398 
L 522.847924 -34.545398 
L 520.420012 -34.545398 
L 517.992099 -34.545398 
L 515.564187 -34.545398 
L 513.136275 -34.545398 
L 510.708363 -34.545398 
L 508.28045 -34.545398 
L 505.852538 -34.545398 
L 503.424626 -34.545398 
L 500.996713 -34.545398 
L 498.568801 -34.545398 
L 496.140889 -34.545398 
L 493.712977 -34.545398 
L 491.285064 -34.545398 
L 488.857152 -34.545398 
L 486.42924 -34.545398 
L 484.001327 -34.545398 
L 481.573415 -34.545398 
L 479.145503 -34.545398 
L 476.717591 -34.545398 
L 474.289678 -34.545398 
L 471.861766 -34.545398 
L 469.433854 -34.545398 
L 467.005941 -34.545398 
L 464.578029 -34.545398 
L 462.150117 -34.545398 
L 459.722204 -34.545398 
L 457.294292 -34.545398 
L 454.86638 -34.545398 
L 452.438468 -34.545398 
L 450.010555 -34.545398 
L 447.582643 -34.545398 
L 445.154731 -34.545398 
L 442.726818 -34.545398 
L 440.298906 -34.545398 
L 437.870994 -34.545398 
L 435.443082 -34.545398 
L 433.015169 -34.545398 
L 430.587257 -34.545398 
L 428.159345 -34.545398 
L 425.731432 -34.545398 
L 423.30352 -34.545398 
L 420.875608 -34.545398 
L 418.447696 -34.545398 
L 416.019783 -34.545398 
L 413.591871 -34.545398 
L 411.163959 -34.545398 
L 408.736046 -34.545398 
L 406.308134 -34.545398 
L 403.880222 -34.545398 
L 401.45231 -34.545398 
L 399.024397 -34.545398 
L 396.596485 -34.545398 
L 394.168573 -34.545398 
L 391.74066 -34.545398 
L 389.312748 -34.545398 
L 386.884836 -34.545398 
L 384.456924 -34.545398 
L 382.029011 -34.545398 
L 379.601099 -34.545398 
L 377.173187 -34.545398 
L 374.745274 -34.545398 
L 372.317362 -34.545398 
L 369.88945 -34.545398 
L 367.461538 -34.545398 
L 365.033625 -34.545398 
L 362.605713 -34.545398 
L 360.177801 -34.545398 
L 357.749888 -34.545398 
L 355.321976 -34.545398 
L 352.894064 -34.545398 
L 350.466151 -34.545398 
L 348.038239 -34.545398 
L 345.610327 -34.545398 
L 343.182415 -34.545398 
L 340.754502 -34.545398 
L 338.32659 -34.545398 
L 335.898678 -34.545398 
L 333.470765 -34.545398 
L 331.042853 -34.545398 
L 328.614941 -34.545398 
L 326.187029 -34.545398 
L 323.759116 -34.545398 
L 321.331204 -34.545398 
L 318.903292 -34.545398 
L 316.475379 -34.545398 
L 314.047467 -34.545398 
L 311.619555 -34.545398 
L 309.191643 -34.545398 
L 306.76373 -34.545398 
L 304.335818 -34.545398 
L 301.907906 -34.545398 
L 299.479993 -34.545398 
L 297.052081 -34.545398 
L 294.624169 -34.545398 
L 292.196257 -34.545398 
L 289.768344 -34.545398 
L 287.340432 -34.545398 
L 284.91252 -34.545398 
L 282.484607 -34.545398 
L 280.056695 -34.545398 
L 277.628783 -34.545398 
L 275.200871 -34.545398 
L 272.772958 -34.545398 
L 270.345046 -34.545398 
L 267.917134 -34.545398 
L 265.489221 -34.545398 
L 263.061309 -34.545398 
L 260.633397 -34.545398 
L 258.205485 -34.545398 
L 255.777572 -34.545398 
L 253.34966 -34.545398 
L 250.921748 -34.545398 
L 248.493835 -34.545398 
L 246.065923 -34.545398 
L 243.638011 -34.545398 
L 241.210099 -34.545398 
L 238.782186 -34.545398 
L 236.354274 -34.545398 
L 233.926362 -34.545398 
L 231.498449 -34.545398 
L 229.070537 -34.545398 
L 226.642625 -34.545398 
L 224.214712 -34.545398 
L 221.7868 -34.545398 
L 219.358888 -34.545398 
L 216.930976 -34.545398 
L 214.503063 -34.545398 
L 212.075151 -34.545398 
L 209.647239 -34.545398 
L 207.219326 -34.545398 
L 204.791414 -34.545398 
L 202.363502 -34.545398 
L 199.93559 -34.545398 
L 197.507677 -34.545398 
L 195.079765 -34.545398 
L 192.651853 -34.545398 
L 190.22394 -34.545398 
L 187.796028 -34.545398 
L 185.368116 -34.545398 
L 182.940204 -34.545398 
L 180.512291 -34.545398 
L 178.084379 -34.545398 
L 175.656467 -34.545398 
L 173.228554 -34.545398 
L 170.800642 -34.545398 
L 168.37273 -34.545398 
L 165.944818 -34.545398 
L 163.516905 -34.545398 
L 161.088993 -34.545398 
L 158.661081 -34.545398 
L 156.233168 -34.545398 
L 153.805256 -34.545398 
L 151.377344 -34.545398 
L 148.949432 -34.545398 
L 146.521519 -34.545398 
L 144.093607 -34.545398 
L 141.665695 -34.545398 
L 139.237782 -34.545398 
L 136.80987 -34.545398 
L 134.381958 -34.545398 
L 131.954046 -34.545398 
L 129.526133 -34.545398 
L 127.098221 -34.545398 
L 124.670309 -34.545398 
L 122.242396 -34.545398 
L 119.814484 -34.545398 
L 117.386572 -34.545398 
L 114.958659 -34.545398 
L 112.530747 -34.545398 
L 110.102835 -34.545398 
L 107.674923 -34.545398 
L 105.24701 -34.545398 
L 102.819098 -34.545398 
L 100.391186 -34.545398 
L 97.963273 -34.545398 
L 95.535361 -34.545398 
L 93.107449 -34.545398 
L 90.679537 -34.545398 
L 88.251624 -34.545398 
L 85.823712 -34.545398 
L 83.3958 -34.545398 
L 80.967887 -34.545398 
L 78.539975 -34.545398 
L 76.112063 -34.545398 
L 73.684151 -34.545398 
L 71.256238 -34.545398 
L 68.828326 -34.545398 
L 66.400414 -34.545398 
L 63.972501 -34.545398 
L 61.544589 -34.545398 
L 59.116677 -34.545398 
L 56.688765 -34.545398 
L 54.260852 -34.545398 
z
" style="stroke: #0000ff; stroke-opacity: 0.2"/>
    </defs>
    <g clip-path="url(#p93b918307d)">
     <use xlink:href="#mcaa5f43a28" x="0" y="280.87625" style="fill: #0000ff; fill-opacity: 0.2; stroke: #0000ff; stroke-opacity: 0.2"/>
    </g>
   </g>
   <g id="PolyCollection_2">
    <defs>
     <path id="mca26ee3812" d="M 54.260852 -34.545398 
L 54.260852 -34.545398 
L 56.688765 -34.545398 
L 59.116677 -34.545398 
L 61.544589 -34.545398 
L 63.972501 -34.545398 
L 66.400414 -34.545398 
L 68.828326 -34.545399 
L 71.256238 -34.545399 
L 73.684151 -34.5454 
L 76.112063 -34.5454 
L 78.539975 -34.545401 
L 80.967887 -34.545402 
L 83.3958 -34.545404 
L 85.823712 -34.545406 
L 88.251624 -34.545409 
L 90.679537 -34.545412 
L 93.107449 -34.545417 
L 95.535361 -34.545423 
L 97.963273 -34.545432 
L 100.391186 -34.545443 
L 102.819098 -34.545457 
L 105.24701 -34.545476 
L 107.674923 -34.5455 
L 110.102835 -34.545532 
L 112.530747 -34.545573 
L 114.958659 -34.545626 
L 117.386572 -34.545694 
L 119.814484 -34.545782 
L 122.242396 -34.545895 
L 124.670309 -34.546039 
L 127.098221 -34.546223 
L 129.526133 -34.546458 
L 131.954046 -34.546755 
L 134.381958 -34.547131 
L 136.80987 -34.547605 
L 139.237782 -34.548202 
L 141.665695 -34.548953 
L 144.093607 -34.549892 
L 146.521519 -34.551065 
L 148.949432 -34.552526 
L 151.377344 -34.554342 
L 153.805256 -34.556592 
L 156.233168 -34.559372 
L 158.661081 -34.562798 
L 161.088993 -34.567011 
L 163.516905 -34.572175 
L 165.944818 -34.57849 
L 168.37273 -34.586191 
L 170.800642 -34.595557 
L 173.228554 -34.606918 
L 175.656467 -34.620661 
L 178.084379 -34.637243 
L 180.512291 -34.657196 
L 182.940204 -34.681139 
L 185.368116 -34.709795 
L 187.796028 -34.743999 
L 190.22394 -34.784714 
L 192.651853 -34.833048 
L 195.079765 -34.890272 
L 197.507677 -34.957837 
L 199.93559 -35.037395 
L 202.363502 -35.130819 
L 204.791414 -35.240227 
L 207.219326 -35.368002 
L 209.647239 -35.516818 
L 212.075151 -35.689662 
L 214.503063 -35.889861 
L 216.930976 -36.121104 
L 219.358888 -36.387461 
L 221.7868 -36.693412 
L 224.214712 -37.043863 
L 226.642625 -37.44416 
L 229.070537 -37.90011 
L 231.498449 -38.417986 
L 233.926362 -39.004533 
L 236.354274 -39.66697 
L 238.782186 -40.412981 
L 241.210099 -41.250703 
L 243.638011 -42.188703 
L 246.065923 -43.235945 
L 248.493835 -44.401755 
L 250.921748 -45.695761 
L 253.34966 -47.12784 
L 255.777572 -48.708037 
L 258.205485 -50.446483 
L 260.633397 -52.353296 
L 263.061309 -54.438471 
L 265.489221 -56.71176 
L 267.917134 -59.182539 
L 270.345046 -61.859662 
L 272.772958 -64.751315 
L 275.200871 -67.864851 
L 277.628783 -71.206628 
L 280.056695 -74.781836 
L 282.484607 -78.594326 
L 284.91252 -82.64644 
L 287.340432 -86.938843 
L 289.768344 -91.47036 
L 292.196257 -96.237826 
L 294.624169 -101.235949 
L 297.052081 -106.457183 
L 299.479993 -111.89163 
L 301.907906 -117.526954 
L 304.335818 -123.348331 
L 306.76373 -129.338421 
L 309.191643 -135.477371 
L 311.619555 -141.742853 
L 314.047467 -148.110138 
L 316.475379 -154.552202 
L 318.903292 -161.039873 
L 321.331204 -167.542006 
L 323.759116 -174.025707 
L 326.187029 -180.456574 
L 328.614941 -186.798988 
L 331.042853 -193.016416 
L 333.470765 -199.071755 
L 335.898678 -204.927682 
L 338.32659 -210.547039 
L 340.754502 -215.893211 
L 343.182415 -220.930524 
L 345.610327 -225.624638 
L 348.038239 -229.942935 
L 350.466151 -233.854893 
L 352.894064 -237.332447 
L 355.321976 -240.350325 
L 357.749888 -242.88635 
L 360.177801 -244.921713 
L 362.605713 -246.441208 
L 365.033625 -247.433416 
L 367.461538 -247.890852 
L 369.88945 -247.810057 
L 372.317362 -247.191642 
L 374.745274 -246.04028 
L 377.173187 -244.36465 
L 379.601099 -242.177324 
L 382.029011 -239.49461 
L 384.456924 -236.336354 
L 386.884836 -232.725692 
L 389.312748 -228.688767 
L 391.74066 -224.254418 
L 394.168573 -219.453834 
L 396.596485 -214.320189 
L 399.024397 -208.888265 
L 401.45231 -203.19406 
L 403.880222 -197.274393 
L 406.308134 -191.166511 
L 408.736046 -184.907711 
L 411.163959 -178.53496 
L 413.591871 -172.084553 
L 416.019783 -165.591773 
L 418.447696 -159.0906 
L 420.875608 -152.613427 
L 423.30352 -146.190828 
L 425.731432 -139.851348 
L 428.159345 -133.621337 
L 430.587257 -127.524812 
L 433.015169 -121.583366 
L 435.443082 -115.816098 
L 437.870994 -110.239595 
L 440.298906 -104.867929 
L 442.726818 -99.712697 
L 445.154731 -94.783084 
L 447.582643 -90.085946 
L 450.010555 -85.625925 
L 452.438468 -81.405572 
L 454.86638 -77.425494 
L 457.294292 -73.684507 
L 459.722204 -70.179797 
L 462.150117 -66.907093 
L 464.578029 -63.860838 
L 467.005941 -61.034357 
L 469.433854 -58.42003 
L 471.861766 -56.009455 
L 474.289678 -53.793604 
L 476.717591 -51.762975 
L 479.145503 -49.90773 
L 481.573415 -48.217823 
L 484.001327 -46.683123 
L 486.42924 -45.293515 
L 488.857152 -44.038995 
L 491.285064 -42.909754 
L 493.712977 -41.896248 
L 496.140889 -40.989255 
L 498.568801 -40.179927 
L 500.996713 -39.459822 
L 503.424626 -38.820938 
L 505.852538 -38.255729 
L 508.28045 -37.757117 
L 510.708363 -37.3185 
L 513.136275 -36.933746 
L 515.564187 -36.597186 
L 517.992099 -36.303608 
L 520.420012 -36.048237 
L 522.847924 -35.826717 
L 525.275836 -35.635095 
L 527.703749 -35.469792 
L 530.131661 -35.327588 
L 532.559573 -35.20559 
L 534.987485 -35.101215 
L 537.415398 -35.012161 
L 537.415398 -34.545398 
L 537.415398 -34.545398 
L 534.987485 -34.545398 
L 532.559573 -34.545398 
L 530.131661 -34.545398 
L 527.703749 -34.545398 
L 525.275836 -34.545398 
L 522.847924 -34.545398 
L 520.420012 -34.545398 
L 517.992099 -34.545398 
L 515.564187 -34.545398 
L 513.136275 -34.545398 
L 510.708363 -34.545398 
L 508.28045 -34.545398 
L 505.852538 -34.545398 
L 503.424626 -34.545398 
L 500.996713 -34.545398 
L 498.568801 -34.545398 
L 496.140889 -34.545398 
L 493.712977 -34.545398 
L 491.285064 -34.545398 
L 488.857152 -34.545398 
L 486.42924 -34.545398 
L 484.001327 -34.545398 
L 481.573415 -34.545398 
L 479.145503 -34.545398 
L 476.717591 -34.545398 
L 474.289678 -34.545398 
L 471.861766 -34.545398 
L 469.433854 -34.545398 
L 467.005941 -34.545398 
L 464.578029 -34.545398 
L 462.150117 -34.545398 
L 459.722204 -34.545398 
L 457.294292 -34.545398 
L 454.86638 -34.545398 
L 452.438468 -34.545398 
L 450.010555 -34.545398 
L 447.582643 -34.545398 
L 445.154731 -34.545398 
L 442.726818 -34.545398 
L 440.298906 -34.545398 
L 437.870994 -34.545398 
L 435.443082 -34.545398 
L 433.015169 -34.545398 
L 430.587257 -34.545398 
L 428.159345 -34.545398 
L 425.731432 -34.545398 
L 423.30352 -34.545398 
L 420.875608 -34.545398 
L 418.447696 -34.545398 
L 416.019783 -34.545398 
L 413.591871 -34.545398 
L 411.163959 -34.545398 
L 408.736046 -34.545398 
L 406.308134 -34.545398 
L 403.880222 -34.545398 
L 401.45231 -34.545398 
L 399.024397 -34.545398 
L 396.596485 -34.545398 
L 394.168573 -34.545398 
L 391.74066 -34.545398 
L 389.312748 -34.545398 
L 386.884836 -34.545398 
L 384.456924 -34.545398 
L 382.029011 -34.545398 
L 379.601099 -34.545398 
L 377.173187 -34.545398 
L 374.745274 -34.545398 
L 372.317362 -34.545398 
L 369.88945 -34.545398 
L 367.461538 -34.545398 
L 365.033625 -34.545398 
L 362.605713 -34.545398 
L 360.177801 -34.545398 
L 357.749888 -34.545398 
L 355.321976 -34.545398 
L 352.894064 -34.545398 
L 350.466151 -34.545398 
L 348.038239 -34.545398 
L 345.610327 -34.545398 
L 343.182415 -34.545398 
L 340.754502 -34.545398 
L 338.32659 -34.545398 
L 335.898678 -34.545398 
L 333.470765 -34.545398 
L 331.042853 -34.545398 
L 328.614941 -34.545398 
L 326.187029 -34.545398 
L 323.759116 -34.545398 
L 321.331204 -34.545398 
L 318.903292 -34.545398 
L 316.475379 -34.545398 
L 314.047467 -34.545398 
L 311.619555 -34.545398 
L 309.191643 -34.545398 
L 306.76373 -34.545398 
L 304.335818 -34.545398 
L 301.907906 -34.545398 
L 299.479993 -34.545398 
L 297.052081 -34.545398 
L 294.624169 -34.545398 
L 292.196257 -34.545398 
L 289.768344 -34.545398 
L 287.340432 -34.545398 
L 284.91252 -34.545398 
L 282.484607 -34.545398 
L 280.056695 -34.545398 
L 277.628783 -34.545398 
L 275.200871 -34.545398 
L 272.772958 -34.545398 
L 270.345046 -34.545398 
L 267.917134 -34.545398 
L 265.489221 -34.545398 
L 263.061309 -34.545398 
L 260.633397 -34.545398 
L 258.205485 -34.545398 
L 255.777572 -34.545398 
L 253.34966 -34.545398 
L 250.921748 -34.545398 
L 248.493835 -34.545398 
L 246.065923 -34.545398 
L 243.638011 -34.545398 
L 241.210099 -34.545398 
L 238.782186 -34.545398 
L 236.354274 -34.545398 
L 233.926362 -34.545398 
L 231.498449 -34.545398 
L 229.070537 -34.545398 
L 226.642625 -34.545398 
L 224.214712 -34.545398 
L 221.7868 -34.545398 
L 219.358888 -34.545398 
L 216.930976 -34.545398 
L 214.503063 -34.545398 
L 212.075151 -34.545398 
L 209.647239 -34.545398 
L 207.219326 -34.545398 
L 204.791414 -34.545398 
L 202.363502 -34.545398 
L 199.93559 -34.545398 
L 197.507677 -34.545398 
L 195.079765 -34.545398 
L 192.651853 -34.545398 
L 190.22394 -34.545398 
L 187.796028 -34.545398 
L 185.368116 -34.545398 
L 182.940204 -34.545398 
L 180.512291 -34.545398 
L 178.084379 -34.545398 
L 175.656467 -34.545398 
L 173.228554 -34.545398 
L 170.800642 -34.545398 
L 168.37273 -34.545398 
L 165.944818 -34.545398 
L 163.516905 -34.545398 
L 161.088993 -34.545398 
L 158.661081 -34.545398 
L 156.233168 -34.545398 
L 153.805256 -34.545398 
L 151.377344 -34.545398 
L 148.949432 -34.545398 
L 146.521519 -34.545398 
L 144.093607 -34.545398 
L 141.665695 -34.545398 
L 139.237782 -34.545398 
L 136.80987 -34.545398 
L 134.381958 -34.545398 
L 131.954046 -34.545398 
L 129.526133 -34.545398 
L 127.098221 -34.545398 
L 124.670309 -34.545398 
L 122.242396 -34.545398 
L 119.814484 -34.545398 
L 117.386572 -34.545398 
L 114.958659 -34.545398 
L 112.530747 -34.545398 
L 110.102835 -34.545398 
L 107.674923 -34.545398 
L 105.24701 -34.545398 
L 102.819098 -34.545398 
L 100.391186 -34.545398 
L 97.963273 -34.545398 
L 95.535361 -34.545398 
L 93.107449 -34.545398 
L 90.679537 -34.545398 
L 88.251624 -34.545398 
L 85.823712 -34.545398 
L 83.3958 -34.545398 
L 80.967887 -34.545398 
L 78.539975 -34.545398 
L 76.112063 -34.545398 
L 73.684151 -34.545398 
L 71.256238 -34.545398 
L 68.828326 -34.545398 
L 66.400414 -34.545398 
L 63.972501 -34.545398 
L 61.544589 -34.545398 
L 59.116677 -34.545398 
L 56.688765 -34.545398 
L 54.260852 -34.545398 
z
" style="stroke: #ffa500; stroke-opacity: 0.2"/>
    </defs>
    <g clip-path="url(#p93b918307d)">
     <use xlink:href="#mca26ee3812" x="0" y="280.87625" style="fill: #ffa500; fill-opacity: 0.2; stroke: #ffa500; stroke-opacity: 0.2"/>
    </g>
   </g>
   <g id="matplotlib.axis_1">
    <g id="xtick_1">
     <g id="line2d_1">
      <defs>
       <path id="m955e2e0e03" d="M 0 0 
L 0 3.5 
" style="stroke: #000000; stroke-width: 0.8"/>
      </defs>
      <g>
       <use xlink:href="#m955e2e0e03" x="54.260852" y="256.998125" style="stroke: #000000; stroke-width: 0.8"/>
      </g>
     </g>
     <g id="text_1">
      <!-- −5.0 -->
      <g transform="translate(42.119446 271.596563) scale(0.1 -0.1)">
       <defs>
        <path id="DejaVuSans-2212" d="M 678 2272 
L 4684 2272 
L 4684 1741 
L 678 1741 
L 678 2272 
z
" transform="scale(0.015625)"/>
        <path id="DejaVuSans-35" d="M 691 4666 
L 3169 4666 
L 3169 4134 
L 1269 4134 
L 1269 2991 
Q 1406 3038 1543 3061 
Q 1681 3084 1819 3084 
Q 2600 3084 3056 2656 
Q 3513 2228 3513 1497 
Q 3513 744 3044 326 
Q 2575 -91 1722 -91 
Q 1428 -91 1123 -41 
Q 819 9 494 109 
L 494 744 
Q 775 591 1075 516 
Q 1375 441 1709 441 
Q 2250 441 2565 725 
Q 2881 1009 2881 1497 
Q 2881 1984 2565 2268 
Q 2250 2553 1709 2553 
Q 1456 2553 1204 2497 
Q 953 2441 691 2322 
L 691 4666 
z
" transform="scale(0.015625)"/>
        <path id="DejaVuSans-2e" d="M 684 794 
L 1344 794 
L 1344 0 
L 684 0 
L 684 794 
z
" transform="scale(0.015625)"/>
        <path id="DejaVuSans-30" d="M 2034 4250 
Q 1547 4250 1301 3770 
Q 1056 3291 1056 2328 
Q 1056 1369 1301 889 
Q 1547 409 2034 409 
Q 2525 409 2770 889 
Q 3016 1369 3016 2328 
Q 3016 3291 2770 3770 
Q 2525 4250 2034 4250 
z
M 2034 4750 
Q 2819 4750 3233 4129 
Q 3647 3509 3647 2328 
Q 3647 1150 3233 529 
Q 2819 -91 2034 -91 
Q 1250 -91 836 529 
Q 422 1150 422 2328 
Q 422 3509 836 4129 
Q 1250 4750 2034 4750 
z
" transform="scale(0.015625)"/>
       </defs>
       <use xlink:href="#DejaVuSans-2212"/>
       <use xlink:href="#DejaVuSans-35" x="83.789062"/>
       <use xlink:href="#DejaVuSans-2e" x="147.412109"/>
       <use xlink:href="#DejaVuSans-30" x="179.199219"/>
      </g>
     </g>
    </g>
    <g id="xtick_2">
     <g id="line2d_2">
      <g>
       <use xlink:href="#m955e2e0e03" x="114.65517" y="256.998125" style="stroke: #000000; stroke-width: 0.8"/>
      </g>
     </g>
     <g id="text_2">
      <!-- −2.5 -->
      <g transform="translate(102.513764 271.596563) scale(0.1 -0.1)">
       <defs>
        <path id="DejaVuSans-32" d="M 1228 531 
L 3431 531 
L 3431 0 
L 469 0 
L 469 531 
Q 828 903 1448 1529 
Q 2069 2156 2228 2338 
Q 2531 2678 2651 2914 
Q 2772 3150 2772 3378 
Q 2772 3750 2511 3984 
Q 2250 4219 1831 4219 
Q 1534 4219 1204 4116 
Q 875 4013 500 3803 
L 500 4441 
Q 881 4594 1212 4672 
Q 1544 4750 1819 4750 
Q 2544 4750 2975 4387 
Q 3406 4025 3406 3419 
Q 3406 3131 3298 2873 
Q 3191 2616 2906 2266 
Q 2828 2175 2409 1742 
Q 1991 1309 1228 531 
z
" transform="scale(0.015625)"/>
       </defs>
       <use xlink:href="#DejaVuSans-2212"/>
       <use xlink:href="#DejaVuSans-32" x="83.789062"/>
       <use xlink:href="#DejaVuSans-2e" x="147.412109"/>
       <use xlink:href="#DejaVuSans-35" x="179.199219"/>
      </g>
     </g>
    </g>
    <g id="xtick_3">
     <g id="line2d_3">
      <g>
       <use xlink:href="#m955e2e0e03" x="175.049489" y="256.998125" style="stroke: #000000; stroke-width: 0.8"/>
      </g>
     </g>
     <g id="text_3">
      <!-- 0.0 -->
      <g transform="translate(167.097926 271.596563) scale(0.1 -0.1)">
       <use xlink:href="#DejaVuSans-30"/>
       <use xlink:href="#DejaVuSans-2e" x="63.623047"/>
       <use xlink:href="#DejaVuSans-30" x="95.410156"/>
      </g>
     </g>
    </g>
    <g id="xtick_4">
     <g id="line2d_4">
      <g>
       <use xlink:href="#m955e2e0e03" x="235.443807" y="256.998125" style="stroke: #000000; stroke-width: 0.8"/>
      </g>
     </g>
     <g id="text_4">
      <!-- 2.5 -->
      <g transform="translate(227.492244 271.596563) scale(0.1 -0.1)">
       <use xlink:href="#DejaVuSans-32"/>
       <use xlink:href="#DejaVuSans-2e" x="63.623047"/>
       <use xlink:href="#DejaVuSans-35" x="95.410156"/>
      </g>
     </g>
    </g>
    <g id="xtick_5">
     <g id="line2d_5">
      <g>
       <use xlink:href="#m955e2e0e03" x="295.838125" y="256.998125" style="stroke: #000000; stroke-width: 0.8"/>
      </g>
     </g>
     <g id="text_5">
      <!-- 5.0 -->
      <g transform="translate(287.886562 271.596563) scale(0.1 -0.1)">
       <use xlink:href="#DejaVuSans-35"/>
       <use xlink:href="#DejaVuSans-2e" x="63.623047"/>
       <use xlink:href="#DejaVuSans-30" x="95.410156"/>
      </g>
     </g>
    </g>
    <g id="xtick_6">
     <g id="line2d_6">
      <g>
       <use xlink:href="#m955e2e0e03" x="356.232443" y="256.998125" style="stroke: #000000; stroke-width: 0.8"/>
      </g>
     </g>
     <g id="text_6">
      <!-- 7.5 -->
      <g transform="translate(348.280881 271.596563) scale(0.1 -0.1)">
       <defs>
        <path id="DejaVuSans-37" d="M 525 4666 
L 3525 4666 
L 3525 4397 
L 1831 0 
L 1172 0 
L 2766 4134 
L 525 4134 
L 525 4666 
z
" transform="scale(0.015625)"/>
       </defs>
       <use xlink:href="#DejaVuSans-37"/>
       <use xlink:href="#DejaVuSans-2e" x="63.623047"/>
       <use xlink:href="#DejaVuSans-35" x="95.410156"/>
      </g>
     </g>
    </g>
    <g id="xtick_7">
     <g id="line2d_7">
      <g>
       <use xlink:href="#m955e2e0e03" x="416.626761" y="256.998125" style="stroke: #000000; stroke-width: 0.8"/>
      </g>
     </g>
     <g id="text_7">
      <!-- 10.0 -->
      <g transform="translate(405.493949 271.596563) scale(0.1 -0.1)">
       <defs>
        <path id="DejaVuSans-31" d="M 794 531 
L 1825 531 
L 1825 4091 
L 703 3866 
L 703 4441 
L 1819 4666 
L 2450 4666 
L 2450 531 
L 3481 531 
L 3481 0 
L 794 0 
L 794 531 
z
" transform="scale(0.015625)"/>
       </defs>
       <use xlink:href="#DejaVuSans-31"/>
       <use xlink:href="#DejaVuSans-30" x="63.623047"/>
       <use xlink:href="#DejaVuSans-2e" x="127.246094"/>
       <use xlink:href="#DejaVuSans-30" x="159.033203"/>
      </g>
     </g>
    </g>
    <g id="xtick_8">
     <g id="line2d_8">
      <g>
       <use xlink:href="#m955e2e0e03" x="477.02108" y="256.998125" style="stroke: #000000; stroke-width: 0.8"/>
      </g>
     </g>
     <g id="text_8">
      <!-- 12.5 -->
      <g transform="translate(465.888267 271.596563) scale(0.1 -0.1)">
       <use xlink:href="#DejaVuSans-31"/>
       <use xlink:href="#DejaVuSans-32" x="63.623047"/>
       <use xlink:href="#DejaVuSans-2e" x="127.246094"/>
       <use xlink:href="#DejaVuSans-35" x="159.033203"/>
      </g>
     </g>
    </g>
    <g id="xtick_9">
     <g id="line2d_9">
      <g>
       <use xlink:href="#m955e2e0e03" x="537.415398" y="256.998125" style="stroke: #000000; stroke-width: 0.8"/>
      </g>
     </g>
     <g id="text_9">
      <!-- 15.0 -->
      <g transform="translate(526.282585 271.596563) scale(0.1 -0.1)">
       <use xlink:href="#DejaVuSans-31"/>
       <use xlink:href="#DejaVuSans-35" x="63.623047"/>
       <use xlink:href="#DejaVuSans-2e" x="127.246094"/>
       <use xlink:href="#DejaVuSans-30" x="159.033203"/>
      </g>
     </g>
    </g>
   </g>
   <g id="matplotlib.axis_2">
    <g id="ytick_1">
     <g id="line2d_10">
      <defs>
       <path id="mec201bfb65" d="M 0 0 
L -3.5 0 
" style="stroke: #000000; stroke-width: 0.8"/>
      </defs>
      <g>
       <use xlink:href="#mec201bfb65" x="30.103125" y="246.330852" style="stroke: #000000; stroke-width: 0.8"/>
      </g>
     </g>
     <g id="text_10">
      <!-- 0.0 -->
      <g transform="translate(7.2 250.130071) scale(0.1 -0.1)">
       <use xlink:href="#DejaVuSans-30"/>
       <use xlink:href="#DejaVuSans-2e" x="63.623047"/>
       <use xlink:href="#DejaVuSans-30" x="95.410156"/>
      </g>
     </g>
    </g>
    <g id="ytick_2">
     <g id="line2d_11">
      <g>
       <use xlink:href="#mec201bfb65" x="30.103125" y="203.655161" style="stroke: #000000; stroke-width: 0.8"/>
      </g>
     </g>
     <g id="text_11">
      <!-- 0.2 -->
      <g transform="translate(7.2 207.45438) scale(0.1 -0.1)">
       <use xlink:href="#DejaVuSans-30"/>
       <use xlink:href="#DejaVuSans-2e" x="63.623047"/>
       <use xlink:href="#DejaVuSans-32" x="95.410156"/>
      </g>
     </g>
    </g>
    <g id="ytick_3">
     <g id="line2d_12">
      <g>
       <use xlink:href="#mec201bfb65" x="30.103125" y="160.97947" style="stroke: #000000; stroke-width: 0.8"/>
      </g>
     </g>
     <g id="text_12">
      <!-- 0.4 -->
      <g transform="translate(7.2 164.778689) scale(0.1 -0.1)">
       <defs>
        <path id="DejaVuSans-34" d="M 2419 4116 
L 825 1625 
L 2419 1625 
L 2419 4116 
z
M 2253 4666 
L 3047 4666 
L 3047 1625 
L 3713 1625 
L 3713 1100 
L 3047 1100 
L 3047 0 
L 2419 0 
L 2419 1100 
L 313 1100 
L 313 1709 
L 2253 4666 
z
" transform="scale(0.015625)"/>
       </defs>
       <use xlink:href="#DejaVuSans-30"/>
       <use xlink:href="#DejaVuSans-2e" x="63.623047"/>
       <use xlink:href="#DejaVuSans-34" x="95.410156"/>
      </g>
     </g>
    </g>
    <g id="ytick_4">
     <g id="line2d_13">
      <g>
       <use xlink:href="#mec201bfb65" x="30.103125" y="118.303779" style="stroke: #000000; stroke-width: 0.8"/>
      </g>
     </g>
     <g id="text_13">
      <!-- 0.6 -->
      <g transform="translate(7.2 122.102998) scale(0.1 -0.1)">
       <defs>
        <path id="DejaVuSans-36" d="M 2113 2584 
Q 1688 2584 1439 2293 
Q 1191 2003 1191 1497 
Q 1191 994 1439 701 
Q 1688 409 2113 409 
Q 2538 409 2786 701 
Q 3034 994 3034 1497 
Q 3034 2003 2786 2293 
Q 2538 2584 2113 2584 
z
M 3366 4563 
L 3366 3988 
Q 3128 4100 2886 4159 
Q 2644 4219 2406 4219 
Q 1781 4219 1451 3797 
Q 1122 3375 1075 2522 
Q 1259 2794 1537 2939 
Q 1816 3084 2150 3084 
Q 2853 3084 3261 2657 
Q 3669 2231 3669 1497 
Q 3669 778 3244 343 
Q 2819 -91 2113 -91 
Q 1303 -91 875 529 
Q 447 1150 447 2328 
Q 447 3434 972 4092 
Q 1497 4750 2381 4750 
Q 2619 4750 2861 4703 
Q 3103 4656 3366 4563 
z
" transform="scale(0.015625)"/>
       </defs>
       <use xlink:href="#DejaVuSans-30"/>
       <use xlink:href="#DejaVuSans-2e" x="63.623047"/>
       <use xlink:href="#DejaVuSans-36" x="95.410156"/>
      </g>
     </g>
    </g>
    <g id="ytick_5">
     <g id="line2d_14">
      <g>
       <use xlink:href="#mec201bfb65" x="30.103125" y="75.628088" style="stroke: #000000; stroke-width: 0.8"/>
      </g>
     </g>
     <g id="text_14">
      <!-- 0.8 -->
      <g transform="translate(7.2 79.427307) scale(0.1 -0.1)">
       <defs>
        <path id="DejaVuSans-38" d="M 2034 2216 
Q 1584 2216 1326 1975 
Q 1069 1734 1069 1313 
Q 1069 891 1326 650 
Q 1584 409 2034 409 
Q 2484 409 2743 651 
Q 3003 894 3003 1313 
Q 3003 1734 2745 1975 
Q 2488 2216 2034 2216 
z
M 1403 2484 
Q 997 2584 770 2862 
Q 544 3141 544 3541 
Q 544 4100 942 4425 
Q 1341 4750 2034 4750 
Q 2731 4750 3128 4425 
Q 3525 4100 3525 3541 
Q 3525 3141 3298 2862 
Q 3072 2584 2669 2484 
Q 3125 2378 3379 2068 
Q 3634 1759 3634 1313 
Q 3634 634 3220 271 
Q 2806 -91 2034 -91 
Q 1263 -91 848 271 
Q 434 634 434 1313 
Q 434 1759 690 2068 
Q 947 2378 1403 2484 
z
M 1172 3481 
Q 1172 3119 1398 2916 
Q 1625 2713 2034 2713 
Q 2441 2713 2670 2916 
Q 2900 3119 2900 3481 
Q 2900 3844 2670 4047 
Q 2441 4250 2034 4250 
Q 1625 4250 1398 4047 
Q 1172 3844 1172 3481 
z
" transform="scale(0.015625)"/>
       </defs>
       <use xlink:href="#DejaVuSans-30"/>
       <use xlink:href="#DejaVuSans-2e" x="63.623047"/>
       <use xlink:href="#DejaVuSans-38" x="95.410156"/>
      </g>
     </g>
    </g>
    <g id="ytick_6">
     <g id="line2d_15">
      <g>
       <use xlink:href="#mec201bfb65" x="30.103125" y="32.952398" style="stroke: #000000; stroke-width: 0.8"/>
      </g>
     </g>
     <g id="text_15">
      <!-- 1.0 -->
      <g transform="translate(7.2 36.751616) scale(0.1 -0.1)">
       <use xlink:href="#DejaVuSans-31"/>
       <use xlink:href="#DejaVuSans-2e" x="63.623047"/>
       <use xlink:href="#DejaVuSans-30" x="95.410156"/>
      </g>
     </g>
    </g>
   </g>
   <g id="line2d_16">
    <path d="M 54.260852 246.32687 
L 83.3958 246.208022 
L 93.107449 245.997198 
L 100.391186 245.657382 
L 105.24701 245.279088 
L 110.102835 244.717536 
L 114.958659 243.900204 
L 119.814484 242.733971 
L 122.242396 241.984713 
L 124.670309 241.1029 
L 127.098221 240.07034 
L 129.526133 238.867422 
L 131.954046 237.473224 
L 134.381958 235.865671 
L 136.80987 234.021748 
L 139.237782 231.917782 
L 141.665695 229.529785 
L 144.093607 226.83386 
L 146.521519 223.806686 
L 148.949432 220.426056 
L 151.377344 216.671477 
L 153.805256 212.524824 
L 156.233168 207.971022 
L 158.661081 202.998771 
L 161.088993 197.60126 
L 163.516905 191.776883 
L 165.944818 185.529912 
L 168.37273 178.871124 
L 170.800642 171.818336 
L 175.656467 156.639704 
L 180.512291 140.290452 
L 187.796028 114.525915 
L 195.079765 88.988662 
L 199.93559 73.200729 
L 202.363502 65.941087 
L 204.791414 59.218911 
L 207.219326 53.115572 
L 209.647239 47.706823 
L 212.075151 43.061239 
L 214.503063 39.238772 
L 216.930976 36.289467 
L 219.358888 34.252368 
L 221.7868 33.154659 
L 224.214712 33.011061 
L 226.642625 33.823504 
L 229.070537 35.581083 
L 231.498449 38.260301 
L 233.926362 41.825592 
L 236.354274 46.230109 
L 238.782186 51.416743 
L 241.210099 57.319362 
L 243.638011 63.864206 
L 246.065923 70.971421 
L 248.493835 78.556674 
L 253.34966 94.811477 
L 260.633397 120.594631 
L 267.917134 146.12206 
L 272.772958 162.103228 
L 277.628783 176.795655 
L 280.056695 183.574847 
L 282.484607 189.946804 
L 284.91252 195.898693 
L 287.340432 201.42435 
L 289.768344 206.523687 
L 292.196257 211.202027 
L 294.624169 215.4694 
L 297.052081 219.339823 
L 299.479993 222.830581 
L 301.907906 225.961526 
L 304.335818 228.754416 
L 306.76373 231.232299 
L 309.191643 233.418951 
L 311.619555 235.33838 
L 314.047467 237.014392 
L 316.475379 238.470231 
L 318.903292 239.72828 
L 321.331204 240.809826 
L 323.759116 241.734887 
L 326.187029 242.522088 
L 331.042853 243.750079 
L 335.898678 244.613272 
L 340.754502 245.208096 
L 345.610327 245.609985 
L 352.894064 245.97227 
L 362.605713 246.198132 
L 379.601099 246.311242 
L 442.726818 246.33085 
L 537.415398 246.330852 
L 537.415398 246.330852 
" clip-path="url(#p93b918307d)" style="fill: none; stroke: #0000ff; stroke-width: 1.5; stroke-linecap: square"/>
   </g>
   <g id="line2d_17">
    <path d="M 54.260852 246.330852 
L 178.084379 246.239007 
L 192.651853 246.043202 
L 202.363502 245.745431 
L 209.647239 245.359432 
L 216.930976 244.755146 
L 221.7868 244.182838 
L 226.642625 243.43209 
L 231.498449 242.458264 
L 236.354274 241.20928 
L 241.210099 239.625547 
L 246.065923 237.640305 
L 248.493835 236.474495 
L 250.921748 235.180489 
L 253.34966 233.74841 
L 255.777572 232.168213 
L 258.205485 230.429767 
L 260.633397 228.522954 
L 263.061309 226.437779 
L 265.489221 224.16449 
L 267.917134 221.693711 
L 270.345046 219.016588 
L 272.772958 216.124935 
L 275.200871 213.011399 
L 277.628783 209.669622 
L 280.056695 206.094414 
L 282.484607 202.281924 
L 284.91252 198.22981 
L 287.340432 193.937407 
L 289.768344 189.40589 
L 294.624169 179.640301 
L 299.479993 168.98462 
L 304.335818 157.527919 
L 309.191643 145.398879 
L 316.475379 126.324048 
L 328.614941 94.077262 
L 333.470765 81.804495 
L 338.32659 70.329211 
L 340.754502 64.983039 
L 343.182415 59.945726 
L 345.610327 55.251612 
L 348.038239 50.933315 
L 350.466151 47.021357 
L 352.894064 43.543803 
L 355.321976 40.525925 
L 357.749888 37.9899 
L 360.177801 35.954537 
L 362.605713 34.435042 
L 365.033625 33.442834 
L 367.461538 32.985398 
L 369.88945 33.066193 
L 372.317362 33.684608 
L 374.745274 34.83597 
L 377.173187 36.5116 
L 379.601099 38.698926 
L 382.029011 41.38164 
L 384.456924 44.539896 
L 386.884836 48.150558 
L 389.312748 52.187483 
L 391.74066 56.621832 
L 394.168573 61.422416 
L 396.596485 66.556061 
L 401.45231 77.68219 
L 406.308134 89.709739 
L 413.591871 108.791697 
L 425.731432 141.024902 
L 430.587257 153.351438 
L 435.443082 165.060152 
L 440.298906 176.008321 
L 445.154731 186.093166 
L 450.010555 195.250325 
L 452.438468 199.470678 
L 454.86638 203.450756 
L 457.294292 207.191743 
L 459.722204 210.696453 
L 462.150117 213.969157 
L 464.578029 217.015412 
L 467.005941 219.841893 
L 469.433854 222.45622 
L 471.861766 224.866795 
L 474.289678 227.082646 
L 476.717591 229.113275 
L 479.145503 230.96852 
L 481.573415 232.658427 
L 484.001327 234.193127 
L 486.42924 235.582735 
L 488.857152 236.837255 
L 493.712977 238.980002 
L 498.568801 240.696323 
L 503.424626 242.055312 
L 508.28045 243.119133 
L 513.136275 243.942504 
L 517.992099 244.572642 
L 525.275836 245.241155 
L 532.559573 245.67066 
L 537.415398 245.864089 
L 537.415398 245.864089 
" clip-path="url(#p93b918307d)" style="fill: none; stroke: #ffa500; stroke-width: 1.5; stroke-linecap: square"/>
   </g>
   <g id="patch_3">
    <path d="M 30.103125 256.998125 
L 30.103125 22.318125 
" style="fill: none; stroke: #000000; stroke-width: 0.8; stroke-linejoin: miter; stroke-linecap: square"/>
   </g>
   <g id="patch_4">
    <path d="M 561.573125 256.998125 
L 561.573125 22.318125 
" style="fill: none; stroke: #000000; stroke-width: 0.8; stroke-linejoin: miter; stroke-linecap: square"/>
   </g>
   <g id="patch_5">
    <path d="M 30.103125 256.998125 
L 561.573125 256.998125 
" style="fill: none; stroke: #000000; stroke-width: 0.8; stroke-linejoin: miter; stroke-linecap: square"/>
   </g>
   <g id="patch_6">
    <path d="M 30.103125 22.318125 
L 561.573125 22.318125 
" style="fill: none; stroke: #000000; stroke-width: 0.8; stroke-linejoin: miter; stroke-linecap: square"/>
   </g>
   <g id="text_16">
    <!-- Naive Bayes: Distribuciones de Probabilidad -->
    <g transform="translate(163.5775 16.318125) scale(0.12 -0.12)">
     <defs>
      <path id="DejaVuSans-4e" d="M 628 4666 
L 1478 4666 
L 3547 763 
L 3547 4666 
L 4159 4666 
L 4159 0 
L 3309 0 
L 1241 3903 
L 1241 0 
L 628 0 
L 628 4666 
z
" transform="scale(0.015625)"/>
      <path id="DejaVuSans-61" d="M 2194 1759 
Q 1497 1759 1228 1600 
Q 959 1441 959 1056 
Q 959 750 1161 570 
Q 1363 391 1709 391 
Q 2188 391 2477 730 
Q 2766 1069 2766 1631 
L 2766 1759 
L 2194 1759 
z
M 3341 1997 
L 3341 0 
L 2766 0 
L 2766 531 
Q 2569 213 2275 61 
Q 1981 -91 1556 -91 
Q 1019 -91 701 211 
Q 384 513 384 1019 
Q 384 1609 779 1909 
Q 1175 2209 1959 2209 
L 2766 2209 
L 2766 2266 
Q 2766 2663 2505 2880 
Q 2244 3097 1772 3097 
Q 1472 3097 1187 3025 
Q 903 2953 641 2809 
L 641 3341 
Q 956 3463 1253 3523 
Q 1550 3584 1831 3584 
Q 2591 3584 2966 3190 
Q 3341 2797 3341 1997 
z
" transform="scale(0.015625)"/>
      <path id="DejaVuSans-69" d="M 603 3500 
L 1178 3500 
L 1178 0 
L 603 0 
L 603 3500 
z
M 603 4863 
L 1178 4863 
L 1178 4134 
L 603 4134 
L 603 4863 
z
" transform="scale(0.015625)"/>
      <path id="DejaVuSans-76" d="M 191 3500 
L 800 3500 
L 1894 563 
L 2988 3500 
L 3597 3500 
L 2284 0 
L 1503 0 
L 191 3500 
z
" transform="scale(0.015625)"/>
      <path id="DejaVuSans-65" d="M 3597 1894 
L 3597 1613 
L 953 1613 
Q 991 1019 1311 708 
Q 1631 397 2203 397 
Q 2534 397 2845 478 
Q 3156 559 3463 722 
L 3463 178 
Q 3153 47 2828 -22 
Q 2503 -91 2169 -91 
Q 1331 -91 842 396 
Q 353 884 353 1716 
Q 353 2575 817 3079 
Q 1281 3584 2069 3584 
Q 2775 3584 3186 3129 
Q 3597 2675 3597 1894 
z
M 3022 2063 
Q 3016 2534 2758 2815 
Q 2500 3097 2075 3097 
Q 1594 3097 1305 2825 
Q 1016 2553 972 2059 
L 3022 2063 
z
" transform="scale(0.015625)"/>
      <path id="DejaVuSans-20" transform="scale(0.015625)"/>
      <path id="DejaVuSans-42" d="M 1259 2228 
L 1259 519 
L 2272 519 
Q 2781 519 3026 730 
Q 3272 941 3272 1375 
Q 3272 1813 3026 2020 
Q 2781 2228 2272 2228 
L 1259 2228 
z
M 1259 4147 
L 1259 2741 
L 2194 2741 
Q 2656 2741 2882 2914 
Q 3109 3088 3109 3444 
Q 3109 3797 2882 3972 
Q 2656 4147 2194 4147 
L 1259 4147 
z
M 628 4666 
L 2241 4666 
Q 2963 4666 3353 4366 
Q 3744 4066 3744 3513 
Q 3744 3084 3544 2831 
Q 3344 2578 2956 2516 
Q 3422 2416 3680 2098 
Q 3938 1781 3938 1306 
Q 3938 681 3513 340 
Q 3088 0 2303 0 
L 628 0 
L 628 4666 
z
" transform="scale(0.015625)"/>
      <path id="DejaVuSans-79" d="M 2059 -325 
Q 1816 -950 1584 -1140 
Q 1353 -1331 966 -1331 
L 506 -1331 
L 506 -850 
L 844 -850 
Q 1081 -850 1212 -737 
Q 1344 -625 1503 -206 
L 1606 56 
L 191 3500 
L 800 3500 
L 1894 763 
L 2988 3500 
L 3597 3500 
L 2059 -325 
z
" transform="scale(0.015625)"/>
      <path id="DejaVuSans-73" d="M 2834 3397 
L 2834 2853 
Q 2591 2978 2328 3040 
Q 2066 3103 1784 3103 
Q 1356 3103 1142 2972 
Q 928 2841 928 2578 
Q 928 2378 1081 2264 
Q 1234 2150 1697 2047 
L 1894 2003 
Q 2506 1872 2764 1633 
Q 3022 1394 3022 966 
Q 3022 478 2636 193 
Q 2250 -91 1575 -91 
Q 1294 -91 989 -36 
Q 684 19 347 128 
L 347 722 
Q 666 556 975 473 
Q 1284 391 1588 391 
Q 1994 391 2212 530 
Q 2431 669 2431 922 
Q 2431 1156 2273 1281 
Q 2116 1406 1581 1522 
L 1381 1569 
Q 847 1681 609 1914 
Q 372 2147 372 2553 
Q 372 3047 722 3315 
Q 1072 3584 1716 3584 
Q 2034 3584 2315 3537 
Q 2597 3491 2834 3397 
z
" transform="scale(0.015625)"/>
      <path id="DejaVuSans-3a" d="M 750 794 
L 1409 794 
L 1409 0 
L 750 0 
L 750 794 
z
M 750 3309 
L 1409 3309 
L 1409 2516 
L 750 2516 
L 750 3309 
z
" transform="scale(0.015625)"/>
      <path id="DejaVuSans-44" d="M 1259 4147 
L 1259 519 
L 2022 519 
Q 2988 519 3436 956 
Q 3884 1394 3884 2338 
Q 3884 3275 3436 3711 
Q 2988 4147 2022 4147 
L 1259 4147 
z
M 628 4666 
L 1925 4666 
Q 3281 4666 3915 4102 
Q 4550 3538 4550 2338 
Q 4550 1131 3912 565 
Q 3275 0 1925 0 
L 628 0 
L 628 4666 
z
" transform="scale(0.015625)"/>
      <path id="DejaVuSans-74" d="M 1172 4494 
L 1172 3500 
L 2356 3500 
L 2356 3053 
L 1172 3053 
L 1172 1153 
Q 1172 725 1289 603 
Q 1406 481 1766 481 
L 2356 481 
L 2356 0 
L 1766 0 
Q 1100 0 847 248 
Q 594 497 594 1153 
L 594 3053 
L 172 3053 
L 172 3500 
L 594 3500 
L 594 4494 
L 1172 4494 
z
" transform="scale(0.015625)"/>
      <path id="DejaVuSans-72" d="M 2631 2963 
Q 2534 3019 2420 3045 
Q 2306 3072 2169 3072 
Q 1681 3072 1420 2755 
Q 1159 2438 1159 1844 
L 1159 0 
L 581 0 
L 581 3500 
L 1159 3500 
L 1159 2956 
Q 1341 3275 1631 3429 
Q 1922 3584 2338 3584 
Q 2397 3584 2469 3576 
Q 2541 3569 2628 3553 
L 2631 2963 
z
" transform="scale(0.015625)"/>
      <path id="DejaVuSans-62" d="M 3116 1747 
Q 3116 2381 2855 2742 
Q 2594 3103 2138 3103 
Q 1681 3103 1420 2742 
Q 1159 2381 1159 1747 
Q 1159 1113 1420 752 
Q 1681 391 2138 391 
Q 2594 391 2855 752 
Q 3116 1113 3116 1747 
z
M 1159 2969 
Q 1341 3281 1617 3432 
Q 1894 3584 2278 3584 
Q 2916 3584 3314 3078 
Q 3713 2572 3713 1747 
Q 3713 922 3314 415 
Q 2916 -91 2278 -91 
Q 1894 -91 1617 61 
Q 1341 213 1159 525 
L 1159 0 
L 581 0 
L 581 4863 
L 1159 4863 
L 1159 2969 
z
" transform="scale(0.015625)"/>
      <path id="DejaVuSans-75" d="M 544 1381 
L 544 3500 
L 1119 3500 
L 1119 1403 
Q 1119 906 1312 657 
Q 1506 409 1894 409 
Q 2359 409 2629 706 
Q 2900 1003 2900 1516 
L 2900 3500 
L 3475 3500 
L 3475 0 
L 2900 0 
L 2900 538 
Q 2691 219 2414 64 
Q 2138 -91 1772 -91 
Q 1169 -91 856 284 
Q 544 659 544 1381 
z
M 1991 3584 
L 1991 3584 
z
" transform="scale(0.015625)"/>
      <path id="DejaVuSans-63" d="M 3122 3366 
L 3122 2828 
Q 2878 2963 2633 3030 
Q 2388 3097 2138 3097 
Q 1578 3097 1268 2742 
Q 959 2388 959 1747 
Q 959 1106 1268 751 
Q 1578 397 2138 397 
Q 2388 397 2633 464 
Q 2878 531 3122 666 
L 3122 134 
Q 2881 22 2623 -34 
Q 2366 -91 2075 -91 
Q 1284 -91 818 406 
Q 353 903 353 1747 
Q 353 2603 823 3093 
Q 1294 3584 2113 3584 
Q 2378 3584 2631 3529 
Q 2884 3475 3122 3366 
z
" transform="scale(0.015625)"/>
      <path id="DejaVuSans-6f" d="M 1959 3097 
Q 1497 3097 1228 2736 
Q 959 2375 959 1747 
Q 959 1119 1226 758 
Q 1494 397 1959 397 
Q 2419 397 2687 759 
Q 2956 1122 2956 1747 
Q 2956 2369 2687 2733 
Q 2419 3097 1959 3097 
z
M 1959 3584 
Q 2709 3584 3137 3096 
Q 3566 2609 3566 1747 
Q 3566 888 3137 398 
Q 2709 -91 1959 -91 
Q 1206 -91 779 398 
Q 353 888 353 1747 
Q 353 2609 779 3096 
Q 1206 3584 1959 3584 
z
" transform="scale(0.015625)"/>
      <path id="DejaVuSans-6e" d="M 3513 2113 
L 3513 0 
L 2938 0 
L 2938 2094 
Q 2938 2591 2744 2837 
Q 2550 3084 2163 3084 
Q 1697 3084 1428 2787 
Q 1159 2491 1159 1978 
L 1159 0 
L 581 0 
L 581 3500 
L 1159 3500 
L 1159 2956 
Q 1366 3272 1645 3428 
Q 1925 3584 2291 3584 
Q 2894 3584 3203 3211 
Q 3513 2838 3513 2113 
z
" transform="scale(0.015625)"/>
      <path id="DejaVuSans-64" d="M 2906 2969 
L 2906 4863 
L 3481 4863 
L 3481 0 
L 2906 0 
L 2906 525 
Q 2725 213 2448 61 
Q 2172 -91 1784 -91 
Q 1150 -91 751 415 
Q 353 922 353 1747 
Q 353 2572 751 3078 
Q 1150 3584 1784 3584 
Q 2172 3584 2448 3432 
Q 2725 3281 2906 2969 
z
M 947 1747 
Q 947 1113 1208 752 
Q 1469 391 1925 391 
Q 2381 391 2643 752 
Q 2906 1113 2906 1747 
Q 2906 2381 2643 2742 
Q 2381 3103 1925 3103 
Q 1469 3103 1208 2742 
Q 947 2381 947 1747 
z
" transform="scale(0.015625)"/>
      <path id="DejaVuSans-50" d="M 1259 4147 
L 1259 2394 
L 2053 2394 
Q 2494 2394 2734 2622 
Q 2975 2850 2975 3272 
Q 2975 3691 2734 3919 
Q 2494 4147 2053 4147 
L 1259 4147 
z
M 628 4666 
L 2053 4666 
Q 2838 4666 3239 4311 
Q 3641 3956 3641 3272 
Q 3641 2581 3239 2228 
Q 2838 1875 2053 1875 
L 1259 1875 
L 1259 0 
L 628 0 
L 628 4666 
z
" transform="scale(0.015625)"/>
      <path id="DejaVuSans-6c" d="M 603 4863 
L 1178 4863 
L 1178 0 
L 603 0 
L 603 4863 
z
" transform="scale(0.015625)"/>
     </defs>
     <use xlink:href="#DejaVuSans-4e"/>
     <use xlink:href="#DejaVuSans-61" x="74.804688"/>
     <use xlink:href="#DejaVuSans-69" x="136.083984"/>
     <use xlink:href="#DejaVuSans-76" x="163.867188"/>
     <use xlink:href="#DejaVuSans-65" x="223.046875"/>
     <use xlink:href="#DejaVuSans-20" x="284.570312"/>
     <use xlink:href="#DejaVuSans-42" x="316.357422"/>
     <use xlink:href="#DejaVuSans-61" x="384.960938"/>
     <use xlink:href="#DejaVuSans-79" x="446.240234"/>
     <use xlink:href="#DejaVuSans-65" x="505.419922"/>
     <use xlink:href="#DejaVuSans-73" x="566.943359"/>
     <use xlink:href="#DejaVuSans-3a" x="619.042969"/>
     <use xlink:href="#DejaVuSans-20" x="652.734375"/>
     <use xlink:href="#DejaVuSans-44" x="684.521484"/>
     <use xlink:href="#DejaVuSans-69" x="761.523438"/>
     <use xlink:href="#DejaVuSans-73" x="789.306641"/>
     <use xlink:href="#DejaVuSans-74" x="841.40625"/>
     <use xlink:href="#DejaVuSans-72" x="880.615234"/>
     <use xlink:href="#DejaVuSans-69" x="921.728516"/>
     <use xlink:href="#DejaVuSans-62" x="949.511719"/>
     <use xlink:href="#DejaVuSans-75" x="1012.988281"/>
     <use xlink:href="#DejaVuSans-63" x="1076.367188"/>
     <use xlink:href="#DejaVuSans-69" x="1131.347656"/>
     <use xlink:href="#DejaVuSans-6f" x="1159.130859"/>
     <use xlink:href="#DejaVuSans-6e" x="1220.3125"/>
     <use xlink:href="#DejaVuSans-65" x="1283.691406"/>
     <use xlink:href="#DejaVuSans-73" x="1345.214844"/>
     <use xlink:href="#DejaVuSans-20" x="1397.314453"/>
     <use xlink:href="#DejaVuSans-64" x="1429.101562"/>
     <use xlink:href="#DejaVuSans-65" x="1492.578125"/>
     <use xlink:href="#DejaVuSans-20" x="1554.101562"/>
     <use xlink:href="#DejaVuSans-50" x="1585.888672"/>
     <use xlink:href="#DejaVuSans-72" x="1644.441406"/>
     <use xlink:href="#DejaVuSans-6f" x="1683.304688"/>
     <use xlink:href="#DejaVuSans-62" x="1744.486328"/>
     <use xlink:href="#DejaVuSans-61" x="1807.962891"/>
     <use xlink:href="#DejaVuSans-62" x="1869.242188"/>
     <use xlink:href="#DejaVuSans-69" x="1932.71875"/>
     <use xlink:href="#DejaVuSans-6c" x="1960.501953"/>
     <use xlink:href="#DejaVuSans-69" x="1988.285156"/>
     <use xlink:href="#DejaVuSans-64" x="2016.068359"/>
     <use xlink:href="#DejaVuSans-61" x="2079.544922"/>
     <use xlink:href="#DejaVuSans-64" x="2140.824219"/>
    </g>
   </g>
   <g id="legend_1">
    <g id="patch_7">
     <path d="M 429.523125 59.674375 
L 554.573125 59.674375 
Q 556.573125 59.674375 556.573125 57.674375 
L 556.573125 29.318125 
Q 556.573125 27.318125 554.573125 27.318125 
L 429.523125 27.318125 
Q 427.523125 27.318125 427.523125 29.318125 
L 427.523125 57.674375 
Q 427.523125 59.674375 429.523125 59.674375 
z
" style="fill: #ffffff; opacity: 0.8; stroke: #cccccc; stroke-linejoin: miter"/>
    </g>
    <g id="line2d_18">
     <path d="M 431.523125 35.416562 
L 441.523125 35.416562 
L 451.523125 35.416562 
" style="fill: none; stroke: #0000ff; stroke-width: 1.5; stroke-linecap: square"/>
    </g>
    <g id="text_17">
     <!-- Clase A (Media=2) -->
     <g transform="translate(459.523125 38.916562) scale(0.1 -0.1)">
      <defs>
       <path id="DejaVuSans-43" d="M 4122 4306 
L 4122 3641 
Q 3803 3938 3442 4084 
Q 3081 4231 2675 4231 
Q 1875 4231 1450 3742 
Q 1025 3253 1025 2328 
Q 1025 1406 1450 917 
Q 1875 428 2675 428 
Q 3081 428 3442 575 
Q 3803 722 4122 1019 
L 4122 359 
Q 3791 134 3420 21 
Q 3050 -91 2638 -91 
Q 1578 -91 968 557 
Q 359 1206 359 2328 
Q 359 3453 968 4101 
Q 1578 4750 2638 4750 
Q 3056 4750 3426 4639 
Q 3797 4528 4122 4306 
z
" transform="scale(0.015625)"/>
       <path id="DejaVuSans-41" d="M 2188 4044 
L 1331 1722 
L 3047 1722 
L 2188 4044 
z
M 1831 4666 
L 2547 4666 
L 4325 0 
L 3669 0 
L 3244 1197 
L 1141 1197 
L 716 0 
L 50 0 
L 1831 4666 
z
" transform="scale(0.015625)"/>
       <path id="DejaVuSans-28" d="M 1984 4856 
Q 1566 4138 1362 3434 
Q 1159 2731 1159 2009 
Q 1159 1288 1364 580 
Q 1569 -128 1984 -844 
L 1484 -844 
Q 1016 -109 783 600 
Q 550 1309 550 2009 
Q 550 2706 781 3412 
Q 1013 4119 1484 4856 
L 1984 4856 
z
" transform="scale(0.015625)"/>
       <path id="DejaVuSans-4d" d="M 628 4666 
L 1569 4666 
L 2759 1491 
L 3956 4666 
L 4897 4666 
L 4897 0 
L 4281 0 
L 4281 4097 
L 3078 897 
L 2444 897 
L 1241 4097 
L 1241 0 
L 628 0 
L 628 4666 
z
" transform="scale(0.015625)"/>
       <path id="DejaVuSans-3d" d="M 678 2906 
L 4684 2906 
L 4684 2381 
L 678 2381 
L 678 2906 
z
M 678 1631 
L 4684 1631 
L 4684 1100 
L 678 1100 
L 678 1631 
z
" transform="scale(0.015625)"/>
       <path id="DejaVuSans-29" d="M 513 4856 
L 1013 4856 
Q 1481 4119 1714 3412 
Q 1947 2706 1947 2009 
Q 1947 1309 1714 600 
Q 1481 -109 1013 -844 
L 513 -844 
Q 928 -128 1133 580 
Q 1338 1288 1338 2009 
Q 1338 2731 1133 3434 
Q 928 4138 513 4856 
z
" transform="scale(0.015625)"/>
      </defs>
      <use xlink:href="#DejaVuSans-43"/>
      <use xlink:href="#DejaVuSans-6c" x="69.824219"/>
      <use xlink:href="#DejaVuSans-61" x="97.607422"/>
      <use xlink:href="#DejaVuSans-73" x="158.886719"/>
      <use xlink:href="#DejaVuSans-65" x="210.986328"/>
      <use xlink:href="#DejaVuSans-20" x="272.509766"/>
      <use xlink:href="#DejaVuSans-41" x="304.296875"/>
      <use xlink:href="#DejaVuSans-20" x="372.705078"/>
      <use xlink:href="#DejaVuSans-28" x="404.492188"/>
      <use xlink:href="#DejaVuSans-4d" x="443.505859"/>
      <use xlink:href="#DejaVuSans-65" x="529.785156"/>
      <use xlink:href="#DejaVuSans-64" x="591.308594"/>
      <use xlink:href="#DejaVuSans-69" x="654.785156"/>
      <use xlink:href="#DejaVuSans-61" x="682.568359"/>
      <use xlink:href="#DejaVuSans-3d" x="743.847656"/>
      <use xlink:href="#DejaVuSans-32" x="827.636719"/>
      <use xlink:href="#DejaVuSans-29" x="891.259766"/>
     </g>
    </g>
    <g id="line2d_19">
     <path d="M 431.523125 50.094687 
L 441.523125 50.094687 
L 451.523125 50.094687 
" style="fill: none; stroke: #ffa500; stroke-width: 1.5; stroke-linecap: square"/>
    </g>
    <g id="text_18">
     <!-- Clase B (Media=8) -->
     <g transform="translate(459.523125 53.594687) scale(0.1 -0.1)">
      <use xlink:href="#DejaVuSans-43"/>
      <use xlink:href="#DejaVuSans-6c" x="69.824219"/>
      <use xlink:href="#DejaVuSans-61" x="97.607422"/>
      <use xlink:href="#DejaVuSans-73" x="158.886719"/>
      <use xlink:href="#DejaVuSans-65" x="210.986328"/>
      <use xlink:href="#DejaVuSans-20" x="272.509766"/>
      <use xlink:href="#DejaVuSans-42" x="304.296875"/>
      <use xlink:href="#DejaVuSans-20" x="372.900391"/>
      <use xlink:href="#DejaVuSans-28" x="404.6875"/>
      <use xlink:href="#DejaVuSans-4d" x="443.701172"/>
      <use xlink:href="#DejaVuSans-65" x="529.980469"/>
      <use xlink:href="#DejaVuSans-64" x="591.503906"/>
      <use xlink:href="#DejaVuSans-69" x="654.980469"/>
      <use xlink:href="#DejaVuSans-61" x="682.763672"/>
      <use xlink:href="#DejaVuSans-3d" x="744.042969"/>
      <use xlink:href="#DejaVuSans-38" x="827.832031"/>
      <use xlink:href="#DejaVuSans-29" x="891.455078"/>
     </g>
    </g>
   </g>
  </g>
 </g>
 <defs>
  <clipPath id="p93b918307d">
   <rect x="30.103125" y="22.318125" width="531.47" height="234.68"/>
  </clipPath>
 </defs>
</svg>
