<?xml version="1.0" encoding="utf-8" standalone="no"?>
<!DOCTYPE svg PUBLIC "-//W3C//DTD SVG 1.1//EN"
  "http://www.w3.org/Graphics/SVG/1.1/DTD/svg11.dtd">
<svg xmlns:xlink="http://www.w3.org/1999/xlink" width="424.7725pt" height="424.63625pt" viewBox="0 0 424.7725 424.63625" xmlns="http://www.w3.org/2000/svg" version="1.1">
 <metadata>
  <rdf:RDF xmlns:dc="http://purl.org/dc/elements/1.1/" xmlns:cc="http://creativecommons.org/ns#" xmlns:rdf="http://www.w3.org/1999/02/22-rdf-syntax-ns#">
   <cc:Work>
    <dc:type rdf:resource="http://purl.org/dc/dcmitype/StillImage"/>
    <dc:date>2026-02-01T01:39:45.276127</dc:date>
    <dc:format>image/svg+xml</dc:format>
    <dc:creator>
     <cc:Agent>
      <dc:title>Matplotlib v3.8.4, https://matplotlib.org/</dc:title>
     </cc:Agent>
    </dc:creator>
   </cc:Work>
  </rdf:RDF>
 </metadata>
 <defs>
  <style type="text/css">*{stroke-linejoin: round; stroke-linecap: butt}</style>
 </defs>
 <g id="figure_1">
  <g id="patch_1">
   <path d="M 0 424.63625 
L 424.7725 424.63625 
L 424.7725 0 
L 0 0 
z
" style="fill: #ffffff"/>
  </g>
  <g id="axes_1">
   <g id="patch_2">
    <path d="M 20.5625 400.758125 
L 417.5725 400.758125 
L 417.5725 22.798125 
L 20.5625 22.798125 
z
" style="fill: #ffffff"/>
   </g>
   <g id="PathCollection_1">
    <defs>
     <path id="m97b9c49085" d="M 0 3 
C 0.795609 3 1.55874 2.683901 2.12132 2.12132 
C 2.683901 1.55874 3 0.795609 3 0 
C 3 -0.795609 2.683901 -1.55874 2.12132 -2.12132 
C 1.55874 -2.683901 0.795609 -3 0 -3 
C -0.795609 -3 -1.55874 -2.683901 -2.12132 -2.12132 
C -2.683901 -1.55874 -3 -0.795609 -3 0 
C -3 0.795609 -2.683901 1.55874 -2.12132 2.12132 
C -1.55874 2.683901 -0.795609 3 0 3 
z
" style="stroke: #0000ff"/>
    </defs>
    <g clip-path="url(#p4addb028e2)">
     <use xlink:href="#m97b9c49085" x="181.266108" y="273.397645" style="fill: #0000ff; stroke: #0000ff"/>
     <use xlink:href="#m97b9c49085" x="57.245172" y="302.762406" style="fill: #0000ff; stroke: #0000ff"/>
     <use xlink:href="#m97b9c49085" x="150.64868" y="331.641809" style="fill: #0000ff; stroke: #0000ff"/>
     <use xlink:href="#m97b9c49085" x="135.309829" y="298.017529" style="fill: #0000ff; stroke: #0000ff"/>
     <use xlink:href="#m97b9c49085" x="124.049169" y="309.507127" style="fill: #0000ff; stroke: #0000ff"/>
     <use xlink:href="#m97b9c49085" x="142.531036" y="253.605405" style="fill: #0000ff; stroke: #0000ff"/>
     <use xlink:href="#m97b9c49085" x="82.262195" y="260.696943" style="fill: #0000ff; stroke: #0000ff"/>
     <use xlink:href="#m97b9c49085" x="133.719946" y="284.35943" style="fill: #0000ff; stroke: #0000ff"/>
     <use xlink:href="#m97b9c49085" x="74.86761" y="296.938628" style="fill: #0000ff; stroke: #0000ff"/>
     <use xlink:href="#m97b9c49085" x="187.859487" y="346.238485" style="fill: #0000ff; stroke: #0000ff"/>
     <use xlink:href="#m97b9c49085" x="38.608409" y="373.164696" style="fill: #0000ff; stroke: #0000ff"/>
     <use xlink:href="#m97b9c49085" x="135.333908" y="205.645099" style="fill: #0000ff; stroke: #0000ff"/>
     <use xlink:href="#m97b9c49085" x="172.304175" y="234.55061" style="fill: #0000ff; stroke: #0000ff"/>
     <use xlink:href="#m97b9c49085" x="128.138292" y="245.694366" style="fill: #0000ff; stroke: #0000ff"/>
     <use xlink:href="#m97b9c49085" x="112.171236" y="277.539632" style="fill: #0000ff; stroke: #0000ff"/>
     <use xlink:href="#m97b9c49085" x="112.340685" y="324.712045" style="fill: #0000ff; stroke: #0000ff"/>
     <use xlink:href="#m97b9c49085" x="129.584954" y="321.743078" style="fill: #0000ff; stroke: #0000ff"/>
     <use xlink:href="#m97b9c49085" x="180.269736" y="294.508965" style="fill: #0000ff; stroke: #0000ff"/>
     <use xlink:href="#m97b9c49085" x="141.116397" y="316.122638" style="fill: #0000ff; stroke: #0000ff"/>
     <use xlink:href="#m97b9c49085" x="178.028089" y="332.124035" style="fill: #0000ff; stroke: #0000ff"/>
    </g>
   </g>
   <g id="PathCollection_2">
    <defs>
     <path id="mae799e409d" d="M 0 3 
C 0.795609 3 1.55874 2.683901 2.12132 2.12132 
C 2.683901 1.55874 3 0.795609 3 0 
C 3 -0.795609 2.683901 -1.55874 2.12132 -2.12132 
C 1.55874 -2.683901 0.795609 -3 0 -3 
C -0.795609 -3 -1.55874 -2.683901 -2.12132 -2.12132 
C -2.683901 -1.55874 -3 -0.795609 -3 0 
C -3 0.795609 -2.683901 1.55874 -2.12132 2.12132 
C -1.55874 2.683901 -0.795609 3 0 3 
z
" style="stroke: #ff0000"/>
    </defs>
    <g clip-path="url(#p4addb028e2)">
     <use xlink:href="#mae799e409d" x="324.757094" y="154.348034" style="fill: #ff0000; stroke: #ff0000"/>
     <use xlink:href="#mae799e409d" x="255.798857" y="159.966675" style="fill: #ff0000; stroke: #ff0000"/>
     <use xlink:href="#mae799e409d" x="261.611625" y="148.741205" style="fill: #ff0000; stroke: #ff0000"/>
     <use xlink:href="#mae799e409d" x="281.676248" y="127.44315" style="fill: #ff0000; stroke: #ff0000"/>
     <use xlink:href="#mae799e409d" x="320.658441" y="146.092382" style="fill: #ff0000; stroke: #ff0000"/>
     <use xlink:href="#mae799e409d" x="295.179156" y="128.379516" style="fill: #ff0000; stroke: #ff0000"/>
     <use xlink:href="#mae799e409d" x="273.022814" y="111.374681" style="fill: #ff0000; stroke: #ff0000"/>
     <use xlink:href="#mae799e409d" x="332.602443" y="131.849476" style="fill: #ff0000; stroke: #ff0000"/>
     <use xlink:href="#mae799e409d" x="399.526591" y="102.881758" style="fill: #ff0000; stroke: #ff0000"/>
     <use xlink:href="#mae799e409d" x="291.456048" y="154.806913" style="fill: #ff0000; stroke: #ff0000"/>
     <use xlink:href="#mae799e409d" x="286.286985" y="160.469504" style="fill: #ff0000; stroke: #ff0000"/>
     <use xlink:href="#mae799e409d" x="344.955469" y="168.426076" style="fill: #ff0000; stroke: #ff0000"/>
     <use xlink:href="#mae799e409d" x="292.798872" y="161.588124" style="fill: #ff0000; stroke: #ff0000"/>
     <use xlink:href="#mae799e409d" x="341.394655" y="197.672478" style="fill: #ff0000; stroke: #ff0000"/>
     <use xlink:href="#mae799e409d" x="280.669293" y="145.057053" style="fill: #ff0000; stroke: #ff0000"/>
     <use xlink:href="#mae799e409d" x="310.062674" y="121.40787" style="fill: #ff0000; stroke: #ff0000"/>
     <use xlink:href="#mae799e409d" x="286.993626" y="99.975827" style="fill: #ff0000; stroke: #ff0000"/>
     <use xlink:href="#mae799e409d" x="309.864264" y="39.978125" style="fill: #ff0000; stroke: #ff0000"/>
     <use xlink:href="#mae799e409d" x="231.275269" y="114.927661" style="fill: #ff0000; stroke: #ff0000"/>
     <use xlink:href="#mae799e409d" x="251.242384" y="172.491938" style="fill: #ff0000; stroke: #ff0000"/>
    </g>
   </g>
   <g id="matplotlib.axis_1">
    <g id="xtick_1">
     <g id="line2d_1">
      <defs>
       <path id="m5eae2ba852" d="M 0 0 
L 0 3.5 
" style="stroke: #000000; stroke-width: 0.8"/>
      </defs>
      <g>
       <use xlink:href="#m5eae2ba852" x="80.756248" y="400.758125" style="stroke: #000000; stroke-width: 0.8"/>
      </g>
     </g>
     <g id="text_1">
      <!-- 0 -->
      <g transform="translate(77.574998 415.356562) scale(0.1 -0.1)">
       <defs>
        <path id="DejaVuSans-30" d="M 2034 4250 
Q 1547 4250 1301 3770 
Q 1056 3291 1056 2328 
Q 1056 1369 1301 889 
Q 1547 409 2034 409 
Q 2525 409 2770 889 
Q 3016 1369 3016 2328 
Q 3016 3291 2770 3770 
Q 2525 4250 2034 4250 
z
M 2034 4750 
Q 2819 4750 3233 4129 
Q 3647 3509 3647 2328 
Q 3647 1150 3233 529 
Q 2819 -91 2034 -91 
Q 1250 -91 836 529 
Q 422 1150 422 2328 
Q 422 3509 836 4129 
Q 1250 4750 2034 4750 
z
" transform="scale(0.015625)"/>
       </defs>
       <use xlink:href="#DejaVuSans-30"/>
      </g>
     </g>
    </g>
    <g id="xtick_2">
     <g id="line2d_2">
      <g>
       <use xlink:href="#m5eae2ba852" x="166.972101" y="400.758125" style="stroke: #000000; stroke-width: 0.8"/>
      </g>
     </g>
     <g id="text_2">
      <!-- 2 -->
      <g transform="translate(163.790851 415.356562) scale(0.1 -0.1)">
       <defs>
        <path id="DejaVuSans-32" d="M 1228 531 
L 3431 531 
L 3431 0 
L 469 0 
L 469 531 
Q 828 903 1448 1529 
Q 2069 2156 2228 2338 
Q 2531 2678 2651 2914 
Q 2772 3150 2772 3378 
Q 2772 3750 2511 3984 
Q 2250 4219 1831 4219 
Q 1534 4219 1204 4116 
Q 875 4013 500 3803 
L 500 4441 
Q 881 4594 1212 4672 
Q 1544 4750 1819 4750 
Q 2544 4750 2975 4387 
Q 3406 4025 3406 3419 
Q 3406 3131 3298 2873 
Q 3191 2616 2906 2266 
Q 2828 2175 2409 1742 
Q 1991 1309 1228 531 
z
" transform="scale(0.015625)"/>
       </defs>
       <use xlink:href="#DejaVuSans-32"/>
      </g>
     </g>
    </g>
    <g id="xtick_3">
     <g id="line2d_3">
      <g>
       <use xlink:href="#m5eae2ba852" x="253.187954" y="400.758125" style="stroke: #000000; stroke-width: 0.8"/>
      </g>
     </g>
     <g id="text_3">
      <!-- 4 -->
      <g transform="translate(250.006704 415.356562) scale(0.1 -0.1)">
       <defs>
        <path id="DejaVuSans-34" d="M 2419 4116 
L 825 1625 
L 2419 1625 
L 2419 4116 
z
M 2253 4666 
L 3047 4666 
L 3047 1625 
L 3713 1625 
L 3713 1100 
L 3047 1100 
L 3047 0 
L 2419 0 
L 2419 1100 
L 313 1100 
L 313 1709 
L 2253 4666 
z
" transform="scale(0.015625)"/>
       </defs>
       <use xlink:href="#DejaVuSans-34"/>
      </g>
     </g>
    </g>
    <g id="xtick_4">
     <g id="line2d_4">
      <g>
       <use xlink:href="#m5eae2ba852" x="339.403808" y="400.758125" style="stroke: #000000; stroke-width: 0.8"/>
      </g>
     </g>
     <g id="text_4">
      <!-- 6 -->
      <g transform="translate(336.222558 415.356562) scale(0.1 -0.1)">
       <defs>
        <path id="DejaVuSans-36" d="M 2113 2584 
Q 1688 2584 1439 2293 
Q 1191 2003 1191 1497 
Q 1191 994 1439 701 
Q 1688 409 2113 409 
Q 2538 409 2786 701 
Q 3034 994 3034 1497 
Q 3034 2003 2786 2293 
Q 2538 2584 2113 2584 
z
M 3366 4563 
L 3366 3988 
Q 3128 4100 2886 4159 
Q 2644 4219 2406 4219 
Q 1781 4219 1451 3797 
Q 1122 3375 1075 2522 
Q 1259 2794 1537 2939 
Q 1816 3084 2150 3084 
Q 2853 3084 3261 2657 
Q 3669 2231 3669 1497 
Q 3669 778 3244 343 
Q 2819 -91 2113 -91 
Q 1303 -91 875 529 
Q 447 1150 447 2328 
Q 447 3434 972 4092 
Q 1497 4750 2381 4750 
Q 2619 4750 2861 4703 
Q 3103 4656 3366 4563 
z
" transform="scale(0.015625)"/>
       </defs>
       <use xlink:href="#DejaVuSans-36"/>
      </g>
     </g>
    </g>
   </g>
   <g id="matplotlib.axis_2">
    <g id="ytick_1">
     <g id="line2d_5">
      <defs>
       <path id="m4c99aefdb4" d="M 0 0 
L -3.5 0 
" style="stroke: #000000; stroke-width: 0.8"/>
      </defs>
      <g>
       <use xlink:href="#m4c99aefdb4" x="20.5625" y="343.000166" style="stroke: #000000; stroke-width: 0.8"/>
      </g>
     </g>
     <g id="text_5">
      <!-- 0 -->
      <g transform="translate(7.2 346.799384) scale(0.1 -0.1)">
       <use xlink:href="#DejaVuSans-30"/>
      </g>
     </g>
    </g>
    <g id="ytick_2">
     <g id="line2d_6">
      <g>
       <use xlink:href="#m4c99aefdb4" x="20.5625" y="261.844247" style="stroke: #000000; stroke-width: 0.8"/>
      </g>
     </g>
     <g id="text_6">
      <!-- 2 -->
      <g transform="translate(7.2 265.643466) scale(0.1 -0.1)">
       <use xlink:href="#DejaVuSans-32"/>
      </g>
     </g>
    </g>
    <g id="ytick_3">
     <g id="line2d_7">
      <g>
       <use xlink:href="#m4c99aefdb4" x="20.5625" y="180.688328" style="stroke: #000000; stroke-width: 0.8"/>
      </g>
     </g>
     <g id="text_7">
      <!-- 4 -->
      <g transform="translate(7.2 184.487547) scale(0.1 -0.1)">
       <use xlink:href="#DejaVuSans-34"/>
      </g>
     </g>
    </g>
    <g id="ytick_4">
     <g id="line2d_8">
      <g>
       <use xlink:href="#m4c99aefdb4" x="20.5625" y="99.53241" style="stroke: #000000; stroke-width: 0.8"/>
      </g>
     </g>
     <g id="text_8">
      <!-- 6 -->
      <g transform="translate(7.2 103.331629) scale(0.1 -0.1)">
       <use xlink:href="#DejaVuSans-36"/>
      </g>
     </g>
    </g>
   </g>
   <g id="line2d_9">
    <path d="M 80.756248 99.53241 
L 83.36885 101.99168 
L 85.981451 104.45095 
L 88.594053 106.910221 
L 91.206655 109.369491 
L 93.819256 111.828761 
L 96.431858 114.288031 
L 99.044459 116.747302 
L 101.657061 119.206572 
L 104.269663 121.665842 
L 106.882264 124.125112 
L 109.494866 126.584383 
L 112.107467 129.043653 
L 114.720069 131.502923 
L 117.332671 133.962194 
L 119.945272 136.421464 
L 122.557874 138.880734 
L 125.170475 141.340004 
L 127.783077 143.799275 
L 130.395679 146.258545 
L 133.00828 148.717815 
L 135.620882 151.177085 
L 138.233484 153.636356 
L 140.846085 156.095626 
L 143.458687 158.554896 
L 146.071288 161.014166 
L 148.68389 163.473437 
L 151.296492 165.932707 
L 153.909093 168.391977 
L 156.521695 170.851247 
L 159.134296 173.310518 
L 161.746898 175.769788 
L 164.3595 178.229058 
L 166.972101 180.688328 
L 169.584703 183.147599 
L 172.197304 185.606869 
L 174.809906 188.066139 
L 177.422508 190.52541 
L 180.035109 192.98468 
L 182.647711 195.44395 
L 185.260313 197.90322 
L 187.872914 200.362491 
L 190.485516 202.821761 
L 193.098117 205.281031 
L 195.710719 207.740301 
L 198.323321 210.199572 
L 200.935922 212.658842 
L 203.548524 215.118112 
L 206.161125 217.577382 
L 208.773727 220.036653 
L 211.386329 222.495923 
L 213.99893 224.955193 
L 216.611532 227.414463 
L 219.224134 229.873734 
L 221.836735 232.333004 
L 224.449337 234.792274 
L 227.061938 237.251544 
L 229.67454 239.710815 
L 232.287142 242.170085 
L 234.899743 244.629355 
L 237.512345 247.088626 
L 240.124946 249.547896 
L 242.737548 252.007166 
L 245.35015 254.466436 
L 247.962751 256.925707 
L 250.575353 259.384977 
L 253.187954 261.844247 
L 255.800556 264.303517 
L 258.413158 266.762788 
L 261.025759 269.222058 
L 263.638361 271.681328 
L 266.250963 274.140598 
L 268.863564 276.599869 
L 271.476166 279.059139 
L 274.088767 281.518409 
L 276.701369 283.977679 
L 279.313971 286.43695 
L 281.926572 288.89622 
L 284.539174 291.35549 
L 287.151775 293.81476 
L 289.764377 296.274031 
L 292.376979 298.733301 
L 294.98958 301.192571 
L 297.602182 303.651842 
L 300.214783 306.111112 
L 302.827385 308.570382 
L 305.439987 311.029652 
L 308.052588 313.488923 
L 310.66519 315.948193 
L 313.277792 318.407463 
L 315.890393 320.866733 
L 318.502995 323.326004 
L 321.115596 325.785274 
L 323.728198 328.244544 
L 326.3408 330.703814 
L 328.953401 333.163085 
L 331.566003 335.622355 
L 334.178604 338.081625 
L 336.791206 340.540895 
L 339.403808 343.000166 
" clip-path="url(#p4addb028e2)" style="fill: none; stroke: #000000; stroke-width: 2; stroke-linecap: square"/>
   </g>
   <g id="line2d_10">
    <path d="M 80.756248 140.110369 
L 83.36885 142.569639 
L 85.981451 145.02891 
L 88.594053 147.48818 
L 91.206655 149.94745 
L 93.819256 152.40672 
L 96.431858 154.865991 
L 99.044459 157.325261 
L 101.657061 159.784531 
L 104.269663 162.243802 
L 106.882264 164.703072 
L 109.494866 167.162342 
L 112.107467 169.621612 
L 114.720069 172.080883 
L 117.332671 174.540153 
L 119.945272 176.999423 
L 122.557874 179.458693 
L 125.170475 181.917964 
L 127.783077 184.377234 
L 130.395679 186.836504 
L 133.00828 189.295774 
L 135.620882 191.755045 
L 138.233484 194.214315 
L 140.846085 196.673585 
L 143.458687 199.132855 
L 146.071288 201.592126 
L 148.68389 204.051396 
L 151.296492 206.510666 
L 153.909093 208.969936 
L 156.521695 211.429207 
L 159.134296 213.888477 
L 161.746898 216.347747 
L 164.3595 218.807018 
L 166.972101 221.266288 
L 169.584703 223.725558 
L 172.197304 226.184828 
L 174.809906 228.644099 
L 177.422508 231.103369 
L 180.035109 233.562639 
L 182.647711 236.021909 
L 185.260313 238.48118 
L 187.872914 240.94045 
L 190.485516 243.39972 
L 193.098117 245.85899 
L 195.710719 248.318261 
L 198.323321 250.777531 
L 200.935922 253.236801 
L 203.548524 255.696071 
L 206.161125 258.155342 
L 208.773727 260.614612 
L 211.386329 263.073882 
L 213.99893 265.533152 
L 216.611532 267.992423 
L 219.224134 270.451693 
L 221.836735 272.910963 
L 224.449337 275.370234 
L 227.061938 277.829504 
L 229.67454 280.288774 
L 232.287142 282.748044 
L 234.899743 285.207315 
L 237.512345 287.666585 
L 240.124946 290.125855 
L 242.737548 292.585125 
L 245.35015 295.044396 
L 247.962751 297.503666 
L 250.575353 299.962936 
L 253.187954 302.422206 
L 255.800556 304.881477 
L 258.413158 307.340747 
L 261.025759 309.800017 
L 263.638361 312.259287 
L 266.250963 314.718558 
L 268.863564 317.177828 
L 271.476166 319.637098 
L 274.088767 322.096368 
L 276.701369 324.555639 
L 279.313971 327.014909 
L 281.926572 329.474179 
L 284.539174 331.93345 
L 287.151775 334.39272 
L 289.764377 336.85199 
L 292.376979 339.31126 
L 294.98958 341.770531 
L 297.602182 344.229801 
L 300.214783 346.689071 
L 302.827385 349.148341 
L 305.439987 351.607612 
L 308.052588 354.066882 
L 310.66519 356.526152 
L 313.277792 358.985422 
L 315.890393 361.444693 
L 318.502995 363.903963 
L 321.115596 366.363233 
L 323.728198 368.822503 
L 326.3408 371.281774 
L 328.953401 373.741044 
L 331.566003 376.200314 
L 334.178604 378.659584 
L 336.791206 381.118855 
L 339.403808 383.578125 
" clip-path="url(#p4addb028e2)" style="fill: none; stroke-dasharray: 5.55,2.4; stroke-dashoffset: 0; stroke: #000000; stroke-width: 1.5"/>
   </g>
   <g id="line2d_11">
    <path d="M 80.756248 58.954451 
L 83.36885 61.413721 
L 85.981451 63.872991 
L 88.594053 66.332261 
L 91.206655 68.791532 
L 93.819256 71.250802 
L 96.431858 73.710072 
L 99.044459 76.169342 
L 101.657061 78.628613 
L 104.269663 81.087883 
L 106.882264 83.547153 
L 109.494866 86.006423 
L 112.107467 88.465694 
L 114.720069 90.924964 
L 117.332671 93.384234 
L 119.945272 95.843504 
L 122.557874 98.302775 
L 125.170475 100.762045 
L 127.783077 103.221315 
L 130.395679 105.680585 
L 133.00828 108.139856 
L 135.620882 110.599126 
L 138.233484 113.058396 
L 140.846085 115.517667 
L 143.458687 117.976937 
L 146.071288 120.436207 
L 148.68389 122.895477 
L 151.296492 125.354748 
L 153.909093 127.814018 
L 156.521695 130.273288 
L 159.134296 132.732558 
L 161.746898 135.191829 
L 164.3595 137.651099 
L 166.972101 140.110369 
L 169.584703 142.569639 
L 172.197304 145.02891 
L 174.809906 147.48818 
L 177.422508 149.94745 
L 180.035109 152.40672 
L 182.647711 154.865991 
L 185.260313 157.325261 
L 187.872914 159.784531 
L 190.485516 162.243802 
L 193.098117 164.703072 
L 195.710719 167.162342 
L 198.323321 169.621612 
L 200.935922 172.080883 
L 203.548524 174.540153 
L 206.161125 176.999423 
L 208.773727 179.458693 
L 211.386329 181.917964 
L 213.99893 184.377234 
L 216.611532 186.836504 
L 219.224134 189.295774 
L 221.836735 191.755045 
L 224.449337 194.214315 
L 227.061938 196.673585 
L 229.67454 199.132855 
L 232.287142 201.592126 
L 234.899743 204.051396 
L 237.512345 206.510666 
L 240.124946 208.969936 
L 242.737548 211.429207 
L 245.35015 213.888477 
L 247.962751 216.347747 
L 250.575353 218.807018 
L 253.187954 221.266288 
L 255.800556 223.725558 
L 258.413158 226.184828 
L 261.025759 228.644099 
L 263.638361 231.103369 
L 266.250963 233.562639 
L 268.863564 236.021909 
L 271.476166 238.48118 
L 274.088767 240.94045 
L 276.701369 243.39972 
L 279.313971 245.85899 
L 281.926572 248.318261 
L 284.539174 250.777531 
L 287.151775 253.236801 
L 289.764377 255.696071 
L 292.376979 258.155342 
L 294.98958 260.614612 
L 297.602182 263.073882 
L 300.214783 265.533152 
L 302.827385 267.992423 
L 305.439987 270.451693 
L 308.052588 272.910963 
L 310.66519 275.370234 
L 313.277792 277.829504 
L 315.890393 280.288774 
L 318.502995 282.748044 
L 321.115596 285.207315 
L 323.728198 287.666585 
L 326.3408 290.125855 
L 328.953401 292.585125 
L 331.566003 295.044396 
L 334.178604 297.503666 
L 336.791206 299.962936 
L 339.403808 302.422206 
" clip-path="url(#p4addb028e2)" style="fill: none; stroke-dasharray: 5.55,2.4; stroke-dashoffset: 0; stroke: #000000; stroke-width: 1.5"/>
   </g>
   <g id="patch_3">
    <path d="M 20.5625 400.758125 
L 20.5625 22.798125 
" style="fill: none; stroke: #000000; stroke-width: 0.8; stroke-linejoin: miter; stroke-linecap: square"/>
   </g>
   <g id="patch_4">
    <path d="M 417.5725 400.758125 
L 417.5725 22.798125 
" style="fill: none; stroke: #000000; stroke-width: 0.8; stroke-linejoin: miter; stroke-linecap: square"/>
   </g>
   <g id="patch_5">
    <path d="M 20.5625 400.758125 
L 417.5725 400.758125 
" style="fill: none; stroke: #000000; stroke-width: 0.8; stroke-linejoin: miter; stroke-linecap: square"/>
   </g>
   <g id="patch_6">
    <path d="M 20.5625 22.798125 
L 417.5725 22.798125 
" style="fill: none; stroke: #000000; stroke-width: 0.8; stroke-linejoin: miter; stroke-linecap: square"/>
   </g>
   <g id="text_9">
    <!-- Máquinas de Soporte Vectorial (SVM) -->
    <g transform="translate(107.8275 16.798125) scale(0.12 -0.12)">
     <defs>
      <path id="DejaVuSans-4d" d="M 628 4666 
L 1569 4666 
L 2759 1491 
L 3956 4666 
L 4897 4666 
L 4897 0 
L 4281 0 
L 4281 4097 
L 3078 897 
L 2444 897 
L 1241 4097 
L 1241 0 
L 628 0 
L 628 4666 
z
" transform="scale(0.015625)"/>
      <path id="DejaVuSans-e1" d="M 2194 1759 
Q 1497 1759 1228 1600 
Q 959 1441 959 1056 
Q 959 750 1161 570 
Q 1363 391 1709 391 
Q 2188 391 2477 730 
Q 2766 1069 2766 1631 
L 2766 1759 
L 2194 1759 
z
M 3341 1997 
L 3341 0 
L 2766 0 
L 2766 531 
Q 2569 213 2275 61 
Q 1981 -91 1556 -91 
Q 1019 -91 701 211 
Q 384 513 384 1019 
Q 384 1609 779 1909 
Q 1175 2209 1959 2209 
L 2766 2209 
L 2766 2266 
Q 2766 2663 2505 2880 
Q 2244 3097 1772 3097 
Q 1472 3097 1187 3025 
Q 903 2953 641 2809 
L 641 3341 
Q 956 3463 1253 3523 
Q 1550 3584 1831 3584 
Q 2591 3584 2966 3190 
Q 3341 2797 3341 1997 
z
M 2291 5119 
L 2913 5119 
L 1894 3944 
L 1416 3944 
L 2291 5119 
z
" transform="scale(0.015625)"/>
      <path id="DejaVuSans-71" d="M 947 1747 
Q 947 1113 1208 752 
Q 1469 391 1925 391 
Q 2381 391 2643 752 
Q 2906 1113 2906 1747 
Q 2906 2381 2643 2742 
Q 2381 3103 1925 3103 
Q 1469 3103 1208 2742 
Q 947 2381 947 1747 
z
M 2906 525 
Q 2725 213 2448 61 
Q 2172 -91 1784 -91 
Q 1150 -91 751 415 
Q 353 922 353 1747 
Q 353 2572 751 3078 
Q 1150 3584 1784 3584 
Q 2172 3584 2448 3432 
Q 2725 3281 2906 2969 
L 2906 3500 
L 3481 3500 
L 3481 -1331 
L 2906 -1331 
L 2906 525 
z
" transform="scale(0.015625)"/>
      <path id="DejaVuSans-75" d="M 544 1381 
L 544 3500 
L 1119 3500 
L 1119 1403 
Q 1119 906 1312 657 
Q 1506 409 1894 409 
Q 2359 409 2629 706 
Q 2900 1003 2900 1516 
L 2900 3500 
L 3475 3500 
L 3475 0 
L 2900 0 
L 2900 538 
Q 2691 219 2414 64 
Q 2138 -91 1772 -91 
Q 1169 -91 856 284 
Q 544 659 544 1381 
z
M 1991 3584 
L 1991 3584 
z
" transform="scale(0.015625)"/>
      <path id="DejaVuSans-69" d="M 603 3500 
L 1178 3500 
L 1178 0 
L 603 0 
L 603 3500 
z
M 603 4863 
L 1178 4863 
L 1178 4134 
L 603 4134 
L 603 4863 
z
" transform="scale(0.015625)"/>
      <path id="DejaVuSans-6e" d="M 3513 2113 
L 3513 0 
L 2938 0 
L 2938 2094 
Q 2938 2591 2744 2837 
Q 2550 3084 2163 3084 
Q 1697 3084 1428 2787 
Q 1159 2491 1159 1978 
L 1159 0 
L 581 0 
L 581 3500 
L 1159 3500 
L 1159 2956 
Q 1366 3272 1645 3428 
Q 1925 3584 2291 3584 
Q 2894 3584 3203 3211 
Q 3513 2838 3513 2113 
z
" transform="scale(0.015625)"/>
      <path id="DejaVuSans-61" d="M 2194 1759 
Q 1497 1759 1228 1600 
Q 959 1441 959 1056 
Q 959 750 1161 570 
Q 1363 391 1709 391 
Q 2188 391 2477 730 
Q 2766 1069 2766 1631 
L 2766 1759 
L 2194 1759 
z
M 3341 1997 
L 3341 0 
L 2766 0 
L 2766 531 
Q 2569 213 2275 61 
Q 1981 -91 1556 -91 
Q 1019 -91 701 211 
Q 384 513 384 1019 
Q 384 1609 779 1909 
Q 1175 2209 1959 2209 
L 2766 2209 
L 2766 2266 
Q 2766 2663 2505 2880 
Q 2244 3097 1772 3097 
Q 1472 3097 1187 3025 
Q 903 2953 641 2809 
L 641 3341 
Q 956 3463 1253 3523 
Q 1550 3584 1831 3584 
Q 2591 3584 2966 3190 
Q 3341 2797 3341 1997 
z
" transform="scale(0.015625)"/>
      <path id="DejaVuSans-73" d="M 2834 3397 
L 2834 2853 
Q 2591 2978 2328 3040 
Q 2066 3103 1784 3103 
Q 1356 3103 1142 2972 
Q 928 2841 928 2578 
Q 928 2378 1081 2264 
Q 1234 2150 1697 2047 
L 1894 2003 
Q 2506 1872 2764 1633 
Q 3022 1394 3022 966 
Q 3022 478 2636 193 
Q 2250 -91 1575 -91 
Q 1294 -91 989 -36 
Q 684 19 347 128 
L 347 722 
Q 666 556 975 473 
Q 1284 391 1588 391 
Q 1994 391 2212 530 
Q 2431 669 2431 922 
Q 2431 1156 2273 1281 
Q 2116 1406 1581 1522 
L 1381 1569 
Q 847 1681 609 1914 
Q 372 2147 372 2553 
Q 372 3047 722 3315 
Q 1072 3584 1716 3584 
Q 2034 3584 2315 3537 
Q 2597 3491 2834 3397 
z
" transform="scale(0.015625)"/>
      <path id="DejaVuSans-20" transform="scale(0.015625)"/>
      <path id="DejaVuSans-64" d="M 2906 2969 
L 2906 4863 
L 3481 4863 
L 3481 0 
L 2906 0 
L 2906 525 
Q 2725 213 2448 61 
Q 2172 -91 1784 -91 
Q 1150 -91 751 415 
Q 353 922 353 1747 
Q 353 2572 751 3078 
Q 1150 3584 1784 3584 
Q 2172 3584 2448 3432 
Q 2725 3281 2906 2969 
z
M 947 1747 
Q 947 1113 1208 752 
Q 1469 391 1925 391 
Q 2381 391 2643 752 
Q 2906 1113 2906 1747 
Q 2906 2381 2643 2742 
Q 2381 3103 1925 3103 
Q 1469 3103 1208 2742 
Q 947 2381 947 1747 
z
" transform="scale(0.015625)"/>
      <path id="DejaVuSans-65" d="M 3597 1894 
L 3597 1613 
L 953 1613 
Q 991 1019 1311 708 
Q 1631 397 2203 397 
Q 2534 397 2845 478 
Q 3156 559 3463 722 
L 3463 178 
Q 3153 47 2828 -22 
Q 2503 -91 2169 -91 
Q 1331 -91 842 396 
Q 353 884 353 1716 
Q 353 2575 817 3079 
Q 1281 3584 2069 3584 
Q 2775 3584 3186 3129 
Q 3597 2675 3597 1894 
z
M 3022 2063 
Q 3016 2534 2758 2815 
Q 2500 3097 2075 3097 
Q 1594 3097 1305 2825 
Q 1016 2553 972 2059 
L 3022 2063 
z
" transform="scale(0.015625)"/>
      <path id="DejaVuSans-53" d="M 3425 4513 
L 3425 3897 
Q 3066 4069 2747 4153 
Q 2428 4238 2131 4238 
Q 1616 4238 1336 4038 
Q 1056 3838 1056 3469 
Q 1056 3159 1242 3001 
Q 1428 2844 1947 2747 
L 2328 2669 
Q 3034 2534 3370 2195 
Q 3706 1856 3706 1288 
Q 3706 609 3251 259 
Q 2797 -91 1919 -91 
Q 1588 -91 1214 -16 
Q 841 59 441 206 
L 441 856 
Q 825 641 1194 531 
Q 1563 422 1919 422 
Q 2459 422 2753 634 
Q 3047 847 3047 1241 
Q 3047 1584 2836 1778 
Q 2625 1972 2144 2069 
L 1759 2144 
Q 1053 2284 737 2584 
Q 422 2884 422 3419 
Q 422 4038 858 4394 
Q 1294 4750 2059 4750 
Q 2388 4750 2728 4690 
Q 3069 4631 3425 4513 
z
" transform="scale(0.015625)"/>
      <path id="DejaVuSans-6f" d="M 1959 3097 
Q 1497 3097 1228 2736 
Q 959 2375 959 1747 
Q 959 1119 1226 758 
Q 1494 397 1959 397 
Q 2419 397 2687 759 
Q 2956 1122 2956 1747 
Q 2956 2369 2687 2733 
Q 2419 3097 1959 3097 
z
M 1959 3584 
Q 2709 3584 3137 3096 
Q 3566 2609 3566 1747 
Q 3566 888 3137 398 
Q 2709 -91 1959 -91 
Q 1206 -91 779 398 
Q 353 888 353 1747 
Q 353 2609 779 3096 
Q 1206 3584 1959 3584 
z
" transform="scale(0.015625)"/>
      <path id="DejaVuSans-70" d="M 1159 525 
L 1159 -1331 
L 581 -1331 
L 581 3500 
L 1159 3500 
L 1159 2969 
Q 1341 3281 1617 3432 
Q 1894 3584 2278 3584 
Q 2916 3584 3314 3078 
Q 3713 2572 3713 1747 
Q 3713 922 3314 415 
Q 2916 -91 2278 -91 
Q 1894 -91 1617 61 
Q 1341 213 1159 525 
z
M 3116 1747 
Q 3116 2381 2855 2742 
Q 2594 3103 2138 3103 
Q 1681 3103 1420 2742 
Q 1159 2381 1159 1747 
Q 1159 1113 1420 752 
Q 1681 391 2138 391 
Q 2594 391 2855 752 
Q 3116 1113 3116 1747 
z
" transform="scale(0.015625)"/>
      <path id="DejaVuSans-72" d="M 2631 2963 
Q 2534 3019 2420 3045 
Q 2306 3072 2169 3072 
Q 1681 3072 1420 2755 
Q 1159 2438 1159 1844 
L 1159 0 
L 581 0 
L 581 3500 
L 1159 3500 
L 1159 2956 
Q 1341 3275 1631 3429 
Q 1922 3584 2338 3584 
Q 2397 3584 2469 3576 
Q 2541 3569 2628 3553 
L 2631 2963 
z
" transform="scale(0.015625)"/>
      <path id="DejaVuSans-74" d="M 1172 4494 
L 1172 3500 
L 2356 3500 
L 2356 3053 
L 1172 3053 
L 1172 1153 
Q 1172 725 1289 603 
Q 1406 481 1766 481 
L 2356 481 
L 2356 0 
L 1766 0 
Q 1100 0 847 248 
Q 594 497 594 1153 
L 594 3053 
L 172 3053 
L 172 3500 
L 594 3500 
L 594 4494 
L 1172 4494 
z
" transform="scale(0.015625)"/>
      <path id="DejaVuSans-56" d="M 1831 0 
L 50 4666 
L 709 4666 
L 2188 738 
L 3669 4666 
L 4325 4666 
L 2547 0 
L 1831 0 
z
" transform="scale(0.015625)"/>
      <path id="DejaVuSans-63" d="M 3122 3366 
L 3122 2828 
Q 2878 2963 2633 3030 
Q 2388 3097 2138 3097 
Q 1578 3097 1268 2742 
Q 959 2388 959 1747 
Q 959 1106 1268 751 
Q 1578 397 2138 397 
Q 2388 397 2633 464 
Q 2878 531 3122 666 
L 3122 134 
Q 2881 22 2623 -34 
Q 2366 -91 2075 -91 
Q 1284 -91 818 406 
Q 353 903 353 1747 
Q 353 2603 823 3093 
Q 1294 3584 2113 3584 
Q 2378 3584 2631 3529 
Q 2884 3475 3122 3366 
z
" transform="scale(0.015625)"/>
      <path id="DejaVuSans-6c" d="M 603 4863 
L 1178 4863 
L 1178 0 
L 603 0 
L 603 4863 
z
" transform="scale(0.015625)"/>
      <path id="DejaVuSans-28" d="M 1984 4856 
Q 1566 4138 1362 3434 
Q 1159 2731 1159 2009 
Q 1159 1288 1364 580 
Q 1569 -128 1984 -844 
L 1484 -844 
Q 1016 -109 783 600 
Q 550 1309 550 2009 
Q 550 2706 781 3412 
Q 1013 4119 1484 4856 
L 1984 4856 
z
" transform="scale(0.015625)"/>
      <path id="DejaVuSans-29" d="M 513 4856 
L 1013 4856 
Q 1481 4119 1714 3412 
Q 1947 2706 1947 2009 
Q 1947 1309 1714 600 
Q 1481 -109 1013 -844 
L 513 -844 
Q 928 -128 1133 580 
Q 1338 1288 1338 2009 
Q 1338 2731 1133 3434 
Q 928 4138 513 4856 
z
" transform="scale(0.015625)"/>
     </defs>
     <use xlink:href="#DejaVuSans-4d"/>
     <use xlink:href="#DejaVuSans-e1" x="86.279297"/>
     <use xlink:href="#DejaVuSans-71" x="147.558594"/>
     <use xlink:href="#DejaVuSans-75" x="211.035156"/>
     <use xlink:href="#DejaVuSans-69" x="274.414062"/>
     <use xlink:href="#DejaVuSans-6e" x="302.197266"/>
     <use xlink:href="#DejaVuSans-61" x="365.576172"/>
     <use xlink:href="#DejaVuSans-73" x="426.855469"/>
     <use xlink:href="#DejaVuSans-20" x="478.955078"/>
     <use xlink:href="#DejaVuSans-64" x="510.742188"/>
     <use xlink:href="#DejaVuSans-65" x="574.21875"/>
     <use xlink:href="#DejaVuSans-20" x="635.742188"/>
     <use xlink:href="#DejaVuSans-53" x="667.529297"/>
     <use xlink:href="#DejaVuSans-6f" x="731.005859"/>
     <use xlink:href="#DejaVuSans-70" x="792.1875"/>
     <use xlink:href="#DejaVuSans-6f" x="855.664062"/>
     <use xlink:href="#DejaVuSans-72" x="916.845703"/>
     <use xlink:href="#DejaVuSans-74" x="957.958984"/>
     <use xlink:href="#DejaVuSans-65" x="997.167969"/>
     <use xlink:href="#DejaVuSans-20" x="1058.691406"/>
     <use xlink:href="#DejaVuSans-56" x="1090.478516"/>
     <use xlink:href="#DejaVuSans-65" x="1151.136719"/>
     <use xlink:href="#DejaVuSans-63" x="1212.660156"/>
     <use xlink:href="#DejaVuSans-74" x="1267.640625"/>
     <use xlink:href="#DejaVuSans-6f" x="1306.849609"/>
     <use xlink:href="#DejaVuSans-72" x="1368.03125"/>
     <use xlink:href="#DejaVuSans-69" x="1409.144531"/>
     <use xlink:href="#DejaVuSans-61" x="1436.927734"/>
     <use xlink:href="#DejaVuSans-6c" x="1498.207031"/>
     <use xlink:href="#DejaVuSans-20" x="1525.990234"/>
     <use xlink:href="#DejaVuSans-28" x="1557.777344"/>
     <use xlink:href="#DejaVuSans-53" x="1596.791016"/>
     <use xlink:href="#DejaVuSans-56" x="1660.267578"/>
     <use xlink:href="#DejaVuSans-4d" x="1728.675781"/>
     <use xlink:href="#DejaVuSans-29" x="1814.955078"/>
    </g>
   </g>
   <g id="legend_1">
    <g id="patch_7">
     <path d="M 155.778437 395.758125 
L 282.356562 395.758125 
Q 284.356562 395.758125 284.356562 393.758125 
L 284.356562 363.726875 
Q 284.356562 361.726875 282.356562 361.726875 
L 155.778437 361.726875 
Q 153.778437 361.726875 153.778437 363.726875 
L 153.778437 393.758125 
Q 153.778437 395.758125 155.778437 395.758125 
z
" style="fill: #ffffff; opacity: 0.8; stroke: #cccccc; stroke-linejoin: miter"/>
    </g>
    <g id="line2d_12">
     <path d="M 157.778437 371.500313 
L 167.778437 371.500313 
L 177.778437 371.500313 
" style="fill: none; stroke: #000000; stroke-width: 2; stroke-linecap: square"/>
    </g>
    <g id="text_10">
     <!-- Hiperplano Óptimo -->
     <g transform="translate(185.778437 375.000313) scale(0.1 -0.1)">
      <defs>
       <path id="DejaVuSans-48" d="M 628 4666 
L 1259 4666 
L 1259 2753 
L 3553 2753 
L 3553 4666 
L 4184 4666 
L 4184 0 
L 3553 0 
L 3553 2222 
L 1259 2222 
L 1259 0 
L 628 0 
L 628 4666 
z
" transform="scale(0.015625)"/>
       <path id="DejaVuSans-d3" d="M 2522 4238 
Q 1834 4238 1429 3725 
Q 1025 3213 1025 2328 
Q 1025 1447 1429 934 
Q 1834 422 2522 422 
Q 3209 422 3611 934 
Q 4013 1447 4013 2328 
Q 4013 3213 3611 3725 
Q 3209 4238 2522 4238 
z
M 2522 4750 
Q 3503 4750 4090 4092 
Q 4678 3434 4678 2328 
Q 4678 1225 4090 567 
Q 3503 -91 2522 -91 
Q 1538 -91 948 565 
Q 359 1222 359 2328 
Q 359 3434 948 4092 
Q 1538 4750 2522 4750 
z
M 2694 5935 
L 3272 5935 
L 2559 5110 
L 2081 5110 
L 2694 5935 
z
" transform="scale(0.015625)"/>
       <path id="DejaVuSans-6d" d="M 3328 2828 
Q 3544 3216 3844 3400 
Q 4144 3584 4550 3584 
Q 5097 3584 5394 3201 
Q 5691 2819 5691 2113 
L 5691 0 
L 5113 0 
L 5113 2094 
Q 5113 2597 4934 2840 
Q 4756 3084 4391 3084 
Q 3944 3084 3684 2787 
Q 3425 2491 3425 1978 
L 3425 0 
L 2847 0 
L 2847 2094 
Q 2847 2600 2669 2842 
Q 2491 3084 2119 3084 
Q 1678 3084 1418 2786 
Q 1159 2488 1159 1978 
L 1159 0 
L 581 0 
L 581 3500 
L 1159 3500 
L 1159 2956 
Q 1356 3278 1631 3431 
Q 1906 3584 2284 3584 
Q 2666 3584 2933 3390 
Q 3200 3197 3328 2828 
z
" transform="scale(0.015625)"/>
      </defs>
      <use xlink:href="#DejaVuSans-48"/>
      <use xlink:href="#DejaVuSans-69" x="75.195312"/>
      <use xlink:href="#DejaVuSans-70" x="102.978516"/>
      <use xlink:href="#DejaVuSans-65" x="166.455078"/>
      <use xlink:href="#DejaVuSans-72" x="227.978516"/>
      <use xlink:href="#DejaVuSans-70" x="269.091797"/>
      <use xlink:href="#DejaVuSans-6c" x="332.568359"/>
      <use xlink:href="#DejaVuSans-61" x="360.351562"/>
      <use xlink:href="#DejaVuSans-6e" x="421.630859"/>
      <use xlink:href="#DejaVuSans-6f" x="485.009766"/>
      <use xlink:href="#DejaVuSans-20" x="546.191406"/>
      <use xlink:href="#DejaVuSans-d3" x="577.978516"/>
      <use xlink:href="#DejaVuSans-70" x="656.689453"/>
      <use xlink:href="#DejaVuSans-74" x="720.166016"/>
      <use xlink:href="#DejaVuSans-69" x="759.375"/>
      <use xlink:href="#DejaVuSans-6d" x="787.158203"/>
      <use xlink:href="#DejaVuSans-6f" x="884.570312"/>
     </g>
    </g>
    <g id="line2d_13">
     <path d="M 157.778437 386.178438 
L 167.778437 386.178438 
L 177.778437 386.178438 
" style="fill: none; stroke-dasharray: 5.55,2.4; stroke-dashoffset: 0; stroke: #000000; stroke-width: 1.5"/>
    </g>
    <g id="text_11">
     <!-- Margen -->
     <g transform="translate(185.778437 389.678438) scale(0.1 -0.1)">
      <defs>
       <path id="DejaVuSans-67" d="M 2906 1791 
Q 2906 2416 2648 2759 
Q 2391 3103 1925 3103 
Q 1463 3103 1205 2759 
Q 947 2416 947 1791 
Q 947 1169 1205 825 
Q 1463 481 1925 481 
Q 2391 481 2648 825 
Q 2906 1169 2906 1791 
z
M 3481 434 
Q 3481 -459 3084 -895 
Q 2688 -1331 1869 -1331 
Q 1566 -1331 1297 -1286 
Q 1028 -1241 775 -1147 
L 775 -588 
Q 1028 -725 1275 -790 
Q 1522 -856 1778 -856 
Q 2344 -856 2625 -561 
Q 2906 -266 2906 331 
L 2906 616 
Q 2728 306 2450 153 
Q 2172 0 1784 0 
Q 1141 0 747 490 
Q 353 981 353 1791 
Q 353 2603 747 3093 
Q 1141 3584 1784 3584 
Q 2172 3584 2450 3431 
Q 2728 3278 2906 2969 
L 2906 3500 
L 3481 3500 
L 3481 434 
z
" transform="scale(0.015625)"/>
      </defs>
      <use xlink:href="#DejaVuSans-4d"/>
      <use xlink:href="#DejaVuSans-61" x="86.279297"/>
      <use xlink:href="#DejaVuSans-72" x="147.558594"/>
      <use xlink:href="#DejaVuSans-67" x="186.921875"/>
      <use xlink:href="#DejaVuSans-65" x="250.398438"/>
      <use xlink:href="#DejaVuSans-6e" x="311.921875"/>
     </g>
    </g>
   </g>
  </g>
 </g>
 <defs>
  <clipPath id="p4addb028e2">
   <rect x="20.5625" y="22.798125" width="397.01" height="377.96"/>
  </clipPath>
 </defs>
</svg>
