<?xml version="1.0" encoding="utf-8" standalone="no"?>
<!DOCTYPE svg PUBLIC "-//W3C//DTD SVG 1.1//EN"
  "http://www.w3.org/Graphics/SVG/1.1/DTD/svg11.dtd">
<svg xmlns:xlink="http://www.w3.org/1999/xlink" width="712.8pt" height="324.97054pt" viewBox="0 0 712.8 324.97054" xmlns="http://www.w3.org/2000/svg" version="1.1">
 <metadata>
  <rdf:RDF xmlns:dc="http://purl.org/dc/elements/1.1/" xmlns:cc="http://creativecommons.org/ns#" xmlns:rdf="http://www.w3.org/1999/02/22-rdf-syntax-ns#">
   <cc:Work>
    <dc:type rdf:resource="http://purl.org/dc/dcmitype/StillImage"/>
    <dc:date>2026-02-01T01:49:37.778622</dc:date>
    <dc:format>image/svg+xml</dc:format>
    <dc:creator>
     <cc:Agent>
      <dc:title>Matplotlib v3.8.4, https://matplotlib.org/</dc:title>
     </cc:Agent>
    </dc:creator>
   </cc:Work>
  </rdf:RDF>
 </metadata>
 <defs>
  <style type="text/css">*{stroke-linejoin: round; stroke-linecap: butt}</style>
 </defs>
 <g id="figure_1">
  <g id="patch_1">
   <path d="M 0 324.97054 
L 712.8 324.97054 
L 712.8 0 
L 0 0 
z
" style="fill: #ffffff"/>
  </g>
  <g id="axes_1">
   <g id="patch_2">
    <path d="M 38.945455 221.054489 
L 426.085144 221.054489 
L 426.085144 31.781761 
L 38.945455 31.781761 
z
" clip-path="url(#pbf31bffafa)" style="fill: url(#h2f00595a1a); stroke: #808080; stroke-linejoin: miter"/>
   </g>
   <g id="patch_3">
    <path d="M 441.570732 221.054489 
L 673.854545 221.054489 
L 673.854545 31.781761 
L 441.570732 31.781761 
z
" clip-path="url(#pbf31bffafa)" style="fill: #90ee90; stroke: #008000; stroke-linejoin: miter"/>
   </g>
   <g id="patch_4">
    <path d="M 453.184922 126.418125 
L 441.570732 131.149943 
L 441.570732 126.465443 
L 426.085144 126.465443 
L 426.085144 126.370807 
L 441.570732 126.370807 
L 441.570732 121.686307 
z
" clip-path="url(#pbf31bffafa)" style="fill: #1f77b4; stroke: #000000; stroke-linejoin: miter"/>
   </g>
   <g id="text_1">
    <!-- Modelo Pre-entrenado -->
    <g transform="translate(177.411393 115.220312) scale(0.1 -0.1)">
     <defs>
      <path id="DejaVuSans-4d" d="M 628 4666 
L 1569 4666 
L 2759 1491 
L 3956 4666 
L 4897 4666 
L 4897 0 
L 4281 0 
L 4281 4097 
L 3078 897 
L 2444 897 
L 1241 4097 
L 1241 0 
L 628 0 
L 628 4666 
z
" transform="scale(0.015625)"/>
      <path id="DejaVuSans-6f" d="M 1959 3097 
Q 1497 3097 1228 2736 
Q 959 2375 959 1747 
Q 959 1119 1226 758 
Q 1494 397 1959 397 
Q 2419 397 2687 759 
Q 2956 1122 2956 1747 
Q 2956 2369 2687 2733 
Q 2419 3097 1959 3097 
z
M 1959 3584 
Q 2709 3584 3137 3096 
Q 3566 2609 3566 1747 
Q 3566 888 3137 398 
Q 2709 -91 1959 -91 
Q 1206 -91 779 398 
Q 353 888 353 1747 
Q 353 2609 779 3096 
Q 1206 3584 1959 3584 
z
" transform="scale(0.015625)"/>
      <path id="DejaVuSans-64" d="M 2906 2969 
L 2906 4863 
L 3481 4863 
L 3481 0 
L 2906 0 
L 2906 525 
Q 2725 213 2448 61 
Q 2172 -91 1784 -91 
Q 1150 -91 751 415 
Q 353 922 353 1747 
Q 353 2572 751 3078 
Q 1150 3584 1784 3584 
Q 2172 3584 2448 3432 
Q 2725 3281 2906 2969 
z
M 947 1747 
Q 947 1113 1208 752 
Q 1469 391 1925 391 
Q 2381 391 2643 752 
Q 2906 1113 2906 1747 
Q 2906 2381 2643 2742 
Q 2381 3103 1925 3103 
Q 1469 3103 1208 2742 
Q 947 2381 947 1747 
z
" transform="scale(0.015625)"/>
      <path id="DejaVuSans-65" d="M 3597 1894 
L 3597 1613 
L 953 1613 
Q 991 1019 1311 708 
Q 1631 397 2203 397 
Q 2534 397 2845 478 
Q 3156 559 3463 722 
L 3463 178 
Q 3153 47 2828 -22 
Q 2503 -91 2169 -91 
Q 1331 -91 842 396 
Q 353 884 353 1716 
Q 353 2575 817 3079 
Q 1281 3584 2069 3584 
Q 2775 3584 3186 3129 
Q 3597 2675 3597 1894 
z
M 3022 2063 
Q 3016 2534 2758 2815 
Q 2500 3097 2075 3097 
Q 1594 3097 1305 2825 
Q 1016 2553 972 2059 
L 3022 2063 
z
" transform="scale(0.015625)"/>
      <path id="DejaVuSans-6c" d="M 603 4863 
L 1178 4863 
L 1178 0 
L 603 0 
L 603 4863 
z
" transform="scale(0.015625)"/>
      <path id="DejaVuSans-20" transform="scale(0.015625)"/>
      <path id="DejaVuSans-50" d="M 1259 4147 
L 1259 2394 
L 2053 2394 
Q 2494 2394 2734 2622 
Q 2975 2850 2975 3272 
Q 2975 3691 2734 3919 
Q 2494 4147 2053 4147 
L 1259 4147 
z
M 628 4666 
L 2053 4666 
Q 2838 4666 3239 4311 
Q 3641 3956 3641 3272 
Q 3641 2581 3239 2228 
Q 2838 1875 2053 1875 
L 1259 1875 
L 1259 0 
L 628 0 
L 628 4666 
z
" transform="scale(0.015625)"/>
      <path id="DejaVuSans-72" d="M 2631 2963 
Q 2534 3019 2420 3045 
Q 2306 3072 2169 3072 
Q 1681 3072 1420 2755 
Q 1159 2438 1159 1844 
L 1159 0 
L 581 0 
L 581 3500 
L 1159 3500 
L 1159 2956 
Q 1341 3275 1631 3429 
Q 1922 3584 2338 3584 
Q 2397 3584 2469 3576 
Q 2541 3569 2628 3553 
L 2631 2963 
z
" transform="scale(0.015625)"/>
      <path id="DejaVuSans-2d" d="M 313 2009 
L 1997 2009 
L 1997 1497 
L 313 1497 
L 313 2009 
z
" transform="scale(0.015625)"/>
      <path id="DejaVuSans-6e" d="M 3513 2113 
L 3513 0 
L 2938 0 
L 2938 2094 
Q 2938 2591 2744 2837 
Q 2550 3084 2163 3084 
Q 1697 3084 1428 2787 
Q 1159 2491 1159 1978 
L 1159 0 
L 581 0 
L 581 3500 
L 1159 3500 
L 1159 2956 
Q 1366 3272 1645 3428 
Q 1925 3584 2291 3584 
Q 2894 3584 3203 3211 
Q 3513 2838 3513 2113 
z
" transform="scale(0.015625)"/>
      <path id="DejaVuSans-74" d="M 1172 4494 
L 1172 3500 
L 2356 3500 
L 2356 3053 
L 1172 3053 
L 1172 1153 
Q 1172 725 1289 603 
Q 1406 481 1766 481 
L 2356 481 
L 2356 0 
L 1766 0 
Q 1100 0 847 248 
Q 594 497 594 1153 
L 594 3053 
L 172 3053 
L 172 3500 
L 594 3500 
L 594 4494 
L 1172 4494 
z
" transform="scale(0.015625)"/>
      <path id="DejaVuSans-61" d="M 2194 1759 
Q 1497 1759 1228 1600 
Q 959 1441 959 1056 
Q 959 750 1161 570 
Q 1363 391 1709 391 
Q 2188 391 2477 730 
Q 2766 1069 2766 1631 
L 2766 1759 
L 2194 1759 
z
M 3341 1997 
L 3341 0 
L 2766 0 
L 2766 531 
Q 2569 213 2275 61 
Q 1981 -91 1556 -91 
Q 1019 -91 701 211 
Q 384 513 384 1019 
Q 384 1609 779 1909 
Q 1175 2209 1959 2209 
L 2766 2209 
L 2766 2266 
Q 2766 2663 2505 2880 
Q 2244 3097 1772 3097 
Q 1472 3097 1187 3025 
Q 903 2953 641 2809 
L 641 3341 
Q 956 3463 1253 3523 
Q 1550 3584 1831 3584 
Q 2591 3584 2966 3190 
Q 3341 2797 3341 1997 
z
" transform="scale(0.015625)"/>
     </defs>
     <use xlink:href="#DejaVuSans-4d"/>
     <use xlink:href="#DejaVuSans-6f" x="86.279297"/>
     <use xlink:href="#DejaVuSans-64" x="147.460938"/>
     <use xlink:href="#DejaVuSans-65" x="210.9375"/>
     <use xlink:href="#DejaVuSans-6c" x="272.460938"/>
     <use xlink:href="#DejaVuSans-6f" x="300.244141"/>
     <use xlink:href="#DejaVuSans-20" x="361.425781"/>
     <use xlink:href="#DejaVuSans-50" x="393.212891"/>
     <use xlink:href="#DejaVuSans-72" x="451.765625"/>
     <use xlink:href="#DejaVuSans-65" x="490.628906"/>
     <use xlink:href="#DejaVuSans-2d" x="552.152344"/>
     <use xlink:href="#DejaVuSans-65" x="588.236328"/>
     <use xlink:href="#DejaVuSans-6e" x="649.759766"/>
     <use xlink:href="#DejaVuSans-74" x="713.138672"/>
     <use xlink:href="#DejaVuSans-72" x="752.347656"/>
     <use xlink:href="#DejaVuSans-65" x="791.210938"/>
     <use xlink:href="#DejaVuSans-6e" x="852.734375"/>
     <use xlink:href="#DejaVuSans-61" x="916.113281"/>
     <use xlink:href="#DejaVuSans-64" x="977.392578"/>
     <use xlink:href="#DejaVuSans-6f" x="1040.869141"/>
    </g>
    <!-- (Capas Congeladas / Frozen) -->
    <g transform="translate(161.112174 126.418125) scale(0.1 -0.1)">
     <defs>
      <path id="DejaVuSans-28" d="M 1984 4856 
Q 1566 4138 1362 3434 
Q 1159 2731 1159 2009 
Q 1159 1288 1364 580 
Q 1569 -128 1984 -844 
L 1484 -844 
Q 1016 -109 783 600 
Q 550 1309 550 2009 
Q 550 2706 781 3412 
Q 1013 4119 1484 4856 
L 1984 4856 
z
" transform="scale(0.015625)"/>
      <path id="DejaVuSans-43" d="M 4122 4306 
L 4122 3641 
Q 3803 3938 3442 4084 
Q 3081 4231 2675 4231 
Q 1875 4231 1450 3742 
Q 1025 3253 1025 2328 
Q 1025 1406 1450 917 
Q 1875 428 2675 428 
Q 3081 428 3442 575 
Q 3803 722 4122 1019 
L 4122 359 
Q 3791 134 3420 21 
Q 3050 -91 2638 -91 
Q 1578 -91 968 557 
Q 359 1206 359 2328 
Q 359 3453 968 4101 
Q 1578 4750 2638 4750 
Q 3056 4750 3426 4639 
Q 3797 4528 4122 4306 
z
" transform="scale(0.015625)"/>
      <path id="DejaVuSans-70" d="M 1159 525 
L 1159 -1331 
L 581 -1331 
L 581 3500 
L 1159 3500 
L 1159 2969 
Q 1341 3281 1617 3432 
Q 1894 3584 2278 3584 
Q 2916 3584 3314 3078 
Q 3713 2572 3713 1747 
Q 3713 922 3314 415 
Q 2916 -91 2278 -91 
Q 1894 -91 1617 61 
Q 1341 213 1159 525 
z
M 3116 1747 
Q 3116 2381 2855 2742 
Q 2594 3103 2138 3103 
Q 1681 3103 1420 2742 
Q 1159 2381 1159 1747 
Q 1159 1113 1420 752 
Q 1681 391 2138 391 
Q 2594 391 2855 752 
Q 3116 1113 3116 1747 
z
" transform="scale(0.015625)"/>
      <path id="DejaVuSans-73" d="M 2834 3397 
L 2834 2853 
Q 2591 2978 2328 3040 
Q 2066 3103 1784 3103 
Q 1356 3103 1142 2972 
Q 928 2841 928 2578 
Q 928 2378 1081 2264 
Q 1234 2150 1697 2047 
L 1894 2003 
Q 2506 1872 2764 1633 
Q 3022 1394 3022 966 
Q 3022 478 2636 193 
Q 2250 -91 1575 -91 
Q 1294 -91 989 -36 
Q 684 19 347 128 
L 347 722 
Q 666 556 975 473 
Q 1284 391 1588 391 
Q 1994 391 2212 530 
Q 2431 669 2431 922 
Q 2431 1156 2273 1281 
Q 2116 1406 1581 1522 
L 1381 1569 
Q 847 1681 609 1914 
Q 372 2147 372 2553 
Q 372 3047 722 3315 
Q 1072 3584 1716 3584 
Q 2034 3584 2315 3537 
Q 2597 3491 2834 3397 
z
" transform="scale(0.015625)"/>
      <path id="DejaVuSans-67" d="M 2906 1791 
Q 2906 2416 2648 2759 
Q 2391 3103 1925 3103 
Q 1463 3103 1205 2759 
Q 947 2416 947 1791 
Q 947 1169 1205 825 
Q 1463 481 1925 481 
Q 2391 481 2648 825 
Q 2906 1169 2906 1791 
z
M 3481 434 
Q 3481 -459 3084 -895 
Q 2688 -1331 1869 -1331 
Q 1566 -1331 1297 -1286 
Q 1028 -1241 775 -1147 
L 775 -588 
Q 1028 -725 1275 -790 
Q 1522 -856 1778 -856 
Q 2344 -856 2625 -561 
Q 2906 -266 2906 331 
L 2906 616 
Q 2728 306 2450 153 
Q 2172 0 1784 0 
Q 1141 0 747 490 
Q 353 981 353 1791 
Q 353 2603 747 3093 
Q 1141 3584 1784 3584 
Q 2172 3584 2450 3431 
Q 2728 3278 2906 2969 
L 2906 3500 
L 3481 3500 
L 3481 434 
z
" transform="scale(0.015625)"/>
      <path id="DejaVuSans-2f" d="M 1625 4666 
L 2156 4666 
L 531 -594 
L 0 -594 
L 1625 4666 
z
" transform="scale(0.015625)"/>
      <path id="DejaVuSans-46" d="M 628 4666 
L 3309 4666 
L 3309 4134 
L 1259 4134 
L 1259 2759 
L 3109 2759 
L 3109 2228 
L 1259 2228 
L 1259 0 
L 628 0 
L 628 4666 
z
" transform="scale(0.015625)"/>
      <path id="DejaVuSans-7a" d="M 353 3500 
L 3084 3500 
L 3084 2975 
L 922 459 
L 3084 459 
L 3084 0 
L 275 0 
L 275 525 
L 2438 3041 
L 353 3041 
L 353 3500 
z
" transform="scale(0.015625)"/>
      <path id="DejaVuSans-29" d="M 513 4856 
L 1013 4856 
Q 1481 4119 1714 3412 
Q 1947 2706 1947 2009 
Q 1947 1309 1714 600 
Q 1481 -109 1013 -844 
L 513 -844 
Q 928 -128 1133 580 
Q 1338 1288 1338 2009 
Q 1338 2731 1133 3434 
Q 928 4138 513 4856 
z
" transform="scale(0.015625)"/>
     </defs>
     <use xlink:href="#DejaVuSans-28"/>
     <use xlink:href="#DejaVuSans-43" x="39.013672"/>
     <use xlink:href="#DejaVuSans-61" x="108.837891"/>
     <use xlink:href="#DejaVuSans-70" x="170.117188"/>
     <use xlink:href="#DejaVuSans-61" x="233.59375"/>
     <use xlink:href="#DejaVuSans-73" x="294.873047"/>
     <use xlink:href="#DejaVuSans-20" x="346.972656"/>
     <use xlink:href="#DejaVuSans-43" x="378.759766"/>
     <use xlink:href="#DejaVuSans-6f" x="448.583984"/>
     <use xlink:href="#DejaVuSans-6e" x="509.765625"/>
     <use xlink:href="#DejaVuSans-67" x="573.144531"/>
     <use xlink:href="#DejaVuSans-65" x="636.621094"/>
     <use xlink:href="#DejaVuSans-6c" x="698.144531"/>
     <use xlink:href="#DejaVuSans-61" x="725.927734"/>
     <use xlink:href="#DejaVuSans-64" x="787.207031"/>
     <use xlink:href="#DejaVuSans-61" x="850.683594"/>
     <use xlink:href="#DejaVuSans-73" x="911.962891"/>
     <use xlink:href="#DejaVuSans-20" x="964.0625"/>
     <use xlink:href="#DejaVuSans-2f" x="995.849609"/>
     <use xlink:href="#DejaVuSans-20" x="1029.541016"/>
     <use xlink:href="#DejaVuSans-46" x="1061.328125"/>
     <use xlink:href="#DejaVuSans-72" x="1111.597656"/>
     <use xlink:href="#DejaVuSans-6f" x="1150.460938"/>
     <use xlink:href="#DejaVuSans-7a" x="1211.642578"/>
     <use xlink:href="#DejaVuSans-65" x="1264.132812"/>
     <use xlink:href="#DejaVuSans-6e" x="1325.65625"/>
     <use xlink:href="#DejaVuSans-29" x="1389.035156"/>
    </g>
   </g>
   <g id="patch_5">
    <path d="M 275.64947 304.365574 
Q 254.587205 268.306123 234.088836 233.212084 
" style="fill: none; stroke: #000000; stroke-linecap: round"/>
    <path d="M 234.379309 237.674776 
L 234.088836 233.212084 
L 237.833274 235.657321 
" style="fill: none; stroke: #000000; stroke-linecap: round"/>
   </g>
   <g id="text_2">
    <!-- Features Genéricos -->
    <g transform="translate(232.515299 315.690852) scale(0.1 -0.1)">
     <defs>
      <path id="DejaVuSans-75" d="M 544 1381 
L 544 3500 
L 1119 3500 
L 1119 1403 
Q 1119 906 1312 657 
Q 1506 409 1894 409 
Q 2359 409 2629 706 
Q 2900 1003 2900 1516 
L 2900 3500 
L 3475 3500 
L 3475 0 
L 2900 0 
L 2900 538 
Q 2691 219 2414 64 
Q 2138 -91 1772 -91 
Q 1169 -91 856 284 
Q 544 659 544 1381 
z
M 1991 3584 
L 1991 3584 
z
" transform="scale(0.015625)"/>
      <path id="DejaVuSans-47" d="M 3809 666 
L 3809 1919 
L 2778 1919 
L 2778 2438 
L 4434 2438 
L 4434 434 
Q 4069 175 3628 42 
Q 3188 -91 2688 -91 
Q 1594 -91 976 548 
Q 359 1188 359 2328 
Q 359 3472 976 4111 
Q 1594 4750 2688 4750 
Q 3144 4750 3555 4637 
Q 3966 4525 4313 4306 
L 4313 3634 
Q 3963 3931 3569 4081 
Q 3175 4231 2741 4231 
Q 1884 4231 1454 3753 
Q 1025 3275 1025 2328 
Q 1025 1384 1454 906 
Q 1884 428 2741 428 
Q 3075 428 3337 486 
Q 3600 544 3809 666 
z
" transform="scale(0.015625)"/>
      <path id="DejaVuSans-e9" d="M 3597 1894 
L 3597 1613 
L 953 1613 
Q 991 1019 1311 708 
Q 1631 397 2203 397 
Q 2534 397 2845 478 
Q 3156 559 3463 722 
L 3463 178 
Q 3153 47 2828 -22 
Q 2503 -91 2169 -91 
Q 1331 -91 842 396 
Q 353 884 353 1716 
Q 353 2575 817 3079 
Q 1281 3584 2069 3584 
Q 2775 3584 3186 3129 
Q 3597 2675 3597 1894 
z
M 3022 2063 
Q 3016 2534 2758 2815 
Q 2500 3097 2075 3097 
Q 1594 3097 1305 2825 
Q 1016 2553 972 2059 
L 3022 2063 
z
M 2469 5119 
L 3091 5119 
L 2072 3944 
L 1594 3944 
L 2469 5119 
z
" transform="scale(0.015625)"/>
      <path id="DejaVuSans-69" d="M 603 3500 
L 1178 3500 
L 1178 0 
L 603 0 
L 603 3500 
z
M 603 4863 
L 1178 4863 
L 1178 4134 
L 603 4134 
L 603 4863 
z
" transform="scale(0.015625)"/>
      <path id="DejaVuSans-63" d="M 3122 3366 
L 3122 2828 
Q 2878 2963 2633 3030 
Q 2388 3097 2138 3097 
Q 1578 3097 1268 2742 
Q 959 2388 959 1747 
Q 959 1106 1268 751 
Q 1578 397 2138 397 
Q 2388 397 2633 464 
Q 2878 531 3122 666 
L 3122 134 
Q 2881 22 2623 -34 
Q 2366 -91 2075 -91 
Q 1284 -91 818 406 
Q 353 903 353 1747 
Q 353 2603 823 3093 
Q 1294 3584 2113 3584 
Q 2378 3584 2631 3529 
Q 2884 3475 3122 3366 
z
" transform="scale(0.015625)"/>
     </defs>
     <use xlink:href="#DejaVuSans-46"/>
     <use xlink:href="#DejaVuSans-65" x="52.019531"/>
     <use xlink:href="#DejaVuSans-61" x="113.542969"/>
     <use xlink:href="#DejaVuSans-74" x="174.822266"/>
     <use xlink:href="#DejaVuSans-75" x="214.03125"/>
     <use xlink:href="#DejaVuSans-72" x="277.410156"/>
     <use xlink:href="#DejaVuSans-65" x="316.273438"/>
     <use xlink:href="#DejaVuSans-73" x="377.796875"/>
     <use xlink:href="#DejaVuSans-20" x="429.896484"/>
     <use xlink:href="#DejaVuSans-47" x="461.683594"/>
     <use xlink:href="#DejaVuSans-65" x="539.173828"/>
     <use xlink:href="#DejaVuSans-6e" x="600.697266"/>
     <use xlink:href="#DejaVuSans-e9" x="664.076172"/>
     <use xlink:href="#DejaVuSans-72" x="725.599609"/>
     <use xlink:href="#DejaVuSans-69" x="766.712891"/>
     <use xlink:href="#DejaVuSans-63" x="794.496094"/>
     <use xlink:href="#DejaVuSans-6f" x="849.476562"/>
     <use xlink:href="#DejaVuSans-73" x="910.658203"/>
    </g>
   </g>
   <g id="text_3">
    <!-- Nuevas Capas -->
    <g transform="translate(522.111076 115.220312) scale(0.1 -0.1)">
     <defs>
      <path id="DejaVuSans-4e" d="M 628 4666 
L 1478 4666 
L 3547 763 
L 3547 4666 
L 4159 4666 
L 4159 0 
L 3309 0 
L 1241 3903 
L 1241 0 
L 628 0 
L 628 4666 
z
" transform="scale(0.015625)"/>
      <path id="DejaVuSans-76" d="M 191 3500 
L 800 3500 
L 1894 563 
L 2988 3500 
L 3597 3500 
L 2284 0 
L 1503 0 
L 191 3500 
z
" transform="scale(0.015625)"/>
     </defs>
     <use xlink:href="#DejaVuSans-4e"/>
     <use xlink:href="#DejaVuSans-75" x="74.804688"/>
     <use xlink:href="#DejaVuSans-65" x="138.183594"/>
     <use xlink:href="#DejaVuSans-76" x="199.707031"/>
     <use xlink:href="#DejaVuSans-61" x="258.886719"/>
     <use xlink:href="#DejaVuSans-73" x="320.166016"/>
     <use xlink:href="#DejaVuSans-20" x="372.265625"/>
     <use xlink:href="#DejaVuSans-43" x="404.052734"/>
     <use xlink:href="#DejaVuSans-61" x="473.876953"/>
     <use xlink:href="#DejaVuSans-70" x="535.15625"/>
     <use xlink:href="#DejaVuSans-61" x="598.632812"/>
     <use xlink:href="#DejaVuSans-73" x="659.912109"/>
    </g>
    <!-- (Entrenables) -->
    <g transform="translate(524.02592 126.418125) scale(0.1 -0.1)">
     <defs>
      <path id="DejaVuSans-45" d="M 628 4666 
L 3578 4666 
L 3578 4134 
L 1259 4134 
L 1259 2753 
L 3481 2753 
L 3481 2222 
L 1259 2222 
L 1259 531 
L 3634 531 
L 3634 0 
L 628 0 
L 628 4666 
z
" transform="scale(0.015625)"/>
      <path id="DejaVuSans-62" d="M 3116 1747 
Q 3116 2381 2855 2742 
Q 2594 3103 2138 3103 
Q 1681 3103 1420 2742 
Q 1159 2381 1159 1747 
Q 1159 1113 1420 752 
Q 1681 391 2138 391 
Q 2594 391 2855 752 
Q 3116 1113 3116 1747 
z
M 1159 2969 
Q 1341 3281 1617 3432 
Q 1894 3584 2278 3584 
Q 2916 3584 3314 3078 
Q 3713 2572 3713 1747 
Q 3713 922 3314 415 
Q 2916 -91 2278 -91 
Q 1894 -91 1617 61 
Q 1341 213 1159 525 
L 1159 0 
L 581 0 
L 581 4863 
L 1159 4863 
L 1159 2969 
z
" transform="scale(0.015625)"/>
     </defs>
     <use xlink:href="#DejaVuSans-28"/>
     <use xlink:href="#DejaVuSans-45" x="39.013672"/>
     <use xlink:href="#DejaVuSans-6e" x="102.197266"/>
     <use xlink:href="#DejaVuSans-74" x="165.576172"/>
     <use xlink:href="#DejaVuSans-72" x="204.785156"/>
     <use xlink:href="#DejaVuSans-65" x="243.648438"/>
     <use xlink:href="#DejaVuSans-6e" x="305.171875"/>
     <use xlink:href="#DejaVuSans-61" x="368.550781"/>
     <use xlink:href="#DejaVuSans-62" x="429.830078"/>
     <use xlink:href="#DejaVuSans-6c" x="493.306641"/>
     <use xlink:href="#DejaVuSans-65" x="521.089844"/>
     <use xlink:href="#DejaVuSans-73" x="582.613281"/>
     <use xlink:href="#DejaVuSans-29" x="634.712891"/>
    </g>
   </g>
   <g id="text_4">
    <!-- Fine-Tuning -->
    <g style="fill: #008000" transform="translate(529.850139 257.174858) scale(0.1 -0.1)">
     <defs>
      <path id="DejaVuSans-54" d="M -19 4666 
L 3928 4666 
L 3928 4134 
L 2272 4134 
L 2272 0 
L 1638 0 
L 1638 4134 
L -19 4134 
L -19 4666 
z
" transform="scale(0.015625)"/>
     </defs>
     <use xlink:href="#DejaVuSans-46"/>
     <use xlink:href="#DejaVuSans-69" x="50.269531"/>
     <use xlink:href="#DejaVuSans-6e" x="78.052734"/>
     <use xlink:href="#DejaVuSans-65" x="141.431641"/>
     <use xlink:href="#DejaVuSans-2d" x="202.955078"/>
     <use xlink:href="#DejaVuSans-54" x="229.914062"/>
     <use xlink:href="#DejaVuSans-75" x="275.873047"/>
     <use xlink:href="#DejaVuSans-6e" x="339.251953"/>
     <use xlink:href="#DejaVuSans-69" x="402.630859"/>
     <use xlink:href="#DejaVuSans-6e" x="430.414062"/>
     <use xlink:href="#DejaVuSans-67" x="493.792969"/>
    </g>
    <!-- para tu tarea -->
    <g style="fill: #008000" transform="translate(524.939982 268.37267) scale(0.1 -0.1)">
     <use xlink:href="#DejaVuSans-70"/>
     <use xlink:href="#DejaVuSans-61" x="63.476562"/>
     <use xlink:href="#DejaVuSans-72" x="124.755859"/>
     <use xlink:href="#DejaVuSans-61" x="165.869141"/>
     <use xlink:href="#DejaVuSans-20" x="227.148438"/>
     <use xlink:href="#DejaVuSans-74" x="258.935547"/>
     <use xlink:href="#DejaVuSans-75" x="298.144531"/>
     <use xlink:href="#DejaVuSans-20" x="361.523438"/>
     <use xlink:href="#DejaVuSans-74" x="393.310547"/>
     <use xlink:href="#DejaVuSans-61" x="432.519531"/>
     <use xlink:href="#DejaVuSans-72" x="493.798828"/>
     <use xlink:href="#DejaVuSans-65" x="532.662109"/>
     <use xlink:href="#DejaVuSans-61" x="594.185547"/>
    </g>
   </g>
   <g id="text_5">
    <!-- Estrategia de Transfer Learning -->
    <g transform="translate(262.397812 16.318125) scale(0.12 -0.12)">
     <defs>
      <path id="DejaVuSans-66" d="M 2375 4863 
L 2375 4384 
L 1825 4384 
Q 1516 4384 1395 4259 
Q 1275 4134 1275 3809 
L 1275 3500 
L 2222 3500 
L 2222 3053 
L 1275 3053 
L 1275 0 
L 697 0 
L 697 3053 
L 147 3053 
L 147 3500 
L 697 3500 
L 697 3744 
Q 697 4328 969 4595 
Q 1241 4863 1831 4863 
L 2375 4863 
z
" transform="scale(0.015625)"/>
      <path id="DejaVuSans-4c" d="M 628 4666 
L 1259 4666 
L 1259 531 
L 3531 531 
L 3531 0 
L 628 0 
L 628 4666 
z
" transform="scale(0.015625)"/>
     </defs>
     <use xlink:href="#DejaVuSans-45"/>
     <use xlink:href="#DejaVuSans-73" x="63.183594"/>
     <use xlink:href="#DejaVuSans-74" x="115.283203"/>
     <use xlink:href="#DejaVuSans-72" x="154.492188"/>
     <use xlink:href="#DejaVuSans-61" x="195.605469"/>
     <use xlink:href="#DejaVuSans-74" x="256.884766"/>
     <use xlink:href="#DejaVuSans-65" x="296.09375"/>
     <use xlink:href="#DejaVuSans-67" x="357.617188"/>
     <use xlink:href="#DejaVuSans-69" x="421.09375"/>
     <use xlink:href="#DejaVuSans-61" x="448.876953"/>
     <use xlink:href="#DejaVuSans-20" x="510.15625"/>
     <use xlink:href="#DejaVuSans-64" x="541.943359"/>
     <use xlink:href="#DejaVuSans-65" x="605.419922"/>
     <use xlink:href="#DejaVuSans-20" x="666.943359"/>
     <use xlink:href="#DejaVuSans-54" x="698.730469"/>
     <use xlink:href="#DejaVuSans-72" x="745.064453"/>
     <use xlink:href="#DejaVuSans-61" x="786.177734"/>
     <use xlink:href="#DejaVuSans-6e" x="847.457031"/>
     <use xlink:href="#DejaVuSans-73" x="910.835938"/>
     <use xlink:href="#DejaVuSans-66" x="962.935547"/>
     <use xlink:href="#DejaVuSans-65" x="998.140625"/>
     <use xlink:href="#DejaVuSans-72" x="1059.664062"/>
     <use xlink:href="#DejaVuSans-20" x="1100.777344"/>
     <use xlink:href="#DejaVuSans-4c" x="1132.564453"/>
     <use xlink:href="#DejaVuSans-65" x="1186.527344"/>
     <use xlink:href="#DejaVuSans-61" x="1248.050781"/>
     <use xlink:href="#DejaVuSans-72" x="1309.330078"/>
     <use xlink:href="#DejaVuSans-6e" x="1348.693359"/>
     <use xlink:href="#DejaVuSans-69" x="1412.072266"/>
     <use xlink:href="#DejaVuSans-6e" x="1439.855469"/>
     <use xlink:href="#DejaVuSans-67" x="1503.234375"/>
    </g>
   </g>
  </g>
 </g>
 <defs>
  <clipPath id="pbf31bffafa">
   <rect x="7.2" y="22.318125" width="698.4" height="208.2"/>
  </clipPath>
 </defs>
 <defs>
  <pattern id="h2f00595a1a" patternUnits="userSpaceOnUse" x="0" y="0" width="72" height="72">
   <rect x="0" y="0" width="73" height="73" fill="#d3d3d3"/>
   <path d="M -36 36 
L 36 -36 
M -32 40 
L 40 -32 
M -28 44 
L 44 -28 
M -24 48 
L 48 -24 
M -20 52 
L 52 -20 
M -16 56 
L 56 -16 
M -12 60 
L 60 -12 
M -8 64 
L 64 -8 
M -4 68 
L 68 -4 
M 0 72 
L 72 0 
M 4 76 
L 76 4 
M 8 80 
L 80 8 
M 12 84 
L 84 12 
M 16 88 
L 88 16 
M 20 92 
L 92 20 
M 24 96 
L 96 24 
M 28 100 
L 100 28 
M 32 104 
L 104 32 
M 36 108 
L 108 36 
" style="fill: #808080; stroke: #808080; stroke-width: 1.0; stroke-linecap: butt; stroke-linejoin: miter"/>
  </pattern>
 </defs>
</svg>
