<?xml version="1.0" encoding="utf-8" standalone="no"?>
<!DOCTYPE svg PUBLIC "-//W3C//DTD SVG 1.1//EN"
  "http://www.w3.org/Graphics/SVG/1.1/DTD/svg11.dtd">
<svg xmlns:xlink="http://www.w3.org/1999/xlink" width="424.8pt" height="425.278125pt" viewBox="0 0 424.8 425.278125" xmlns="http://www.w3.org/2000/svg" version="1.1">
 <metadata>
  <rdf:RDF xmlns:dc="http://purl.org/dc/elements/1.1/" xmlns:cc="http://creativecommons.org/ns#" xmlns:rdf="http://www.w3.org/1999/02/22-rdf-syntax-ns#">
   <cc:Work>
    <dc:type rdf:resource="http://purl.org/dc/dcmitype/StillImage"/>
    <dc:date>2026-02-01T01:39:44.045357</dc:date>
    <dc:format>image/svg+xml</dc:format>
    <dc:creator>
     <cc:Agent>
      <dc:title>Matplotlib v3.8.4, https://matplotlib.org/</dc:title>
     </cc:Agent>
    </dc:creator>
   </cc:Work>
  </rdf:RDF>
 </metadata>
 <defs>
  <style type="text/css">*{stroke-linejoin: round; stroke-linecap: butt}</style>
 </defs>
 <g id="figure_1">
  <g id="patch_1">
   <path d="M 0 425.278125 
L 424.8 425.278125 
L 424.8 0 
L 0 0 
z
" style="fill: #ffffff"/>
  </g>
  <g id="axes_1">
   <g id="PathCollection_1">
    <defs>
     <path id="C0_0_0649f900b6" d="M 0 3 
C 0.795609 3 1.55874 2.683901 2.12132 2.12132 
C 2.683901 1.55874 3 0.795609 3 -0 
C 3 -0.795609 2.683901 -1.55874 2.12132 -2.12132 
C 1.55874 -2.683901 0.795609 -3 0 -3 
C -0.795609 -3 -1.55874 -2.683901 -2.12132 -2.12132 
C -2.683901 -1.55874 -3 -0.795609 -3 0 
C -3 0.795609 -2.683901 1.55874 -2.12132 2.12132 
C -1.55874 2.683901 -0.795609 3 0 3 
z
"/>
    </defs>
    <g clip-path="url(#pc591713473)">
     <use xlink:href="#C0_0_0649f900b6" x="186.256904" y="190.568128" style="fill: #440154; stroke: #440154"/>
    </g>
    <g clip-path="url(#pc591713473)">
     <use xlink:href="#C0_0_0649f900b6" x="187.32356" y="190.492473" style="fill: #440256; stroke: #440256"/>
    </g>
    <g clip-path="url(#pc591713473)">
     <use xlink:href="#C0_0_0649f900b6" x="188.377452" y="190.266113" style="fill: #450457; stroke: #450457"/>
    </g>
    <g clip-path="url(#pc591713473)">
     <use xlink:href="#C0_0_0649f900b6" x="189.4059" y="189.890854" style="fill: #450559; stroke: #450559"/>
    </g>
    <g clip-path="url(#pc591713473)">
     <use xlink:href="#C0_0_0649f900b6" x="190.396393" y="189.369692" style="fill: #46085c; stroke: #46085c"/>
    </g>
    <g clip-path="url(#pc591713473)">
     <use xlink:href="#C0_0_0649f900b6" x="191.336673" y="188.7068" style="fill: #460a5d; stroke: #460a5d"/>
    </g>
    <g clip-path="url(#pc591713473)">
     <use xlink:href="#C0_0_0649f900b6" x="192.214817" y="187.907499" style="fill: #460b5e; stroke: #460b5e"/>
    </g>
    <g clip-path="url(#pc591713473)">
     <use xlink:href="#C0_0_0649f900b6" x="193.019316" y="186.978226" style="fill: #470e61; stroke: #470e61"/>
    </g>
    <g clip-path="url(#pc591713473)">
     <use xlink:href="#C0_0_0649f900b6" x="193.739154" y="185.926498" style="fill: #471063; stroke: #471063"/>
    </g>
    <g clip-path="url(#pc591713473)">
     <use xlink:href="#C0_0_0649f900b6" x="194.363883" y="184.760864" style="fill: #471164; stroke: #471164"/>
    </g>
    <g clip-path="url(#pc591713473)">
     <use xlink:href="#C0_0_0649f900b6" x="194.883691" y="183.490857" style="fill: #471365; stroke: #471365"/>
    </g>
    <g clip-path="url(#pc591713473)">
     <use xlink:href="#C0_0_0649f900b6" x="195.289479" y="182.126932" style="fill: #481668; stroke: #481668"/>
    </g>
    <g clip-path="url(#pc591713473)">
     <use xlink:href="#C0_0_0649f900b6" x="195.572915" y="180.680406" style="fill: #481769; stroke: #481769"/>
    </g>
    <g clip-path="url(#pc591713473)">
     <use xlink:href="#C0_0_0649f900b6" x="195.726503" y="179.16339" style="fill: #48186a; stroke: #48186a"/>
    </g>
    <g clip-path="url(#pc591713473)">
     <use xlink:href="#C0_0_0649f900b6" x="195.743632" y="177.588711" style="fill: #481b6d; stroke: #481b6d"/>
    </g>
    <g clip-path="url(#pc591713473)">
     <use xlink:href="#C0_0_0649f900b6" x="195.618627" y="175.969841" style="fill: #481c6e; stroke: #481c6e"/>
    </g>
    <g clip-path="url(#pc591713473)">
     <use xlink:href="#C0_0_0649f900b6" x="195.346799" y="174.320808" style="fill: #481d6f; stroke: #481d6f"/>
    </g>
    <g clip-path="url(#pc591713473)">
     <use xlink:href="#C0_0_0649f900b6" x="194.924479" y="172.656112" style="fill: #481f70; stroke: #481f70"/>
    </g>
    <g clip-path="url(#pc591713473)">
     <use xlink:href="#C0_0_0649f900b6" x="194.349052" y="170.990638" style="fill: #482173; stroke: #482173"/>
    </g>
    <g clip-path="url(#pc591713473)">
     <use xlink:href="#C0_0_0649f900b6" x="193.618988" y="169.339561" style="fill: #482374; stroke: #482374"/>
    </g>
    <g clip-path="url(#pc591713473)">
     <use xlink:href="#C0_0_0649f900b6" x="192.733862" y="167.718251" style="fill: #482475; stroke: #482475"/>
    </g>
    <g clip-path="url(#pc591713473)">
     <use xlink:href="#C0_0_0649f900b6" x="191.694364" y="166.14218" style="fill: #482677; stroke: #482677"/>
    </g>
    <g clip-path="url(#pc591713473)">
     <use xlink:href="#C0_0_0649f900b6" x="190.502317" y="164.626822" style="fill: #482878; stroke: #482878"/>
    </g>
    <g clip-path="url(#pc591713473)">
     <use xlink:href="#C0_0_0649f900b6" x="189.16067" y="163.187555" style="fill: #482979; stroke: #482979"/>
    </g>
    <g clip-path="url(#pc591713473)">
     <use xlink:href="#C0_0_0649f900b6" x="187.6735" y="161.839561" style="fill: #472a7a; stroke: #472a7a"/>
    </g>
    <g clip-path="url(#pc591713473)">
     <use xlink:href="#C0_0_0649f900b6" x="186.045995" y="160.597731" style="fill: #472d7b; stroke: #472d7b"/>
    </g>
    <g clip-path="url(#pc591713473)">
     <use xlink:href="#C0_0_0649f900b6" x="184.284443" y="159.476566" style="fill: #472e7c; stroke: #472e7c"/>
    </g>
    <g clip-path="url(#pc591713473)">
     <use xlink:href="#C0_0_0649f900b6" x="182.396201" y="158.490081" style="fill: #472f7d; stroke: #472f7d"/>
    </g>
    <g clip-path="url(#pc591713473)">
     <use xlink:href="#C0_0_0649f900b6" x="180.389668" y="157.651712" style="fill: #46327e; stroke: #46327e"/>
    </g>
    <g clip-path="url(#pc591713473)">
     <use xlink:href="#C0_0_0649f900b6" x="178.274249" y="156.974223" style="fill: #46337f; stroke: #46337f"/>
    </g>
    <g clip-path="url(#pc591713473)">
     <use xlink:href="#C0_0_0649f900b6" x="176.060309" y="156.469618" style="fill: #463480; stroke: #463480"/>
    </g>
    <g clip-path="url(#pc591713473)">
     <use xlink:href="#C0_0_0649f900b6" x="173.759125" y="156.149058" style="fill: #453581; stroke: #453581"/>
    </g>
    <g clip-path="url(#pc591713473)">
     <use xlink:href="#C0_0_0649f900b6" x="171.382833" y="156.022777" style="fill: #453882; stroke: #453882"/>
    </g>
    <g clip-path="url(#pc591713473)">
     <use xlink:href="#C0_0_0649f900b6" x="168.944364" y="156.100009" style="fill: #443983; stroke: #443983"/>
    </g>
    <g clip-path="url(#pc591713473)">
     <use xlink:href="#C0_0_0649f900b6" x="166.457385" y="156.388911" style="fill: #443a83; stroke: #443a83"/>
    </g>
    <g clip-path="url(#pc591713473)">
     <use xlink:href="#C0_0_0649f900b6" x="163.936221" y="156.896504" style="fill: #433d84; stroke: #433d84"/>
    </g>
    <g clip-path="url(#pc591713473)">
     <use xlink:href="#C0_0_0649f900b6" x="161.395786" y="157.628606" style="fill: #433e85; stroke: #433e85"/>
    </g>
    <g clip-path="url(#pc591713473)">
     <use xlink:href="#C0_0_0649f900b6" x="158.851502" y="158.589781" style="fill: #423f85; stroke: #423f85"/>
    </g>
    <g clip-path="url(#pc591713473)">
     <use xlink:href="#C0_0_0649f900b6" x="156.319217" y="159.783291" style="fill: #424086; stroke: #424086"/>
    </g>
    <g clip-path="url(#pc591713473)">
     <use xlink:href="#C0_0_0649f900b6" x="153.815118" y="161.211052" style="fill: #414287; stroke: #414287"/>
    </g>
    <g clip-path="url(#pc591713473)">
     <use xlink:href="#C0_0_0649f900b6" x="151.355643" y="162.873604" style="fill: #414487; stroke: #414487"/>
    </g>
    <g clip-path="url(#pc591713473)">
     <use xlink:href="#C0_0_0649f900b6" x="148.957392" y="164.770079" style="fill: #404588; stroke: #404588"/>
    </g>
    <g clip-path="url(#pc591713473)">
     <use xlink:href="#C0_0_0649f900b6" x="146.637029" y="166.898185" style="fill: #3f4788; stroke: #3f4788"/>
    </g>
    <g clip-path="url(#pc591713473)">
     <use xlink:href="#C0_0_0649f900b6" x="144.41119" y="169.254195" style="fill: #3f4889; stroke: #3f4889"/>
    </g>
    <g clip-path="url(#pc591713473)">
     <use xlink:href="#C0_0_0649f900b6" x="142.296389" y="171.832938" style="fill: #3e4989; stroke: #3e4989"/>
    </g>
    <g clip-path="url(#pc591713473)">
     <use xlink:href="#C0_0_0649f900b6" x="140.308916" y="174.627809" style="fill: #3e4a89; stroke: #3e4a89"/>
    </g>
    <g clip-path="url(#pc591713473)">
     <use xlink:href="#C0_0_0649f900b6" x="138.464749" y="177.630776" style="fill: #3d4d8a; stroke: #3d4d8a"/>
    </g>
    <g clip-path="url(#pc591713473)">
     <use xlink:href="#C0_0_0649f900b6" x="136.77945" y="180.832401" style="fill: #3d4e8a; stroke: #3d4e8a"/>
    </g>
    <g clip-path="url(#pc591713473)">
     <use xlink:href="#C0_0_0649f900b6" x="135.268074" y="184.221869" style="fill: #3c4f8a; stroke: #3c4f8a"/>
    </g>
    <g clip-path="url(#pc591713473)">
     <use xlink:href="#C0_0_0649f900b6" x="133.945079" y="187.78702" style="fill: #3b518b; stroke: #3b518b"/>
    </g>
    <g clip-path="url(#pc591713473)">
     <use xlink:href="#C0_0_0649f900b6" x="132.824228" y="191.514397" style="fill: #3b528b; stroke: #3b528b"/>
    </g>
    <g clip-path="url(#pc591713473)">
     <use xlink:href="#C0_0_0649f900b6" x="131.918505" y="195.389292" style="fill: #3a538b; stroke: #3a538b"/>
    </g>
    <g clip-path="url(#pc591713473)">
     <use xlink:href="#C0_0_0649f900b6" x="131.240027" y="199.395805" style="fill: #3a548c; stroke: #3a548c"/>
    </g>
    <g clip-path="url(#pc591713473)">
     <use xlink:href="#C0_0_0649f900b6" x="130.799964" y="203.516914" style="fill: #39568c; stroke: #39568c"/>
    </g>
    <g clip-path="url(#pc591713473)">
     <use xlink:href="#C0_0_0649f900b6" x="130.608459" y="207.734538" style="fill: #38588c; stroke: #38588c"/>
    </g>
    <g clip-path="url(#pc591713473)">
     <use xlink:href="#C0_0_0649f900b6" x="130.674554" y="212.029623" style="fill: #38598c; stroke: #38598c"/>
    </g>
    <g clip-path="url(#pc591713473)">
     <use xlink:href="#C0_0_0649f900b6" x="131.006122" y="216.382227" style="fill: #375b8d; stroke: #375b8d"/>
    </g>
    <g clip-path="url(#pc591713473)">
     <use xlink:href="#C0_0_0649f900b6" x="131.609803" y="220.771605" style="fill: #365c8d; stroke: #365c8d"/>
    </g>
    <g clip-path="url(#pc591713473)">
     <use xlink:href="#C0_0_0649f900b6" x="132.490945" y="225.176309" style="fill: #365d8d; stroke: #365d8d"/>
    </g>
    <g clip-path="url(#pc591713473)">
     <use xlink:href="#C0_0_0649f900b6" x="133.653553" y="229.574291" style="fill: #355e8d; stroke: #355e8d"/>
    </g>
    <g clip-path="url(#pc591713473)">
     <use xlink:href="#C0_0_0649f900b6" x="135.100242" y="233.943005" style="fill: #34608d; stroke: #34608d"/>
    </g>
    <g clip-path="url(#pc591713473)">
     <use xlink:href="#C0_0_0649f900b6" x="136.832197" y="238.259518" style="fill: #34618d; stroke: #34618d"/>
    </g>
    <g clip-path="url(#pc591713473)">
     <use xlink:href="#C0_0_0649f900b6" x="138.849143" y="242.500626" style="fill: #33628d; stroke: #33628d"/>
    </g>
    <g clip-path="url(#pc591713473)">
     <use xlink:href="#C0_0_0649f900b6" x="141.149318" y="246.642966" style="fill: #32648e; stroke: #32648e"/>
    </g>
    <g clip-path="url(#pc591713473)">
     <use xlink:href="#C0_0_0649f900b6" x="143.729455" y="250.66314" style="fill: #32658e; stroke: #32658e"/>
    </g>
    <g clip-path="url(#pc591713473)">
     <use xlink:href="#C0_0_0649f900b6" x="146.584772" y="254.537829" style="fill: #31668e; stroke: #31668e"/>
    </g>
    <g clip-path="url(#pc591713473)">
     <use xlink:href="#C0_0_0649f900b6" x="149.708969" y="258.243923" style="fill: #31678e; stroke: #31678e"/>
    </g>
    <g clip-path="url(#pc591713473)">
     <use xlink:href="#C0_0_0649f900b6" x="153.094232" y="261.758637" style="fill: #30698e; stroke: #30698e"/>
    </g>
    <g clip-path="url(#pc591713473)">
     <use xlink:href="#C0_0_0649f900b6" x="156.731246" y="265.059637" style="fill: #306a8e; stroke: #306a8e"/>
    </g>
    <g clip-path="url(#pc591713473)">
     <use xlink:href="#C0_0_0649f900b6" x="160.609218" y="268.125162" style="fill: #2f6b8e; stroke: #2f6b8e"/>
    </g>
    <g clip-path="url(#pc591713473)">
     <use xlink:href="#C0_0_0649f900b6" x="164.715902" y="270.934144" style="fill: #2e6d8e; stroke: #2e6d8e"/>
    </g>
    <g clip-path="url(#pc591713473)">
     <use xlink:href="#C0_0_0649f900b6" x="169.037634" y="273.46633" style="fill: #2e6e8e; stroke: #2e6e8e"/>
    </g>
    <g clip-path="url(#pc591713473)">
     <use xlink:href="#C0_0_0649f900b6" x="173.559383" y="275.702393" style="fill: #2e6f8e; stroke: #2e6f8e"/>
    </g>
    <g clip-path="url(#pc591713473)">
     <use xlink:href="#C0_0_0649f900b6" x="178.264791" y="277.624053" style="fill: #2d708e; stroke: #2d708e"/>
    </g>
    <g clip-path="url(#pc591713473)">
     <use xlink:href="#C0_0_0649f900b6" x="183.136241" y="279.214181" style="fill: #2c718e; stroke: #2c718e"/>
    </g>
    <g clip-path="url(#pc591713473)">
     <use xlink:href="#C0_0_0649f900b6" x="188.154919" y="280.456911" style="fill: #2c728e; stroke: #2c728e"/>
    </g>
    <g clip-path="url(#pc591713473)">
     <use xlink:href="#C0_0_0649f900b6" x="193.300886" y="281.337735" style="fill: #2c738e; stroke: #2c738e"/>
    </g>
    <g clip-path="url(#pc591713473)">
     <use xlink:href="#C0_0_0649f900b6" x="198.553159" y="281.843603" style="fill: #2b758e; stroke: #2b758e"/>
    </g>
    <g clip-path="url(#pc591713473)">
     <use xlink:href="#C0_0_0649f900b6" x="203.889793" y="281.963013" style="fill: #2a768e; stroke: #2a768e"/>
    </g>
    <g clip-path="url(#pc591713473)">
     <use xlink:href="#C0_0_0649f900b6" x="209.287979" y="281.686092" style="fill: #2a778e; stroke: #2a778e"/>
    </g>
    <g clip-path="url(#pc591713473)">
     <use xlink:href="#C0_0_0649f900b6" x="214.724134" y="281.004675" style="fill: #2a788e; stroke: #2a788e"/>
    </g>
    <g clip-path="url(#pc591713473)">
     <use xlink:href="#C0_0_0649f900b6" x="220.174007" y="279.912376" style="fill: #297a8e; stroke: #297a8e"/>
    </g>
    <g clip-path="url(#pc591713473)">
     <use xlink:href="#C0_0_0649f900b6" x="225.612787" y="278.404644" style="fill: #297b8e; stroke: #297b8e"/>
    </g>
    <g clip-path="url(#pc591713473)">
     <use xlink:href="#C0_0_0649f900b6" x="231.015209" y="276.478824" style="fill: #287c8e; stroke: #287c8e"/>
    </g>
    <g clip-path="url(#pc591713473)">
     <use xlink:href="#C0_0_0649f900b6" x="236.355675" y="274.134195" style="fill: #277e8e; stroke: #277e8e"/>
    </g>
    <g clip-path="url(#pc591713473)">
     <use xlink:href="#C0_0_0649f900b6" x="241.60837" y="271.372013" style="fill: #277f8e; stroke: #277f8e"/>
    </g>
    <g clip-path="url(#pc591713473)">
     <use xlink:href="#C0_0_0649f900b6" x="246.747382" y="268.195533" style="fill: #27808e; stroke: #27808e"/>
    </g>
    <g clip-path="url(#pc591713473)">
     <use xlink:href="#C0_0_0649f900b6" x="251.746825" y="264.610029" style="fill: #26818e; stroke: #26818e"/>
    </g>
    <g clip-path="url(#pc591713473)">
     <use xlink:href="#C0_0_0649f900b6" x="256.580965" y="260.622805" style="fill: #26828e; stroke: #26828e"/>
    </g>
    <g clip-path="url(#pc591713473)">
     <use xlink:href="#C0_0_0649f900b6" x="261.224346" y="256.243188" style="fill: #25838e; stroke: #25838e"/>
    </g>
    <g clip-path="url(#pc591713473)">
     <use xlink:href="#C0_0_0649f900b6" x="265.651914" y="251.482521" style="fill: #25848e; stroke: #25848e"/>
    </g>
    <g clip-path="url(#pc591713473)">
     <use xlink:href="#C0_0_0649f900b6" x="269.839146" y="246.354143" style="fill: #24868e; stroke: #24868e"/>
    </g>
    <g clip-path="url(#pc591713473)">
     <use xlink:href="#C0_0_0649f900b6" x="273.762173" y="240.873355" style="fill: #24878e; stroke: #24878e"/>
    </g>
    <g clip-path="url(#pc591713473)">
     <use xlink:href="#C0_0_0649f900b6" x="277.397902" y="235.057381" style="fill: #23888e; stroke: #23888e"/>
    </g>
    <g clip-path="url(#pc591713473)">
     <use xlink:href="#C0_0_0649f900b6" x="280.724142" y="228.92532" style="fill: #23898e; stroke: #23898e"/>
    </g>
    <g clip-path="url(#pc591713473)">
     <use xlink:href="#C0_0_0649f900b6" x="283.719722" y="222.498081" style="fill: #228b8d; stroke: #228b8d"/>
    </g>
    <g clip-path="url(#pc591713473)">
     <use xlink:href="#C0_0_0649f900b6" x="286.364605" y="215.798319" style="fill: #228c8d; stroke: #228c8d"/>
    </g>
    <g clip-path="url(#pc591713473)">
     <use xlink:href="#C0_0_0649f900b6" x="288.640001" y="208.850354" style="fill: #228d8d; stroke: #228d8d"/>
    </g>
    <g clip-path="url(#pc591713473)">
     <use xlink:href="#C0_0_0649f900b6" x="290.528474" y="201.680084" style="fill: #218f8d; stroke: #218f8d"/>
    </g>
    <g clip-path="url(#pc591713473)">
     <use xlink:href="#C0_0_0649f900b6" x="292.014049" y="194.314887" style="fill: #21908d; stroke: #21908d"/>
    </g>
    <g clip-path="url(#pc591713473)">
     <use xlink:href="#C0_0_0649f900b6" x="293.082303" y="186.783522" style="fill: #21918c; stroke: #21918c"/>
    </g>
    <g clip-path="url(#pc591713473)">
     <use xlink:href="#C0_0_0649f900b6" x="293.720461" y="179.11601" style="fill: #20928c; stroke: #20928c"/>
    </g>
    <g clip-path="url(#pc591713473)">
     <use xlink:href="#C0_0_0649f900b6" x="293.91748" y="171.343518" style="fill: #20938c; stroke: #20938c"/>
    </g>
    <g clip-path="url(#pc591713473)">
     <use xlink:href="#C0_0_0649f900b6" x="293.664125" y="163.498235" style="fill: #1f948c; stroke: #1f948c"/>
    </g>
    <g clip-path="url(#pc591713473)">
     <use xlink:href="#C0_0_0649f900b6" x="292.953042" y="155.613231" style="fill: #1f958b; stroke: #1f958b"/>
    </g>
    <g clip-path="url(#pc591713473)">
     <use xlink:href="#C0_0_0649f900b6" x="291.778819" y="147.722328" style="fill: #1f978b; stroke: #1f978b"/>
    </g>
    <g clip-path="url(#pc591713473)">
     <use xlink:href="#C0_0_0649f900b6" x="290.138041" y="139.859946" style="fill: #1f988b; stroke: #1f988b"/>
    </g>
    <g clip-path="url(#pc591713473)">
     <use xlink:href="#C0_0_0649f900b6" x="288.029336" y="132.060961" style="fill: #1f998a; stroke: #1f998a"/>
    </g>
    <g clip-path="url(#pc591713473)">
     <use xlink:href="#C0_0_0649f900b6" x="285.453412" y="124.360549" style="fill: #1f9a8a; stroke: #1f9a8a"/>
    </g>
    <g clip-path="url(#pc591713473)">
     <use xlink:href="#C0_0_0649f900b6" x="282.413083" y="116.794029" style="fill: #1e9c89; stroke: #1e9c89"/>
    </g>
    <g clip-path="url(#pc591713473)">
     <use xlink:href="#C0_0_0649f900b6" x="278.913293" y="109.396705" style="fill: #1e9d89; stroke: #1e9d89"/>
    </g>
    <g clip-path="url(#pc591713473)">
     <use xlink:href="#C0_0_0649f900b6" x="274.961117" y="102.203705" style="fill: #1f9e89; stroke: #1f9e89"/>
    </g>
    <g clip-path="url(#pc591713473)">
     <use xlink:href="#C0_0_0649f900b6" x="270.565768" y="95.249817" style="fill: #1fa088; stroke: #1fa088"/>
    </g>
    <g clip-path="url(#pc591713473)">
     <use xlink:href="#C0_0_0649f900b6" x="265.738579" y="88.569328" style="fill: #1fa188; stroke: #1fa188"/>
    </g>
    <g clip-path="url(#pc591713473)">
     <use xlink:href="#C0_0_0649f900b6" x="260.492988" y="82.195858" style="fill: #1fa187; stroke: #1fa187"/>
    </g>
    <g clip-path="url(#pc591713473)">
     <use xlink:href="#C0_0_0649f900b6" x="254.844507" y="76.162202" style="fill: #1fa287; stroke: #1fa287"/>
    </g>
    <g clip-path="url(#pc591713473)">
     <use xlink:href="#C0_0_0649f900b6" x="248.810679" y="70.500167" style="fill: #20a486; stroke: #20a486"/>
    </g>
    <g clip-path="url(#pc591713473)">
     <use xlink:href="#C0_0_0649f900b6" x="242.411029" y="65.240415" style="fill: #21a585; stroke: #21a585"/>
    </g>
    <g clip-path="url(#pc591713473)">
     <use xlink:href="#C0_0_0649f900b6" x="235.667006" y="60.412309" style="fill: #21a685; stroke: #21a685"/>
    </g>
    <g clip-path="url(#pc591713473)">
     <use xlink:href="#C0_0_0649f900b6" x="228.601909" y="56.043763" style="fill: #22a884; stroke: #22a884"/>
    </g>
    <g clip-path="url(#pc591713473)">
     <use xlink:href="#C0_0_0649f900b6" x="221.240816" y="52.161094" style="fill: #23a983; stroke: #23a983"/>
    </g>
    <g clip-path="url(#pc591713473)">
     <use xlink:href="#C0_0_0649f900b6" x="213.610489" y="48.788883" style="fill: #24aa83; stroke: #24aa83"/>
    </g>
    <g clip-path="url(#pc591713473)">
     <use xlink:href="#C0_0_0649f900b6" x="205.739282" y="45.949842" style="fill: #25ab82; stroke: #25ab82"/>
    </g>
    <g clip-path="url(#pc591713473)">
     <use xlink:href="#C0_0_0649f900b6" x="197.657033" y="43.664685" style="fill: #26ad81; stroke: #26ad81"/>
    </g>
    <g clip-path="url(#pc591713473)">
     <use xlink:href="#C0_0_0649f900b6" x="189.394956" y="41.952006" style="fill: #27ad81; stroke: #27ad81"/>
    </g>
    <g clip-path="url(#pc591713473)">
     <use xlink:href="#C0_0_0649f900b6" x="180.985514" y="40.828172" style="fill: #28ae80; stroke: #28ae80"/>
    </g>
    <g clip-path="url(#pc591713473)">
     <use xlink:href="#C0_0_0649f900b6" x="172.462298" y="40.307216" style="fill: #2ab07f; stroke: #2ab07f"/>
    </g>
    <g clip-path="url(#pc591713473)">
     <use xlink:href="#C0_0_0649f900b6" x="163.859887" y="40.400743" style="fill: #2cb17e; stroke: #2cb17e"/>
    </g>
    <g clip-path="url(#pc591713473)">
     <use xlink:href="#C0_0_0649f900b6" x="155.213714" y="41.117848" style="fill: #2db27d; stroke: #2db27d"/>
    </g>
    <g clip-path="url(#pc591713473)">
     <use xlink:href="#C0_0_0649f900b6" x="146.559914" y="42.46504" style="fill: #2eb37c; stroke: #2eb37c"/>
    </g>
    <g clip-path="url(#pc591713473)">
     <use xlink:href="#C0_0_0649f900b6" x="137.935177" y="44.446179" style="fill: #31b57b; stroke: #31b57b"/>
    </g>
    <g clip-path="url(#pc591713473)">
     <use xlink:href="#C0_0_0649f900b6" x="129.376593" y="47.062427" style="fill: #32b67a; stroke: #32b67a"/>
    </g>
    <g clip-path="url(#pc591713473)">
     <use xlink:href="#C0_0_0649f900b6" x="120.92149" y="50.3122" style="fill: #34b679; stroke: #34b679"/>
    </g>
    <g clip-path="url(#pc591713473)">
     <use xlink:href="#C0_0_0649f900b6" x="112.607278" y="54.191146" style="fill: #37b878; stroke: #37b878"/>
    </g>
    <g clip-path="url(#pc591713473)">
     <use xlink:href="#C0_0_0649f900b6" x="104.471279" y="58.692128" style="fill: #38b977; stroke: #38b977"/>
    </g>
    <g clip-path="url(#pc591713473)">
     <use xlink:href="#C0_0_0649f900b6" x="96.550568" y="63.805211" style="fill: #3aba76; stroke: #3aba76"/>
    </g>
    <g clip-path="url(#pc591713473)">
     <use xlink:href="#C0_0_0649f900b6" x="88.881799" y="69.517682" style="fill: #3bbb75; stroke: #3bbb75"/>
    </g>
    <g clip-path="url(#pc591713473)">
     <use xlink:href="#C0_0_0649f900b6" x="81.501045" y="75.814059" style="fill: #3fbc73; stroke: #3fbc73"/>
    </g>
    <g clip-path="url(#pc591713473)">
     <use xlink:href="#C0_0_0649f900b6" x="74.443632" y="82.676129" style="fill: #40bd72; stroke: #40bd72"/>
    </g>
    <g clip-path="url(#pc591713473)">
     <use xlink:href="#C0_0_0649f900b6" x="67.74397" y="90.082996" style="fill: #42be71; stroke: #42be71"/>
    </g>
    <g clip-path="url(#pc591713473)">
     <use xlink:href="#C0_0_0649f900b6" x="61.435394" y="98.01113" style="fill: #46c06f; stroke: #46c06f"/>
    </g>
    <g clip-path="url(#pc591713473)">
     <use xlink:href="#C0_0_0649f900b6" x="55.550004" y="106.434445" style="fill: #48c16e; stroke: #48c16e"/>
    </g>
    <g clip-path="url(#pc591713473)">
     <use xlink:href="#C0_0_0649f900b6" x="50.118512" y="115.324378" style="fill: #4ac16d; stroke: #4ac16d"/>
    </g>
    <g clip-path="url(#pc591713473)">
     <use xlink:href="#C0_0_0649f900b6" x="45.170086" y="124.649981" style="fill: #4cc26c; stroke: #4cc26c"/>
    </g>
    <g clip-path="url(#pc591713473)">
     <use xlink:href="#C0_0_0649f900b6" x="40.732205" y="134.37803" style="fill: #50c46a; stroke: #50c46a"/>
    </g>
    <g clip-path="url(#pc591713473)">
     <use xlink:href="#C0_0_0649f900b6" x="36.830524" y="144.473138" style="fill: #52c569; stroke: #52c569"/>
    </g>
    <g clip-path="url(#pc591713473)">
     <use xlink:href="#C0_0_0649f900b6" x="33.48873" y="154.897887" style="fill: #54c568; stroke: #54c568"/>
    </g>
    <g clip-path="url(#pc591713473)">
     <use xlink:href="#C0_0_0649f900b6" x="30.728426" y="165.612961" style="fill: #58c765; stroke: #58c765"/>
    </g>
    <g clip-path="url(#pc591713473)">
     <use xlink:href="#C0_0_0649f900b6" x="28.569002" y="176.577299" style="fill: #5ac864; stroke: #5ac864"/>
    </g>
    <g clip-path="url(#pc591713473)">
     <use xlink:href="#C0_0_0649f900b6" x="27.027531" y="187.748245" style="fill: #5cc863; stroke: #5cc863"/>
    </g>
    <g clip-path="url(#pc591713473)">
     <use xlink:href="#C0_0_0649f900b6" x="26.118666" y="199.081722" style="fill: #5ec962; stroke: #5ec962"/>
    </g>
    <g clip-path="url(#pc591713473)">
     <use xlink:href="#C0_0_0649f900b6" x="25.854545" y="210.532401" style="fill: #63cb5f; stroke: #63cb5f"/>
    </g>
    <g clip-path="url(#pc591713473)">
     <use xlink:href="#C0_0_0649f900b6" x="26.244712" y="222.053882" style="fill: #65cb5e; stroke: #65cb5e"/>
    </g>
    <g clip-path="url(#pc591713473)">
     <use xlink:href="#C0_0_0649f900b6" x="27.296042" y="233.598884" style="fill: #67cc5c; stroke: #67cc5c"/>
    </g>
    <g clip-path="url(#pc591713473)">
     <use xlink:href="#C0_0_0649f900b6" x="29.012681" y="245.11944" style="fill: #6ccd5a; stroke: #6ccd5a"/>
    </g>
    <g clip-path="url(#pc591713473)">
     <use xlink:href="#C0_0_0649f900b6" x="31.396" y="256.567091" style="fill: #6ece58; stroke: #6ece58"/>
    </g>
    <g clip-path="url(#pc591713473)">
     <use xlink:href="#C0_0_0649f900b6" x="34.444549" y="267.893094" style="fill: #70cf57; stroke: #70cf57"/>
    </g>
    <g clip-path="url(#pc591713473)">
     <use xlink:href="#C0_0_0649f900b6" x="38.15404" y="279.048627" style="fill: #73d056; stroke: #73d056"/>
    </g>
    <g clip-path="url(#pc591713473)">
     <use xlink:href="#C0_0_0649f900b6" x="42.517324" y="289.985" style="fill: #77d153; stroke: #77d153"/>
    </g>
    <g clip-path="url(#pc591713473)">
     <use xlink:href="#C0_0_0649f900b6" x="47.524394" y="300.65386" style="fill: #7ad151; stroke: #7ad151"/>
    </g>
    <g clip-path="url(#pc591713473)">
     <use xlink:href="#C0_0_0649f900b6" x="53.162397" y="311.007411" style="fill: #7cd250; stroke: #7cd250"/>
    </g>
    <g clip-path="url(#pc591713473)">
     <use xlink:href="#C0_0_0649f900b6" x="59.415652" y="320.99862" style="fill: #81d34d; stroke: #81d34d"/>
    </g>
    <g clip-path="url(#pc591713473)">
     <use xlink:href="#C0_0_0649f900b6" x="66.265686" y="330.581429" style="fill: #84d44b; stroke: #84d44b"/>
    </g>
    <g clip-path="url(#pc591713473)">
     <use xlink:href="#C0_0_0649f900b6" x="73.691289" y="339.710964" style="fill: #86d549; stroke: #86d549"/>
    </g>
    <g clip-path="url(#pc591713473)">
     <use xlink:href="#C0_0_0649f900b6" x="81.668563" y="348.343738" style="fill: #89d548; stroke: #89d548"/>
    </g>
    <g clip-path="url(#pc591713473)">
     <use xlink:href="#C0_0_0649f900b6" x="90.171006" y="356.437856" style="fill: #8ed645; stroke: #8ed645"/>
    </g>
    <g clip-path="url(#pc591713473)">
     <use xlink:href="#C0_0_0649f900b6" x="99.169586" y="363.953212" style="fill: #90d743; stroke: #90d743"/>
    </g>
    <g clip-path="url(#pc591713473)">
     <use xlink:href="#C0_0_0649f900b6" x="108.632846" y="370.851674" style="fill: #93d741; stroke: #93d741"/>
    </g>
    <g clip-path="url(#pc591713473)">
     <use xlink:href="#C0_0_0649f900b6" x="118.527006" y="377.097278" style="fill: #98d83e; stroke: #98d83e"/>
    </g>
    <g clip-path="url(#pc591713473)">
     <use xlink:href="#C0_0_0649f900b6" x="128.816086" y="382.656396" style="fill: #9bd93c; stroke: #9bd93c"/>
    </g>
    <g clip-path="url(#pc591713473)">
     <use xlink:href="#C0_0_0649f900b6" x="139.462032" y="387.497912" style="fill: #9dd93b; stroke: #9dd93b"/>
    </g>
    <g clip-path="url(#pc591713473)">
     <use xlink:href="#C0_0_0649f900b6" x="150.424858" y="391.593378" style="fill: #a0da39; stroke: #a0da39"/>
    </g>
    <g clip-path="url(#pc591713473)">
     <use xlink:href="#C0_0_0649f900b6" x="161.662796" y="394.917163" style="fill: #a5db36; stroke: #a5db36"/>
    </g>
    <g clip-path="url(#pc591713473)">
     <use xlink:href="#C0_0_0649f900b6" x="173.132454" y="397.446596" style="fill: #a8db34; stroke: #a8db34"/>
    </g>
    <g clip-path="url(#pc591713473)">
     <use xlink:href="#C0_0_0649f900b6" x="184.788983" y="399.162091" style="fill: #aadc32; stroke: #aadc32"/>
    </g>
    <g clip-path="url(#pc591713473)">
     <use xlink:href="#C0_0_0649f900b6" x="196.586252" y="400.047263" style="fill: #b0dd2f; stroke: #b0dd2f"/>
    </g>
    <g clip-path="url(#pc591713473)">
     <use xlink:href="#C0_0_0649f900b6" x="208.477032" y="400.089034" style="fill: #b2dd2d; stroke: #b2dd2d"/>
    </g>
    <g clip-path="url(#pc591713473)">
     <use xlink:href="#C0_0_0649f900b6" x="220.413184" y="399.27772" style="fill: #b5de2b; stroke: #b5de2b"/>
    </g>
    <g clip-path="url(#pc591713473)">
     <use xlink:href="#C0_0_0649f900b6" x="232.345856" y="397.607109" style="fill: #b8de29; stroke: #b8de29"/>
    </g>
    <g clip-path="url(#pc591713473)">
     <use xlink:href="#C0_0_0649f900b6" x="244.225678" y="395.074523" style="fill: #bddf26; stroke: #bddf26"/>
    </g>
    <g clip-path="url(#pc591713473)">
     <use xlink:href="#C0_0_0649f900b6" x="256.002971" y="391.680867" style="fill: #c0df25; stroke: #c0df25"/>
    </g>
    <g clip-path="url(#pc591713473)">
     <use xlink:href="#C0_0_0649f900b6" x="267.627952" y="387.430662" style="fill: #c2df23; stroke: #c2df23"/>
    </g>
    <g clip-path="url(#pc591713473)">
     <use xlink:href="#C0_0_0649f900b6" x="279.050943" y="382.33206" style="fill: #c8e020; stroke: #c8e020"/>
    </g>
    <g clip-path="url(#pc591713473)">
     <use xlink:href="#C0_0_0649f900b6" x="290.222584" y="376.396849" style="fill: #cae11f; stroke: #cae11f"/>
    </g>
    <g clip-path="url(#pc591713473)">
     <use xlink:href="#C0_0_0649f900b6" x="301.094046" y="369.640442" style="fill: #cde11d; stroke: #cde11d"/>
    </g>
    <g clip-path="url(#pc591713473)">
     <use xlink:href="#C0_0_0649f900b6" x="311.617237" y="362.081844" style="fill: #d0e11c; stroke: #d0e11c"/>
    </g>
    <g clip-path="url(#pc591713473)">
     <use xlink:href="#C0_0_0649f900b6" x="321.745022" y="353.743611" style="fill: #d5e21a; stroke: #d5e21a"/>
    </g>
    <g clip-path="url(#pc591713473)">
     <use xlink:href="#C0_0_0649f900b6" x="331.431422" y="344.651787" style="fill: #d8e219; stroke: #d8e219"/>
    </g>
    <g clip-path="url(#pc591713473)">
     <use xlink:href="#C0_0_0649f900b6" x="340.631826" y="334.835835" style="fill: #dae319; stroke: #dae319"/>
    </g>
    <g clip-path="url(#pc591713473)">
     <use xlink:href="#C0_0_0649f900b6" x="349.303191" y="324.32854" style="fill: #dfe318; stroke: #dfe318"/>
    </g>
    <g clip-path="url(#pc591713473)">
     <use xlink:href="#C0_0_0649f900b6" x="357.404238" y="313.165906" style="fill: #e2e418; stroke: #e2e418"/>
    </g>
    <g clip-path="url(#pc591713473)">
     <use xlink:href="#C0_0_0649f900b6" x="364.895643" y="301.387039" style="fill: #e5e419; stroke: #e5e419"/>
    </g>
    <g clip-path="url(#pc591713473)">
     <use xlink:href="#C0_0_0649f900b6" x="371.740227" y="289.034006" style="fill: #e7e419; stroke: #e7e419"/>
    </g>
    <g clip-path="url(#pc591713473)">
     <use xlink:href="#C0_0_0649f900b6" x="377.903123" y="276.151694" style="fill: #ece51b; stroke: #ece51b"/>
    </g>
    <g clip-path="url(#pc591713473)">
     <use xlink:href="#C0_0_0649f900b6" x="383.351956" y="262.787643" style="fill: #efe51c; stroke: #efe51c"/>
    </g>
    <g clip-path="url(#pc591713473)">
     <use xlink:href="#C0_0_0649f900b6" x="388.056997" y="248.991875" style="fill: #f1e51d; stroke: #f1e51d"/>
    </g>
    <g clip-path="url(#pc591713473)">
     <use xlink:href="#C0_0_0649f900b6" x="391.991316" y="234.816705" style="fill: #f6e620; stroke: #f6e620"/>
    </g>
    <g clip-path="url(#pc591713473)">
     <use xlink:href="#C0_0_0649f900b6" x="395.130918" y="220.316546" style="fill: #f8e621; stroke: #f8e621"/>
    </g>
    <g clip-path="url(#pc591713473)">
     <use xlink:href="#C0_0_0649f900b6" x="397.454879" y="205.547697" style="fill: #fbe723; stroke: #fbe723"/>
    </g>
    <g clip-path="url(#pc591713473)">
     <use xlink:href="#C0_0_0649f900b6" x="398.945455" y="190.568128" style="fill: #fde725; stroke: #fde725"/>
    </g>
   </g>
   <g id="text_1">
    <!-- t-SNE: Desplegando Manifolds (Conceptual) -->
    <g transform="translate(81.32625 16.318125) scale(0.12 -0.12)">
     <defs>
      <path id="DejaVuSans-74" d="M 1172 4494 
L 1172 3500 
L 2356 3500 
L 2356 3053 
L 1172 3053 
L 1172 1153 
Q 1172 725 1289 603 
Q 1406 481 1766 481 
L 2356 481 
L 2356 0 
L 1766 0 
Q 1100 0 847 248 
Q 594 497 594 1153 
L 594 3053 
L 172 3053 
L 172 3500 
L 594 3500 
L 594 4494 
L 1172 4494 
z
" transform="scale(0.015625)"/>
      <path id="DejaVuSans-2d" d="M 313 2009 
L 1997 2009 
L 1997 1497 
L 313 1497 
L 313 2009 
z
" transform="scale(0.015625)"/>
      <path id="DejaVuSans-53" d="M 3425 4513 
L 3425 3897 
Q 3066 4069 2747 4153 
Q 2428 4238 2131 4238 
Q 1616 4238 1336 4038 
Q 1056 3838 1056 3469 
Q 1056 3159 1242 3001 
Q 1428 2844 1947 2747 
L 2328 2669 
Q 3034 2534 3370 2195 
Q 3706 1856 3706 1288 
Q 3706 609 3251 259 
Q 2797 -91 1919 -91 
Q 1588 -91 1214 -16 
Q 841 59 441 206 
L 441 856 
Q 825 641 1194 531 
Q 1563 422 1919 422 
Q 2459 422 2753 634 
Q 3047 847 3047 1241 
Q 3047 1584 2836 1778 
Q 2625 1972 2144 2069 
L 1759 2144 
Q 1053 2284 737 2584 
Q 422 2884 422 3419 
Q 422 4038 858 4394 
Q 1294 4750 2059 4750 
Q 2388 4750 2728 4690 
Q 3069 4631 3425 4513 
z
" transform="scale(0.015625)"/>
      <path id="DejaVuSans-4e" d="M 628 4666 
L 1478 4666 
L 3547 763 
L 3547 4666 
L 4159 4666 
L 4159 0 
L 3309 0 
L 1241 3903 
L 1241 0 
L 628 0 
L 628 4666 
z
" transform="scale(0.015625)"/>
      <path id="DejaVuSans-45" d="M 628 4666 
L 3578 4666 
L 3578 4134 
L 1259 4134 
L 1259 2753 
L 3481 2753 
L 3481 2222 
L 1259 2222 
L 1259 531 
L 3634 531 
L 3634 0 
L 628 0 
L 628 4666 
z
" transform="scale(0.015625)"/>
      <path id="DejaVuSans-3a" d="M 750 794 
L 1409 794 
L 1409 0 
L 750 0 
L 750 794 
z
M 750 3309 
L 1409 3309 
L 1409 2516 
L 750 2516 
L 750 3309 
z
" transform="scale(0.015625)"/>
      <path id="DejaVuSans-20" transform="scale(0.015625)"/>
      <path id="DejaVuSans-44" d="M 1259 4147 
L 1259 519 
L 2022 519 
Q 2988 519 3436 956 
Q 3884 1394 3884 2338 
Q 3884 3275 3436 3711 
Q 2988 4147 2022 4147 
L 1259 4147 
z
M 628 4666 
L 1925 4666 
Q 3281 4666 3915 4102 
Q 4550 3538 4550 2338 
Q 4550 1131 3912 565 
Q 3275 0 1925 0 
L 628 0 
L 628 4666 
z
" transform="scale(0.015625)"/>
      <path id="DejaVuSans-65" d="M 3597 1894 
L 3597 1613 
L 953 1613 
Q 991 1019 1311 708 
Q 1631 397 2203 397 
Q 2534 397 2845 478 
Q 3156 559 3463 722 
L 3463 178 
Q 3153 47 2828 -22 
Q 2503 -91 2169 -91 
Q 1331 -91 842 396 
Q 353 884 353 1716 
Q 353 2575 817 3079 
Q 1281 3584 2069 3584 
Q 2775 3584 3186 3129 
Q 3597 2675 3597 1894 
z
M 3022 2063 
Q 3016 2534 2758 2815 
Q 2500 3097 2075 3097 
Q 1594 3097 1305 2825 
Q 1016 2553 972 2059 
L 3022 2063 
z
" transform="scale(0.015625)"/>
      <path id="DejaVuSans-73" d="M 2834 3397 
L 2834 2853 
Q 2591 2978 2328 3040 
Q 2066 3103 1784 3103 
Q 1356 3103 1142 2972 
Q 928 2841 928 2578 
Q 928 2378 1081 2264 
Q 1234 2150 1697 2047 
L 1894 2003 
Q 2506 1872 2764 1633 
Q 3022 1394 3022 966 
Q 3022 478 2636 193 
Q 2250 -91 1575 -91 
Q 1294 -91 989 -36 
Q 684 19 347 128 
L 347 722 
Q 666 556 975 473 
Q 1284 391 1588 391 
Q 1994 391 2212 530 
Q 2431 669 2431 922 
Q 2431 1156 2273 1281 
Q 2116 1406 1581 1522 
L 1381 1569 
Q 847 1681 609 1914 
Q 372 2147 372 2553 
Q 372 3047 722 3315 
Q 1072 3584 1716 3584 
Q 2034 3584 2315 3537 
Q 2597 3491 2834 3397 
z
" transform="scale(0.015625)"/>
      <path id="DejaVuSans-70" d="M 1159 525 
L 1159 -1331 
L 581 -1331 
L 581 3500 
L 1159 3500 
L 1159 2969 
Q 1341 3281 1617 3432 
Q 1894 3584 2278 3584 
Q 2916 3584 3314 3078 
Q 3713 2572 3713 1747 
Q 3713 922 3314 415 
Q 2916 -91 2278 -91 
Q 1894 -91 1617 61 
Q 1341 213 1159 525 
z
M 3116 1747 
Q 3116 2381 2855 2742 
Q 2594 3103 2138 3103 
Q 1681 3103 1420 2742 
Q 1159 2381 1159 1747 
Q 1159 1113 1420 752 
Q 1681 391 2138 391 
Q 2594 391 2855 752 
Q 3116 1113 3116 1747 
z
" transform="scale(0.015625)"/>
      <path id="DejaVuSans-6c" d="M 603 4863 
L 1178 4863 
L 1178 0 
L 603 0 
L 603 4863 
z
" transform="scale(0.015625)"/>
      <path id="DejaVuSans-67" d="M 2906 1791 
Q 2906 2416 2648 2759 
Q 2391 3103 1925 3103 
Q 1463 3103 1205 2759 
Q 947 2416 947 1791 
Q 947 1169 1205 825 
Q 1463 481 1925 481 
Q 2391 481 2648 825 
Q 2906 1169 2906 1791 
z
M 3481 434 
Q 3481 -459 3084 -895 
Q 2688 -1331 1869 -1331 
Q 1566 -1331 1297 -1286 
Q 1028 -1241 775 -1147 
L 775 -588 
Q 1028 -725 1275 -790 
Q 1522 -856 1778 -856 
Q 2344 -856 2625 -561 
Q 2906 -266 2906 331 
L 2906 616 
Q 2728 306 2450 153 
Q 2172 0 1784 0 
Q 1141 0 747 490 
Q 353 981 353 1791 
Q 353 2603 747 3093 
Q 1141 3584 1784 3584 
Q 2172 3584 2450 3431 
Q 2728 3278 2906 2969 
L 2906 3500 
L 3481 3500 
L 3481 434 
z
" transform="scale(0.015625)"/>
      <path id="DejaVuSans-61" d="M 2194 1759 
Q 1497 1759 1228 1600 
Q 959 1441 959 1056 
Q 959 750 1161 570 
Q 1363 391 1709 391 
Q 2188 391 2477 730 
Q 2766 1069 2766 1631 
L 2766 1759 
L 2194 1759 
z
M 3341 1997 
L 3341 0 
L 2766 0 
L 2766 531 
Q 2569 213 2275 61 
Q 1981 -91 1556 -91 
Q 1019 -91 701 211 
Q 384 513 384 1019 
Q 384 1609 779 1909 
Q 1175 2209 1959 2209 
L 2766 2209 
L 2766 2266 
Q 2766 2663 2505 2880 
Q 2244 3097 1772 3097 
Q 1472 3097 1187 3025 
Q 903 2953 641 2809 
L 641 3341 
Q 956 3463 1253 3523 
Q 1550 3584 1831 3584 
Q 2591 3584 2966 3190 
Q 3341 2797 3341 1997 
z
" transform="scale(0.015625)"/>
      <path id="DejaVuSans-6e" d="M 3513 2113 
L 3513 0 
L 2938 0 
L 2938 2094 
Q 2938 2591 2744 2837 
Q 2550 3084 2163 3084 
Q 1697 3084 1428 2787 
Q 1159 2491 1159 1978 
L 1159 0 
L 581 0 
L 581 3500 
L 1159 3500 
L 1159 2956 
Q 1366 3272 1645 3428 
Q 1925 3584 2291 3584 
Q 2894 3584 3203 3211 
Q 3513 2838 3513 2113 
z
" transform="scale(0.015625)"/>
      <path id="DejaVuSans-64" d="M 2906 2969 
L 2906 4863 
L 3481 4863 
L 3481 0 
L 2906 0 
L 2906 525 
Q 2725 213 2448 61 
Q 2172 -91 1784 -91 
Q 1150 -91 751 415 
Q 353 922 353 1747 
Q 353 2572 751 3078 
Q 1150 3584 1784 3584 
Q 2172 3584 2448 3432 
Q 2725 3281 2906 2969 
z
M 947 1747 
Q 947 1113 1208 752 
Q 1469 391 1925 391 
Q 2381 391 2643 752 
Q 2906 1113 2906 1747 
Q 2906 2381 2643 2742 
Q 2381 3103 1925 3103 
Q 1469 3103 1208 2742 
Q 947 2381 947 1747 
z
" transform="scale(0.015625)"/>
      <path id="DejaVuSans-6f" d="M 1959 3097 
Q 1497 3097 1228 2736 
Q 959 2375 959 1747 
Q 959 1119 1226 758 
Q 1494 397 1959 397 
Q 2419 397 2687 759 
Q 2956 1122 2956 1747 
Q 2956 2369 2687 2733 
Q 2419 3097 1959 3097 
z
M 1959 3584 
Q 2709 3584 3137 3096 
Q 3566 2609 3566 1747 
Q 3566 888 3137 398 
Q 2709 -91 1959 -91 
Q 1206 -91 779 398 
Q 353 888 353 1747 
Q 353 2609 779 3096 
Q 1206 3584 1959 3584 
z
" transform="scale(0.015625)"/>
      <path id="DejaVuSans-4d" d="M 628 4666 
L 1569 4666 
L 2759 1491 
L 3956 4666 
L 4897 4666 
L 4897 0 
L 4281 0 
L 4281 4097 
L 3078 897 
L 2444 897 
L 1241 4097 
L 1241 0 
L 628 0 
L 628 4666 
z
" transform="scale(0.015625)"/>
      <path id="DejaVuSans-69" d="M 603 3500 
L 1178 3500 
L 1178 0 
L 603 0 
L 603 3500 
z
M 603 4863 
L 1178 4863 
L 1178 4134 
L 603 4134 
L 603 4863 
z
" transform="scale(0.015625)"/>
      <path id="DejaVuSans-66" d="M 2375 4863 
L 2375 4384 
L 1825 4384 
Q 1516 4384 1395 4259 
Q 1275 4134 1275 3809 
L 1275 3500 
L 2222 3500 
L 2222 3053 
L 1275 3053 
L 1275 0 
L 697 0 
L 697 3053 
L 147 3053 
L 147 3500 
L 697 3500 
L 697 3744 
Q 697 4328 969 4595 
Q 1241 4863 1831 4863 
L 2375 4863 
z
" transform="scale(0.015625)"/>
      <path id="DejaVuSans-28" d="M 1984 4856 
Q 1566 4138 1362 3434 
Q 1159 2731 1159 2009 
Q 1159 1288 1364 580 
Q 1569 -128 1984 -844 
L 1484 -844 
Q 1016 -109 783 600 
Q 550 1309 550 2009 
Q 550 2706 781 3412 
Q 1013 4119 1484 4856 
L 1984 4856 
z
" transform="scale(0.015625)"/>
      <path id="DejaVuSans-43" d="M 4122 4306 
L 4122 3641 
Q 3803 3938 3442 4084 
Q 3081 4231 2675 4231 
Q 1875 4231 1450 3742 
Q 1025 3253 1025 2328 
Q 1025 1406 1450 917 
Q 1875 428 2675 428 
Q 3081 428 3442 575 
Q 3803 722 4122 1019 
L 4122 359 
Q 3791 134 3420 21 
Q 3050 -91 2638 -91 
Q 1578 -91 968 557 
Q 359 1206 359 2328 
Q 359 3453 968 4101 
Q 1578 4750 2638 4750 
Q 3056 4750 3426 4639 
Q 3797 4528 4122 4306 
z
" transform="scale(0.015625)"/>
      <path id="DejaVuSans-63" d="M 3122 3366 
L 3122 2828 
Q 2878 2963 2633 3030 
Q 2388 3097 2138 3097 
Q 1578 3097 1268 2742 
Q 959 2388 959 1747 
Q 959 1106 1268 751 
Q 1578 397 2138 397 
Q 2388 397 2633 464 
Q 2878 531 3122 666 
L 3122 134 
Q 2881 22 2623 -34 
Q 2366 -91 2075 -91 
Q 1284 -91 818 406 
Q 353 903 353 1747 
Q 353 2603 823 3093 
Q 1294 3584 2113 3584 
Q 2378 3584 2631 3529 
Q 2884 3475 3122 3366 
z
" transform="scale(0.015625)"/>
      <path id="DejaVuSans-75" d="M 544 1381 
L 544 3500 
L 1119 3500 
L 1119 1403 
Q 1119 906 1312 657 
Q 1506 409 1894 409 
Q 2359 409 2629 706 
Q 2900 1003 2900 1516 
L 2900 3500 
L 3475 3500 
L 3475 0 
L 2900 0 
L 2900 538 
Q 2691 219 2414 64 
Q 2138 -91 1772 -91 
Q 1169 -91 856 284 
Q 544 659 544 1381 
z
M 1991 3584 
L 1991 3584 
z
" transform="scale(0.015625)"/>
      <path id="DejaVuSans-29" d="M 513 4856 
L 1013 4856 
Q 1481 4119 1714 3412 
Q 1947 2706 1947 2009 
Q 1947 1309 1714 600 
Q 1481 -109 1013 -844 
L 513 -844 
Q 928 -128 1133 580 
Q 1338 1288 1338 2009 
Q 1338 2731 1133 3434 
Q 928 4138 513 4856 
z
" transform="scale(0.015625)"/>
     </defs>
     <use xlink:href="#DejaVuSans-74"/>
     <use xlink:href="#DejaVuSans-2d" x="39.208984"/>
     <use xlink:href="#DejaVuSans-53" x="75.292969"/>
     <use xlink:href="#DejaVuSans-4e" x="138.769531"/>
     <use xlink:href="#DejaVuSans-45" x="213.574219"/>
     <use xlink:href="#DejaVuSans-3a" x="276.757812"/>
     <use xlink:href="#DejaVuSans-20" x="310.449219"/>
     <use xlink:href="#DejaVuSans-44" x="342.236328"/>
     <use xlink:href="#DejaVuSans-65" x="419.238281"/>
     <use xlink:href="#DejaVuSans-73" x="480.761719"/>
     <use xlink:href="#DejaVuSans-70" x="532.861328"/>
     <use xlink:href="#DejaVuSans-6c" x="596.337891"/>
     <use xlink:href="#DejaVuSans-65" x="624.121094"/>
     <use xlink:href="#DejaVuSans-67" x="685.644531"/>
     <use xlink:href="#DejaVuSans-61" x="749.121094"/>
     <use xlink:href="#DejaVuSans-6e" x="810.400391"/>
     <use xlink:href="#DejaVuSans-64" x="873.779297"/>
     <use xlink:href="#DejaVuSans-6f" x="937.255859"/>
     <use xlink:href="#DejaVuSans-20" x="998.4375"/>
     <use xlink:href="#DejaVuSans-4d" x="1030.224609"/>
     <use xlink:href="#DejaVuSans-61" x="1116.503906"/>
     <use xlink:href="#DejaVuSans-6e" x="1177.783203"/>
     <use xlink:href="#DejaVuSans-69" x="1241.162109"/>
     <use xlink:href="#DejaVuSans-66" x="1268.945312"/>
     <use xlink:href="#DejaVuSans-6f" x="1304.150391"/>
     <use xlink:href="#DejaVuSans-6c" x="1365.332031"/>
     <use xlink:href="#DejaVuSans-64" x="1393.115234"/>
     <use xlink:href="#DejaVuSans-73" x="1456.591797"/>
     <use xlink:href="#DejaVuSans-20" x="1508.691406"/>
     <use xlink:href="#DejaVuSans-28" x="1540.478516"/>
     <use xlink:href="#DejaVuSans-43" x="1579.492188"/>
     <use xlink:href="#DejaVuSans-6f" x="1649.316406"/>
     <use xlink:href="#DejaVuSans-6e" x="1710.498047"/>
     <use xlink:href="#DejaVuSans-63" x="1773.876953"/>
     <use xlink:href="#DejaVuSans-65" x="1828.857422"/>
     <use xlink:href="#DejaVuSans-70" x="1890.380859"/>
     <use xlink:href="#DejaVuSans-74" x="1953.857422"/>
     <use xlink:href="#DejaVuSans-75" x="1993.066406"/>
     <use xlink:href="#DejaVuSans-61" x="2056.445312"/>
     <use xlink:href="#DejaVuSans-6c" x="2117.724609"/>
     <use xlink:href="#DejaVuSans-29" x="2145.507812"/>
    </g>
   </g>
  </g>
 </g>
 <defs>
  <clipPath id="pc591713473">
   <rect x="7.2" y="22.318125" width="410.4" height="395.76"/>
  </clipPath>
 </defs>
</svg>
